<?xml version="1.0" standalone="no"?>
<!DOCTYPE svg PUBLIC "-//W3C//DTD SVG 1.1//EN" "http://www.w3.org/Graphics/SVG/1.1/DTD/svg11.dtd" >
<svg xmlns="http://www.w3.org/2000/svg">
<metadata></metadata>
<defs>
<font id="geniusmedium" horiz-adv-x="1146" >
<font-face units-per-em="2048" ascent="1536" descent="-512" />
<missing-glyph horiz-adv-x="614" />
<glyph horiz-adv-x="2048" />
<glyph horiz-adv-x="2048" />
<glyph unicode="&#xd;" horiz-adv-x="2048" />
<glyph unicode=" "  horiz-adv-x="614" />
<glyph unicode="&#x09;" horiz-adv-x="614" />
<glyph unicode="&#xa0;" horiz-adv-x="614" />
<glyph unicode="!" horiz-adv-x="585" d="M174 119q0 49 35 84t84 35t84 -35t35 -84t-35 -84t-84 -35t-84 35t-35 84zM199 356v1219h188v-1219h-188z" />
<glyph unicode="&#x22;" horiz-adv-x="704" d="M123 1575h176l-14 -485h-144zM406 1575h176l-15 -485h-143z" />
<glyph unicode="#" horiz-adv-x="1505" d="M123 457l31 182h262l47 281h-262l30 182h263l81 473h199l-82 -473h232l82 473h198l-82 -473h260l-30 -182h-260l-48 -281h261l-31 -182h-260l-78 -457h-199l78 457h-231l-78 -457h-199l78 457h-262zM614 639h232l47 281h-231z" />
<glyph unicode="$" horiz-adv-x="1333" d="M123 141l63 183q198 -122 383 -150v551q-424 113 -424 455q0 166 115 275t309 134v133h187v-131q160 -17 374 -98l-59 -178q-166 68 -315 86v-520q71 -22 132 -49t121.5 -67.5t103 -88t69.5 -111.5t28 -137q0 -26 -3 -53.5t-14 -70t-29 -80.5t-53 -79.5t-81 -73 t-117 -55.5t-157 -32v-134h-187v136q-213 20 -446 155zM336 1180q0 -173 233 -252v469q-65 -12 -113 -38t-72.5 -58t-36 -62.5t-11.5 -58.5zM756 176q119 18 191.5 82t72.5 170q0 159 -264 250v-502z" />
<glyph unicode="%" horiz-adv-x="1624" d="M123 1192q0 66 6 118t23 103.5t45 85.5t76 55t112 21t112 -21t76 -55t45 -85.5t23 -103.5t6 -118q0 -64 -6 -115t-23 -102t-45 -84.5t-76 -54.5t-112 -21t-112 21t-76 54.5t-45 84.5t-23 102t-6 115zM270 1192q0 -49 4.5 -86.5t16 -72t35.5 -53.5t59 -19t59 19t35.5 53.5 t16 72t4.5 86.5q0 51 -4.5 89.5t-16 74t-35.5 55t-59 19.5t-59 -19.5t-35.5 -55t-16 -74t-4.5 -89.5zM457 0l528 1575h191l-529 -1575h-190zM977 377q0 66 6 118t23 103.5t45 85.5t76 55t112 21t112 -21t76 -55t45 -85.5t23 -103.5t6 -118q0 -64 -6 -115t-23 -102t-45 -84.5 t-76 -54.5t-112 -21t-112 21t-76 54.5t-45 84.5t-23 102t-6 115zM1124 377q0 -49 4.5 -86.5t16 -72.5t35.5 -54t59 -19t59 19t35.5 54t16 72.5t4.5 86.5q0 51 -4.5 89t-16 74t-35.5 55t-59 19t-59 -19t-35.5 -55t-16 -74t-4.5 -89z" />
<glyph unicode="&#x26;" horiz-adv-x="1452" d="M123 385q0 61 19.5 117t59 108t78.5 91.5t99 91.5q-168 199 -168 426q0 108 54 191t136 124t174 41q87 0 166.5 -41t133 -124.5t53.5 -190.5q0 -127 -75.5 -234t-209.5 -217l307 -350q29 36 61.5 84t50.5 78l17 30l150 -112q-70 -114 -148 -217q40 -47 131 -149t117 -132 h-239l-140 150q-181 -170 -375 -170q-59 0 -118.5 12t-120.5 42.5t-107.5 75t-76 116t-29.5 159.5zM313 385q0 -100 75 -159.5t187 -59.5q119 0 250 117l-325 366q-92 -76 -139.5 -138t-47.5 -126zM406 1219q1 -89 30.5 -161.5t87.5 -148.5q215 166 215 310q0 64 -45.5 119 t-118.5 55q-75 0 -122 -54.5t-47 -119.5z" />
<glyph unicode="'" horiz-adv-x="421" d="M123 1575h176l-14 -485h-144z" />
<glyph unicode="(" horiz-adv-x="778" d="M123 604q0 601 434 991l119 -139q-367 -322 -367 -852q0 -528 367 -850l-119 -141q-434 390 -434 991z" />
<glyph unicode=")" horiz-adv-x="778" d="M102 -246q367 322 367 850q0 530 -367 852l119 139q434 -390 434 -991t-434 -991z" />
<glyph unicode="*" horiz-adv-x="1040" d="M123 1210l57 199l240 -94l-4 260h209l-4 -260l239 94l58 -199l-236 -69l147 -193l-163 -121l-146 207l-145 -207l-164 121l147 193z" />
<glyph unicode="+" horiz-adv-x="1228" d="M123 518v182h401v402h183v-402h399v-182h-399v-399h-183v399h-401z" />
<glyph unicode="," horiz-adv-x="563" d="M123 -242l119 492h198l-151 -492h-166z" />
<glyph unicode="-" horiz-adv-x="929" d="M123 518v182h684v-182h-684z" />
<glyph unicode="." horiz-adv-x="483" d="M123 119q0 49 34.5 84t84.5 35q49 0 83.5 -34.5t34.5 -84.5t-34.5 -84.5t-83.5 -34.5q-50 0 -84.5 35t-34.5 84z" />
<glyph unicode="/" horiz-adv-x="1089" d="M123 0l637 1575h207l-635 -1575h-209z" />
<glyph unicode="0" horiz-adv-x="1292" d="M123 786q0 94 5 172t19 164t38 152.5t64 128.5t94 102.5t131 65t173 24.5t173 -24.5t130.5 -65t93.5 -102.5t63.5 -128.5t37.5 -152.5t19 -164t5 -172t-5 -171.5t-19 -163t-37.5 -151.5t-63.5 -128t-93.5 -103t-131 -65t-172.5 -24q-96 0 -173 24t-131 65t-94 102.5 t-64 128t-38 152t-19 163t-5 171.5zM313 786q0 -73 3 -133t12 -126.5t23.5 -117.5t40 -99t60 -79t84 -50t111.5 -19t111.5 19t84 50t60 79t40 99t23.5 117.5t12 126.5t3 133q0 87 -4.5 156.5t-16.5 145.5t-35.5 131.5t-59.5 102.5t-91 71t-127 24t-127 -24t-91 -71 t-59.5 -102.5t-35.5 -131.5t-16.5 -145.5t-4.5 -156.5z" />
<glyph unicode="1" horiz-adv-x="704" d="M102 1223l318 321q25 31 69 31q37 0 65 -25t28 -73v-1477h-185v1251l-159 -159z" />
<glyph unicode="2" horiz-adv-x="1204" d="M123 82q0 39 31 78q366 391 624 749q37 59 60 119.5t28.5 127t-20.5 118.5q-33 64 -96 97.5t-138 33.5q-93 0 -171 -60.5t-113 -162.5l-181 30q60 182 186 281.5t279 99.5q121 0 234.5 -58t173.5 -173q119 -251 -88 -563q-139 -215 -492 -606h641v-193h-858 q-50 0 -75 22.5t-25 59.5z" />
<glyph unicode="3" horiz-adv-x="1179" d="M123 266l170 86q52 -87 123.5 -133.5t140.5 -46.5h37q113 0 191.5 75t78.5 185q0 123 -89.5 205t-211.5 82h-117v184h117q112 0 194.5 85.5t82.5 193.5q0 95 -72.5 161t-167.5 66h-37q-67 0 -131 -44t-110 -126l-168 86q79 135 183.5 203.5t225.5 68.5h37 q181 -4 306.5 -125t125.5 -290q0 -109 -49.5 -206t-130.5 -161q91 -64 148 -166t57 -217q0 -128 -66.5 -233t-172.5 -162t-224 -57h-39q-124 8 -236 78t-196 208z" />
<glyph unicode="4" horiz-adv-x="1329" d="M129 485q-17 57 14 105l658 923q47 62 112 62q47 0 81 -33t34 -90v-844h199v-186h-199v-422h-188v422h-604q-87 0 -107 63zM391 608h449v621z" />
<glyph unicode="5" horiz-adv-x="1177" d="M123 262l180 64q49 -82 120 -122t138 -40q139 0 221 90.5t82 226.5q0 152 -82.5 231t-228.5 79q-69 0 -138.5 -14.5t-109.5 -33.5q-55 -29 -99 -3.5t-44 89.5v646q0 37 31 68.5t69 31.5h725v-189h-633v-425q110 20 199 20q237 0 369.5 -133.5t132.5 -366.5 q0 -217 -139 -359t-355 -142q-78 0 -157 27t-157.5 93t-123.5 162z" />
<glyph unicode="6" horiz-adv-x="1210" d="M123 754q0 378 123 579q151 242 456 242q120 0 306 -64l-62 -170q-148 50 -244 50q-92 0 -170 -36t-122 -114q-37 -61 -62 -155.5t-33 -194.5q141 86 308 86q138 0 245.5 -69.5t163 -182t55.5 -246.5q0 -218 -122.5 -358.5t-331.5 -140.5q-96 0 -173 25t-129.5 65.5 t-91.5 103t-60.5 126t-34.5 146.5t-17 152.5t-4 155.5zM313 639q0 -78 7.5 -142.5t29 -128t56.5 -107t92.5 -70.5t134.5 -27q126 0 195 90t69 225q0 137 -77 226.5t-197 89.5q-99 0 -183.5 -46.5t-126.5 -109.5z" />
<glyph unicode="7" horiz-adv-x="1177" d="M123 1354v188h848q68 0 90 -41t8 -90l-604 -1411h-203l578 1354h-717z" />
<glyph unicode="8" horiz-adv-x="1212" d="M123 436q0 125 54 224t149 161q-162 138 -162 350q0 81 31.5 157.5t87.5 136t140.5 95t182.5 35.5q97 0 181.5 -35.5t141 -95t88.5 -136t32 -157.5q0 -106 -43.5 -196t-118.5 -154q95 -62 149 -160.5t54 -224.5q0 -128 -65 -232.5t-175.5 -163t-243.5 -58.5 q-204 0 -343.5 129.5t-139.5 324.5zM313 436q0 -111 81 -190.5t212 -79.5t212 79.5t81 190.5q0 122 -87.5 203.5t-205.5 81.5t-205.5 -81.5t-87.5 -203.5zM352 1171q0 -107 73.5 -187.5t180.5 -80.5t180.5 80.5t73.5 187.5q0 99 -72 170.5t-182 71.5q-108 0 -181 -71.5 t-73 -170.5z" />
<glyph unicode="9" horiz-adv-x="1189" d="M102 1075q0 142 53.5 255t158 179t243.5 66q96 0 173 -25t129.5 -65.5t91.5 -103t60.5 -126t34.5 -146.5t17 -152.5t4 -155.5q0 -379 -123 -580q-150 -241 -457 -241q-122 0 -305 63l62 170q145 -49 243 -49q92 0 170.5 35.5t122.5 113.5q77 129 94 351 q-141 -86 -307 -86q-138 0 -245.5 69t-163.5 181.5t-56 246.5zM293 1075q0 -137 77 -226t197 -89q99 0 183.5 46t126.5 109q0 78 -7.5 142.5t-29 128.5t-56.5 107.5t-92.5 70.5t-134.5 27q-126 0 -195 -90.5t-69 -225.5z" />
<glyph unicode=":" horiz-adv-x="483" d="M123 119q0 49 34.5 84t84.5 35q49 0 83.5 -34.5t34.5 -84.5t-34.5 -84.5t-83.5 -34.5q-50 0 -84.5 35t-34.5 84zM123 983q0 49 34.5 84t84.5 35q49 0 83.5 -34.5t34.5 -84.5t-34.5 -84.5t-83.5 -34.5q-50 0 -84.5 35t-34.5 84z" />
<glyph unicode=";" horiz-adv-x="536" d="M82 -246l119 492h198l-151 -492h-166zM176 983q0 49 35 84t84 35t84 -35t35 -84t-35 -84t-84 -35t-84 35t-35 84z" />
<glyph unicode="&#x3c;" horiz-adv-x="1189" d="M123 551q0 54 49 88l875 522v-219l-658 -391l658 -391v-219l-875 522q-49 34 -49 88z" />
<glyph unicode="=" horiz-adv-x="1089" d="M123 362v181h844v-181h-844zM123 684v182h844v-182h-844z" />
<glyph unicode="&#x3e;" horiz-adv-x="1189" d="M143 -59v219l658 391l-658 391v219l875 -522q49 -34 49 -88t-49 -88z" />
<glyph unicode="?" horiz-adv-x="1196" d="M123 1374q102 115 224 168t239 53q231 0 359 -110t128 -297q0 -62 -17.5 -117t-40 -91.5t-64.5 -75t-69.5 -58t-76.5 -51.5q-33 -24 -43 -31t-34.5 -27.5t-33 -32.5t-17.5 -31t-9 -38v-279h-189v279q0 56 15 100.5t52 82.5t60.5 56.5t77.5 54.5q7 5 10 7q33 22 47.5 32.5 t42 32t41 38.5t29.5 40.5t22.5 50.5t6.5 58q0 110 -79 166.5t-218 56.5q-179 0 -316 -143zM455 119q0 50 34.5 84.5t83.5 34.5t84 -35t35 -84t-35 -84t-84 -35t-83.5 34.5t-34.5 84.5z" />
<glyph unicode="@" horiz-adv-x="1859" d="M154 696q0 67 8 139t30.5 162t58 171t96.5 160.5t139.5 136.5t192.5 92.5t251 35.5t251 -35.5t192.5 -92.5t139.5 -136.5t96.5 -160.5t58 -171t30.5 -162t8 -139q0 -124 -29 -220t-76.5 -150t-99.5 -80.5t-106 -26.5q-78 0 -127 22t-88 66q-87 -94 -250 -94 q-82 0 -148.5 27t-111 72t-74 107.5t-42.5 131.5t-13 145t13 145.5t42.5 132.5t74 109t111 73.5t148.5 27.5t148.5 -27.5t111 -73.5t74 -109t42.5 -132.5t13 -145.5v-239q0 -24 20.5 -37.5t51.5 -13.5q19 0 39.5 15.5t40.5 47t32.5 90.5t12.5 137q0 52 -6.5 109t-24 128 t-45 136t-73.5 128t-105 109t-144.5 74.5t-187.5 28.5t-187 -28.5t-144 -74.5t-105 -109t-73 -128t-45 -136t-24 -128t-6 -109q0 -51 6 -107.5t24 -127.5t45 -135.5t73 -127t105 -108.5t144 -74t187 -28q95 0 178.5 15t135 37t89 43.5t53.5 36.5l15 15l102 -151 q-6 -7 -19 -19.5t-62.5 -43.5t-109 -55t-162.5 -43.5t-220 -19.5q-137 0 -251 35t-192.5 92t-139.5 136t-96.5 159.5t-58 170t-30.5 161.5t-8 139zM731 696q0 -58 10 -108.5t31.5 -95t62 -70t95.5 -25.5t95.5 25.5t62.5 70t32 95t10 108.5q0 59 -10 110t-32 96t-62.5 71 t-95.5 26t-95.5 -26t-62 -71t-31.5 -96t-10 -110z" />
<glyph unicode="A" horiz-adv-x="1499" d="M102 0q36 170 177 670t258 778q26 62 79.5 94.5t122.5 32.5h21q69 0 123 -32.5t80 -94.5q111 -263 255.5 -777.5t178.5 -670.5h-209q-55 226 -127 500h-623q-45 -164 -127 -500h-209zM489 686h519q-121 422 -211 668q-11 32 -41 32h-13q-30 0 -41 -32q-99 -272 -213 -668 z" />
<glyph unicode="B" horiz-adv-x="1288" d="M123 0v1575h600q206 0 325 -114t119 -318q0 -98 -40.5 -184.5t-104.5 -143.5q164 -114 164 -364q0 -209 -130.5 -330t-332.5 -121h-600zM313 188h410q11 0 25 1t41.5 7t52.5 15.5t53 29.5t48.5 46.5t34 69t13.5 94.5q0 70 -22.5 122t-53 78.5t-72 42t-68 18.5t-52.5 3 h-410v-527zM313 903h410q17 0 37.5 2t61 15.5t71 37t54.5 71.5t24 114q0 65 -20.5 113t-48.5 72t-66 38t-63 17t-50 3h-410v-483z" />
<glyph unicode="C" horiz-adv-x="1372" d="M123 788q0 162 39 304t115.5 256t203 180.5t289.5 66.5h31q266 0 448 -194l-143 -131q-125 137 -305 137h-31q-114 0 -202.5 -51.5t-141.5 -139.5t-80 -196.5t-27 -231.5t27 -232t80 -197t141.5 -139.5t202.5 -51.5h31q180 0 305 137l143 -131q-182 -194 -448 -194h-31 q-131 0 -239.5 44t-183 119.5t-126 179t-75 220.5t-23.5 245z" />
<glyph unicode="D" horiz-adv-x="1351" d="M123 0v1575h487q130 0 235.5 -44t175.5 -118t118 -176t69 -214t21 -235q0 -124 -21 -236.5t-69 -214t-118 -176t-175.5 -118t-235.5 -43.5h-487zM313 188h297q92 0 166 35.5t121.5 93.5t79 137t44.5 161.5t13 172.5q0 89 -13 171t-44.5 161t-79 137t-121.5 93.5 t-166 35.5h-297v-1198z" />
<glyph unicode="E" horiz-adv-x="1200" d="M123 240v1095q0 109 66 174.5t178 65.5h710v-189h-710q-54 0 -54 -51v-434h723v-188h-723v-473q0 -52 54 -52h710v-188h-710q-112 0 -178 66t-66 174z" />
<glyph unicode="F" horiz-adv-x="1200" d="M123 0v1335q0 109 66 174.5t178 65.5h710v-189h-710q-54 0 -54 -51v-434h723v-188h-723v-713h-190z" />
<glyph unicode="G" horiz-adv-x="1417" d="M123 788q0 162 39 304t115.5 256t203 180.5t289.5 66.5h31q266 0 448 -194l-143 -131q-125 137 -305 137h-31q-91 0 -166.5 -34t-127.5 -92.5t-88 -138t-52.5 -168.5t-16.5 -186q0 -123 27 -232t80.5 -197t142 -139.5t201.5 -51.5h31q122 0 211.5 56t89.5 126v342h-342 v189h534v-531q0 -108 -67.5 -193.5t-179.5 -131t-246 -45.5h-31q-131 0 -239.5 44t-183 119.5t-126 179t-75 220.5t-23.5 245z" />
<glyph unicode="H" horiz-adv-x="1327" d="M123 0v1575h190v-674h701v674h190v-1575h-190v713h-701v-713h-190z" />
<glyph unicode="I" horiz-adv-x="518" d="M164 0v1575h190v-1575h-190z" />
<glyph unicode="J" horiz-adv-x="1064" d="M102 121l115 151q135 -104 250 -104q132 0 208.5 79.5t76.5 207.5v1120h190v-1120q0 -217 -131.5 -346t-343.5 -129q-172 0 -365 141z" />
<glyph unicode="K" horiz-adv-x="1325" d="M123 0v1575h188v-653h51q143 133 221 208.5t196.5 199.5t219.5 245h244q-357 -420 -708 -748q295 -281 708 -827h-233q-328 430 -645 731h-54v-731h-188z" />
<glyph unicode="L" horiz-adv-x="1116" d="M123 240v1335h190v-1335q0 -52 47 -52h674v-188h-674q-107 0 -172 66t-65 174z" />
<glyph unicode="M" horiz-adv-x="1593" d="M123 0v1440q0 62 29 98.5t77 36.5q73 0 123 -90l445 -883l444 883q50 90 123 90q48 0 77 -36.5t29 -98.5v-1440h-190v1178l-401 -830q-26 -47 -82 -47t-82 47l-402 830v-1178h-190z" />
<glyph unicode="N" horiz-adv-x="1378" d="M123 0v1440q0 62 29 98.5t77 36.5q67 0 125 -88l711 -1102v1190h190v-1440q0 -62 -29 -98.5t-77 -36.5q-67 0 -125 88l-711 1102v-1190h-190z" />
<glyph unicode="O" horiz-adv-x="1540" d="M123 788q0 162 39 304t115.5 256t203 180.5t289.5 66.5t289.5 -66.5t203 -180.5t115.5 -256t39 -304q0 -128 -23.5 -245t-75 -220.5t-126 -179t-183 -119.5t-239.5 -44t-239.5 44t-183 119.5t-126 179t-75 220.5t-23.5 245zM319 788q0 -123 27 -232t80.5 -197t142 -139.5 t201.5 -51.5t201.5 51.5t142 139.5t80.5 197t27 232q0 97 -16.5 186t-52.5 168.5t-88 138t-127.5 92.5t-166.5 34t-166.5 -34t-127.5 -92.5t-88 -138t-52.5 -168.5t-16.5 -186z" />
<glyph unicode="P" horiz-adv-x="1273" d="M123 0v1575h579q211 0 340 -126.5t129 -322.5q0 -197 -129 -322.5t-340 -125.5h-389v-678h-190zM313 866h389q118 0 196.5 69.5t78.5 190.5q0 123 -78 191.5t-197 68.5h-389v-520z" />
<glyph unicode="Q" horiz-adv-x="1552" d="M123 788q0 162 39 304t115.5 256t203 180.5t289.5 66.5t290 -66.5t203.5 -180.5t115 -256t38.5 -304q0 -177 -49 -336t-143 -272q27 -39 86 -82t149 -69l-90 -156q-7 1 -19.5 3.5t-49 15.5t-71 31.5t-78 54t-77.5 79.5q-132 -77 -305 -77q-131 0 -239.5 44t-183 119.5 t-126 179t-75 220.5t-23.5 245zM319 788q0 -123 27 -232t80.5 -197t142 -139.5t201.5 -51.5t201.5 51.5t142 139.5t80.5 197t27 232q0 97 -16.5 186t-52.5 168.5t-88 138t-127.5 92.5t-166.5 34t-166.5 -34t-127.5 -92.5t-88 -138t-52.5 -168.5t-16.5 -186z" />
<glyph unicode="R" horiz-adv-x="1273" d="M123 0v1575h579q211 0 340 -126.5t129 -322.5q0 -120 -48.5 -213t-127.5 -151q154 -132 154 -344v-418h-193v418q0 120 -72.5 190t-181.5 70h-389v-678h-190zM313 866h389q118 0 196.5 69.5t78.5 190.5q0 123 -78 191.5t-197 68.5h-389v-520z" />
<glyph unicode="S" horiz-adv-x="1333" d="M123 141l63 183q257 -156 473 -156q100 0 180 27.5t130.5 87.5t50.5 145q0 49 -25.5 92t-64.5 72.5t-93 54t-102.5 39t-101.5 25.5q-81 17 -149 41.5t-132 63.5t-108.5 89t-71.5 120.5t-27 154.5q0 189 147 302t384 113q110 0 239.5 -33.5t214.5 -68.5l-59 -178 q-68 30 -181 61t-214 31q-77 0 -138.5 -16t-98 -40.5t-61 -56t-33.5 -60t-9 -54.5q0 -49 20 -91t52 -71t76 -52.5t88 -37.5t92 -23q66 -15 126 -35.5t123.5 -49.5t114.5 -67.5t92.5 -85.5t65 -108.5t24.5 -130.5q0 -28 -3.5 -58t-16.5 -76t-35 -86.5t-64.5 -83.5t-98 -73.5 t-142 -50.5t-191.5 -20q-259 3 -536 161z" />
<glyph unicode="T" horiz-adv-x="1345" d="M102 1386v189h1141v-189h-475v-1386h-190v1386h-476z" />
<glyph unicode="U" horiz-adv-x="1349" d="M123 651v924h190v-924q0 -99 17.5 -182t54.5 -152.5t103.5 -109t156.5 -39.5h60q90 0 156.5 39.5t103.5 109t54 152.5t17 182v924h191v-924q0 -108 -14.5 -201t-52 -181.5t-95 -151t-150 -100t-210.5 -37.5h-60q-118 0 -210.5 37.5t-150 100t-95 151t-52 181.5t-14.5 201 z" />
<glyph unicode="V" horiz-adv-x="1540" d="M123 1575h209q204 -841 391 -1354q11 -33 41 -33h12q30 0 41 33q187 513 391 1354h209q-24 -124 -174 -654.5t-260 -793.5q-26 -62 -80 -94.5t-123 -32.5h-20q-69 0 -123 32.5t-80 94.5q-117 278 -257 777t-177 671z" />
<glyph unicode="W" horiz-adv-x="1990" d="M123 1575h209q47 -315 152 -753.5t157 -620.5q21 87 107 436t126 510q16 57 49 82.5t72 25.5t72 -25.5t49 -82.5q0 -2 234 -946q52 182 157 620.5t152 753.5h209q-65 -525 -338 -1442q-20 -61 -66 -97t-114 -36q-65 0 -116.5 36t-66.5 97q-27 106 -50.5 200.5 t-40.5 161.5t-31 123t-23 92.5t-15 60.5t-9 37l-3 13q-15 -53 -172 -688q-15 -61 -66 -97t-116 -36q-68 0 -114 36t-66 97q-273 917 -338 1442z" />
<glyph unicode="X" horiz-adv-x="1486" d="M102 0q124 269 229.5 453t241.5 372q-246 330 -430 750h213q78 -174 185 -356.5t202 -300.5q95 118 202 300.5t185 356.5h213q-184 -420 -430 -750q136 -188 241.5 -372t229.5 -453h-210q-101 230 -230.5 442t-200.5 283q-70 -70 -199.5 -282.5t-230.5 -442.5h-211z" />
<glyph unicode="Y" horiz-adv-x="1458" d="M102 1575h209q118 -246 207.5 -413.5t194.5 -325.5q5 -9 16 -9t16 9q105 158 194.5 325.5t207.5 413.5h209q-273 -577 -471 -860q-24 -36 -60 -60v-655h-192v655q-36 24 -60 60q-204 292 -471 860z" />
<glyph unicode="Z" horiz-adv-x="1333" d="M147 209l820 1177h-807v189h917q44 0 74.5 -20t42.5 -50.5t9 -68t-23 -70.5l-820 -1178h850v-188h-960q-44 0 -74.5 20t-42.5 50.5t-9 68t23 70.5z" />
<glyph unicode="[" horiz-adv-x="690" d="M123 -473v2048h424v-184h-238v-1680h238v-184h-424z" />
<glyph unicode="\" horiz-adv-x="948" d="M123 1575h205l497 -1575h-202z" />
<glyph unicode="]" horiz-adv-x="690" d="M143 -289h238v1680h-238v184h424v-2048h-424v184z" />
<glyph unicode="^" horiz-adv-x="1142" d="M123 909l371 619q28 47 77 47q50 0 78 -47l371 -619h-209l-240 391l-239 -391h-209z" />
<glyph unicode="_" horiz-adv-x="1458" d="M123 -289h1212v-184h-1212v184z" />
<glyph unicode="`" horiz-adv-x="792" d="M123 1575h235l312 -346h-197z" />
<glyph unicode="a" horiz-adv-x="1056" d="M102 358q0 66 25 131.5t73.5 123.5t131.5 94t188 36q59 0 116 -10.5t84 -21.5l28 -11q-10 118 -55 176t-156 58q-63 0 -136.5 -23t-132.5 -69l-108 143q165 129 377 129q64 0 116.5 -12t91 -30t69 -49t50 -60t33.5 -73t21 -77t11 -82.5t4.5 -80t0.5 -79.5v-571h-184v129 q-41 -73 -107 -107t-143 -34q-105 0 -184 30.5t-124.5 83.5t-67.5 117.5t-22 138.5zM289 360q0 -36 10.5 -68t33 -61t65.5 -46t102 -17q106 0 175 88t75 270q-98 43 -230 43q-62 0 -109 -20.5t-72.5 -53.5t-37.5 -67.5t-12 -67.5z" />
<glyph unicode="b" d="M123 0v1575h184v-604q38 58 112 100.5t165 42.5q119 0 209.5 -47t144 -127.5t80 -178.5t26.5 -210t-26.5 -210t-80 -178.5t-144 -127.5t-209.5 -47q-91 0 -165 42t-112 99v-129h-184zM307 551q0 -72 16 -138t47.5 -122t86.5 -89.5t127 -33.5q73 0 128.5 33.5t86.5 89.5 t46 121.5t15 138.5t-15 138.5t-46 121.5t-86.5 89.5t-128.5 33.5q-72 0 -127 -33.5t-86.5 -89.5t-47.5 -122t-16 -138z" />
<glyph unicode="c" horiz-adv-x="1040" d="M102 551q0 88 16.5 169t52.5 153.5t88.5 125.5t130.5 84t173 31h29q180 0 346 -166l-129 -129q-117 115 -217 115h-29q-72 0 -127 -33.5t-86.5 -89.5t-47 -122t-15.5 -138t15.5 -138t47 -122t86.5 -89.5t127 -33.5h29q100 0 217 115l129 -129q-166 -166 -346 -166h-29 q-95 0 -173 31t-130.5 84t-88.5 125.5t-52.5 153.5t-16.5 169z" />
<glyph unicode="d" d="M102 551q0 88 16 168.5t52 153.5t88.5 126t131 84t173.5 31q91 0 165 -42.5t112 -100.5v604h184v-1575h-184v129q-38 -57 -112 -99t-165 -42q-95 0 -173.5 31t-131 84t-88.5 126t-52 153.5t-16 168.5zM287 551q0 -73 15 -138.5t46 -121.5t86.5 -89.5t128.5 -33.5 q72 0 127 33.5t86.5 89.5t47.5 122t16 138t-16 138t-47.5 122t-86.5 89.5t-127 33.5q-73 0 -128.5 -33.5t-86.5 -89.5t-46 -121.5t-15 -138.5z" />
<glyph unicode="e" horiz-adv-x="1083" d="M102 551q0 89 14.5 169t47.5 153t83 125.5t126.5 84t171.5 31.5q99 0 177.5 -34.5t125.5 -87t78.5 -120t43 -127.5t11.5 -116q0 -95 -43.5 -136.5t-138.5 -41.5h-502q5 -57 23.5 -106t53 -89.5t91 -64t129.5 -23.5q140 0 276 86l95 -145q-169 -121 -371 -121 q-110 0 -196 31.5t-140.5 83.5t-90.5 126t-50.5 153t-14.5 169zM295 631h500q-5 62 -21 114t-44.5 95.5t-76 68.5t-108.5 25t-108 -25t-76 -68.5t-45 -96t-21 -113.5z" />
<glyph unicode="f" horiz-adv-x="831" d="M102 924v178h185v164q0 138 76 223.5t219 85.5h147v-180h-147q-54 0 -82.5 -33.5t-28.5 -95.5v-164h258v-178h-258v-924h-184v924h-185z" />
<glyph unicode="g" d="M102 551q0 88 16 168.5t52 153.5t88.5 126t131 84t173.5 31q91 0 165 -42t112 -99v129h184v-1118q-5 -208 -125 -332.5t-324 -124.5h-28q-167 0 -371 98l82 162q156 -82 289 -82h28q119 0 192 80.5t73 198.5v147q-38 -58 -112 -100.5t-165 -42.5q-95 0 -173.5 31t-131 84 t-88.5 126t-52 153.5t-16 168.5zM287 551q0 -73 15 -138.5t46 -121.5t86.5 -89.5t128.5 -33.5q72 0 127 33.5t86.5 89.5t47.5 122t16 138t-16 138t-47.5 122t-86.5 89.5t-127 33.5q-73 0 -128.5 -33.5t-86.5 -89.5t-46 -121.5t-15 -138.5z" />
<glyph unicode="h" horiz-adv-x="1110" d="M123 0v1575h184v-604q34 54 98.5 98.5t159.5 44.5q92 0 167 -31t125.5 -83.5t85 -125t50 -153t15.5 -168.5v-553h-183v553q0 73 -14 138t-43 121t-81.5 89t-121.5 33t-121 -33t-81 -89t-42.5 -121t-13.5 -138v-553h-184z" />
<glyph unicode="i" horiz-adv-x="475" d="M123 1339q0 47 34 81t81 34t80.5 -34t33.5 -81t-33.5 -80.5t-80.5 -33.5t-81 33.5t-34 80.5zM145 0v1102h185v-1102h-185z" />
<glyph unicode="j" horiz-adv-x="583" d="M-41 -287q295 9 295 260v1129h184v-1129q0 -95 -30 -172t-78.5 -127t-112 -84t-128 -48.5t-130.5 -14.5v186zM231 1339q0 47 34 81t81 34t81 -34t34 -81t-34 -80.5t-81 -33.5t-81 33.5t-34 80.5z" />
<glyph unicode="k" horiz-adv-x="1116" d="M123 0v1575h184v-895q83 61 224.5 199t213.5 223h256q-104 -117 -257 -269t-261 -247q219 -200 551 -586h-248q-68 85 -234 257t-245 239v-496h-184z" />
<glyph unicode="l" horiz-adv-x="512" d="M164 0v1575h184v-1575h-184z" />
<glyph unicode="m" horiz-adv-x="1568" d="M123 0v899q4 9 11.5 23.5t38 51.5t68.5 65.5t104.5 51.5t143.5 23q169 0 279 -110q48 46 122.5 78t168.5 32q81 0 147.5 -24.5t110.5 -65t73.5 -95t42.5 -113.5t13 -122v-694h-184v694q0 98 -51.5 169t-151.5 71q-78 0 -126.5 -37.5t-68.5 -83.5q13 -49 13 -119v-694 h-185v694q0 98 -51.5 169t-151.5 71q-38 0 -70.5 -10t-52 -24.5t-34 -29t-20.5 -24.5l-5 -10v-836h-184z" />
<glyph unicode="n" horiz-adv-x="1077" d="M123 0v899q6 9 16.5 23.5t48.5 51.5t81 65.5t113 51.5t146 23q101 0 184.5 -37t135 -97.5t79 -134t27.5 -151.5v-694h-184v694q0 92 -66.5 166t-175.5 74q-43 0 -81 -10t-62.5 -24.5t-43 -29t-26.5 -24.5l-8 -10v-836h-184z" />
<glyph unicode="o" horiz-adv-x="1126" d="M102 551q0 88 16.5 169t52.5 153.5t88.5 125.5t130.5 84t173 31t173.5 -31t131 -84t88.5 -126t52 -153.5t16 -168.5t-16 -168.5t-52 -153.5t-88.5 -126t-131 -84t-173.5 -31t-173 31t-130.5 84t-88.5 125.5t-52.5 153.5t-16.5 169zM287 551q0 -72 15.5 -138t47 -122 t86.5 -89.5t127 -33.5q73 0 128.5 33.5t86.5 89.5t46.5 121.5t15.5 138.5t-15.5 138.5t-46.5 121.5t-86.5 89.5t-128.5 33.5q-72 0 -127 -33.5t-86.5 -89.5t-47 -122t-15.5 -138z" />
<glyph unicode="p" d="M123 -473v1575h184v-129q38 57 112 99t165 42q119 0 209.5 -47t144 -127.5t80 -178.5t26.5 -210t-26.5 -210t-80 -178.5t-144 -127.5t-209.5 -47q-91 0 -165 42.5t-112 100.5v-604h-184zM307 551q0 -72 16 -138t47.5 -122t86.5 -89.5t127 -33.5q73 0 128.5 33.5 t86.5 89.5t46 121.5t15 138.5t-15 138.5t-46 121.5t-86.5 89.5t-128.5 33.5q-72 0 -127 -33.5t-86.5 -89.5t-47.5 -122t-16 -138z" />
<glyph unicode="q" d="M102 551q0 88 16 168.5t52 153.5t88.5 126t131 84t173.5 31q91 0 165 -42t112 -99v129h184v-1575h-184v604q-38 -58 -112 -100.5t-165 -42.5q-95 0 -173.5 31t-131 84t-88.5 126t-52 153.5t-16 168.5zM287 551q0 -73 15 -138.5t46 -121.5t86.5 -89.5t128.5 -33.5 q72 0 127 33.5t86.5 89.5t47.5 122t16 138t-16 138t-47.5 122t-86.5 89.5t-127 33.5q-73 0 -128.5 -33.5t-86.5 -89.5t-46 -121.5t-15 -138.5z" />
<glyph unicode="r" horiz-adv-x="892" d="M123 0v899q6 9 16.5 23.5t48.5 51.5t81 65.5t113 51.5t146 23q144 0 242 -67l-84 -170q-64 57 -158 57q-43 0 -81 -10t-62.5 -24.5t-43 -29t-26.5 -24.5l-8 -10v-836h-184z" />
<glyph unicode="s" horiz-adv-x="1036" d="M123 102l72 172q199 -106 317 -106q88 0 152.5 36.5t64.5 106.5q0 111 -237 162q-55 14 -102.5 33t-93.5 48t-78.5 65t-52.5 85.5t-20 106.5q0 61 21.5 111.5t58 85.5t85.5 59.5t103 35.5t111 11q89 0 182 -25.5t154 -56.5l-59 -166q-153 68 -277 68q-92 0 -142 -35 t-50 -88q0 -107 190 -160q59 -15 104.5 -30t102.5 -43.5t94.5 -62.5t63.5 -87t26 -117q0 -67 -23 -122t-62 -91.5t-91 -62t-108.5 -36.5t-116.5 -11q-61 1 -118.5 12t-110.5 31t-84 34t-76 37z" />
<glyph unicode="t" horiz-adv-x="831" d="M102 922v180h185v272h184v-272h258v-180h-258v-613q0 -62 28.5 -94.5t82.5 -32.5h147v-182h-147q-148 0 -221.5 85.5t-73.5 223.5v613h-185z" />
<glyph unicode="u" horiz-adv-x="1077" d="M123 408v694h184v-694q0 -92 66.5 -166t175.5 -74q43 0 81 10t62.5 24.5t43 29t26.5 24.5l8 10v836h184v-899q-6 -9 -16.5 -23.5t-48.5 -51.5t-81 -65.5t-113 -51.5t-146 -23q-101 0 -184.5 37t-135 97.5t-79 134t-27.5 151.5z" />
<glyph unicode="v" horiz-adv-x="1200" d="M123 1102h192q27 -126 131 -467q103 -333 154 -461q51 128 154 461q104 341 131 467h192q-34 -162 -143 -524q-106 -329 -168 -480q-14 -33 -38.5 -54.5t-52.5 -30t-44.5 -11t-30.5 -2.5t-30.5 2.5t-44.5 11t-52.5 30t-38.5 54.5q-62 151 -168 480q-109 362 -143 524z " />
<glyph unicode="w" horiz-adv-x="1646" d="M123 1102h192q71 -301 113 -467q68 -255 115 -420l168 614q10 38 35 61t43.5 28.5t33.5 5.5q10 0 23.5 -3.5t31.5 -12t34 -29.5t24 -50q123 -454 168 -614q47 165 115 420q30 117 112 467h193q-70 -307 -125 -520q-103 -388 -146 -484q-48 -98 -149 -98 q-64 0 -102.5 31.5t-55.5 74.5q-9 23 -63.5 236.5t-59.5 237.5q-2 -6 -30 -119t-57.5 -226.5t-35.5 -128.5q-17 -43 -55 -74.5t-102 -31.5q-102 0 -150 98q-41 90 -145 484q-24 95 -55.5 225t-50.5 213z" />
<glyph unicode="x" horiz-adv-x="1196" d="M123 0q28 92 137 292.5t178 285.5q-59 77 -138 216t-150 308h194q132 -275 254 -432q122 157 254 432h195q-71 -169 -150 -307.5t-139 -216.5q69 -85 178 -285.5t137 -292.5h-192q-119 273 -283 475q-164 -202 -283 -475h-192z" />
<glyph unicode="y" horiz-adv-x="1118" d="M123 551v551h184v-551q0 -59 6.5 -110.5t24 -103t45 -88t73.5 -59t105 -22.5q58 0 103 26t72 65.5t44.5 92.5t24 101.5t6.5 97.5v551h184v-1118q0 -206 -121.5 -331.5t-326.5 -125.5h-29q-167 0 -371 98l82 162q156 -82 289 -82h29q119 0 191.5 80t72.5 199v145 q-41 -73 -107 -107t-143 -34q-101 0 -179 31.5t-126 83.5t-78.5 126.5t-42.5 152.5t-12 169z" />
<glyph unicode="z" horiz-adv-x="1069" d="M143 920v182h682q54 0 86.5 -32t32.5 -74.5t-24 -86.5l-551 -727h577v-182h-704q-54 0 -86.5 32t-32.5 74.5t24 86.5l551 727h-555z" />
<glyph unicode="{" horiz-adv-x="808" d="M123 504v160q41 9 74 36.5t54.5 63t37 84t24 91.5t13 94.5t5.5 83.5t1 67q0 129 83.5 244t235.5 167l35 -178q-85 -30 -127.5 -95t-42.5 -138q0 -64 -4.5 -129t-17.5 -157t-44.5 -175.5t-78.5 -138.5q47 -55 78.5 -138.5t44.5 -175.5t17.5 -157t4.5 -129 q0 -73 42.5 -138.5t127.5 -95.5l-35 -178q-152 52 -235.5 167.5t-83.5 244.5q0 36 -1 68t-5.5 83.5t-13 94.5t-24 91.5t-37 84t-54.5 62.5t-74 36z" />
<glyph unicode="|" horiz-adv-x="497" d="M154 -473v2048h190v-2048h-190z" />
<glyph unicode="}" horiz-adv-x="808" d="M123 -250q85 30 127.5 95.5t42.5 138.5q0 64 4.5 129t17.5 157t44.5 175.5t78.5 138.5q-47 55 -78.5 138.5t-44.5 175.5t-17.5 157t-4.5 129q0 73 -42.5 138t-127.5 95l35 178q152 -52 235.5 -167t83.5 -244q0 -35 1 -67t5.5 -83.5t13 -94.5t24 -91.5t37 -84t54.5 -63 t74 -36.5v-160q-41 -9 -74 -36t-54.5 -62.5t-37 -84t-24 -91.5t-13 -94.5t-5.5 -83.5t-1 -68q0 -129 -83.5 -244.5t-235.5 -167.5z" />
<glyph unicode="~" horiz-adv-x="1056" d="M123 563q4 8 11 21.5t32.5 48t54.5 60.5t78 47.5t102 21.5q16 0 31.5 -2t28 -6t24 -8.5t21.5 -10.5t17.5 -11t14.5 -11.5t11 -10t9 -8.5l5 -6q46 -51 92 -51q34 0 64 25.5t43 51.5l14 25l158 -88q-4 -8 -10.5 -21.5t-32 -47.5t-55 -60t-78.5 -47.5t-103 -21.5 q-16 0 -31.5 2t-28 6t-24 8t-21 10.5t-17 11t-15 11t-11 10l-8.5 8.5l-5 6q-47 52 -93 52q-34 0 -64 -26t-43 -52l-13 -25z" />
<glyph unicode="&#xa2;" horiz-adv-x="1081" d="M123 551q0 100 21.5 189.5t65 166.5t116.5 129.5t168 69.5v100h186v-98q143 -25 278 -160l-129 -129q-87 84 -149 103v-744q69 25 149 105l129 -129q-135 -135 -278 -160v-98h-186v100q-95 16 -168 68.5t-116.5 129t-65 167t-21.5 190.5zM307 551q0 -126 46.5 -228.5 t140.5 -138.5v734q-94 -36 -140.5 -138.5t-46.5 -228.5z" />
<glyph unicode="&#xa3;" horiz-adv-x="1210" d="M123 0v188q58 0 84 27t26 59v385h-110v185h110v332q0 164 122.5 279t293.5 120h29q226 0 409 -268l-165 -78q-107 162 -244 162h-29q-91 0 -160 -61.5t-69 -153.5v-332h383v-185h-383v-385q0 -23 -4 -44.5t-8 -31.5l-5 -10h660v-188h-940z" />
<glyph unicode="&#xa5;" horiz-adv-x="1458" d="M102 1575h209q118 -246 207.5 -413.5t194.5 -325.5q5 -9 16 -9t16 9q105 158 194.5 325.5t207.5 413.5h209q-273 -577 -471 -860q-24 -36 -60 -60h330v-184h-330v-82h330v-184h-330v-205h-192v205h-328v184h328v82h-328v184h328q-36 24 -60 60q-204 292 -471 860z" />
<glyph unicode="&#xa9;" horiz-adv-x="1859" d="M123 791q0 164 64 313t172.5 257t257.5 172t313 64t313 -64t257.5 -172t172.5 -257t64 -313q0 -218 -108.5 -404t-294.5 -294.5t-404 -108.5t-404 108.5t-294.5 294.5t-108.5 404zM315 791q0 -125 48.5 -239t131 -196.5t196.5 -131t239 -48.5t239 48.5t196.5 131 t131.5 196.5t49 239q0 167 -82.5 309t-224.5 224.5t-309 82.5q-125 0 -239 -49t-196.5 -131.5t-131 -196.5t-48.5 -239zM532 793q0 94 22.5 176.5t67.5 151.5t122 109t178 40h22q77 0 150 -36t159 -110l-129 -135q-103 103 -180 103h-22q-72 0 -119 -46t-64.5 -110 t-17.5 -143q0 -60 10.5 -111.5t32.5 -96t62.5 -70.5t95.5 -26h22q79 0 180 103l129 -133q-87 -75 -160 -111.5t-149 -36.5h-22q-101 0 -178 40t-122 108.5t-67.5 153t-22.5 180.5z" />
<glyph unicode="&#xad;" horiz-adv-x="929" d="M123 518v182h684v-182h-684z" />
<glyph unicode="&#xae;" horiz-adv-x="835" d="M102 1280q0 130 92.5 222.5t223.5 92.5q130 0 222.5 -92.5t92.5 -222.5t-92.5 -222.5t-222.5 -92.5q-131 0 -223.5 92.5t-92.5 222.5zM158 1278q0 -109 75.5 -184.5t184.5 -75.5t184.5 75.5t75.5 184.5t-75.5 184.5t-184.5 75.5t-184.5 -75.5t-75.5 -184.5zM303 1104v354 h131q47 0 78 -30t31 -76q0 -53 -33 -76q29 -23 29 -76v-96h-56v96q0 24 -15 37.5t-38 13.5h-70v-147h-57zM360 1305h74q51 3 51 47q0 24 -13.5 37.5t-37.5 13.5h-74v-98z" />
<glyph unicode="&#xb4;" horiz-adv-x="788" d="M123 1229l311 346h232l-353 -346h-190z" />
<glyph unicode="&#x2000;" horiz-adv-x="861" />
<glyph unicode="&#x2001;" horiz-adv-x="1722" />
<glyph unicode="&#x2002;" horiz-adv-x="861" />
<glyph unicode="&#x2003;" horiz-adv-x="1722" />
<glyph unicode="&#x2004;" horiz-adv-x="574" />
<glyph unicode="&#x2005;" horiz-adv-x="430" />
<glyph unicode="&#x2006;" horiz-adv-x="287" />
<glyph unicode="&#x2007;" horiz-adv-x="287" />
<glyph unicode="&#x2008;" horiz-adv-x="215" />
<glyph unicode="&#x2009;" horiz-adv-x="344" />
<glyph unicode="&#x200a;" horiz-adv-x="95" />
<glyph unicode="&#x2010;" horiz-adv-x="929" d="M123 518v182h684v-182h-684z" />
<glyph unicode="&#x2011;" horiz-adv-x="929" d="M123 518v182h684v-182h-684z" />
<glyph unicode="&#x2012;" horiz-adv-x="929" d="M123 518v182h684v-182h-684z" />
<glyph unicode="&#x2013;" horiz-adv-x="1048" d="M123 520v180h803v-180h-803z" />
<glyph unicode="&#x2014;" horiz-adv-x="1550" d="M123 520v180h1304v-180h-1304z" />
<glyph unicode="&#x2018;" horiz-adv-x="550" d="M123 1092l149 483h156l-119 -483h-186z" />
<glyph unicode="&#x2019;" horiz-adv-x="550" d="M123 1092l119 483h186l-149 -483h-156z" />
<glyph unicode="&#x201c;" horiz-adv-x="843" d="M123 1092l119 483h186l-149 -483h-156zM416 1092l119 483h186l-150 -483h-155z" />
<glyph unicode="&#x201d;" horiz-adv-x="843" d="M123 1575h186l119 -483h-156zM416 1575h186l119 -483h-156z" />
<glyph unicode="&#x2022;" horiz-adv-x="729" d="M123 606q0 100 71 171t171 71t170.5 -71t70.5 -171t-70.5 -170.5t-170.5 -70.5t-171 70.5t-71 170.5z" />
<glyph unicode="&#x2026;" horiz-adv-x="1175" d="M123 119q0 49 34.5 84t84.5 35q49 0 83.5 -34.5t34.5 -84.5t-34.5 -84.5t-83.5 -34.5q-50 0 -84.5 35t-34.5 84zM475 119q0 49 34.5 84t84.5 35t84.5 -35t34.5 -84t-34.5 -84t-84.5 -35t-84.5 35t-34.5 84zM815 119q0 49 34.5 84t84.5 35t84.5 -35t34.5 -84t-34.5 -84 t-84.5 -35t-84.5 35t-34.5 84z" />
<glyph unicode="&#x202f;" horiz-adv-x="344" />
<glyph unicode="&#x205f;" horiz-adv-x="430" />
<glyph unicode="&#x20ac;" horiz-adv-x="1372" d="M0 547v180h123v123h-123v180h145q25 121 75.5 221.5t126 178.5t184 121.5t239.5 43.5h31q266 0 448 -194l-143 -131q-125 137 -305 137h-31q-166 0 -273 -103.5t-149 -273.5h496v-180h-522q-3 -30 -3 -62q0 -31 3 -61h522v-180h-496q42 -172 148.5 -275.5t273.5 -103.5 h31q180 0 305 137l143 -131q-182 -194 -448 -194h-31q-131 0 -239.5 43.5t-184 121.5t-126 179t-75.5 223h-145z" />
<glyph unicode="&#x2122;" horiz-adv-x="1101" d="M102 1499v76h377v-76h-151v-434h-74v434h-152zM537 1065v459q0 30 18 43.5t41.5 4t38.5 -37.5l123 -250l123 250q15 28 38.5 37.5t41.5 -4t18 -43.5v-459h-74v356q-112 -229 -114 -233q-13 -19 -33 -19t-33 19l-115 233v-356h-73z" />
<glyph unicode="&#xe000;" horiz-adv-x="1105" d="M0 0v1106h1106v-1106h-1106z" />
</font>
</defs>
</svg>
