<?xml version="1.0" encoding="utf-8"?>
<!-- Generator: Adobe Illustrator 16.0.0, SVG Export Plug-In . SVG Version: 6.00 Build 0)  -->
<!DOCTYPE svg PUBLIC "-//W3C//DTD SVG 1.1//EN" "http://www.w3.org/Graphics/SVG/1.1/DTD/svg11.dtd">
<svg version="1.1" id="Layer_1" xmlns="http://www.w3.org/2000/svg" xmlns:xlink="http://www.w3.org/1999/xlink" x="0px" y="0px"
	 width="25px" height="24px" viewBox="0 0 25 24" enable-background="new 0 0 25 24" xml:space="preserve">
<path d="M12.487,4.281C12.49,4.282,12.5,4.285,12.5,4.285s0.01-0.003,0.013-0.004 M12.513,4.281C13.388,1.771,15.537,0,18.334,0
	C22.016,0,25,3.07,25,6.857c0,0.724-0.111,1.421-0.312,2.076C22.754,15.762,12.5,24,12.5,24S2.247,15.762,0.313,8.934
	C0.111,8.278,0,7.581,0,6.857C0,3.07,2.985,0,6.667,0c2.795,0,4.946,1.771,5.82,4.281"/>
</svg>
