<?xml version="1.0" encoding="utf-8"?>
<!-- Generator: Adobe Illustrator 18.1.1, SVG Export Plug-In . SVG Version: 6.00 Build 0)  -->
<svg version="1.1" id="Layer_2" xmlns="http://www.w3.org/2000/svg" xmlns:xlink="http://www.w3.org/1999/xlink" x="0px" y="0px"
	 viewBox="-164 268.3 853.3 256.7" enable-background="new -164 268.3 853.3 256.7" xml:space="preserve">
<g>
	<path fill="#00AFAC" d="M-86,448.9l-11,12.8v48.4h-57.6V271.7H-97v126.2l46.2-52.8h69.4l-62.8,68.6l64.6,96.5h-66.1L-86,448.9z"/>
	<path fill="#00AFAC" d="M422.3,497c-7.7,8.8-23.9,16.9-40.7,16.9c-47.7,0-73.8-38.5-73.8-86.2c0-47.7,26.1-86.2,73.8-86.2
		c16.9,0,33,8.1,40.7,16.9v-86.6h57.6v238.5h-57.6V497z M422.3,405.6c-4.4-8.8-14.3-15.4-25.3-15.4c-19.8,0-31.6,16.1-31.6,37.4
		c0,21.3,11.7,37.1,31.6,37.1c11.4,0,20.9-6.2,25.3-15.4V405.6z"/>
	<path fill="#00AFAC" d="M586.3,513.9c-49.9,0-84.4-35.2-84.4-86.2c0-51,34.5-86.2,84.4-86.2c50.3,0,84.4,35.2,84.4,86.2
		C670.7,478.6,636.6,513.9,586.3,513.9z M586.3,388.7c-17.6,0-27.5,16.2-27.5,38.9c0,22.8,9.9,38.5,27.5,38.5
		c18,0,27.9-15.8,27.9-38.5C614.2,404.9,604.3,388.7,586.3,388.7z"/>
	<path fill="#00AFAC" d="M228.1,341.4c-19.1,0-35.2,7.7-44.4,18v51c2.9-11.4,12.5-18,23.9-18c14.7,0,21.7,9.9,21.7,23.5v94.3h57.2
		V401.9C286.5,365.2,264.8,341.4,228.1,341.4z"/>
</g>
<path fill="#3F2746" d="M66.3,331.1c-17.6,0-32.7-12.1-32.7-30.8c0-19.1,15-31.2,32.7-31.2c17.6,0,32.7,12.1,32.7,31.2
	C99,319,83.9,331.1,66.3,331.1z M94.9,510.2H37.3V345.1h57.6V510.2z"/>
<path fill="#3F2746" d="M154.8,331.1c-17.6,0-32.7-12.1-32.7-30.8c0-19.1,15-31.2,32.7-31.2c17.6,0,32.7,12.1,32.7,31.2
	C187.5,319,172.5,331.1,154.8,331.1z"/>
<polygon fill="#3F2746" points="183.7,345.1 126.1,345.1 126.1,510.2 183.7,510.2 183.7,410.4 183.7,359.4 "/>
</svg>
