<?xml version="1.0" standalone="no"?>
<!DOCTYPE svg PUBLIC "-//W3C//DTD SVG 1.1//EN" "http://www.w3.org/Graphics/SVG/1.1/DTD/svg11.dtd" >
<svg xmlns="http://www.w3.org/2000/svg">
<metadata></metadata>
<defs>
<font id="geniusregular" horiz-adv-x="446" >
<font-face units-per-em="1000" ascent="750" descent="-250" />
<missing-glyph horiz-adv-x="300" />
<glyph horiz-adv-x="1000" />
<glyph horiz-adv-x="1000" />
<glyph unicode="&#xd;" horiz-adv-x="1000" />
<glyph unicode=" "  horiz-adv-x="300" />
<glyph unicode="&#x09;" horiz-adv-x="300" />
<glyph unicode="&#xa0;" horiz-adv-x="300" />
<glyph unicode="!" horiz-adv-x="270" d="M85 50q0 21 14.5 35.5t35.5 14.5t35.5 -14.5t14.5 -35.5t-14.5 -35.5t-35.5 -14.5t-35.5 14.5t-14.5 35.5zM97 170v599h75v-599h-75z" />
<glyph unicode="&#x22;" horiz-adv-x="341" d="M60 769h83l-7 -235h-68zM198 769h83l-7 -235h-67z" />
<glyph unicode="#" horiz-adv-x="720" d="M60 232l12 72h126l28 162h-126l12 72h126l40 231h79l-40 -231h139l40 231h79l-40 -231h125l-12 -72h-125l-28 -162h125l-12 -72h-125l-40 -232h-79l40 232h-139l-40 -232h-79l40 232h-126zM277 304h139l28 162h-139z" />
<glyph unicode="$" horiz-adv-x="643" d="M60 66l25 71q98 -60 194 -71v296q-210 54 -210 219q0 80 57 132t153 63v69h74v-67q87 -7 188 -46l-24 -70q-93 35 -164 41v-279q45 -13 83 -30.5t72.5 -44t54 -64t20.5 -81.5q0 -19 -3 -39.5t-17 -51.5t-37 -55t-68 -43.5t-105 -23.5v-67h-74v68q-113 11 -219 74z M145 581q0 -98 134 -139v260q-71 -11 -102.5 -47.5t-31.5 -73.5zM353 66q68 7 111 42.5t43 95.5q0 94 -154 140v-278z" />
<glyph unicode="%" horiz-adv-x="784" d="M60 585q0 40 5 70t18 57.5t39 42t64 14.5t64 -14.5t39 -42t18 -57.5t5 -70t-5 -70t-18 -57t-39 -41.5t-64 -14.5t-64 14.5t-39 41.5t-18 57t-5 70zM124 585q0 -26 2 -45t8.5 -37.5t19.5 -28.5t32 -10t32 10t19.5 28.5t8.5 37.5t2 45q0 56 -12.5 89t-49.5 33t-49.5 -33 t-12.5 -89zM225 0l258 769h77l-259 -769h-76zM472 183q0 40 5 70t18 57.5t39 42t64 14.5t64 -14.5t39 -42t18 -57.5t5 -70t-5 -70t-18 -57t-39 -41.5t-64 -14.5t-64 14.5t-39 41.5t-18 57t-5 70zM536 183q0 -26 2 -45t8.5 -37.5t19.5 -28.5t32 -10t32 10t19.5 28.5t8.5 37.5 t2 45q0 56 -12.5 89t-49.5 33t-49.5 -33t-12.5 -89z" />
<glyph unicode="&#x26;" horiz-adv-x="693" d="M60 183q0 57 33.5 102.5t98.5 100.5q-84 99 -84 207q0 77 50 122.5t118 45.5q65 0 115.5 -46t50.5 -122q0 -61 -37 -110t-108 -107l168 -191q16 20 32.5 44t25.5 38l9 14l59 -44q-39 -62 -74 -106l116 -131h-94l-73 79q-94 -89 -190 -89q-36 0 -71.5 10t-69 31 t-54.5 60.5t-21 91.5zM136 183q0 -55 40 -87.5t100 -32.5q67 0 140 69l-175 199q-51 -42 -78 -77t-27 -71zM185 593q1 -49 16 -83.5t48 -77.5q56 43 87 81t31 80q0 36 -25 66.5t-66 30.5q-43 0 -68 -30t-23 -66v-1z" />
<glyph unicode="'" horiz-adv-x="203" d="M60 769h83l-8 -235h-68z" />
<glyph unicode="(" horiz-adv-x="366" d="M60 291q0 301 209 488l47 -56q-181 -161 -181 -432t181 -432l-47 -56q-209 187 -209 488z" />
<glyph unicode=")" horiz-adv-x="366" d="M50 -141q181 161 181 432t-181 432l47 56q209 -187 209 -488t-209 -488z" />
<glyph unicode="*" horiz-adv-x="496" d="M60 602l23 80l124 -47l-2 134h86l-2 -134l124 47l23 -80l-124 -37l78 -101l-66 -49l-76 108l-76 -108l-66 49l78 101z" />
<glyph unicode="+" horiz-adv-x="598" d="M60 262v73h203v203h72v-203h203v-73h-203v-202h-72v202h-203z" />
<glyph unicode="," horiz-adv-x="265" d="M60 -120l57 235h88l-73 -235h-72z" />
<glyph unicode="-" d="M60 262v73h326v-73h-326z" />
<glyph unicode="." horiz-adv-x="220" d="M60 50q0 21 14.5 35.5t35.5 14.5t35.5 -14.5t14.5 -35.5t-14.5 -35.5t-35.5 -14.5t-35.5 14.5t-14.5 35.5z" />
<glyph unicode="/" horiz-adv-x="515" d="M60 0l312 769h83l-311 -769h-84z" />
<glyph unicode="0" horiz-adv-x="630" d="M60 384q0 55 3.5 99t13 91.5t28 82.5t45.5 63.5t69 43.5t96 15t96 -15t69 -43.5t45.5 -63.5t28 -82.5t13 -91.5t3.5 -99q0 -54 -3.5 -98t-13 -91.5t-28 -82.5t-45.5 -63.5t-69 -43.5t-96 -15t-96 15t-69 43.5t-45.5 63.5t-28 82.5t-13 91.5t-3.5 98zM136 384 q0 -55 3.5 -96.5t14.5 -86.5t29.5 -73.5t52 -47t79.5 -18.5t79.5 18.5t52 47t29.5 73.5t14.5 86.5t3.5 96.5t-3.5 97t-14.5 87t-29.5 74t-52 47.5t-79.5 18.5t-79.5 -18.5t-52 -47.5t-29.5 -74t-14.5 -87t-3.5 -97z" />
<glyph unicode="1" horiz-adv-x="328" d="M50 601l154 156q14 17 39 10t25 -38v-729h-73v639l-91 -91z" />
<glyph unicode="2" horiz-adv-x="587" d="M74 64q184 195 317 381q73 112 35 184q-18 35 -52.5 54.5t-74.5 19.5q-50 0 -91 -30.5t-59 -81.5l-71 13q27 83 87.5 129t133.5 46q58 0 112 -29t85 -83q58 -115 -43 -267q-63 -98 -264 -323h338v-77h-425q-32 0 -39.5 22t11.5 42z" />
<glyph unicode="3" horiz-adv-x="569" d="M60 121l68 34q25 -43 62.5 -65.5t75.5 -22.5h18q62 0 104.5 41t42.5 101q0 67 -48 111t-114 44h-49v73h49q61 0 105.5 43.5t44.5 101.5q0 52 -39.5 86.5t-91.5 34.5h-19q-78 0 -126 -83l-68 35q73 124 194 124h19q87 -2 147.5 -59t60.5 -138q0 -55 -27.5 -102t-71.5 -78 q49 -30 80.5 -81.5t31.5 -111.5q0 -93 -68 -156t-157 -63h-18q-132 9 -206 131z" />
<glyph unicode="4" horiz-adv-x="649" d="M60 253q0 17 9 30q63 83 183 250.5t150 208.5q20 27 49 27q20 0 34 -14t14 -38v-429h100v-74h-100v-214h-76v214h-316q-47 0 -47 39zM166 288h257v353q-45 -60 -127.5 -175t-129.5 -178z" />
<glyph unicode="5" horiz-adv-x="568" d="M60 118l72 25q24 -40 61.5 -60t74.5 -20q75 0 119 49t44 122q0 82 -44 124t-123 42q-75 0 -130 -24q-22 -11 -40 -1t-18 35v318q0 15 12.5 28t27.5 13h358v-75h-321v-231q58 14 111 14q115 0 179.5 -65t64.5 -178q0 -106 -67.5 -175t-172.5 -69q-60 0 -118.5 32t-89.5 96 z" />
<glyph unicode="6" horiz-adv-x="587" d="M60 372q0 183 59 280q34 54 92.5 85.5t129.5 31.5q62 0 143 -28l-25 -68q-66 23 -117 23q-47 0 -90 -21t-68 -60q-44 -77 -50 -193q78 53 167 53q101 0 163.5 -70.5t62.5 -171.5q0 -106 -59.5 -174.5t-160.5 -68.5q-48 0 -86.5 12.5t-64 32t-44 51t-28.5 62t-15.5 72.5 t-7 75t-1.5 77zM135 318q4 -255 171 -255q69 0 106.5 49t37.5 121q0 74 -42 121.5t-107 47.5q-56 0 -100.5 -24.5t-65.5 -59.5z" />
<glyph unicode="7" horiz-adv-x="571" d="M60 686v75h420q27 0 35.5 -18t1.5 -40l-300 -703h-81l292 686h-368z" />
<glyph unicode="8" horiz-adv-x="590" d="M60 207q0 65 29.5 115t81.5 79q-90 65 -90 175q0 82 59.5 142.5t154.5 60.5q94 0 154 -60.5t60 -142.5q0 -110 -90 -175q52 -29 81.5 -79t29.5 -115q0 -94 -68 -155t-167 -61q-100 0 -167.5 61t-67.5 155zM136 207q0 -61 44 -102t115 -41t115 41t44 102q0 66 -47.5 110 t-111.5 44t-111.5 -44t-47.5 -110zM156 576q0 -58 40 -100.5t99 -42.5q60 0 99.5 42.5t39.5 100.5q0 54 -39.5 92t-99.5 38t-99.5 -38t-39.5 -92z" />
<glyph unicode="9" horiz-adv-x="597" d="M60 526q0 106 59.5 174.5t160.5 68.5q48 0 86.5 -12.5t64 -32t44 -51t28.5 -62t15.5 -72.5t7 -75t1.5 -77q0 -183 -59 -280q-34 -54 -92.5 -85.5t-129.5 -31.5q-62 0 -143 28l25 68q66 -23 117 -23q47 0 90 21t68 60q44 77 50 193q-78 -53 -167 -53q-101 0 -163.5 70.5 t-62.5 171.5zM137 526q0 -74 42 -121.5t107 -47.5q56 0 100.5 24.5t65.5 59.5q-4 255 -171 255q-69 0 -106.5 -49t-37.5 -121z" />
<glyph unicode=":" horiz-adv-x="220" d="M60 50q0 21 14.5 35.5t35.5 14.5t35.5 -14.5t14.5 -35.5t-14.5 -35.5t-35.5 -14.5t-35.5 14.5t-14.5 35.5zM60 488q0 21 14.5 35.5t35.5 14.5t35.5 -14.5t14.5 -35.5t-14.5 -35.5t-35.5 -14.5t-35.5 14.5t-14.5 35.5z" />
<glyph unicode=";" horiz-adv-x="245" d="M40 -120l57 235h88l-73 -235h-72zM83 488q0 21 14.5 35.5t35.5 14.5t35.5 -14.5t14.5 -35.5t-14.5 -35.5t-35.5 -14.5t-35.5 14.5t-14.5 35.5z" />
<glyph unicode="&#x3c;" horiz-adv-x="578" d="M60 269q0 22 18 35l430 256v-87l-343 -204l343 -204v-87l-430 256q-18 13 -18 35z" />
<glyph unicode="=" horiz-adv-x="527" d="M60 185v71h407v-71h-407zM60 337v72h407v-72h-407z" />
<glyph unicode="&#x3e;" horiz-adv-x="578" d="M70 -22v87l343 204l-343 204v87l430 -256q18 -13 18 -35t-18 -35z" />
<glyph unicode="?" horiz-adv-x="576" d="M60 679q89 100 220 100q112 0 174 -53t62 -144q0 -38 -10.5 -68t-33 -54t-39.5 -36.5t-47 -32.5q-26 -17 -38.5 -27t-24.5 -27t-12 -35v-132h-75v132q0 27 7.5 48.5t27.5 41t30.5 27.5t39.5 28q33 22 49.5 35t33 40.5t16.5 59.5q0 61 -42.5 92t-117.5 31q-95 0 -161 -69z M224 50q0 21 14.5 35.5t35.5 14.5t35.5 -14.5t14.5 -35.5t-14.5 -35.5t-35.5 -14.5t-35.5 14.5t-14.5 35.5z" />
<glyph unicode="@" horiz-adv-x="908" d="M75 340q0 39 6 81t20 94t42.5 97t68.5 83.5t102.5 61t139.5 22.5t139.5 -22.5t102.5 -61t68.5 -83.5t42.5 -97t20 -94t6 -81q0 -116 -44.5 -173t-101.5 -57q-41 0 -64.5 12.5t-43.5 37.5q-47 -53 -125 -53q-94 0 -139.5 67t-45.5 166q0 98 45.5 165.5t139.5 67.5 t139.5 -67.5t45.5 -165.5v-121q0 -16 13.5 -26t32.5 -10q26 0 49 39t23 118q0 39 -6.5 81.5t-27 95t-52.5 93t-88 68.5t-129 28t-129 -28t-88 -68.5t-52.5 -93t-27 -95t-6.5 -81.5t6.5 -81.5t27 -95t52.5 -93t88 -68.5t129 -28q49 0 91 7t67.5 16.5t43.5 19.5t26 17l7 7 l39 -58q-3 -3 -9 -8.5t-29 -20t-51.5 -25t-78 -19.5t-106.5 -9q-92 0 -163 33t-110.5 80.5t-64.5 111t-33 114.5t-8 100zM344 340q0 -68 25.5 -114.5t84.5 -46.5t84.5 46.5t25.5 114.5q0 43 -9 77t-35 59t-66 25t-66 -25t-35 -59t-9 -77z" />
<glyph unicode="A" horiz-adv-x="714" d="M50 0q26 115 86 330t124 381q22 58 92 58h10q70 0 92 -58q64 -166 124 -381t86 -330h-80q-23 94 -64 250h-326q-27 -95 -64 -250h-80zM215 324h284q-57 202 -112 353q-7 18 -25 18h-10q-18 0 -25 -18q-55 -151 -112 -353z" />
<glyph unicode="B" horiz-adv-x="633" d="M60 0v769h291q98 0 155 -54.5t57 -151.5q0 -109 -81 -165q91 -55 91 -182q0 -100 -62.5 -158t-159.5 -58h-291zM135 74h216q9 0 21.5 1.5t36 9.5t41 21.5t31.5 42t14 67.5q0 38 -12 66t-28.5 42t-38.5 22t-36.5 10t-28.5 2h-216v-284zM135 432h216q9 0 20 1t33 8.5 t38.5 20t29.5 39t13 62.5q0 43 -15.5 72t-40.5 40.5t-42.5 15.5t-35.5 4h-216v-263z" />
<glyph unicode="C" horiz-adv-x="660" d="M60 385q0 79 19 148.5t56 125t98.5 88t140.5 32.5h15q129 0 211 -86l-57 -53q-60 65 -154 65h-15q-116 0 -176 -93t-60 -227q0 -135 60 -228t176 -93h15q94 0 154 65l57 -53q-82 -86 -211 -86h-15q-79 0 -140.5 32.5t-98.5 88.5t-56 125.5t-19 148.5z" />
<glyph unicode="D" horiz-adv-x="654" d="M60 0v769h234q78 0 137.5 -32t94 -87.5t51.5 -122t17 -142.5q0 -77 -17 -143.5t-51.5 -122t-94 -87.5t-137.5 -32h-234zM135 74h159q60 0 105 27t70 73.5t36.5 99t11.5 111.5t-11.5 111t-36.5 98.5t-70 73.5t-105 27h-159v-621z" />
<glyph unicode="E" horiz-adv-x="578" d="M60 110v549q0 50 30.5 80t81.5 30h346v-74h-346q-36 0 -36 -36v-228h362v-74h-362v-247q0 -36 36 -36h346v-74h-346q-51 0 -81.5 30t-30.5 80z" />
<glyph unicode="F" horiz-adv-x="578" d="M60 0v659q0 50 30.5 80t81.5 30h346v-74h-346q-36 0 -36 -36v-228h362v-74h-362v-357h-76z" />
<glyph unicode="G" horiz-adv-x="686" d="M60 385q0 79 19 148.5t56 125t98.5 88t140.5 32.5h15q129 0 211 -86l-57 -53q-60 65 -154 65h-15q-59 0 -105.5 -26.5t-74.5 -72t-42 -102t-14 -119.5q0 -64 14 -120t42 -102t74.5 -72.5t105.5 -26.5h15q65 0 113 31t48 70v182h-171v74h247v-256q0 -77 -69 -126t-168 -49 h-15q-79 0 -140.5 32.5t-98.5 88.5t-56 125.5t-19 148.5z" />
<glyph unicode="H" horiz-adv-x="641" d="M60 0v769h75v-338h371v338h75v-769h-75v357h-371v-357h-75z" />
<glyph unicode="I" horiz-adv-x="235" d="M80 0v769h75v-769h-75z" />
<glyph unicode="J" horiz-adv-x="507" d="M50 53l46 59q62 -48 123 -48q70 0 111.5 42.5t41.5 111.5v551h75v-551q0 -105 -63 -166.5t-165 -61.5q-84 0 -169 63z" />
<glyph unicode="K" horiz-adv-x="621" d="M60 0v769h75v-327h29q205 191 320 327h95q-163 -193 -347 -365q145 -134 349 -404h-92q-171 223 -324 366h-30v-366h-75z" />
<glyph unicode="L" horiz-adv-x="537" d="M60 110v659h76v-659q0 -36 34 -36h327v-74h-327q-50 0 -80 30t-30 80z" />
<glyph unicode="M" horiz-adv-x="776" d="M60 0v711q0 27 12 42.5t32 15.5q31 0 52 -39l232 -460l232 460q21 39 52 39q20 0 32 -15.5t12 -42.5v-711h-75v624l-218 -450q-13 -23 -35 -23t-35 23l-218 450v-624h-75z" />
<glyph unicode="N" horiz-adv-x="667" d="M60 0v711q0 27 12 42.5t32 15.5q28 0 54 -39l374 -585v624h75v-711q0 -27 -12 -42.5t-32 -15.5q-28 0 -54 39l-374 585v-624h-75z" />
<glyph unicode="O" horiz-adv-x="748" d="M60 385q0 79 19 148.5t56 125t98.5 88t140.5 32.5t140.5 -32.5t98.5 -88t56 -125t19 -148.5t-19 -148.5t-56 -125.5t-98.5 -88.5t-140.5 -32.5t-140.5 32.5t-98.5 88.5t-56 125.5t-19 148.5zM138 385q0 -64 14 -120t42 -102t74.5 -72.5t105.5 -26.5t105.5 26.5t74.5 72.5 t42 102t14 120q0 63 -14 119.5t-42 102t-74.5 72t-105.5 26.5t-105.5 -26.5t-74.5 -72t-42 -102t-14 -119.5z" />
<glyph unicode="P" horiz-adv-x="634" d="M60 0v769h299q100 0 162.5 -69t62.5 -165t-62.5 -165.5t-162.5 -69.5h-224v-300h-75zM135 374h224q61 0 104.5 47t43.5 114t-43 113.5t-105 46.5h-224v-321z" />
<glyph unicode="Q" horiz-adv-x="759" d="M60 385q0 79 19 148.5t56 125t98.5 88t140.5 32.5t140.5 -32.5t98.5 -88t56 -125t19 -148.5q0 -195 -99 -304q32 -57 124 -84l-5 -17l-8 -36l-5 -18q-12 3 -31 9.5t-63 34t-71 62.5q-67 -42 -156 -42q-79 0 -140.5 32.5t-98.5 88.5t-56 125.5t-19 148.5zM138 385 q0 -64 14 -120t42 -102t74.5 -72.5t105.5 -26.5t105.5 26.5t74.5 72.5t42 102t14 120q0 63 -14 119.5t-42 102t-74.5 72t-105.5 26.5t-105.5 -26.5t-74.5 -72t-42 -102t-14 -119.5z" />
<glyph unicode="R" horiz-adv-x="624" d="M60 0v769h289q101 0 163 -60.5t62 -154.5q0 -63 -26.5 -109t-69.5 -72q85 -61 85 -174v-199h-76v199q0 65 -39.5 103t-98.5 38h-214v-340h-75zM135 414h214q64 0 106 37.5t42 102.5q0 66 -42 103.5t-106 37.5h-214v-281z" />
<glyph unicode="S" horiz-adv-x="643" d="M60 66l25 71q120 -73 232 -73q82 0 136 36t54 104q0 44 -35.5 77.5t-76 49t-90.5 25.5q-236 50 -236 225q0 90 71 144t185 54q99 0 216 -47l-24 -70q-106 43 -192 43q-51 0 -88.5 -13t-56 -33.5t-27 -40t-8.5 -37.5q0 -43 28 -75.5t63.5 -48t80.5 -24.5q50 -11 93 -28.5 t83.5 -44t64.5 -67t25 -89.5q0 -21 -3.5 -42t-19.5 -54t-42.5 -57.5t-78.5 -42.5t-122 -18q-130 2 -257 76z" />
<glyph unicode="T" horiz-adv-x="651" d="M50 695v74h551v-74h-238v-695h-75v695h-238z" />
<glyph unicode="U" horiz-adv-x="653" d="M60 316v453h75v-453q0 -110 42 -181t135 -71h29q63 0 104.5 37t57 91t15.5 124v453h75v-453q0 -66 -12 -121t-39.5 -103t-78.5 -75t-122 -27h-29q-71 0 -122 27t-78.5 75t-39.5 103t-12 121z" />
<glyph unicode="V" horiz-adv-x="734" d="M60 769h80q97 -403 197 -677q7 -18 25 -18h10q18 0 25 18q99 270 197 677h80q-26 -115 -86 -330t-124 -381q-22 -58 -92 -58h-10q-70 0 -92 58q-64 166 -124 381t-86 330z" />
<glyph unicode="W" horiz-adv-x="964" d="M60 769h80q17 -112 56 -283t66.5 -277t33.5 -126q3 -8 9 -8t8 8l118 480q12 46 51 46t51 -46l118 -480q2 -8 8 -8t9 8q6 20 33.5 126t66.5 277t56 283h80q-33 -269 -164 -709q-19 -60 -82 -60q-28 0 -50.5 16t-29.5 44q-57 214 -96 384q-2 -5 -20 -79t-42 -169.5 t-34 -135.5q-7 -28 -29.5 -44t-50.5 -16q-63 0 -82 60q-131 440 -164 709z" />
<glyph unicode="X" horiz-adv-x="704" d="M50 0q109 238 230 403q-120 161 -209 366h81q40 -88 93 -178.5t100 -147.5q4 -4 7 -4t7 4q47 57 100 147.5t93 178.5h81q-89 -205 -209 -366q121 -165 230 -403h-81q-54 123 -119.5 227.5t-91.5 130.5q-5 5 -10 5t-10 -5q-26 -26 -91.5 -130.5t-119.5 -227.5h-81z" />
<glyph unicode="Y" horiz-adv-x="694" d="M50 769h82q115 -241 199 -366q6 -9 16 -9t16 9q84 125 199 366h82q-131 -278 -227 -415q-13 -19 -32 -30v-324h-76v324q-19 11 -32 30q-96 137 -227 415z" />
<glyph unicode="Z" horiz-adv-x="647" d="M72 89l421 606h-413v74h450q38 0 50 -30t-7 -59l-421 -606h435v-74h-472q-38 0 -50 30t7 59z" />
<glyph unicode="[" horiz-adv-x="324" d="M60 -231v1000h194v-73h-120v-854h120v-73h-194z" />
<glyph unicode="\" d="M60 769h82l244 -769h-81z" />
<glyph unicode="]" horiz-adv-x="324" d="M70 -158h120v854h-120v73h194v-1000h-194v73z" />
<glyph unicode="^" horiz-adv-x="538" d="M60 460l179 299q13 19 30 19t30 -19l179 -299h-82l-127 210l-127 -210h-82z" />
<glyph unicode="_" horiz-adv-x="714" d="M60 -158h594v-73h-594v73z" />
<glyph unicode="`" horiz-adv-x="351" d="M60 779h92l139 -156h-73z" />
<glyph unicode="a" horiz-adv-x="519" d="M50 173q0 81 54.5 133.5t155.5 52.5q30 0 61.5 -7.5t48.5 -15.5l16 -7q-3 73 -27.5 108.5t-90.5 35.5q-67 0 -144 -53l-43 56q89 68 187 68q39 0 69.5 -9.5t50.5 -23t34 -37.5t21 -43.5t11 -51t4.5 -50.5t0.5 -50v-279h-73v78q-16 -30 -57.5 -57t-92.5 -27 q-95 0 -140.5 53.5t-45.5 125.5zM123 173q0 -40 26 -74t87 -34q66 0 107.5 53t42.5 151q-55 21 -126 21q-67 0 -102 -33.5t-35 -83.5z" />
<glyph unicode="b" horiz-adv-x="556" d="M60 0v769h73v-309q16 30 57.5 57t92.5 27q76 0 128 -40.5t73.5 -100.5t21.5 -134t-21.5 -134t-73.5 -100.5t-128 -40.5q-51 0 -92.5 27t-57.5 57v-78h-73zM133 269q0 -83 37.5 -143.5t112.5 -60.5q76 0 113 60.5t37 143.5t-37 143.5t-113 60.5q-75 0 -112.5 -60.5 t-37.5 -143.5z" />
<glyph unicode="c" horiz-adv-x="498" d="M50 269q0 74 22 134t74 100.5t127 40.5h14q87 0 161 -74l-51 -51q-55 54 -110 54h-14q-75 0 -112.5 -60.5t-37.5 -143.5t37.5 -143.5t112.5 -60.5h14q55 0 110 54l51 -51q-74 -74 -161 -74h-14q-75 0 -127 40.5t-74 100.5t-22 134z" />
<glyph unicode="d" horiz-adv-x="556" d="M50 269q0 74 21.5 134t73.5 100.5t128 40.5q51 0 92.5 -27t57.5 -57v309h73v-769h-73v78q-16 -30 -57.5 -57t-92.5 -27q-76 0 -128 40.5t-73.5 100.5t-21.5 134zM123 269q0 -83 37 -143.5t113 -60.5q75 0 112.5 60.5t37.5 143.5t-37.5 143.5t-112.5 60.5 q-76 0 -113 -60.5t-37 -143.5z" />
<glyph unicode="e" horiz-adv-x="528" d="M50 269q0 116 54 195.5t164 79.5q56 0 99 -22.5t66 -58.5t34 -75.5t11 -79.5q0 -43 -19.5 -61.5t-62.5 -18.5h-270q3 -69 43 -116t120 -47q73 0 137 41l38 -58q-76 -54 -175 -54q-66 0 -114 23.5t-74.5 64t-38.5 87t-12 100.5zM125 299h271q8 0 8 8q0 62 -32.5 114 t-103.5 52q-68 0 -102.5 -49.5t-40.5 -124.5z" />
<glyph unicode="f" horiz-adv-x="398" d="M50 468v70h94v85q0 65 36 105.5t103 40.5h65v-71h-65q-32 0 -49 -19.5t-17 -55.5v-85h131v-70h-131v-468h-73v468h-94z" />
<glyph unicode="g" horiz-adv-x="566" d="M60 269q0 74 22 134t74 100.5t127 40.5q51 0 92.5 -27t57.5 -57v78h73v-548q-2 -102 -55.5 -161.5t-150.5 -59.5h-9q-86 0 -174 44l32 63q73 -37 142 -37h9q64 0 98.5 42.5t34.5 108.5v88q-16 -30 -57.5 -57t-92.5 -27q-75 0 -127 40.5t-74 100.5t-22 134zM133 269 q0 -83 37.5 -143.5t112.5 -60.5q76 0 113 60.5t37 143.5t-37 143.5t-113 60.5q-75 0 -112.5 -60.5t-37.5 -143.5z" />
<glyph unicode="h" horiz-adv-x="536" d="M60 0v769h73v-309q17 31 53 57.5t87 26.5q72 0 122 -40.5t70.5 -100.5t20.5 -134v-269h-72v269q0 53 -12.5 97t-45.5 75.5t-83 31.5t-82.5 -31.5t-45 -75.5t-12.5 -97v-269h-73z" />
<glyph unicode="i" horiz-adv-x="217" d="M60 669q0 20 14.5 34t34.5 14t34 -14t14 -34t-14 -34t-34 -14t-34.5 14t-14.5 34zM72 0v538h73v-538h-73z" />
<glyph unicode="j" horiz-adv-x="274" d="M-20 -157q149 4 149 142v553h73v-553q0 -57 -20.5 -100.5t-54.5 -67.5t-71 -36t-76 -12v74zM117 669q0 20 14.5 34t34.5 14t34 -14t14 -34t-14 -34t-34 -14t-34.5 14t-14.5 34z" />
<glyph unicode="k" horiz-adv-x="505" d="M60 0v769h73v-445q41 31 113.5 101t109.5 113h103q-51 -57 -128 -133t-128 -118q117 -105 272 -287h-98q-33 41 -118 128.5t-126 122.5v-251h-73z" />
<glyph unicode="l" horiz-adv-x="233" d="M80 0v769h73v-769h-73z" />
<glyph unicode="m" horiz-adv-x="768" d="M60 0v442l5.5 11t18 24.5t32.5 31t50 24.5t69 11q88 0 140 -61q54 61 147 61q94 0 140 -60t46 -142v-342h-73v342q0 53 -28 92t-85 39q-47 0 -75 -19t-36 -40q9 -34 9 -72v-342h-72v342q0 54 -28.5 92.5t-84.5 38.5q-33 0 -58.5 -12t-34.5 -24l-9 -12v-425h-73z" />
<glyph unicode="n" horiz-adv-x="520" d="M60 0v443q3 4 8 11t23 24.5t38.5 30.5t54.5 24t71 11q95 0 150 -61.5t55 -140.5v-342h-73v342q0 50 -36.5 90.5t-95.5 40.5q-30 0 -60.5 -12.5t-46.5 -24.5l-15 -13v-423h-73z" />
<glyph unicode="o" horiz-adv-x="546" d="M50 269q0 74 22 134t74 100.5t127 40.5q76 0 128 -40.5t73.5 -100.5t21.5 -134t-21.5 -134t-73.5 -100.5t-128 -40.5q-75 0 -127 40.5t-74 100.5t-22 134zM123 269q0 -83 37.5 -143.5t112.5 -60.5q76 0 113 60.5t37 143.5t-37 143.5t-113 60.5q-75 0 -112.5 -60.5 t-37.5 -143.5z" />
<glyph unicode="p" horiz-adv-x="556" d="M60 -231v769h73v-78q16 30 57.5 57t92.5 27q76 0 128 -40.5t73.5 -100.5t21.5 -134t-21.5 -134t-73.5 -100.5t-128 -40.5q-51 0 -92.5 27t-57.5 57v-309h-73zM133 269q0 -83 37.5 -143.5t112.5 -60.5q76 0 113 60.5t37 143.5t-37 143.5t-113 60.5q-75 0 -112.5 -60.5 t-37.5 -143.5z" />
<glyph unicode="q" horiz-adv-x="556" d="M50 269q0 74 21.5 134t73.5 100.5t128 40.5q51 0 92.5 -27t57.5 -57v78h73v-769h-73v309q-16 -30 -57.5 -57t-92.5 -27q-76 0 -128 40.5t-73.5 100.5t-21.5 134zM123 269q0 -83 37 -143.5t113 -60.5q75 0 112.5 60.5t37.5 143.5t-37.5 143.5t-112.5 60.5 q-76 0 -113 -60.5t-37 -143.5z" />
<glyph unicode="r" horiz-adv-x="422" d="M60 0v443q3 4 8 11t23 24.5t38.5 30.5t54.5 24t71 11q61 0 107 -27l-32 -66q-35 22 -75 22q-30 0 -60.5 -12.5t-46.5 -24.5l-15 -13v-423h-73z" />
<glyph unicode="s" horiz-adv-x="497" d="M60 47l28 68q96 -50 156 -50q49 0 84.5 21t35.5 62q0 63 -129 92q-72 17 -119.5 56.5t-47.5 104.5q0 70 54 106.5t128 36.5q38 0 85 -12t73 -25l-24 -65q-72 31 -134 31q-51 0 -79.5 -20.5t-28.5 -51.5q0 -64 105 -91q38 -9 65 -19t59 -28.5t49 -47.5t17 -67 q0 -77 -57 -115.5t-136 -38.5q-87 2 -184 53z" />
<glyph unicode="t" horiz-adv-x="398" d="M50 467v71h94v138h73v-138h131v-71h-131v-320q0 -75 66 -75h65v-72h-65q-70 0 -104.5 40.5t-34.5 106.5v320h-94z" />
<glyph unicode="u" horiz-adv-x="520" d="M60 196v342h73v-342q0 -50 36.5 -90.5t95.5 -40.5q30 0 60.5 12.5t46.5 24.5l15 13v423h73v-443q-3 -4 -8 -11t-23 -24.5t-38.5 -30.5t-54.5 -24t-71 -11q-95 0 -150 61.5t-55 140.5z" />
<glyph unicode="v" horiz-adv-x="576" d="M60 538h76q21 -85 65 -229q54 -180 78 -235q2 -6 9 -6t9 6q24 55 78 235q44 144 65 229h76q-14 -69 -69 -253q-61 -182 -84 -241q-19 -44 -75 -44t-75 44q-29 72 -84 241q-55 184 -69 253z" />
<glyph unicode="w" horiz-adv-x="802" d="M60 538h76q25 -114 55 -229q63 -238 69 -238q2 0 3 3l91 334q9 40 47 40t47 -40q79 -290 91 -334q1 -3 3 -3q6 0 69 238q30 115 55 229h76q-30 -142 -59 -250q-55 -206 -73 -244q-21 -44 -68 -44q-50 0 -70 48q-2 4 -71 281q-69 -277 -71 -281q-20 -48 -70 -48 q-47 0 -68 44q-18 38 -73 244q-13 48 -27.5 110.5t-23.5 101.5z" />
<glyph unicode="x" horiz-adv-x="572" d="M60 0q14 44 70 143.5t90 138.5q-77 94 -146 256h78q71 -145 132 -222q1 -1 2 -1t2 1q61 77 132 222h78q-69 -162 -146 -256q34 -39 90 -138.5t70 -143.5h-77q-64 146 -149 246q-85 -100 -149 -246h-77z" />
<glyph unicode="y" horiz-adv-x="527" d="M60 269v269h73v-269q0 -204 131 -204q39 0 66.5 20t40.5 53t18 64.5t5 66.5v269h73v-548q-2 -102 -55.5 -161.5t-150.5 -59.5h-10q-85 0 -173 44l31 62q73 -36 142 -36h10q63 0 98 43t35 108v88q-14 -35 -52 -59.5t-78 -24.5q-204 0 -204 275z" />
<glyph unicode="z" horiz-adv-x="519" d="M71 82q44 58 142.5 186.5t150.5 197.5h-293v72h336q36 -2 48 -28t-7 -54q-274 -359 -293 -384h303v-72h-346q-36 2 -48 28t7 54z" />
<glyph unicode="{" horiz-adv-x="384" d="M60 246v64q106 23 106 261q0 63 37.5 118t106.5 78l14 -71q-43 -14 -64 -49t-21 -76q0 -216 -76 -293q76 -77 76 -293q0 -41 21 -76t64 -49l-14 -71q-69 24 -106.5 78.5t-37.5 117.5q0 238 -106 261z" />
<glyph unicode="|" horiz-adv-x="223" d="M75 -231v1000h73v-1000h-73z" />
<glyph unicode="}" horiz-adv-x="384" d="M60 -140q43 14 64 49t21 76q0 216 76 293q-76 77 -76 293q0 41 -21 76t-64 49l14 71q69 -23 106.5 -78t37.5 -118q0 -238 106 -261v-64q-106 -23 -106 -261q0 -63 -37.5 -117.5t-106.5 -78.5z" />
<glyph unicode="~" horiz-adv-x="481" d="M60 279q2 4 5.5 9.5t15.5 20.5t24.5 26.5t32 21t38.5 9.5q32 0 51 -10t38 -31q21 -22 40 -22q10 0 22 12.5t19 24.5l7 12l68 -36q-2 -4 -5.5 -9.5t-15.5 -20.5t-25 -26.5t-32 -21t-38 -9.5q-32 0 -51 10t-38 31q-21 22 -40 22q-10 0 -22 -12t-19 -24l-7 -13z" />
<glyph unicode="&#xa2;" horiz-adv-x="513" d="M60 269q0 104 44.5 180.5t134.5 91.5v45h74v-43q73 -8 140 -73l-51 -51q-46 44 -89 52v-405q42 7 89 53l51 -51q-65 -65 -140 -73v-44h-74v46q-90 14 -134.5 90.5t-44.5 181.5zM134 269q0 -72 25 -128t80 -71v398q-55 -16 -80 -71.5t-25 -127.5z" />
<glyph unicode="&#xa3;" horiz-adv-x="584" d="M60 0v74q29 0 42.5 11t13.5 23v216h-56v73h56v165q0 79 59 134.5t142 57.5h14q109 0 193 -122l-66 -32q-51 80 -127 80h-14q-50 0 -88 -33.5t-38 -84.5v-165h194v-73h-194v-216l-4 -34h329v-74h-456z" />
<glyph unicode="&#xa5;" horiz-adv-x="694" d="M50 769h82q115 -241 199 -366q6 -9 16 -9t16 9q84 125 199 366h82q-131 -278 -227 -415q-13 -19 -32 -30h168v-73h-168v-40h168v-73h-168v-138h-76v138h-167v73h167v40h-167v73h167q-19 11 -32 30q-96 137 -227 415z" />
<glyph unicode="&#xa9;" horiz-adv-x="910" d="M60 387q0 164 115.5 279t279.5 115t279.5 -115t115.5 -279t-115.5 -279.5t-279.5 -115.5t-279.5 115.5t-115.5 279.5zM134 387q0 -133 95 -227.5t226 -94.5q133 0 227 94.5t94 227.5t-94 227t-227 94q-131 0 -226 -94.5t-95 -226.5zM268 387q0 97 46.5 164.5t140.5 67.5 h11q68 0 142 -65l-50 -53q-48 48 -92 48h-11q-59 0 -85.5 -47t-26.5 -115q0 -69 26.5 -116t85.5 -47h11q45 0 92 48q8 -8 16.5 -17t18 -19.5t15.5 -16.5q-74 -65 -142 -65h-11q-94 0 -140.5 67t-46.5 166z" />
<glyph unicode="&#xad;" d="M60 262v73h326v-73h-326z" />
<glyph unicode="&#xae;" horiz-adv-x="391" d="M50 633q0 60 42.5 103t103.5 43q58 0 101.5 -43t43.5 -103q0 -59 -42 -102t-103 -43q-58 0 -102 43t-44 102zM72 633q0 -50 36.5 -86.5t87.5 -36.5t87 36.5t36 86.5q0 51 -36 87.5t-87 36.5t-87.5 -36.5t-36.5 -87.5zM145 551v169h62q22 0 36 -14t14 -35q0 -29 -18 -39 q16 -12 16 -36v-45h-22v45q0 12 -8 19.5t-20 7.5h-37v-72h-23zM168 645h39q27 1 27 26q0 26 -27 26h-39v-52z" />
<glyph unicode="&#xb4;" horiz-adv-x="371" d="M60 616l147 163h104l-166 -163h-85z" />
<glyph unicode="&#x2000;" horiz-adv-x="422" />
<glyph unicode="&#x2001;" horiz-adv-x="845" />
<glyph unicode="&#x2002;" horiz-adv-x="422" />
<glyph unicode="&#x2003;" horiz-adv-x="845" />
<glyph unicode="&#x2004;" horiz-adv-x="281" />
<glyph unicode="&#x2005;" horiz-adv-x="211" />
<glyph unicode="&#x2006;" horiz-adv-x="140" />
<glyph unicode="&#x2007;" horiz-adv-x="140" />
<glyph unicode="&#x2008;" horiz-adv-x="105" />
<glyph unicode="&#x2009;" horiz-adv-x="169" />
<glyph unicode="&#x200a;" horiz-adv-x="46" />
<glyph unicode="&#x2010;" d="M60 262v73h326v-73h-326z" />
<glyph unicode="&#x2011;" d="M60 262v73h326v-73h-326z" />
<glyph unicode="&#x2012;" d="M60 262v73h326v-73h-326z" />
<glyph unicode="&#x2013;" horiz-adv-x="507" d="M60 263v72h387v-72h-387z" />
<glyph unicode="&#x2014;" horiz-adv-x="760" d="M60 263v72h640v-72h-640z" />
<glyph unicode="&#x2018;" horiz-adv-x="264" d="M60 545l72 234h72l-57 -234h-87z" />
<glyph unicode="&#x2019;" horiz-adv-x="264" d="M60 545l57 234h87l-72 -234h-72z" />
<glyph unicode="&#x201c;" horiz-adv-x="400" d="M60 545l57 234h87l-72 -234h-72zM196 545l57 234h87l-72 -234h-72z" />
<glyph unicode="&#x201d;" horiz-adv-x="400" d="M60 779h88l57 -234h-73zM197 779h87l56 -234h-72z" />
<glyph unicode="&#x2022;" horiz-adv-x="344" d="M60 297q0 47 33 79.5t79 32.5t79 -32.5t33 -79.5t-33 -79.5t-79 -32.5t-79 32.5t-33 79.5z" />
<glyph unicode="&#x2026;" horiz-adv-x="520" d="M60 50q0 21 14.5 35.5t35.5 14.5t35.5 -14.5t14.5 -35.5t-14.5 -35.5t-35.5 -14.5t-35.5 14.5t-14.5 35.5zM210 50q0 21 14.5 35.5t35.5 14.5t35.5 -14.5t14.5 -35.5t-14.5 -35.5t-35.5 -14.5t-35.5 14.5t-14.5 35.5zM360 50q0 21 14.5 35.5t35.5 14.5t35.5 -14.5 t14.5 -35.5t-14.5 -35.5t-35.5 -14.5t-35.5 14.5t-14.5 35.5z" />
<glyph unicode="&#x202f;" horiz-adv-x="169" />
<glyph unicode="&#x205f;" horiz-adv-x="211" />
<glyph unicode="&#x20ac;" horiz-adv-x="722" d="M60 290v71h62v48h-62v71h69q21 133 98.5 216t208.5 83h15q129 0 211 -86l-57 -53q-60 65 -154 65h-15q-95 0 -152 -62.5t-76 -162.5h259v-71h-267v-48h267v-71h-259q19 -101 76 -163.5t152 -62.5h15q94 0 154 65l57 -53q-82 -86 -211 -86h-15q-131 0 -208.5 83.5 t-98.5 216.5h-69z" />
<glyph unicode="&#x2122;" horiz-adv-x="533" d="M50 742v27h177v-27h-75v-216h-27v216h-75zM263 526v223q0 19 15.5 20t24.5 -17l65 -136l65 136q9 18 24.5 17t15.5 -20v-223h-27v193q-65 -135 -66 -137q-4 -7 -12 -7t-12 7l-66 137v-193h-27z" />
<glyph unicode="&#xe000;" horiz-adv-x="540" d="M0 0v540h540v-540h-540z" />
</font>
</defs>
</svg>
