<?xml version="1.0" encoding="utf-8"?>
<!-- Generator: Adobe Illustrator 16.0.0, SVG Export Plug-In . SVG Version: 6.00 Build 0)  -->
<!DOCTYPE svg PUBLIC "-//W3C//DTD SVG 1.1//EN" "http://www.w3.org/Graphics/SVG/1.1/DTD/svg11.dtd">
<svg version="1.1" id="Layer_1" xmlns="http://www.w3.org/2000/svg" xmlns:xlink="http://www.w3.org/1999/xlink" x="0px" y="0px"
	 width="281.307px" height="256.695px" viewBox="0 0 281.307 256.695" enable-background="new 0 0 281.307 256.695"
	 xml:space="preserve">
<g>
	
		<linearGradient id="SVGID_1_" gradientUnits="userSpaceOnUse" x1="-1079.4397" y1="-392.1055" x2="-947.8503" y2="-392.1055" gradientTransform="matrix(1 0 0 -1 1088.8203 -329.4951)">
		<stop  offset="0" style="stop-color:#E7AE00"/>
		<stop  offset="0.3144" style="stop-color:#FCC45E"/>
		<stop  offset="1" style="stop-color:#FCDD5E"/>
	</linearGradient>
	<path fill="url(#SVGID_1_)" d="M68.028,80.627c42.734-1.698,61.799,23.143,72.897,33.346c0-41.168,0.045-79.415,0.045-79.415
		S39.612-27.278,9.381,50.473l0.184,1.022c5.715,15.495,12.993,29.682,23.325,42.111C41.266,86.42,52.604,81.236,68.028,80.627z"/>
	
		<linearGradient id="SVGID_2_" gradientUnits="userSpaceOnUse" x1="-1081.0642" y1="-497.9028" x2="-947.6667" y2="-497.9028" gradientTransform="matrix(1 0 0 -1 1088.8203 -329.4951)">
		<stop  offset="0" style="stop-color:#3CB900"/>
		<stop  offset="0.3144" style="stop-color:#6DC06F"/>
		<stop  offset="1" style="stop-color:#6DC06F"/>
	</linearGradient>
	<path fill="url(#SVGID_2_)" d="M7.756,146.408c0,0,5.284,42.817,73.705,67.3c22.309,8.276,39.692,11.636,59.692,29.502
		c0-20.665,0-77.645,0-77.645s-8.154-16.115-50.026-31.726c-24.514-9.141-43.591-22.884-58.016-40.234
		c-22.185,19.027-25.306,51.988-25.306,51.988"/>
	<path fill="#C3C84A" d="M32.889,93.605C22.555,81.177,14.21,63.964,9.381,50.473c-9.504,26-1.81,95.781-1.81,95.781
		S10.707,112.632,32.889,93.605z"/>
	
		<linearGradient id="SVGID_3_" gradientUnits="userSpaceOnUse" x1="-1859.1921" y1="-392.1055" x2="-1727.6023" y2="-392.1055" gradientTransform="matrix(-1 0 0 -1 -1586.5894 -329.4951)">
		<stop  offset="0" style="stop-color:#E7AE00"/>
		<stop  offset="0.3144" style="stop-color:#FCC45E"/>
		<stop  offset="1" style="stop-color:#FCDD5E"/>
	</linearGradient>
	<path fill="url(#SVGID_3_)" d="M213.956,80.627c-42.736-1.698-61.8,23.143-72.898,33.346c0-41.168-0.045-79.415-0.045-79.415
		s101.359-61.837,131.59,15.914l-0.184,1.022c-5.714,15.495-12.993,29.682-23.323,42.111
		C240.718,86.42,229.379,81.236,213.956,80.627z"/>
	
		<linearGradient id="SVGID_4_" gradientUnits="userSpaceOnUse" x1="-1860.8171" y1="-497.9028" x2="-1727.7429" y2="-497.9028" gradientTransform="matrix(-1 0 0 -1 -1586.5894 -329.4951)">
		<stop  offset="0" style="stop-color:#3CB900"/>
		<stop  offset="0.3144" style="stop-color:#6DC06F"/>
		<stop  offset="1" style="stop-color:#6DC06F"/>
	</linearGradient>
	<path fill="url(#SVGID_4_)" d="M274.228,146.408c0,0-5.123,42.817-73.543,67.3c-22.312,8.276-40.531,11.636-59.531,29.502
		c0-20.665,0-77.645,0-77.645s7.992-16.115,49.863-31.726c24.516-9.141,43.514-22.884,57.938-40.234
		c22.183,19.027,25.265,51.988,25.265,51.988"/>
	<path fill="#C3C84A" d="M249.096,93.605c10.333-12.429,18.68-29.641,23.507-43.133c9.504,26,1.812,95.781,1.812,95.781
		S271.278,112.632,249.096,93.605z"/>
	
		<linearGradient id="SVGID_5_" gradientUnits="userSpaceOnUse" x1="-1859.1921" y1="-392.1055" x2="-1727.6023" y2="-392.1055" gradientTransform="matrix(-1 0 0 -1 -1586.5894 -329.4951)">
		<stop  offset="0" style="stop-color:#E16A61"/>
		<stop  offset="0.6314" style="stop-color:#E16A61"/>
		<stop  offset="1" style="stop-color:#E0454D"/>
	</linearGradient>
	<path fill="url(#SVGID_5_)" d="M213.956,80.627c-42.736-1.698-61.8,23.143-72.898,33.346c0-41.168-0.045-79.415-0.045-79.415
		s101.359-61.837,131.59,15.914l-0.184,1.022c-5.714,15.495-12.993,29.682-23.323,42.111
		C240.718,86.42,229.379,81.236,213.956,80.627z"/>
	
		<linearGradient id="SVGID_6_" gradientUnits="userSpaceOnUse" x1="-1860.8171" y1="-497.9028" x2="-1727.7429" y2="-497.9028" gradientTransform="matrix(-1 0 0 -1 -1586.5894 -329.4951)">
		<stop  offset="0" style="stop-color:#519ED3"/>
		<stop  offset="0.6314" style="stop-color:#519ED3"/>
		<stop  offset="1" style="stop-color:#007BB9"/>
	</linearGradient>
	<path fill="url(#SVGID_6_)" d="M274.228,146.408c0,0-5.123,42.817-73.543,67.3c-22.312,8.276-40.531,11.636-59.531,29.502
		c0-20.665,0-77.645,0-77.645s7.992-16.115,49.863-31.726c24.516-9.141,43.514-22.884,57.938-40.234
		c22.183,19.027,25.265,51.988,25.265,51.988"/>
	<path fill="#B05CA4" d="M249.096,93.605c10.333-12.429,18.68-29.641,23.507-43.133c9.504,26,1.812,95.781,1.812,95.781
		S271.278,112.632,249.096,93.605z"/>
</g>
</svg>
