<?xml version="1.0" standalone="no"?>
<!DOCTYPE svg PUBLIC "-//W3C//DTD SVG 1.1//EN" "http://www.w3.org/Graphics/SVG/1.1/DTD/svg11.dtd" >
<svg xmlns="http://www.w3.org/2000/svg">
<metadata></metadata>
<defs>
<font id="geniusregular" horiz-adv-x="913" >
<font-face units-per-em="2048" ascent="1536" descent="-512" />
<missing-glyph horiz-adv-x="614" />
<glyph horiz-adv-x="2048" />
<glyph horiz-adv-x="2048" />
<glyph unicode="&#xd;" horiz-adv-x="2048" />
<glyph unicode=" "  horiz-adv-x="614" />
<glyph unicode="&#x09;" horiz-adv-x="614" />
<glyph unicode="&#xa0;" horiz-adv-x="614" />
<glyph unicode="!" horiz-adv-x="552" d="M188 102q4 42 39 72.5t78 30.5q42 0 67.5 -30t20.5 -73q-6 -43 -40 -72.5t-77 -29.5t-68.5 29.5t-19.5 72.5zM246 348l174 1227h153l-174 -1227h-153z" />
<glyph unicode="&#x22;" horiz-adv-x="698" d="M293 1094l51 481h170l-82 -481h-139zM578 1094l49 481h170l-82 -481h-137z" />
<glyph unicode="#" horiz-adv-x="1474" d="M188 475l45 148h259l104 331h-258l45 148h258l150 473h161l-149 -473h284l150 473h162l-150 -473h256l-45 -148h-256l-104 -331h256l-45 -148h-256l-148 -475h-162l148 475h-285l-147 -475h-162l147 475h-258zM653 623h285l104 331h-284z" />
<glyph unicode="$" horiz-adv-x="1316" d="M141 135l72 146q184 -125 377 -146l84 606q-415 110 -367 449q23 164 156 270.5t332 128.5l18 142h152l-19 -138q100 -8 203 -37.5t168 -56.5l-68 -143q-189 72 -325 84l-80 -572q70 -20 130 -46.5t117 -66t94.5 -87t56.5 -112t9 -138.5q-4 -26 -10.5 -53.5t-24 -70 t-42 -80t-66 -78.5t-93.5 -71.5t-128.5 -53.5t-167.5 -29l-19 -138h-151l18 140q-228 22 -426 151zM463 1190q-29 -200 235 -285l74 533q-78 -12 -139 -41t-95.5 -66.5t-52.5 -72.5t-22 -68zM741 135q141 14 239 87t116 196q28 193 -275 287z" />
<glyph unicode="%" horiz-adv-x="1605" d="M291 1198q9 65 22 116.5t37 102t56.5 84t82.5 54t113 20.5t107 -20.5t67 -54t32.5 -84.5t8.5 -102t-10 -116q-10 -65 -23 -115.5t-37 -101t-56 -84t-82 -54t-113 -20.5t-107 20.5t-67.5 54t-33 84t-8 101.5t10.5 115zM422 1198q-8 -53 -9 -92.5t6.5 -77.5t31 -58 t63.5 -20t69 20t47 58t28 77t18 93q7 66 8 121.5t-23.5 92t-76.5 36.5q-40 0 -69.5 -20.5t-47.5 -58t-28 -78t-17 -93.5zM461 0l749 1575h158l-752 -1575h-155zM1018 375q12 83 31 144.5t53.5 117.5t91.5 85.5t135 29.5q63 0 107 -20.5t67.5 -54t33 -84t8 -102t-10.5 -116.5 q-9 -64 -21.5 -115t-36.5 -101.5t-56.5 -84t-82 -54t-112.5 -20.5q-78 0 -127.5 31t-67.5 82.5t-21.5 119.5t9.5 142zM1149 375q-7 -54 -8 -92.5t6 -77t30.5 -58.5t63.5 -20t69.5 20t47.5 58t28 78t17 92q8 54 9 93.5t-6.5 78t-31 58.5t-63.5 20t-69 -20t-47 -58.5t-28 -78 t-18 -93.5z" />
<glyph unicode="&#x26;" horiz-adv-x="1419" d="M174 375q9 62 37.5 118.5t77.5 109.5t96.5 93.5t118.5 94.5q-144 201 -113 423q15 105 76 185.5t143.5 120t171.5 39.5q63 0 120 -23.5t100 -66.5t63.5 -109.5t9.5 -145.5q-8 -54 -32.5 -106t-55.5 -93.5t-80 -87.5t-90 -79t-102 -78l291 -391q38 40 79 89t63 78l21 29 l109 -90q-90 -117 -182 -217l200 -268h-192l-127 162q-219 -182 -416 -182q-58 0 -114.5 12t-112 41.5t-95 73t-58.5 113t-7 155.5zM330 375q-15 -113 57 -179.5t195 -66.5q141 0 307 141l-301 408q-116 -86 -181.5 -158t-76.5 -145zM549 1214q-11 -99 8.5 -169.5 t75.5 -159.5q61 42 105 77t86 77t67 86t31 89q10 75 -32.5 137t-127.5 62q-87 0 -147.5 -61.5t-65.5 -134.5v-3z" />
<glyph unicode="'" horiz-adv-x="415" d="M291 1094l53 481h170l-84 -481h-139z" />
<glyph unicode="(" horiz-adv-x="749" d="M205 596q89 616 569 999l80 -114q-416 -328 -496 -885q-77 -557 248 -885l-112 -114q-375 385 -289 999z" />
<glyph unicode=")" horiz-adv-x="749" d="M61 -289q417 329 494 885q80 556 -246 885l113 114q376 -385 287 -999q-86 -615 -568 -999z" />
<glyph unicode="*" horiz-adv-x="1015" d="M295 1233l70 164l241 -97l35 275h176l-43 -275l266 97l25 -164l-264 -76l131 -207l-150 -100l-125 221l-186 -221l-121 100l189 207z" />
<glyph unicode="+" horiz-adv-x="1224" d="M197 537l22 149h416l57 416h148l-58 -416h416l-22 -149h-416l-58 -414h-147l57 414h-415z" />
<glyph unicode="," horiz-adv-x="542" d="M88 -246l184 482h181l-217 -482h-148z" />
<glyph unicode="-" d="M197 537l22 149h668l-23 -149h-667z" />
<glyph unicode="." horiz-adv-x="450" d="M137 102q4 42 39 72.5t78 30.5q42 0 67.5 -30t20.5 -73q-6 -43 -40 -72.5t-77 -29.5t-68.5 29.5t-19.5 72.5z" />
<glyph unicode="/" horiz-adv-x="1054" d="M123 0l860 1575h170l-858 -1575h-172z" />
<glyph unicode="0" horiz-adv-x="1290" d="M231 786q13 95 29 174t42.5 164.5t59.5 152t82 128t108.5 102t140 64.5t175.5 24t168.5 -24t121.5 -64.5t79.5 -102t45.5 -128t16.5 -152.5t-4 -164.5t-19.5 -173.5q-13 -94 -28.5 -173t-42 -164t-59.5 -151.5t-81.5 -127.5t-108 -101.5t-140 -64.5t-175.5 -24t-168.5 24 t-121.5 64t-79.5 102t-46 128t-17 151.5t3.5 163.5t19 173zM387 786q-11 -79 -16.5 -142t-5.5 -134t9 -124.5t30 -104t54 -83t84.5 -52t119.5 -19.5t125 19.5t99.5 52t77.5 83t59 104.5t43.5 124t31 134t22.5 142q11 79 17.5 143t6.5 135t-8.5 125t-29 105t-54 84t-85 52.5 t-119.5 19.5t-125 -19.5t-99.5 -52.5t-77.5 -84t-59 -105t-44 -125t-32 -134.5t-24 -143.5z" />
<glyph unicode="1" horiz-adv-x="671" d="M274 1231l361 319q22 21 53 24.5t53.5 -17.5t16.5 -64l-209 -1493h-150l183 1309l-211 -187z" />
<glyph unicode="2" horiz-adv-x="1202" d="M168 131q422 388 760 780q182 230 125 377q-26 71 -91.5 111.5t-148.5 40.5q-102 0 -194.5 -62.5t-143.5 -167.5l-143 27q79 170 216.5 264t287.5 94q119 0 221 -58.5t149 -170.5q47 -126 -3.5 -268t-160.5 -279q-171 -215 -634 -661h692l-21 -158h-870q-44 0 -63 21.5 t-12 51.5t34 58z" />
<glyph unicode="3" horiz-adv-x="1165" d="M158 248l147 69q40 -87 110.5 -133.5t147.5 -46.5h37q126 0 224.5 83.5t117.5 207.5q20 136 -66.5 226.5t-220.5 90.5h-100l20 150h101q125 0 229 89.5t119 207.5q15 107 -55.5 177.5t-177.5 70.5h-39q-75 0 -149 -44t-132 -126l-129 71q184 254 432 254h39 q179 -5 286.5 -121t82.5 -282q-17 -113 -86 -209.5t-168 -159.5q92 -61 141.5 -167t32.5 -228q-18 -127 -98.5 -231t-194 -160.5t-231.5 -56.5h-37q-123 8 -223.5 73.5t-159.5 194.5z" />
<glyph unicode="4" horiz-adv-x="1329" d="M221 580q148 166 434.5 499.5t380.5 440.5q22 25 51.5 40t57.5 15q41 0 65 -28.5t17 -78.5l-123 -878h205l-21 -152h-205l-61 -438h-156l62 438h-647q-47 0 -69 24t-18 56t27 62zM422 590h526l103 723q-104 -117 -307.5 -353t-321.5 -370z" />
<glyph unicode="5" horiz-adv-x="1163" d="M156 242l155 51q36 -83 107 -123.5t147 -40.5q153 0 257.5 99.5t125.5 250.5q24 168 -54 254t-239 86q-74 0 -151.5 -14.5t-124.5 -34.5h2q-50 -24 -83 -3t-26 73l93 651q5 31 34 57.5t60 26.5h733l-23 -154h-657l-66 -473q126 29 232 29q235 0 347.5 -133t80.5 -365 q-29 -217 -187.5 -358t-373.5 -141q-77 0 -151 25t-141 86.5t-97 150.5z" />
<glyph unicode="6" horiz-adv-x="1202" d="M229 762q54 375 201 573q86 111 215.5 175.5t274.5 64.5q125 0 284 -57l-71 -140q-127 47 -234 47q-96 0 -189 -42.5t-157 -122.5q-114 -156 -158 -396q175 109 357 109q103 0 185.5 -40t132 -108t70 -158t5.5 -190q-30 -216 -171.5 -356.5t-348.5 -140.5 q-77 0 -140 15.5t-107.5 41t-77.5 66.5t-52.5 84t-30.5 101.5t-14 110.5t0.5 120t9.5 121t16 122zM367 651q-65 -522 276 -522q141 0 231.5 100t112.5 248q22 151 -50.5 248.5t-205.5 97.5q-114 0 -211.5 -50.5t-152.5 -121.5z" />
<glyph unicode="7" horiz-adv-x="1169" d="M279 0l794 1405h-754l21 154h860q39 0 57 -19.5t17 -46t-14 -53.5l-816 -1440h-165z" />
<glyph unicode="8" horiz-adv-x="1208" d="M182 424q18 132 93 234.5t190 162.5q-167 134 -135 359q12 81 53.5 155.5t105.5 132.5t152 92.5t186 34.5q129 0 222 -59t133 -153.5t24 -202.5q-14 -114 -76 -205t-157 -154q99 -60 144.5 -162t27.5 -235q-18 -127 -97.5 -229t-197.5 -157.5t-250 -55.5 q-204 0 -324.5 124.5t-93.5 317.5zM338 424q-19 -124 59 -208.5t224 -84.5t247.5 84t120.5 209q18 135 -66.5 225t-215.5 90q-85 0 -165 -39.5t-136 -113t-68 -162.5zM483 1180q-15 -120 54 -206.5t190 -86.5q122 0 216.5 87t109.5 206q15 110 -54.5 188t-191.5 78 t-215.5 -78.5t-108.5 -187.5z" />
<glyph unicode="9" horiz-adv-x="1222" d="M215 37l72 139q124 -47 231 -47q96 0 190 43t158 123q111 157 158 395q-178 -108 -358 -108q-137 0 -234.5 68.5t-138 180.5t-21.5 246q32 217 174 357.5t349 140.5q77 0 140 -15.5t107.5 -41t77 -66.5t52.5 -84t30.5 -101.5t13.5 -110.5t-0.5 -120t-9.5 -121t-16 -122 q-54 -376 -201 -574q-87 -112 -215.5 -175.5t-273.5 -63.5q-130 0 -285 57zM430 1077q-20 -151 52.5 -248.5t205.5 -97.5q114 0 212.5 51t150.5 121q9 70 10.5 131.5t-5.5 122t-27 108t-52.5 84t-84 56.5t-118.5 20q-141 0 -231.5 -100t-112.5 -248z" />
<glyph unicode=":" horiz-adv-x="450" d="M137 102q4 42 39 72.5t78 30.5q42 0 67.5 -30t20.5 -73q-6 -43 -40 -72.5t-77 -29.5t-68.5 29.5t-19.5 72.5zM262 999q6 43 40 73t77 30t68.5 -30t19.5 -73t-40 -72.5t-77 -29.5t-68.5 29.5t-19.5 72.5z" />
<glyph unicode=";" horiz-adv-x="501" d="M47 -246l184 482h181l-217 -482h-148zM309 999q6 43 40 73t77 30t68.5 -30t19.5 -73t-40 -72.5t-77 -29.5t-68.5 29.5t-19.5 72.5z" />
<glyph unicode="&#x3c;" horiz-adv-x="1183" d="M225 479q-33 33 -24.5 76.5t45.5 67.5l954 524l-24 -178l-762 -418l645 -418l-27 -178z" />
<glyph unicode="=" horiz-adv-x="1079" d="M176 379l19 145h833l-18 -145h-834zM219 690l21 148h833l-20 -148h-834z" />
<glyph unicode="&#x3e;" horiz-adv-x="1183" d="M135 -45l27 178l760 418l-643 418l24 178l807 -524q35 -31 26.5 -76.5t-46.5 -67.5z" />
<glyph unicode="?" horiz-adv-x="1179" d="M317 1391q109 106 235 155t245 49q230 0 341.5 -108.5t84.5 -294.5q-9 -62 -34 -117t-52.5 -91t-74.5 -74t-77 -57.5t-84 -51.5q-44 -27 -65.5 -42t-51 -39.5t-43.5 -49t-18 -52.5l-39 -270h-154l39 270q8 54 30 97.5t59 78.5t69 57.5t83 54.5l15 9q46 28 67.5 42 t59 43.5t56 53.5t36.5 60.5t23 77.5q18 124 -60 188t-231 64q-193 0 -350 -141zM473 102q4 42 39 72.5t78 30.5q42 0 67.5 -30t20.5 -73q-6 -43 -40 -72.5t-77 -29.5t-68.5 29.5t-19.5 72.5z" />
<glyph unicode="@" horiz-adv-x="1859" d="M250 696q10 68 28 139.5t53.5 162t82.5 171.5t119 160.5t158.5 137t205.5 93t256 35.5t246.5 -35.5t179.5 -93t120 -137t74 -160.5t34 -171.5t7.5 -162.5t-12.5 -139q-14 -100 -43.5 -181.5t-67 -134t-82.5 -88.5t-87.5 -51.5t-83.5 -15.5q-84 0 -128 25.5t-79 77.5 q-113 -109 -270 -109q-80 0 -141.5 26t-97.5 71.5t-58 106t-23.5 130t6.5 143.5q11 74 33 142t60 130t87 107t118 72t149 27t141.5 -26.5t97 -72.5t57.5 -107t22.5 -130t-7.5 -142l-35 -247q-4 -33 20.5 -53.5t63.5 -20.5q23 0 50 17t55 52.5t52 101t36 150.5q8 54 10 114 t-6.5 134.5t-27.5 143t-58.5 135t-95 115t-142 78.5t-194.5 30t-203 -30t-164 -78.5t-127.5 -115t-97 -135t-68 -143t-44.5 -134.5t-23 -114q-7 -54 -8.5 -113.5t6.5 -134.5t27.5 -143t59 -134.5t95 -115t142 -78.5t194.5 -30q100 0 188 14t142.5 34t94.5 40.5t57 34.5 l17 14l64 -119q-7 -7 -20.5 -18t-65 -40t-112.5 -51.5t-165 -40.5t-221 -18q-137 0 -246.5 35t-179.5 92.5t-120 136.5t-74 160t-34 171.5t-8 162.5t11 141zM801 696q-11 -61 -6 -120t22 -105.5t59 -75t105 -28.5t112 28t80 76.5t50 104t28 120.5q11 60 6 119t-21.5 106 t-58.5 76t-104 29t-112 -28.5t-81.5 -77.5t-50.5 -104.5t-28 -119.5z" />
<glyph unicode="A" horiz-adv-x="1462" d="M102 0q74 210 263.5 662t369.5 794q31 58 86 88.5t121 30.5h21q66 0 111.5 -30.5t58.5 -88.5q58 -237 112 -574t78 -541.5t37 -340.5h-164q-11 105 -59 512h-668q-98 -229 -203 -512h-164zM532 664h582q-57 407 -127 722q-10 37 -47 37h-20q-40 0 -56 -37 q-152 -297 -332 -722z" />
<glyph unicode="B" horiz-adv-x="1296" d="M123 0l221 1575h596q201 0 302 -111.5t73 -310.5q-34 -225 -215 -338q85 -56 119 -154t16 -219q-19 -137 -93.5 -238.5t-184 -152.5t-238.5 -51h-596zM297 152h442q12 0 27.5 1t46.5 7.5t60 17t63.5 32.5t61 51.5t48 76t29.5 104.5q9 45 4 81.5t-12.5 65t-24.5 50 t-33.5 37t-40 26t-42 16.5t-40.5 9.5t-36.5 4.5t-28.5 1h-442zM399 885h443q18 0 41.5 2.5t70.5 17.5t84.5 41t72 80t44.5 127q10 71 -5.5 124t-43 80t-67.5 43t-67 19.5t-54 3.5h-443z" />
<glyph unicode="C" horiz-adv-x="1351" d="M233 788q17 128 57 245t105.5 220t150.5 179t199 119.5t244 43.5h31q264 0 407 -176l-133 -108q-105 133 -295 133h-30q-98 0 -184.5 -36t-151 -98t-114.5 -146t-81 -178.5t-45 -197.5q-14 -84 -11.5 -166t15.5 -155t45.5 -134.5t77.5 -106.5t112.5 -70t149.5 -25h31 q194 0 336 133l100 -108q-191 -176 -456 -176h-31q-109 0 -198 30.5t-150.5 85.5t-105.5 130.5t-63 165.5t-24 190.5t12 205.5z" />
<glyph unicode="D" horiz-adv-x="1339" d="M123 0l221 1575h479q93 0 170.5 -23t133.5 -63.5t98 -98t67 -125.5t37 -147t11 -161t-13 -169q-18 -124 -54.5 -236t-98 -214t-141.5 -176.5t-191 -118t-240 -43.5h-479zM297 152h326q100 0 184.5 37.5t144 99t105.5 145.5t72 171.5t40 182.5q11 78 11 151.5t-11.5 146.5 t-39.5 133t-70.5 106t-108.5 72t-149 26h-326z" />
<glyph unicode="E" horiz-adv-x="1183" d="M154 225l157 1125q15 103 86.5 164t175.5 61h709l-22 -152h-709q-35 0 -57 -19.5t-27 -53.5l-66 -467h742l-21 -152h-741l-72 -506q-5 -34 12 -53.5t52 -19.5h708l-20 -152h-709q-104 0 -158 61.5t-40 163.5z" />
<glyph unicode="F" horiz-adv-x="1183" d="M123 0l188 1350q15 103 86.5 164t175.5 61h709l-22 -152h-709q-35 0 -57 -19.5t-27 -53.5l-66 -467h742l-21 -152h-741l-102 -731h-156z" />
<glyph unicode="G" horiz-adv-x="1404" d="M233 788q17 128 57 245t105.5 220t150.5 179t199 119.5t244 43.5h31q264 0 407 -176l-133 -108q-105 133 -295 133h-30q-98 0 -184 -36t-150.5 -98t-115 -146t-81.5 -178.5t-45 -197.5q-12 -103 -10.5 -198.5t29.5 -179t74 -145.5t122 -98t174 -36h31q134 0 242 63.5 t119 143.5l51 373h-351l23 151h506l-74 -524q-23 -157 -178 -257.5t-358 -100.5h-31q-109 0 -198 30.5t-150.5 85.5t-105.5 130.5t-63 165.5t-24 190.5t12 205.5z" />
<glyph unicode="H" horiz-adv-x="1312" d="M123 0l221 1575h154l-99 -692h760l98 692h154l-221 -1575h-154l103 731h-760l-103 -731h-153z" />
<glyph unicode="I" horiz-adv-x="522" d="M164 0l221 1575h154l-222 -1575h-153z" />
<glyph unicode="J" horiz-adv-x="1038" d="M117 109l110 120q113 -98 238 -98q144 0 240.5 87.5t117.5 227.5l160 1129h154l-160 -1129q-30 -214 -177.5 -340t-355.5 -126q-173 0 -327 129z" />
<glyph unicode="K" horiz-adv-x="1273" d="M123 0l221 1575h154l-95 -670h60q233 192 405.5 344t343.5 326h195q-406 -409 -817 -748q142 -150 286.5 -353t313.5 -474h-189q-284 453 -559 750h-61l-105 -750h-153z" />
<glyph unicode="L" horiz-adv-x="1099" d="M154 225l190 1350h156l-191 -1350q-5 -34 11 -53.5t49 -19.5h669l-20 -152h-670q-101 0 -154.5 62t-39.5 163z" />
<glyph unicode="M" horiz-adv-x="1589" d="M123 0l203 1456q7 55 37 87t71 32q64 0 94 -80l342 -942l609 942q56 80 118 80q40 0 59.5 -32t12.5 -87l-203 -1456h-153l178 1278l-576 -922q-34 -47 -77 -47q-47 0 -66 47l-317 922l-179 -1278h-153z" />
<glyph unicode="N" horiz-adv-x="1366" d="M123 0l203 1456q7 55 37 87t71 32q33 0 54 -19.5t44 -60.5l598 -1198l181 1278h153l-204 -1456q-7 -55 -37 -87t-70 -32q-33 0 -55.5 19.5t-44.5 60.5l-598 1198l-179 -1278h-153z" />
<glyph unicode="O" horiz-adv-x="1531" d="M233 788q17 128 57 245t105.5 220t150.5 179t199 119.5t244 43.5q94 0 173 -22.5t137.5 -64t104 -99t72 -127.5t42 -150.5t14 -166.5t-11.5 -177q-18 -128 -58 -245t-106 -220.5t-151 -179t-199 -119.5t-244 -44q-109 0 -198 30.5t-150.5 85.5t-105.5 130.5t-63 165.5 t-24 190.5t12 205.5zM393 788q-12 -103 -10.5 -198.5t29.5 -179t74 -145.5t122 -98t174 -36q122 0 224.5 54.5t173 148t116 209t64.5 245.5q14 84 11 165.5t-16.5 154t-46.5 134.5t-78 106.5t-112 70t-149 25.5q-98 0 -184 -36t-150.5 -98t-115 -146t-81.5 -178.5 t-45 -197.5z" />
<glyph unicode="P" horiz-adv-x="1298" d="M123 0l221 1575h612q102 0 184.5 -39.5t131.5 -105.5t70 -153t8 -181q-19 -128 -90 -237t-187 -177t-252 -68h-459l-86 -614h-153zM383 766h459q126 0 228 96.5t122 233.5q19 138 -56.5 232.5t-201.5 94.5h-459z" />
<glyph unicode="Q" horiz-adv-x="1554" d="M233 788q17 128 57 245t105.5 220t150.5 179t199 119.5t244 43.5q94 0 173 -22.5t137.5 -64t104 -99t72 -127.5t42 -150.5t14 -166.5t-11.5 -177q-27 -186 -100.5 -348t-190.5 -274q7 -18 19.5 -36.5t37.5 -44t69.5 -50t102.5 -41.5q1 0 -13.5 -36.5t-28.5 -73.5l-15 -36 q-8 2 -23 7t-56 23.5t-77.5 41t-79.5 62t-71 84.5q-150 -86 -332 -86q-109 0 -198 30.5t-150.5 85.5t-105.5 130.5t-63 165.5t-24 190.5t12 205.5zM393 788q-12 -103 -10.5 -198.5t29.5 -179t74 -145.5t122 -98t174 -36q122 0 224.5 54.5t173 148t116 209t64.5 245.5 q14 84 11 165.5t-16.5 154t-46.5 134.5t-78 106.5t-112 70t-149 25.5q-98 0 -184 -36t-150.5 -98t-115 -146t-81.5 -178.5t-45 -197.5z" />
<glyph unicode="R" horiz-adv-x="1277" d="M123 0l221 1575h592q208 0 316.5 -123.5t80.5 -316.5q-18 -128 -85.5 -223t-162.5 -148q156 -127 123 -356l-55 -408h-156l56 408q20 132 -50.5 210t-191.5 78h-438l-97 -696h-153zM395 848h439q130 0 227 77t115 210q20 135 -56 211.5t-207 76.5h-438z" />
<glyph unicode="S" horiz-adv-x="1316" d="M141 135l72 146q225 -150 453 -150q108 0 198.5 30t154.5 96.5t77 160.5q8 55 -13 103t-58 80t-91 59t-103 42t-104 27q-469 101 -420 461q26 184 187 294.5t395 110.5q110 0 231 -31.5t197 -64.5l-68 -143q-39 17 -87.5 34t-134.5 35.5t-159 18.5q-84 0 -153.5 -18 t-113.5 -45.5t-75 -63t-45 -67t-18 -60.5q-10 -67 14 -121t73 -89t103 -57t119 -36q78 -18 146 -42.5t136 -65t114 -90t70 -119.5t13 -152q-4 -28 -11.5 -57t-26.5 -74t-46.5 -84.5t-75 -81.5t-107 -72t-147.5 -49.5t-192 -19.5q-266 3 -504 155z" />
<glyph unicode="T" horiz-adv-x="1333" d="M301 1423l23 152h1128l-22 -152h-488l-199 -1423h-153l198 1423h-487z" />
<glyph unicode="U" horiz-adv-x="1337" d="M213 647l131 928h154l-131 -928q-9 -81 -10.5 -156t17 -140.5t51 -114.5t91.5 -77t139 -28h60q79 0 146 28.5t114.5 76.5t84 115t58 140t33.5 156l131 928h154l-131 -928q-15 -107 -42.5 -199.5t-77 -180.5t-115.5 -150t-162.5 -99.5t-213.5 -37.5h-59q-98 0 -174 25.5 t-125 72.5t-80.5 108t-43.5 138t-11.5 156t12.5 167z" />
<glyph unicode="V" horiz-adv-x="1503" d="M344 1575h164q82 -823 207 -1387q9 -36 47 -36h20q40 0 56 36q282 550 600 1387h164q-82 -228 -269 -672.5t-366 -783.5q-32 -59 -85.5 -89t-119.5 -30h-21q-67 0 -113 30.5t-59 88.5q-58 238 -111.5 571t-78.5 547.5t-35 337.5z" />
<glyph unicode="W" horiz-adv-x="1974" d="M344 1575h164q2 -230 32 -578.5t56 -568.5t33 -258q5 -16 16 -16q15 0 19 16l380 983q38 94 117 94q34 0 60 -22t32 -72l103 -983q4 -16 14 -16q16 0 21 16q28 66 107.5 264.5t211 555t199.5 585.5h164q-149 -556 -541 -1452q-26 -56 -73.5 -89.5t-110.5 -33.5 q-58 0 -99.5 33t-48.5 90q-16 133 -50 445t-36 341q-5 -11 -64 -162.5t-134 -345t-109 -278.5q-23 -57 -72.5 -90t-107.5 -33q-63 0 -103 33.5t-49 89.5q-141 901 -131 1452z" />
<glyph unicode="X" horiz-adv-x="1441" d="M102 0q162 270 290.5 452t295.5 373q-112 185 -186 362t-135 388h165q57 -180 139.5 -365.5t162.5 -302.5q4 -8 12 -8q4 0 16 8q113 117 247.5 302.5t242.5 365.5h166q-125 -215 -249 -391.5t-286 -358.5q112 -191 190.5 -372.5t165.5 -452.5h-165q-77 253 -181 467 t-149 266q-10 10 -19 10q-12 0 -22 -10q-62 -55 -225.5 -268t-309.5 -465h-166z" />
<glyph unicode="Y" horiz-adv-x="1421" d="M324 1575h168q80 -241 147.5 -414.5t153.5 -335.5q12 -18 30 -18q23 0 35 18q91 112 186.5 248t159 235t168.5 267h168q-361 -585 -586 -850q-34 -41 -73 -61l-93 -664h-155l92 664q-37 22 -57 61q-160 287 -344 850z" />
<glyph unicode="Z" horiz-adv-x="1325" d="M172 182l1036 1241h-846l23 152h922q51 0 76 -29t20.5 -71t-35.5 -82l-1036 -1241h891l-21 -152h-966q-51 0 -76.5 29t-21.5 71t34 82z" />
<glyph unicode="[" horiz-adv-x="663" d="M55 -473l289 2048h397l-22 -150h-246l-246 -1749h246l-20 -149h-398z" />
<glyph unicode="\" d="M344 1575h168l279 -1575h-166z" />
<glyph unicode="]" horiz-adv-x="663" d="M76 -473l20 149h246l246 1749h-246l23 150h397l-289 -2048h-397z" />
<glyph unicode="^" horiz-adv-x="1101" d="M254 942l453 612q32 40 67 40t55 -40l281 -612h-168l-199 430l-321 -430h-168z" />
<glyph unicode="_" horiz-adv-x="1462" d="M55 -473l21 149h1216l-20 -149h-1217z" />
<glyph unicode="`" horiz-adv-x="718" d="M346 1595h189l239 -319h-149z" />
<glyph unicode="a" horiz-adv-x="1062" d="M152 354q15 107 73 191.5t164 137t246 52.5q62 0 124.5 -15.5t94.5 -30.5l31 -15q8 67 2.5 121.5t-24.5 93t-64 59.5t-115 21q-138 0 -309 -109l-74 115q202 139 404 139q63 0 113 -12t85.5 -30t61 -49t40.5 -60t23 -73t10 -76.5t-1 -83t-6.5 -80.5t-10.5 -79l-80 -571 h-149l20 160q-39 -61 -131.5 -116.5t-198.5 -55.5q-82 0 -145.5 22t-100 58.5t-60 84t-26 99t2.5 102.5zM301 354q-5 -35 1 -70.5t25 -71t64 -57.5t111 -22q136 0 234.5 108.5t129.5 309.5q-110 43 -252 43q-138 0 -219 -69t-94 -171z" />
<glyph unicode="b" horiz-adv-x="1138" d="M123 0l221 1575h150l-91 -633q42 61 134 116.5t198 55.5q95 0 168.5 -31t117 -84.5t70.5 -125.5t29 -153.5t-8 -168.5q-12 -88 -39 -168.5t-72.5 -153.5t-105 -126t-141 -84t-176.5 -31q-106 0 -183 55.5t-102 116.5l-21 -160h-149zM348 551q-6 -61 -5.5 -120.5 t18 -113.5t46 -95t78 -65t113.5 -24q80 0 146.5 36.5t110 97.5t70.5 133t38 151q7 61 7 120.5t-17.5 113.5t-45.5 95t-77.5 65t-114.5 24q-79 0 -145.5 -36.5t-110.5 -97.5t-72 -133t-39 -151z" />
<glyph unicode="c" horiz-adv-x="1019" d="M178 551q16 111 56.5 209.5t105 179t161.5 127.5t214 47h28q179 0 310 -151l-121 -105q-97 111 -209 111h-29q-79 0 -145.5 -36.5t-110 -98t-71.5 -133t-39 -150.5q-6 -61 -5.5 -120.5t18 -113.5t46 -95t78 -65t113.5 -24h28q110 0 240 111l90 -105q-173 -151 -350 -151 h-29q-94 0 -167.5 31t-117 84.5t-71 125.5t-30 153.5t6.5 168.5z" />
<glyph unicode="d" horiz-adv-x="1138" d="M178 551q13 88 40 168.5t73 153.5t105.5 126t141.5 84t177 31q106 0 182.5 -55.5t99.5 -116.5l90 633h150l-221 -1575h-150l21 160q-39 -61 -131.5 -116.5t-198.5 -55.5q-79 0 -144 22t-108 60.5t-74.5 91.5t-44 115.5t-16.5 132t8 141.5zM328 551q-6 -61 -5.5 -120.5 t18 -113.5t45.5 -95t77.5 -65t114.5 -24q79 0 145.5 36.5t110 97.5t70.5 133t38 151q7 61 6.5 120.5t-18 113.5t-45.5 95t-77.5 65t-113.5 24q-80 0 -146.5 -36.5t-110 -98t-71 -133t-38.5 -150.5z" />
<glyph unicode="e" horiz-adv-x="1081" d="M178 551q13 89 39.5 169t71.5 153t103 126t138.5 84t174.5 31q67 0 123.5 -16t95 -44t69 -65.5t46 -81t26 -91t8.5 -94.5t-6 -91q-12 -88 -57 -126t-133 -38h-553q-7 -66 4.5 -123.5t43 -106t92.5 -76.5t146 -28q150 0 291 84l62 -119q-170 -110 -373 -110 q-91 0 -163.5 22.5t-119 61.5t-79 92.5t-44.5 116.5t-15 131.5t9 138.5zM342 612h555q15 0 18 17q3 42 3.5 87.5t-14.5 90.5t-39.5 81t-71.5 58.5t-109 22.5q-73 0 -133 -30t-100.5 -82.5t-66.5 -113t-42 -131.5z" />
<glyph unicode="f" horiz-adv-x="815" d="M236 958l20 144h193l24 174q20 133 106 216t222 83h133l-21 -145h-133q-65 0 -105.5 -40.5t-51.5 -113.5l-25 -174h268l-20 -144h-268l-134 -958h-149l133 958h-192z" />
<glyph unicode="g" horiz-adv-x="1159" d="M184 -383l84 129q138 -76 281 -76h18q131 0 213.5 87.5t102.5 222.5l24 180q-40 -61 -131.5 -116.5t-197.5 -55.5q-94 0 -167.5 31t-117 84.5t-71 125.5t-30 153.5t6.5 168.5q13 88 40.5 168.5t73 153.5t105 126t141.5 84t176 31q106 0 183 -55.5t100 -116.5l22 160h150 l-158 -1122q-35 -209 -161 -331t-324 -122h-19q-177 0 -344 90zM348 551q-6 -61 -5.5 -120.5t18 -113.5t46 -95t78 -65t113.5 -24q80 0 146.5 36.5t110 97.5t70.5 133t38 151q7 61 7 120.5t-17.5 113.5t-45.5 95t-77.5 65t-114.5 24q-79 0 -145.5 -36.5t-110.5 -97.5 t-72 -133t-39 -151z" />
<glyph unicode="h" horiz-adv-x="1097" d="M123 0l221 1575h150l-91 -633q44 64 126 118t186 54q91 0 160.5 -31t111 -84.5t66.5 -125.5t26.5 -153.5t-8.5 -168.5l-76 -551h-147l76 551q14 75 6.5 150t-30 134.5t-76 96.5t-130.5 37t-140 -36.5t-103.5 -98t-65.5 -132.5t-37 -151l-76 -551h-149z" />
<glyph unicode="i" horiz-adv-x="444" d="M147 0l154 1102h150l-154 -1102h-150zM315 1370q4 41 37.5 69.5t75.5 28.5q41 0 66 -28.5t20 -69.5q-6 -41 -39 -69.5t-74 -28.5t-66.5 28.5t-19.5 69.5z" />
<glyph unicode="j" horiz-adv-x="561" d="M-106 -473l20 151q305 9 344 291l160 1133h149l-159 -1133q-13 -94 -52 -170.5t-91.5 -126t-117.5 -83.5t-128 -48t-125 -14zM432 1370q4 41 37.5 69.5t75.5 28.5q41 0 66 -28.5t20 -69.5q-6 -41 -39 -69.5t-74 -28.5t-66.5 28.5t-19.5 69.5z" />
<glyph unicode="k" horiz-adv-x="1044" d="M123 0l221 1575h150l-129 -911q94 64 263 208t255 230h211q-124 -119 -302.5 -273.5t-293.5 -240.5q93 -96 223.5 -257.5t251.5 -330.5h-201q-56 83 -206 263t-222 251l-72 -514h-149z" />
<glyph unicode="l" horiz-adv-x="477" d="M164 0l221 1575h150l-222 -1575h-149z" />
<glyph unicode="m" horiz-adv-x="1572" d="M123 0l127 905q5 8 14 22.5t43.5 50.5t75.5 63.5t109.5 50t144.5 22.5q179 0 268 -125q53 52 135 88.5t185 36.5q80 0 142 -24t98.5 -64.5t60 -94t26 -112t-3.5 -119.5l-98 -700h-150l99 700q3 39 2 77t-15 72.5t-35.5 61t-59.5 42.5t-87 16q-96 0 -158 -38.5t-85 -82.5 q6 -75 -3 -148l-98 -700h-147l98 700q10 69 -5 128t-63.5 100t-126.5 41q-43 0 -81.5 -10t-63 -24.5t-43.5 -29.5t-27 -25l-8 -10l-121 -870h-149z" />
<glyph unicode="n" horiz-adv-x="1064" d="M123 0l127 907q6 8 18.5 22t54.5 50t88 63t118.5 49.5t148.5 22.5q80 0 146 -24t109 -64.5t70.5 -94t36 -112t0.5 -119.5l-98 -700h-149l98 700q8 66 -14.5 126t-80 101.5t-139.5 41.5q-38 0 -79.5 -10.5t-73 -25.5t-57.5 -30.5t-40 -26.5l-14 -10l-121 -866h-149z" />
<glyph unicode="o" horiz-adv-x="1118" d="M178 551q16 111 56.5 209.5t105 179t161.5 127.5t214 47q95 0 168.5 -31t117 -84.5t70.5 -125.5t29 -153.5t-8 -168.5q-12 -88 -39 -168.5t-72.5 -153.5t-105 -126t-141.5 -84t-177 -31q-94 0 -167.5 31t-117 84.5t-71 125.5t-30 153.5t6.5 168.5zM328 551 q-6 -61 -5.5 -120.5t18 -113.5t46 -95t78 -65t113.5 -24q80 0 146.5 36.5t109.5 98t70 133t38 150.5q7 61 7 120.5t-17.5 113.5t-45.5 95t-77.5 65t-114.5 24q-79 0 -145.5 -36.5t-110 -98t-71.5 -133t-39 -150.5z" />
<glyph unicode="p" horiz-adv-x="1138" d="M55 -473l221 1575h150l-23 -160q42 61 134 116.5t198 55.5q95 0 168.5 -31t117 -84.5t70.5 -125.5t29 -153.5t-8 -168.5q-12 -88 -39 -168.5t-72.5 -153.5t-105 -126t-141 -84t-176.5 -31q-106 0 -183 55.5t-102 116.5l-88 -633h-150zM348 551q-6 -61 -5.5 -120.5 t18 -113.5t46 -95t78 -65t113.5 -24q80 0 146.5 36.5t110 97.5t70.5 133t38 151q7 61 7 120.5t-17.5 113.5t-45.5 95t-77.5 65t-114.5 24q-79 0 -145.5 -36.5t-110.5 -97.5t-72 -133t-39 -151z" />
<glyph unicode="q" horiz-adv-x="1138" d="M178 551q13 88 40 168.5t73 153.5t105.5 126t141.5 84t177 31q106 0 182.5 -55.5t99.5 -116.5l23 160h149l-221 -1575h-149l88 633q-39 -61 -131.5 -116.5t-198.5 -55.5q-79 0 -144 22t-108 60.5t-74.5 91.5t-44 115.5t-16.5 132t8 141.5zM328 551q-6 -61 -5.5 -120.5 t18 -113.5t45.5 -95t77.5 -65t114.5 -24q79 0 145.5 36.5t110 97.5t70.5 133t38 151q7 61 6.5 120.5t-18 113.5t-45.5 95t-77.5 65t-113.5 24q-80 0 -146.5 -36.5t-110 -98t-71 -133t-38.5 -150.5z" />
<glyph unicode="r" horiz-adv-x="864" d="M123 0l127 907q6 8 18.5 22t54.5 50t88 63t118.5 49.5t148.5 22.5q126 0 211 -55l-84 -135q-65 45 -148 45q-38 0 -79.5 -10.5t-73 -25.5t-57.5 -30.5t-40 -26.5l-14 -10l-121 -866h-149z" />
<glyph unicode="s" horiz-adv-x="1017" d="M135 96l78 140q180 -103 305 -103q100 0 178.5 43.5t89.5 126.5q6 40 -13 72t-57.5 54.5t-78 36.5t-88.5 26q-66 17 -120 42.5t-98.5 64.5t-65.5 96t-11 126q10 73 50.5 131t99 92.5t126 52t138.5 17.5q77 0 170.5 -25t142.5 -51l-68 -133q-47 21 -124.5 42.5 t-141.5 21.5q-104 0 -168.5 -42t-72.5 -106q-6 -41 8.5 -73.5t46 -54t62.5 -34.5t71 -24q59 -15 101.5 -29t96 -42t85 -60.5t50 -85t9.5 -115.5q-11 -82 -54 -144.5t-106 -98.5t-133 -54t-145 -18q-61 1 -116.5 11.5t-103 28.5t-77 32.5t-66.5 35.5z" />
<glyph unicode="t" horiz-adv-x="815" d="M236 956l20 146h193l40 282h150l-41 -282h268l-20 -146h-268l-93 -655q-10 -75 19.5 -114.5t95.5 -39.5h133l-20 -147h-133q-143 0 -202.5 83t-41.5 218l92 655h-192z" />
<glyph unicode="u" horiz-adv-x="1064" d="M178 401l98 701h150l-98 -701q-9 -65 13 -125.5t80 -101.5t140 -41q38 0 79.5 10.5t73 25.5t57.5 30.5t40 26.5l14 10l121 866h150l-127 -907q-6 -8 -18.5 -22t-54.5 -50t-88 -63t-118.5 -49.5t-148.5 -22.5q-100 0 -177 36.5t-119.5 96t-60 132t-6.5 148.5z" />
<glyph unicode="v" horiz-adv-x="1179" d="M276 1102h156q16 -154 68 -469q58 -368 92 -481q0 -13 16 -13q12 0 21 13q75 137 227 481q131 290 199 469h155q-56 -157 -213 -518q-191 -400 -241 -494q-17 -30 -42.5 -50t-52.5 -27.5t-42.5 -10t-28.5 -2.5q-12 0 -27 2.5t-40 10t-45 27.5t-29 50q-35 134 -103 494 q-62 390 -70 518z" />
<glyph unicode="w" horiz-adv-x="1642" d="M276 1102h156q18 -223 47 -469q19 -159 42 -323.5t30 -164.5q5 0 8 7l283 684q30 82 106 82q10 0 20.5 -2t25.5 -9t26 -25.5t14 -45.5q78 -594 90 -684l4 -7q6 0 9 7q12 18 202 481q114 290 179 469h155q-102 -291 -192 -512q-167 -415 -219 -500q-59 -90 -152 -90 q-105 0 -131 98q-6 24 -33 278t-31 298q-1 -4 -36 -95t-73 -189.5t-74 -188.5t-44 -103q-54 -98 -156 -98q-100 0 -126 90q-24 71 -80 500q-13 98 -25.5 226t-18.5 207z" />
<glyph unicode="x" horiz-adv-x="1171" d="M123 0q41 90 184 294t223 284q-49 73 -113 216t-112 308h160q56 -160 101.5 -261.5t105.5 -193.5q2 -2 4 -2t4 2q85 91 158.5 192t175.5 263h160q-92 -165 -197 -308t-176 -216q59 -80 146 -284t102 -294h-158q-44 148 -108 280.5t-128 223.5q-88 -88 -187.5 -220.5 t-186.5 -283.5h-158z" />
<glyph unicode="y" horiz-adv-x="1079" d="M104 -383l82 127q138 -74 281 -74h20q130 0 213 88t103 222l24 180q-38 -72 -121.5 -122t-166.5 -50q-72 0 -129 16.5t-96 44.5t-65.5 70.5t-40.5 89.5t-18.5 105t-2 115t11.5 122l77 551h150l-78 -551q-7 -55 -9.5 -101t1 -96t18 -88t39 -69t65.5 -47.5t97 -16.5 q65 0 118.5 28.5t87.5 71t59.5 101.5t38 110t20.5 107l78 551h149l-158 -1122q-35 -209 -161 -331t-324 -122h-21q-175 0 -342 90z" />
<glyph unicode="z" horiz-adv-x="1062" d="M168 168q111 124 349.5 386.5t361.5 399.5h-600l20 148h688q73 -4 90.5 -57.5t-28.5 -110.5q-493 -543 -711 -787h620l-20 -147h-709q-73 4 -90 57.5t29 110.5z" />
<glyph unicode="{" horiz-adv-x="786" d="M193 504l18 131q222 47 293 534q18 129 110.5 242t239.5 160l8 -146q-90 -29 -143.5 -101t-65.5 -155q-65 -445 -239 -600q135 -162 69 -600q-10 -84 23.5 -155.5t116.5 -100.5l-50 -145q-135 49 -196 160.5t-43 240.5q7 45 10.5 85.5t6.5 103t-4.5 114.5t-23 102.5 t-49 84.5t-81.5 45z" />
<glyph unicode="|" horiz-adv-x="456" d="M86 -473l289 2048h149l-288 -2048h-150z" />
<glyph unicode="}" horiz-adv-x="786" d="M82 -287q92 29 145.5 101t63.5 155q67 447 241 600q-135 160 -71 600q7 53 -2.5 101.5t-44 92t-92.5 62.5l49 146q91 -32 150 -97.5t80 -143.5t9 -161q-6 -44 -10 -85t-7 -103.5t5 -114t23.5 -102.5t49 -84.5t81.5 -44.5l-19 -131q-222 -47 -293 -535 q-18 -128 -110.5 -240t-239.5 -161z" />
<glyph unicode="~" horiz-adv-x="985" d="M203 571q5 7 14 19t37.5 43t57.5 54.5t71.5 43t81.5 19.5q66 0 102 -20.5t68 -63.5q36 -45 76 -45q21 0 49 25t46 50l17 25l129 -74q-5 -7 -14 -19t-38 -43t-58 -54.5t-71 -42.5t-81 -19q-66 0 -102 20.5t-70 63.5q-33 45 -74 45q-21 0 -49 -25t-45 -50l-18 -25z" />
<glyph unicode="&#xa2;" horiz-adv-x="1050" d="M199 551q11 80 34.5 153.5t61.5 142t87.5 121.5t117 90t145.5 50l12 92h152l-12 -88q147 -15 266 -149l-121 -105q-82 92 -166 107l-117 -830q88 15 197 109l90 -105q-151 -133 -307 -149l-12 -90h-152l12 94q-93 15 -158.5 67.5t-95.5 128t-40.5 169.5t6.5 192zM350 551 q-12 -65 -8 -131t19 -121.5t53 -97.5t94 -58l115 815q-80 -22 -139.5 -88.5t-90 -145.5t-43.5 -173z" />
<glyph unicode="&#xa3;" horiz-adv-x="1196" d="M123 0l20 152q60 0 90.5 22t34.5 47l62 443h-115l21 149h114l47 338q23 161 160.5 274.5t306.5 118.5h29q223 0 360 -250l-143 -65q-39 77 -100.5 120.5t-137.5 43.5h-28q-102 0 -190 -69t-103 -173l-47 -338h397l-20 -149h-398l-61 -443q-4 -21 -8.5 -38t-7.5 -24l-3 -7 h674l-20 -152h-934z" />
<glyph unicode="&#xa5;" horiz-adv-x="1421" d="M324 1575h168q80 -241 147.5 -414.5t153.5 -335.5q12 -18 30 -18q23 0 35 18q91 112 186.5 248t159 235t168.5 267h168q-361 -585 -586 -850q-34 -41 -73 -61h344l-21 -150h-344l-12 -82h344l-21 -149h-344l-39 -283h-155l39 283h-342l20 149h342l13 82h-343l21 150h342 q-37 22 -57 61q-160 287 -344 850z" />
<glyph unicode="&#xa9;" horiz-adv-x="1863" d="M233 793q31 221 165 406.5t335 292.5t422 107q164 0 305 -63.5t234.5 -171t136.5 -257t20 -314.5t-108.5 -315t-209 -258t-282.5 -172t-323 -64q-165 0 -306 63.5t-234 172t-135.5 258.5t-19.5 315zM385 793q-19 -134 17 -256.5t112.5 -210.5t190.5 -140.5t245 -52.5 q133 0 262 52t230 140.5t170 211t88 256.5q25 178 -42 329.5t-206 239.5t-317 88q-175 0 -339 -88t-275 -239.5t-136 -329.5zM659 793q13 93 46.5 176t87 151t135 108t180.5 40h22q140 0 273 -133l-117 -109q-84 98 -174 98h-22q-63 0 -113 -28.5t-82.5 -77t-52.5 -105 t-29 -120.5q-11 -61 -5.5 -121t22.5 -107.5t59.5 -76.5t105.5 -29h23q94 0 203 98q21 -25 86 -108q-87 -68 -161 -101t-149 -33h-22q-80 0 -141.5 26t-98 71.5t-59 106t-24 130t6.5 144.5z" />
<glyph unicode="&#xad;" d="M197 537l22 149h668l-23 -149h-667z" />
<glyph unicode="&#xae;" horiz-adv-x="800" d="M283 1296q19 124 118 211.5t224 87.5q120 0 196.5 -88t57.5 -211q-15 -121 -114 -209t-224 -88q-119 0 -197 88t-61 209zM328 1296q-14 -103 50.5 -177.5t168.5 -74.5t188.5 74.5t98.5 177.5q15 104 -48.5 179t-167.5 75t-189.5 -75t-100.5 -179zM455 1128l49 347h127 q45 0 69.5 -29t18.5 -72q-8 -59 -49 -80q28 -23 22 -73l-12 -93h-45l12 93q4 25 -10.5 40t-38.5 15h-76l-20 -148h-47zM528 1321h80q58 3 64 53q3 24 -10.5 38.5t-38.5 14.5h-80z" />
<glyph unicode="&#xb4;" horiz-adv-x="759" d="M299 1262l348 333h213l-387 -333h-174z" />
<glyph unicode="&#x2000;" horiz-adv-x="865" />
<glyph unicode="&#x2001;" horiz-adv-x="1731" />
<glyph unicode="&#x2002;" horiz-adv-x="865" />
<glyph unicode="&#x2003;" horiz-adv-x="1731" />
<glyph unicode="&#x2004;" horiz-adv-x="577" />
<glyph unicode="&#x2005;" horiz-adv-x="432" />
<glyph unicode="&#x2006;" horiz-adv-x="288" />
<glyph unicode="&#x2007;" horiz-adv-x="288" />
<glyph unicode="&#x2008;" horiz-adv-x="216" />
<glyph unicode="&#x2009;" horiz-adv-x="346" />
<glyph unicode="&#x200a;" horiz-adv-x="96" />
<glyph unicode="&#x2010;" d="M197 537l22 149h668l-23 -149h-667z" />
<glyph unicode="&#x2011;" d="M197 537l22 149h668l-23 -149h-667z" />
<glyph unicode="&#x2012;" d="M197 537l22 149h668l-23 -149h-667z" />
<glyph unicode="&#x2013;" horiz-adv-x="1038" d="M197 539l22 147h793l-23 -147h-792z" />
<glyph unicode="&#x2014;" horiz-adv-x="1556" d="M197 539l22 147h1311l-23 -147h-1310z" />
<glyph unicode="&#x2018;" horiz-adv-x="540" d="M279 1116l215 479h147l-184 -479h-178z" />
<glyph unicode="&#x2019;" horiz-adv-x="540" d="M279 1116l184 479h178l-215 -479h-147z" />
<glyph unicode="&#x201c;" horiz-adv-x="819" d="M279 1116l184 479h178l-215 -479h-147zM557 1116l184 479h179l-215 -479h-148z" />
<glyph unicode="&#x201d;" horiz-adv-x="819" d="M346 1595h180l49 -479h-149zM627 1595h178l47 -479h-147z" />
<glyph unicode="&#x2022;" horiz-adv-x="704" d="M207 608q14 95 90.5 162.5t171.5 67.5t153 -67.5t44 -162.5q-12 -95 -88.5 -162t-171.5 -67t-153 67t-46 162z" />
<glyph unicode="&#x2026;" horiz-adv-x="1064" d="M137 102q4 42 39 72.5t78 30.5q42 0 67.5 -30t20.5 -73q-6 -43 -40 -72.5t-77 -29.5t-68.5 29.5t-19.5 72.5zM444 102q4 42 39 72.5t78 30.5q42 0 67.5 -30t20.5 -73q-6 -43 -40 -72.5t-77 -29.5t-68.5 29.5t-19.5 72.5zM752 102q4 43 38.5 73t77.5 30q42 0 67.5 -30 t20.5 -73q-6 -43 -39.5 -72.5t-76.5 -29.5t-68.5 29.5t-19.5 72.5z" />
<glyph unicode="&#x202f;" horiz-adv-x="346" />
<glyph unicode="&#x205f;" horiz-adv-x="432" />
<glyph unicode="&#x20ac;" horiz-adv-x="1478" d="M205 594l20 145h127l15 99h-127l20 145h141q39 130 102 238.5t151 193.5t206.5 132.5t255.5 47.5h31q264 0 407 -176l-133 -108q-105 133 -295 133h-30q-99 0 -186 -36t-152.5 -100t-114 -145.5t-80.5 -179.5h531l-21 -145h-547l-14 -99h547l-21 -145h-530q5 -99 30 -181 t72.5 -146t123.5 -100t175 -36h31q194 0 336 133l100 -108q-191 -176 -456 -176h-31q-137 0 -242 48t-169 133t-97 194t-35 239h-141z" />
<glyph unicode="&#x2122;" horiz-adv-x="1091" d="M315 1520l9 55h362l-8 -55h-154l-63 -443h-55l63 443h-154zM688 1077l66 457q3 24 20 35t35.5 2.5t26.5 -31.5l94 -278l172 278q16 24 37 32t34.5 -2.5t10.5 -35.5l-66 -457h-55l57 396q-172 -277 -176 -281q-9 -14 -26 -14t-23 14l-94 281l-58 -396h-55z" />
<glyph unicode="&#xe000;" horiz-adv-x="1105" d="M0 0v1106h1106v-1106h-1106z" />
</font>
</defs>
</svg>
