<?xml version="1.0" standalone="no"?>
<!DOCTYPE svg PUBLIC "-//W3C//DTD SVG 1.1//EN" "http://www.w3.org/Graphics/SVG/1.1/DTD/svg11.dtd" >
<svg xmlns="http://www.w3.org/2000/svg">
<metadata></metadata>
<defs>
<font id="geniuslight" horiz-adv-x="1089" >
<font-face units-per-em="2048" ascent="1536" descent="-512" />
<missing-glyph horiz-adv-x="614" />
<glyph horiz-adv-x="2048" />
<glyph horiz-adv-x="2048" />
<glyph unicode="&#xd;" horiz-adv-x="2048" />
<glyph unicode=" "  horiz-adv-x="614" />
<glyph unicode="&#x09;" horiz-adv-x="614" />
<glyph unicode="&#xa0;" horiz-adv-x="614" />
<glyph unicode="!" horiz-adv-x="499" d="M174 78q0 30 21.5 53t54.5 23q32 0 54 -23t22 -53q0 -34 -22 -56t-54 -22q-34 0 -55 22t-21 56zM193 315v1260h114v-1260h-114z" />
<glyph unicode="&#x22;" horiz-adv-x="630" d="M123 1575h135l-16 -459h-103zM373 1575h135l-14 -459h-103z" />
<glyph unicode="#" horiz-adv-x="1376" d="M123 485l18 117h234l59 367h-237l18 112h236l88 494h118l-82 -494h330l80 494h119l-78 -494h227l-22 -112h-221l-58 -367h228l-19 -117h-227l-72 -485h-119l72 485h-340l-78 -485h-125l84 485h-233zM492 602h339l58 367h-332z" />
<glyph unicode="$" horiz-adv-x="1300" d="M123 129l39 109q201 -126 422 -142v658q-447 107 -447 446q0 164 122.5 269t324.5 122v123h116v-121q104 -7 213.5 -35t171.5 -53l-38 -110q-213 75 -347 84v-627q73 -20 137.5 -45.5t128 -64.5t109 -85.5t74 -110.5t29.5 -138q0 -26 -3 -53t-15 -68.5t-31.5 -79 t-56 -77.5t-85 -70t-122.5 -51.5t-165 -26.5v-140h-116v140q-247 16 -461 147zM256 1200q0 -232 328 -319v596q-92 -9 -160 -40.5t-102.5 -74.5t-50 -83.5t-15.5 -78.5zM700 96q158 14 258.5 93.5t100.5 218.5q0 53 -22 99t-56.5 79t-83 61.5t-96 46.5t-101.5 33v-631z" />
<glyph unicode="%" horiz-adv-x="1716" d="M123 1159q0 67 9 125.5t31.5 113t56.5 93t87.5 61.5t122.5 23t123 -23t88 -61.5t56 -93t31 -113t9 -125.5q0 -66 -9 -123.5t-31 -112t-56 -93t-88 -62t-123 -23.5t-122.5 23.5t-87.5 62t-56.5 93t-31.5 112t-9 123.5zM238 1159q0 -68 8 -118.5t28.5 -94.5t59.5 -67 t96 -23q58 0 97.5 23t60 67t29 95t8.5 118t-8.5 118t-29 95.5t-60 68t-97.5 23.5q-46 0 -80.5 -16.5t-55.5 -43.5t-34 -67.5t-17.5 -82.5t-4.5 -95zM537 0l516 1575h127l-518 -1575h-125zM979 416q0 67 9 125t31.5 112.5t56.5 93t87.5 61.5t122.5 23t123 -23t88 -61.5 t56 -93t31 -112.5t9 -125q0 -66 -9 -123.5t-31 -112t-56 -93t-88 -62t-123 -23.5t-122.5 23.5t-87.5 62t-56.5 93t-31.5 112t-9 123.5zM1094 416q0 -68 8 -118.5t28.5 -94.5t59.5 -67t96 -23q58 0 97.5 23t60 67t29 95t8.5 118t-8.5 118t-29 95.5t-60 68t-97.5 23.5 q-46 0 -80.5 -16.5t-55.5 -43.5t-34 -67.5t-17.5 -82.5t-4.5 -95z" />
<glyph unicode="&#x26;" horiz-adv-x="1396" d="M123 369q0 62 22 120t67.5 113.5t88.5 96.5t111 98q-187 222 -187 442q0 103 49 181.5t124.5 116.5t162.5 38q84 0 159 -38t125 -116.5t50 -181.5q0 -54 -18.5 -107.5t-46 -96t-73 -91.5t-84 -83t-95.5 -81q56 -65 153 -174.5t167 -186.5l69 -77q37 44 73.5 95t53.5 79 l18 29l92 -68q-79 -123 -157 -219l227 -258h-146l-161 176q-199 -196 -406 -196q-57 0 -114.5 11.5t-117 40.5t-104.5 72t-73.5 111.5t-28.5 153.5zM244 369q0 -126 91 -201.5t226 -75.5q152 0 328 168l-400 449q-118 -98 -181.5 -177.5t-63.5 -162.5zM348 1239 q3 -108 39 -189t115 -182q63 49 105.5 87.5t84.5 86t63 97t21 100.5q0 86 -58.5 156.5t-156.5 70.5q-99 0 -158.5 -70.5t-54.5 -154.5v-2z" />
<glyph unicode="'" horiz-adv-x="380" d="M123 1575h135l-18 -459h-103z" />
<glyph unicode="(" horiz-adv-x="741" d="M123 590q0 626 422 1005l73 -88q-376 -334 -376 -917q0 -283 93.5 -518t282.5 -402l-73 -88q-422 379 -422 1008z" />
<glyph unicode=")" horiz-adv-x="720" d="M102 -330q190 167 283.5 402t93.5 518q0 582 -377 917l74 88q422 -379 422 -1005q0 -629 -422 -1008z" />
<glyph unicode="*" horiz-adv-x="991" d="M123 1255l37 129l272 -100l-6 291h139l-6 -291l272 100l37 -129l-272 -79l172 -224l-106 -80l-166 236l-166 -236l-107 80l172 224z" />
<glyph unicode="+" horiz-adv-x="1220" d="M123 557v113h432v432h111v-432h432v-113h-432v-430h-111v430h-432z" />
<glyph unicode="," horiz-adv-x="497" d="M123 -233l110 458h142l-142 -458h-110z" />
<glyph unicode="-" horiz-adv-x="897" d="M123 557v113h651v-113h-651z" />
<glyph unicode="." horiz-adv-x="409" d="M123 82q0 34 24 58t58 24t58 -24t24 -58t-24 -58t-58 -24t-58 24t-24 58z" />
<glyph unicode="/" horiz-adv-x="1021" d="M123 0l645 1575h131l-643 -1575h-133z" />
<glyph unicode="0" horiz-adv-x="1290" d="M123 788q0 95 5 174t19.5 164t38 151.5t64 128t94 101.5t130 64t171.5 24t171.5 -24t130 -64t94 -101.5t64 -128t38 -151.5t19.5 -164t5 -174t-5 -174t-19.5 -164.5t-38 -152t-64 -128t-94 -101.5t-130 -64t-171.5 -24t-171.5 24t-130 64t-94 101.5t-64 128t-38 152 t-19.5 164.5t-5 174zM242 788q0 -83 3.5 -151t14.5 -142.5t29 -131.5t49 -110t72.5 -87.5t101 -55t133.5 -20.5t133.5 20.5t101.5 55t72.5 87.5t49 110t29.5 131.5t14.5 142.5t3.5 151t-3.5 150.5t-14.5 142t-29.5 131t-49 110t-72.5 88t-101.5 55t-133.5 20.5t-133.5 -20.5 t-101 -55t-72.5 -88t-49 -110t-29 -131t-14.5 -142t-3.5 -150.5z" />
<glyph unicode="1" horiz-adv-x="638" d="M102 1239l316 317q14 16 37 18.5t42 -14t19 -49.5v-1511h-115v1370l-215 -213z" />
<glyph unicode="2" horiz-adv-x="1187" d="M145 98q18 20 115 129t125 141t106.5 122.5t119 141.5t98.5 126.5t106 144.5q160 256 76 408q-39 77 -117 121.5t-170 44.5q-109 0 -199.5 -64.5t-125.5 -169.5l-111 21q51 156 171 243.5t265 87.5q119 0 227 -57.5t168 -167.5q32 -66 37.5 -139t-12.5 -143.5t-46.5 -133 t-68.5 -123.5q-138 -209 -583 -710h739v-121h-875q-51 0 -63 33.5t18 64.5z" />
<glyph unicode="3" horiz-adv-x="1140" d="M123 225l106 54q52 -86 136 -133.5t170 -47.5h30q141 6 235.5 96.5t94.5 225.5q0 148 -107.5 246t-252.5 98h-84v115h84q136 0 234.5 96.5t98.5 224.5q0 120 -88 198.5t-205 78.5h-40q-83 0 -155.5 -44.5t-119.5 -125.5l-110 57q80 114 180 172.5t205 58.5h40 q173 -5 293.5 -118.5t120.5 -276.5q0 -115 -64 -215.5t-161 -161.5q112 -56 183 -164.5t71 -238.5q0 -94 -38.5 -177t-101.5 -140t-145 -90t-168 -33h-35q-125 8 -231 68t-176 177z" />
<glyph unicode="4" horiz-adv-x="1331" d="M143 575l703 949q36 49 88 49q34 0 58 -24t24 -66v-912h213v-116h-213v-455h-121v455h-692q-39 0 -59.5 19t-20 46.5t19.5 54.5zM287 571h608v815z" />
<glyph unicode="5" horiz-adv-x="1148" d="M123 219l115 39q49 -83 131.5 -124.5t167.5 -41.5q167 0 266.5 109.5t99.5 275.5q0 185 -99.5 279t-275.5 94q-79 0 -159 -15.5t-127 -37.5q-35 -19 -63.5 -3t-28.5 56v659q0 25 20 45.5t43 20.5h741v-119h-682v-522q121 39 256 39q235 0 366.5 -133t131.5 -363 q0 -217 -137.5 -357t-351.5 -140q-122 0 -238.5 59.5t-175.5 179.5z" />
<glyph unicode="6" horiz-adv-x="1198" d="M123 770q0 360 123 569q70 112 189 175.5t265 62.5q133 0 279 -51l-41 -107q-130 45 -236 45q-111 0 -204.5 -45t-149.5 -137q-54 -89 -79.5 -191t-28.5 -257q165 135 374 135q103 0 190.5 -40t146 -108t91.5 -157.5t33 -188.5q0 -215 -120.5 -355t-327.5 -140 q-99 0 -177 25.5t-130 66t-89.5 105.5t-58 127.5t-32 150t-14.5 155.5t-3 160zM242 702q2 -311 89 -460.5t294 -149.5q80 0 143 31t103 84t60.5 121.5t20.5 146.5q0 165 -95.5 272t-242.5 107q-125 0 -220.5 -43t-151.5 -109z" />
<glyph unicode="7" horiz-adv-x="1163" d="M123 1458v117h872q44 0 58 -29.5t2 -64.5l-631 -1481h-129l620 1458h-792z" />
<glyph unicode="8" horiz-adv-x="1204" d="M123 420q0 139 69.5 246t186.5 163q-100 59 -155.5 153.5t-55.5 219.5q0 165 120 279t314 114q193 0 313.5 -114.5t120.5 -278.5q0 -124 -55.5 -219t-155.5 -154q117 -56 186.5 -163t69.5 -246q0 -126 -64.5 -227t-174 -156t-240.5 -55q-202 0 -340.5 123.5t-138.5 314.5 zM244 420q0 -137 99 -231.5t259 -94.5q159 0 259 94.5t100 231.5q0 148 -107.5 247t-251.5 99t-251 -99t-107 -247zM287 1202q0 -130 90.5 -226.5t224.5 -96.5q135 0 225.5 96t90.5 227q0 122 -89 200.5t-227 78.5t-226.5 -78.5t-88.5 -200.5z" />
<glyph unicode="9" horiz-adv-x="1177" d="M102 1083q0 215 121 355.5t328 140.5q77 0 141.5 -15.5t112.5 -41.5t86.5 -67.5t64.5 -84.5t44.5 -102.5t29 -112t16.5 -121t7.5 -122.5t1.5 -124q0 -360 -123 -569q-70 -112 -189.5 -175t-265.5 -62q-132 0 -278 51l41 106q130 -45 235 -45q111 0 204.5 45t149.5 137 q54 89 80 191.5t29 257.5q-165 -135 -375 -135q-136 0 -243 68.5t-162.5 180t-55.5 244.5zM225 1083q0 -164 95 -271t243 -107q125 0 221 42.5t152 108.5q-2 311 -89 460.5t-294 149.5q-80 0 -143.5 -31t-103 -84t-60.5 -121.5t-21 -146.5z" />
<glyph unicode=":" horiz-adv-x="409" d="M123 82q0 34 24 58t58 24t58 -24t24 -58t-24 -58t-58 -24t-58 24t-24 58zM123 1020q0 34 24 58t58 24t58 -24t24 -58t-24 -58t-58 -24t-58 24t-24 58z" />
<glyph unicode=";" horiz-adv-x="456" d="M82 -233l111 458h141l-141 -458h-111zM162 1020q0 34 24 58t58 24t58 -24t24 -58t-24 -58t-58 -24t-58 24t-24 58z" />
<glyph unicode="&#x3c;" horiz-adv-x="1177" d="M123 551q0 34 31 55l880 527v-136l-751 -446l751 -447v-135l-880 527q-31 21 -31 55z" />
<glyph unicode="=" horiz-adv-x="1069" d="M123 393v111h823v-111h-823zM123 717v110h823v-110h-823z" />
<glyph unicode="&#x3e;" horiz-adv-x="1177" d="M143 -31v135l752 447l-752 446v136l881 -527q31 -21 31 -55t-31 -55z" />
<glyph unicode="?" horiz-adv-x="1163" d="M123 1407q88 98 204 143t234 45q228 0 353.5 -107.5t125.5 -291.5q0 -44 -9 -84.5t-21.5 -71t-36.5 -62t-42 -51t-51.5 -45.5t-51.5 -38.5t-54 -36.5q-42 -27 -66 -45t-51.5 -44.5t-40 -55t-12.5 -60.5v-280h-117v280q0 25 4.5 48.5t9.5 41.5t19 39t21 32.5t28.5 30.5 t28.5 26t34.5 26.5t33 23t36.5 23.5q33 23 47 32.5t43.5 32t43 37t33.5 39.5t29 47.5t16.5 52t7.5 62.5q0 139 -96.5 211t-264.5 72q-211 0 -344 -142zM467 78q0 32 22 55t58 23q29 0 52.5 -23.5t23.5 -54.5q0 -33 -23 -55.5t-53 -22.5q-36 0 -58 22t-22 56z" />
<glyph unicode="@" horiz-adv-x="1751" d="M154 791q0 73 4.5 135.5t22 148t46.5 153.5t83.5 139.5t128 119t185.5 78t250 30.5q723 0 723 -804q0 -100 -16 -181t-42.5 -134t-62 -89.5t-72.5 -52t-77 -15.5q-56 0 -106.5 33.5t-75.5 87.5q-92 -125 -271 -125q-98 0 -172 39.5t-116.5 108.5t-63 151t-20.5 177 q0 74 12.5 141t40.5 128t70 105.5t106 70.5t143 26q97 0 171 -39.5t117 -107t64 -149t21 -175.5v-261q0 -44 21.5 -71t54.5 -27q60 0 108 89.5t48 269.5q0 690 -605 690q-116 0 -209.5 -26t-155 -67t-107.5 -102t-70.5 -119.5t-39 -132t-18.5 -127.5t-4 -116 q0 -697 604 -697q107 0 199 14t147.5 34t96 40.5t56.5 34.5l16 14l65 -98q-6 -6 -19 -16.5t-62.5 -36.5t-110 -45.5t-165 -36t-223.5 -16.5q-138 0 -250 30.5t-185.5 78.5t-128 119.5t-83.5 140t-46.5 154.5t-22 149t-4.5 137zM621 791q0 -72 12.5 -132.5t40 -114t78.5 -84 t122 -30.5q69 0 120.5 30.5t79.5 84t41 114.5t13 132t-12.5 131t-40 113t-79 83.5t-122.5 30.5t-122 -30.5t-78.5 -83.5t-40 -113t-12.5 -131z" />
<glyph unicode="A" horiz-adv-x="1441" d="M102 0q54 240 177.5 682.5t255.5 783.5q21 54 67.5 81.5t108.5 27.5h20q62 0 108.5 -27.5t67.5 -81.5q132 -341 254.5 -781.5t177.5 -684.5h-125q-61 255 -135 524h-717q-94 -348 -135 -524h-125zM395 639h652q-133 471 -246 786q-14 35 -70 35h-20q-56 0 -70 -35 q-113 -315 -246 -786z" />
<glyph unicode="B" horiz-adv-x="1263" d="M123 0v1575h592q197 0 310.5 -108.5t113.5 -303.5q0 -119 -50 -207.5t-141 -140.5q105 -51 159 -151.5t54 -229.5q0 -201 -126 -317.5t-320 -116.5h-592zM240 115h475q13 0 29.5 1t49.5 8t63 19t64.5 36t59 56.5t41 84t16.5 114.5q0 84 -27 146.5t-64 94t-86.5 50.5 t-82 23t-63.5 4h-475v-637zM240 866h475q12 0 27.5 1t46.5 7.5t58.5 17.5t60 33t55 52.5t38 78.5t15.5 107q0 57 -13 103.5t-33.5 76.5t-49.5 52.5t-56 34.5t-58 19t-51.5 9t-39.5 2h-475v-594z" />
<glyph unicode="C" horiz-adv-x="1310" d="M123 788q0 129 21 245t69 220t118.5 179t175.5 119t234 44h31q219 0 416 -161l-88 -80q-152 127 -328 127h-31q-105 0 -189.5 -38.5t-141 -103.5t-94.5 -154.5t-55 -188.5t-17 -208q0 -139 28 -259.5t85 -220t155.5 -157t228.5 -57.5h31q176 0 328 127l88 -80 q-197 -161 -416 -161h-31q-129 0 -234 44t-175.5 119t-118.5 179t-69 220.5t-21 245.5z" />
<glyph unicode="D" horiz-adv-x="1306" d="M123 0v1575h450q129 0 233 -44t173.5 -118t116.5 -176t67.5 -214t20.5 -235q0 -124 -20.5 -236t-67.5 -214t-116.5 -176.5t-173.5 -118t-233 -43.5h-450zM240 115h333q106 0 191.5 39.5t140 104.5t91 153.5t52 181.5t15.5 194q0 100 -15.5 192.5t-52 181.5t-91 154 t-140 104.5t-191.5 39.5h-333v-1345z" />
<glyph unicode="E" horiz-adv-x="1165" d="M123 211v1153q0 97 58 154t155 57h706v-115h-706q-44 0 -69 -26t-25 -70v-500h759v-114h-759v-539q0 -44 25 -70t69 -26h706v-115h-706q-97 0 -155 58t-58 153z" />
<glyph unicode="F" horiz-adv-x="1165" d="M123 0v1364q0 97 58 154t155 57h706v-115h-706q-44 0 -69 -26t-25 -70v-500h759v-114h-759v-750h-119z" />
<glyph unicode="G" horiz-adv-x="1372" d="M123 788q0 129 21 245t69 220t118.5 179t175.5 119t234 44h31q221 0 420 -161l-92 -80q-71 60 -156.5 93.5t-171.5 33.5h-31q-105 0 -189.5 -38.5t-140.5 -103.5t-94 -154.5t-54.5 -188t-16.5 -208.5t16.5 -209t54.5 -189t94 -154.5t140.5 -103t189.5 -38.5h31 q87 0 168 28t135.5 82.5t54.5 121.5v403h-358v115h477v-518q0 -82 -43 -150t-112.5 -109.5t-152.5 -64t-169 -22.5h-31q-129 0 -234 44t-175.5 119t-118.5 179t-69 220.5t-21 245.5z" />
<glyph unicode="H" horiz-adv-x="1300" d="M123 0v1575h117v-711h821v711h117v-1575h-117v750h-821v-750h-117z" />
<glyph unicode="I" horiz-adv-x="444" d="M164 0v1575h117v-1575h-117z" />
<glyph unicode="J" horiz-adv-x="1009" d="M102 94l72 92q119 -92 254 -92q157 0 249.5 95t92.5 249v1137h117v-1137q0 -211 -127 -334.5t-332 -123.5q-176 0 -326 114z" />
<glyph unicode="K" horiz-adv-x="1255" d="M123 0v1575h117v-686h98q209 190 368.5 350t307.5 336h153q-335 -397 -716 -748q301 -274 723 -827h-150q-352 461 -684 770h-100v-770h-117z" />
<glyph unicode="L" horiz-adv-x="1081" d="M123 211v1364h119v-1364q0 -45 24 -70.5t68 -25.5h665v-115h-665q-95 0 -153 58t-58 153z" />
<glyph unicode="M" horiz-adv-x="1585" d="M123 0v1475q0 44 25.5 72t60.5 28q61 0 98 -70l486 -1005q438 907 485 1005q37 70 98 70q35 0 60.5 -27.5t25.5 -72.5v-1475h-116v1401q-494 -1039 -498 -1047q-17 -32 -56.5 -32t-54.5 32l-497 1047v-1401h-117z" />
<glyph unicode="N" horiz-adv-x="1353" d="M123 0v1475q0 45 25 72.5t61 27.5q53 0 98 -70l807 -1331v1401h117v-1475q0 -45 -25 -72.5t-61 -27.5q-55 0 -98 70l-807 1331v-1401h-117z" />
<glyph unicode="O" horiz-adv-x="1484" d="M123 788q0 130 21 245.5t68.5 219.5t118 179t176 119t236.5 44q129 0 234 -44t176 -119t118.5 -179t69 -220t21.5 -245t-21.5 -245.5t-69 -220.5t-118.5 -179t-176 -119t-234 -44q-131 0 -236.5 44t-176 119t-118 179.5t-68.5 220t-21 245.5zM246 788q0 -110 16.5 -209 t54 -189t93.5 -154.5t141.5 -103t191.5 -38.5q105 0 189.5 38.5t141 103t94.5 154.5t54.5 189t16.5 209t-16.5 208.5t-54.5 188t-94.5 154.5t-141 103.5t-189.5 38.5q-106 0 -191.5 -38.5t-141.5 -103.5t-93.5 -154.5t-54 -188t-16.5 -208.5z" />
<glyph unicode="P" horiz-adv-x="1243" d="M123 0v1575h565q202 0 327.5 -130t125.5 -321t-125.5 -320.5t-327.5 -129.5h-448v-674h-117zM240 788h448q141 0 236.5 94.5t95.5 241.5q0 150 -95 243t-237 93h-448v-672z" />
<glyph unicode="Q" horiz-adv-x="1515" d="M123 788q0 130 20.5 245.5t68 219.5t117.5 179t175.5 119t236.5 44q129 0 234 -44t176 -119t118.5 -179t69 -220t21.5 -245q0 -419 -195 -626q21 -43 55.5 -79.5t68.5 -58t65 -36.5t50 -21l19 -6q-32 -68 -32 -111q-217 71 -314 228q-137 -98 -336 -98q-131 0 -236.5 44 t-175.5 119t-117.5 179.5t-68 220t-20.5 245.5zM244 788q0 -110 16.5 -209t54.5 -189t94.5 -154.5t141.5 -103t190 -38.5t190 38t141.5 103.5t94.5 155t55 188.5t17 209q0 109 -17 208t-55 188.5t-94.5 154.5t-141.5 103.5t-190 38.5t-190 -38.5t-141.5 -103.5t-94.5 -154.5 t-54.5 -188t-16.5 -208.5z" />
<glyph unicode="R" horiz-adv-x="1243" d="M123 0v1575h565q205 0 329 -121t124 -311q0 -136 -61.5 -231.5t-159.5 -145.5q86 -52 142 -146t56 -223v-397h-119v397q0 146 -89.5 232t-221.5 86h-448v-715h-117zM240 829h448q144 0 238 84.5t94 229.5q0 149 -93.5 233t-238.5 84h-448v-631z" />
<glyph unicode="S" horiz-adv-x="1300" d="M123 129l39 109q234 -144 477 -144q115 0 208 33t152.5 106t59.5 175q0 62 -29.5 114.5t-74.5 88t-107 64.5t-117 45t-115 28q-479 102 -479 452q0 180 143.5 287.5t374.5 107.5q110 0 232 -30t198 -60l-38 -110q-237 86 -392 86q-91 0 -163.5 -20t-115.5 -50.5 t-71 -69.5t-38.5 -74t-10.5 -67q0 -74 33.5 -133t92 -97.5t119.5 -62.5t134 -39q80 -17 151 -41t144.5 -63.5t126 -88t86.5 -118t35 -149.5q0 -27 -3.5 -55.5t-16.5 -72.5t-34.5 -82.5t-62.5 -80t-96 -70.5t-139 -48t-187 -19q-274 3 -516 149z" />
<glyph unicode="T" horiz-adv-x="1323" d="M102 1460v115h1119v-115h-500v-1460h-117v1460h-502z" />
<glyph unicode="U" horiz-adv-x="1325" d="M123 643v932h117v-932q0 -89 12 -166.5t40.5 -149t72.5 -122t112.5 -81t155.5 -30.5h59q86 0 154.5 30.5t112.5 81t73 122t41 149t12 166.5v932h117v-932q0 -106 -14.5 -198.5t-51 -179.5t-93 -149t-146.5 -99t-205 -37h-59q-115 0 -205 37t-146.5 99t-93 149t-51 179.5 t-14.5 198.5z" />
<glyph unicode="V" horiz-adv-x="1482" d="M123 1575h125q198 -816 414 -1425q14 -35 69 -35h21q55 0 69 35q220 628 414 1425h125q-53 -236 -177 -680.5t-255 -785.5q-43 -109 -176 -109h-21q-133 0 -176 109q-131 345 -259.5 802.5t-172.5 663.5z" />
<glyph unicode="W" horiz-adv-x="1961" d="M123 1575h121q30 -230 111 -583.5t142.5 -582t73.5 -262.5q9 -28 39 -28q26 0 33 22q12 45 115 467q62 271 135 549q21 82 88 82t88 -82q83 -316 135 -549q80 -337 115 -467q7 -22 33 -22q30 0 39 28q12 34 73.5 262.5t142.5 582t111 583.5h121q-39 -303 -132 -698.5 t-204 -763.5q-15 -53 -54 -83t-97 -30q-53 0 -94 30t-54 83q-62 231 -223 897q-161 -666 -223 -897q-13 -53 -54 -83t-94 -30q-58 0 -97 30t-54 83q-111 368 -204 763.5t-132 698.5z" />
<glyph unicode="X" horiz-adv-x="1413" d="M102 0q116 258 221 439t257 386q-142 191 -242.5 368t-190.5 382h127q81 -182 191 -369t211 -307q14 -14 31 -14q16 0 30 14q101 120 211 307t191 369h127q-91 -207 -190.5 -383.5t-241.5 -366.5q151 -204 255.5 -385t221.5 -440h-127q-169 378 -441 743q-14 19 -36 19 q-23 0 -37 -19q-272 -365 -441 -743h-127z" />
<glyph unicode="Y" horiz-adv-x="1388" d="M102 1575h127q221 -459 430 -770q14 -21 35 -21t35 21q209 311 430 770h127q-258 -551 -461 -840q-33 -47 -71 -63v-672h-119v672q-39 17 -72 63q-203 289 -461 840z" />
<glyph unicode="Z" horiz-adv-x="1314" d="M145 154l908 1306h-887v115h926q68 0 88 -50.5t-15 -103.5l-907 -1306h934v-115h-973q-45 0 -70.5 24.5t-24.5 58.5t21 71z" />
<glyph unicode="[" horiz-adv-x="636" d="M143 -473v2048h371v-113h-254v-1822h254v-113h-371z" />
<glyph unicode="\" horiz-adv-x="876" d="M123 1575h131l500 -1575h-129z" />
<glyph unicode="]" horiz-adv-x="636" d="M123 -360h256v1822h-256v113h371v-2048h-371v113z" />
<glyph unicode="^" horiz-adv-x="1060" d="M123 940l362 604q20 29 45 29t45 -29l363 -604h-125l-283 467l-282 -467h-125z" />
<glyph unicode="_" horiz-adv-x="1466" d="M123 -360h1220v-113h-1220v113z" />
<glyph unicode="`" horiz-adv-x="684" d="M123 1575h164l274 -305h-129z" />
<glyph unicode="a" horiz-adv-x="1032" d="M102 344q0 51 14.5 102.5t46.5 101t78.5 88t115.5 62t151 23.5q75 0 147 -19.5t107 -39.5l35 -19q-2 69 -8.5 118.5t-24 98.5t-47 79t-78 48.5t-115.5 18.5q-149 0 -301 -105l-67 86q171 127 368 127q62 0 113 -12t88.5 -30t67 -49t48.5 -60t32.5 -73t20 -77t10.5 -82.5 t4.5 -80.5t0.5 -79v-571h-112v205q-31 -81 -117.5 -149t-192.5 -68q-83 0 -149 19.5t-109.5 52.5t-72.5 79t-41.5 97t-12.5 108zM217 346q0 -37 7.5 -71t27 -67.5t49 -57.5t77.5 -39t109 -15q129 0 219.5 122.5t90.5 332.5q-114 59 -289 59q-62 0 -112.5 -17.5t-83 -45.5 t-54.5 -63.5t-31.5 -70t-9.5 -67.5z" />
<glyph unicode="b" d="M123 0v1575h113v-674q39 89 122.5 151t196.5 62q89 0 162.5 -31t122.5 -84t83 -126t49 -153.5t15 -168.5t-15 -168.5t-49 -153.5t-83 -126t-122.5 -84t-162.5 -31q-113 0 -196.5 62t-122.5 151v-201h-113zM236 551q0 -70 10 -133.5t34 -123t59.5 -103t91 -69.5t124.5 -26 q68 0 123.5 26.5t91 70.5t59.5 103.5t34.5 123t10.5 131.5t-10.5 131.5t-34.5 123t-59.5 103.5t-91 70.5t-123.5 26.5q-69 0 -124.5 -26t-91 -69.5t-59.5 -103t-34 -123t-10 -133.5z" />
<glyph unicode="c" horiz-adv-x="989" d="M102 551q0 89 15 169t49.5 153t84.5 126t125.5 84t168.5 31h28q177 0 314 -137l-80 -78q-112 107 -234 107h-28q-88 0 -154 -39.5t-102.5 -106.5t-54 -144.5t-17.5 -164.5t17.5 -164.5t54 -144.5t102.5 -106.5t154 -39.5h28q122 0 234 107l80 -78q-137 -137 -314 -137 h-28q-93 0 -168.5 31t-125.5 84t-84.5 126t-49.5 153t-15 169z" />
<glyph unicode="d" d="M102 551q0 88 15 169t49 153.5t83.5 125.5t123 84t162.5 31q113 0 196.5 -62t122.5 -151v674h113v-1575h-113v201q-39 -89 -122.5 -151t-196.5 -62q-89 0 -162.5 31t-123 84t-83.5 125.5t-49 153.5t-15 169zM215 551q0 -87 17.5 -164.5t53.5 -144.5t100 -106.5t149 -39.5 q69 0 124.5 26t91 69.5t59.5 103t34 123t10 133.5t-10 133.5t-34 123t-59.5 103t-91 69.5t-124.5 26q-85 0 -149 -39.5t-100 -106.5t-53.5 -144.5t-17.5 -164.5z" />
<glyph unicode="e" horiz-adv-x="1073" d="M102 551q0 89 15 169t49.5 153t84.5 126t125.5 84t168.5 31q94 0 169 -30.5t122 -79.5t78.5 -113.5t44 -128.5t12.5 -129q0 -80 -37 -115t-117 -35h-596q3 -62 16 -115.5t40.5 -104.5t68 -87t103 -58t141.5 -22q166 0 287 80l59 -88q-143 -100 -346 -100 q-108 0 -193.5 31.5t-140 84t-90 126t-50 152.5t-14.5 169zM219 594h598q20 0 29.5 8t9.5 29q0 48 -9 96.5t-31.5 100t-56.5 90t-89.5 63.5t-124.5 25q-74 0 -133 -29.5t-94.5 -74.5t-58.5 -102.5t-31.5 -108t-8.5 -97.5z" />
<glyph unicode="f" horiz-adv-x="796" d="M102 993v109h201v184q0 128 70.5 208.5t201.5 80.5h119v-109h-119q-76 0 -117.5 -47.5t-41.5 -132.5v-184h278v-109h-278v-993h-113v993h-201z" />
<glyph unicode="g" horiz-adv-x="1110" d="M123 551q0 88 15 168.5t49 153.5t83 126t122.5 84t162.5 31q113 0 196.5 -62t122.5 -151v201h113v-1127q-5 -207 -112.5 -327.5t-303.5 -120.5h-20q-182 0 -342 80l49 98q141 -72 293 -72h20q98 0 168 47.5t102.5 123.5t32.5 171v226q-39 -89 -122.5 -151t-196.5 -62 q-89 0 -162.5 31t-122.5 84t-83 126t-49 153.5t-15 168.5zM236 551q0 -68 10.5 -131.5t34.5 -123t59.5 -103.5t91 -70.5t123.5 -26.5q69 0 124.5 26t91 69.5t59.5 103t34 123t10 133.5t-10 133.5t-34 123t-59.5 103t-91 69.5t-124.5 26q-68 0 -123.5 -26.5t-91 -70.5 t-59.5 -103.5t-34.5 -123t-10.5 -131.5z" />
<glyph unicode="h" d="M123 0v1575h113v-674q39 89 122.5 151t196.5 62q89 0 162.5 -31t122.5 -84t83 -126t49 -153.5t15 -168.5v-551h-113v551q0 68 -10.5 131.5t-34.5 123t-59.5 103.5t-91 70.5t-123.5 26.5q-69 0 -124.5 -26t-91 -69.5t-59.5 -103t-34 -123t-10 -133.5v-551h-113z" />
<glyph unicode="i" horiz-adv-x="409" d="M123 1360q0 34 24 58t58 24t58 -24t24 -58t-24 -58t-58 -24t-58 24t-24 58zM150 0v1102h112v-1102h-112z" />
<glyph unicode="j" horiz-adv-x="538" d="M-41 -358q317 12 317 323v1137h113v-1137q0 -93 -27 -169.5t-70 -125t-100.5 -82t-115.5 -47.5t-117 -14v115zM252 1360q0 34 24 58t58 24t58 -24t24 -58t-24 -58t-58 -24t-58 24t-24 58z" />
<glyph unicode="k" horiz-adv-x="1021" d="M123 0v1575h113v-928h30q89 67 245.5 217.5t231.5 237.5h158q-120 -130 -273.5 -281.5t-250.5 -230.5q111 -99 268 -263t295 -327h-152q-72 89 -258 279.5t-266 255.5h-28v-535h-113z" />
<glyph unicode="l" horiz-adv-x="440" d="M164 0v1575h112v-1575h-112z" />
<glyph unicode="m" horiz-adv-x="1579" d="M123 0v913q3 8 10.5 21.5t36 48.5t64.5 61.5t100 48t139 21.5q198 0 297 -141q43 57 120.5 99t192.5 42q79 0 143 -24t106 -63t70.5 -92.5t41 -110t12.5 -117.5v-707h-113v707q0 56 -14.5 107t-44 95t-81.5 70.5t-120 26.5q-110 0 -176 -49t-82 -101q21 -74 21 -149v-707 h-113v717q-2 54 -17 103.5t-45 92t-81 68t-117 25.5q-53 0 -96.5 -12.5t-68.5 -30t-42.5 -35.5t-23.5 -30l-6 -13v-885h-113z" />
<glyph unicode="n" horiz-adv-x="1050" d="M123 0v913q5 8 15 21.5t45.5 48.5t77 61.5t110 48t143.5 21.5q98 0 178.5 -36t131 -94.5t77.5 -130t27 -146.5v-707h-113v707q0 73 -34.5 140t-105 113t-161.5 46q-53 0 -101 -12.5t-78.5 -30t-54 -35.5t-34.5 -30l-10 -13v-885h-113z" />
<glyph unicode="o" horiz-adv-x="1091" d="M102 551q0 89 15 169t49.5 153t84.5 126t125.5 84t168.5 31q94 0 170 -31t126.5 -84t84.5 -126t48.5 -153t14.5 -169t-14.5 -169t-48.5 -153t-84.5 -126t-126.5 -84t-170 -31q-93 0 -168.5 31t-125.5 84t-84.5 126t-49.5 153t-15 169zM217 551q0 -87 17.5 -164.5 t54.5 -144.5t102.5 -106.5t153.5 -39.5q71 0 128.5 26.5t94 70.5t61 103.5t35 122.5t10.5 132t-10.5 132t-35 122.5t-61 103.5t-94 70.5t-128.5 26.5q-88 0 -153.5 -39.5t-102.5 -106.5t-54.5 -144.5t-17.5 -164.5z" />
<glyph unicode="p" d="M123 -473v1575h113v-201q39 89 122.5 151t196.5 62q89 0 162.5 -31t122.5 -84t83 -126t49 -153.5t15 -168.5t-15 -168.5t-49 -153.5t-83 -126t-122.5 -84t-162.5 -31q-113 0 -196.5 62t-122.5 151v-674h-113zM236 551q0 -70 10 -133.5t34 -123t59.5 -103t91 -69.5 t124.5 -26q68 0 123.5 26.5t91 70.5t59.5 103.5t34.5 123t10.5 131.5t-10.5 131.5t-34.5 123t-59.5 103.5t-91 70.5t-123.5 26.5q-69 0 -124.5 -26t-91 -69.5t-59.5 -103t-34 -123t-10 -133.5z" />
<glyph unicode="q" d="M102 551q0 88 15 169t49 153.5t83.5 125.5t123 84t162.5 31q113 0 196.5 -62t122.5 -151v201h113v-1575h-113v674q-39 -89 -122.5 -151t-196.5 -62q-89 0 -162.5 31t-123 84t-83.5 125.5t-49 153.5t-15 169zM215 551q0 -87 17.5 -164.5t53.5 -144.5t100 -106.5t149 -39.5 q69 0 124.5 26t91 69.5t59.5 103t34 123t10 133.5t-10 133.5t-34 123t-59.5 103t-91 69.5t-124.5 26q-85 0 -149 -39.5t-100 -106.5t-53.5 -144.5t-17.5 -164.5z" />
<glyph unicode="r" horiz-adv-x="817" d="M123 0v913q5 8 15 21.5t45.5 48.5t77 61.5t110 48t143.5 21.5q112 0 201 -47l-49 -100q-67 39 -152 39q-53 0 -101 -12.5t-78.5 -30t-54 -35.5t-34.5 -30l-10 -13v-885h-113z" />
<glyph unicode="s" horiz-adv-x="999" d="M123 90l43 105q185 -99 321 -99q112 0 193.5 50.5t81.5 146.5q0 47 -25 84.5t-71 63t-91 40.5t-104 29q-338 77 -338 321q0 94 55.5 160t136 94.5t175.5 28.5q78 0 170.5 -22t140.5 -45l-39 -103q-45 20 -125 41t-147 21q-118 0 -184 -50.5t-66 -124.5q0 -48 21 -85.5 t59 -62t75 -39t84 -26.5q63 -15 106.5 -28.5t101.5 -40.5t93.5 -59t61 -83t25.5 -114q0 -64 -23 -116.5t-60.5 -87t-89 -58t-105.5 -33.5t-112 -10q-183 4 -364 102z" />
<glyph unicode="t" horiz-adv-x="796" d="M102 991v111h201v293h113v-293h278v-111h-278v-700q0 -87 41 -132.5t118 -45.5h119v-113h-119q-138 0 -205 80.5t-67 210.5v700h-201z" />
<glyph unicode="u" horiz-adv-x="1050" d="M123 395v707h113v-707q0 -73 34.5 -140t105 -113t161.5 -46q53 0 101 12.5t78.5 30.5t54 35.5t33.5 29.5l11 13v885h113v-914q-5 -8 -15 -21.5t-45.5 -48t-77 -61t-110 -48t-143.5 -21.5q-98 0 -178.5 36t-131 94.5t-77.5 130t-27 146.5z" />
<glyph unicode="v" horiz-adv-x="1163" d="M123 1102h117q54 -212 137 -473q112 -371 168 -500q9 -20 37 -20q27 0 36 20q50 115 168 500q77 244 136 473h118q-55 -224 -141 -510q-111 -342 -178 -510q-11 -27 -31.5 -45.5t-43.5 -25.5t-37.5 -9t-26.5 -2q-10 0 -24.5 2.5t-38 9.5t-45 25.5t-32.5 44.5 q-72 174 -178 510q-111 362 -141 510z" />
<glyph unicode="w" horiz-adv-x="1642" d="M123 1102h119q12 -47 50 -213.5t62 -255.5q31 -122 84 -307t60 -201t24 -16q20 0 25 18l194 713q17 71 80 71t80 -71q191 -695 195 -713q5 -18 24 -18q18 0 25 16t59.5 200.5t83.5 307.5q24 90 64 261.5t49 207.5h119q-58 -275 -119 -504q-47 -186 -91 -331.5t-63 -182.5 q-13 -23 -23.5 -37.5t-38.5 -30.5t-65 -16q-94 0 -129 90q-7 16 -49.5 170.5t-81.5 300.5l-39 146q-154 -580 -170 -617q-35 -90 -129 -90q-37 0 -65 16t-38.5 30.5t-23.5 37.5q-19 36 -62.5 181t-90.5 333q-27 102 -57 228t-46 201z" />
<glyph unicode="x" horiz-adv-x="1146" d="M123 0q29 91 151.5 301.5t188.5 276.5q-62 73 -152 218.5t-155 305.5h120q81 -166 138.5 -263.5t138.5 -199.5q10 -10 20 -10q11 0 21 10q77 99 136.5 198.5t139.5 264.5h121q-65 -160 -155 -305.5t-152 -218.5q66 -66 188.5 -276.5t151.5 -301.5h-123q-133 303 -307 510 q-12 12 -21 12q-8 0 -20 -12q-174 -207 -307 -510h-123z" />
<glyph unicode="y" horiz-adv-x="1067" d="M123 551v551h113v-551q0 -72 6.5 -132t26 -122t51.5 -104.5t87 -69.5t128 -27q72 0 127 31t86.5 77.5t51 110.5t25.5 120t6 116v551h113v-1127q-5 -207 -112.5 -327.5t-303.5 -120.5h-20q-182 0 -342 80l49 98q143 -72 293 -72h20q98 0 168 47.5t102.5 123.5t32.5 171 v226q-23 -77 -107 -145t-189 -68q-71 0 -129.5 16.5t-101 44.5t-74.5 70t-52 89.5t-32.5 105.5t-17.5 115t-5 122z" />
<glyph unicode="z" horiz-adv-x="1060" d="M145 141l650 848h-645v113h694q61 0 84.5 -47t-13.5 -94l-649 -848h664v-113h-713q-61 0 -85 47t13 94z" />
<glyph unicode="{" horiz-adv-x="761" d="M123 520v103q223 45 223 571q0 127 70.5 236t199.5 153l23 -113q-89 -30 -133.5 -108t-44.5 -168q0 -70 -5.5 -141.5t-21.5 -169t-54 -181t-93 -131.5q46 -39 80 -105.5t51.5 -132.5t27.5 -146.5t12.5 -132.5t2.5 -107q0 -91 44.5 -169t133.5 -108l-23 -112 q-129 44 -199.5 153t-70.5 236q0 524 -223 573z" />
<glyph unicode="|" horiz-adv-x="421" d="M154 -457v2016h114v-2016h-114z" />
<glyph unicode="}" horiz-adv-x="761" d="M123 -330q89 30 133.5 108t44.5 169q0 55 2.5 107t12.5 132.5t27.5 146.5t51.5 132.5t80 105.5q-55 48 -93 131.5t-54 181t-21.5 169t-5.5 141.5q0 90 -44.5 168t-133.5 108l22 113q129 -44 200 -153t71 -236q0 -526 223 -571v-103q-223 -49 -223 -573q0 -127 -71 -236 t-200 -153z" />
<glyph unicode="~" horiz-adv-x="956" d="M123 582q4 6 10.5 16.5t28.5 37.5t45.5 47t60.5 37t74 17q43 0 78 -13.5t51.5 -26.5t46.5 -42q53 -53 96 -53q27 0 55 24t42 48l14 24l109 -55q-4 -6 -10.5 -16.5t-28.5 -37.5t-46 -47.5t-61 -37.5t-74 -17q-43 0 -78 13.5t-51.5 26.5t-46.5 42q-4 3 -19 17t-22.5 19.5 t-22.5 11.5t-32 6q-26 0 -54 -24.5t-42 -48.5l-15 -24z" />
<glyph unicode="&#xa2;" horiz-adv-x="1030" d="M123 551q0 102 20.5 192.5t63 168t114.5 129.5t168 67v88h117v-82q167 -6 301 -137l-80 -78q-108 103 -221 107v-910q113 4 221 107l80 -78q-131 -131 -301 -137v-84h-117v90q-96 14 -168 65.5t-114.5 129t-63 168.5t-20.5 194zM238 551q0 -77 13 -147t41.5 -133 t78.5 -107.5t118 -59.5v893q-68 -16 -118 -60.5t-78.5 -107t-41.5 -132t-13 -146.5z" />
<glyph unicode="&#xa3;" horiz-adv-x="1181" d="M123 0v117q62 0 90.5 30t28.5 62v479h-119v115h119v371q0 158 120 270t287 117h31q220 0 379 -230l-105 -53q-50 79 -121 122.5t-153 43.5h-31q-113 0 -201 -77t-88 -193v-371h414v-115h-414v-479q0 -26 -4.5 -49t-9.5 -33l-4 -10h709v-117h-928z" />
<glyph unicode="&#xa5;" horiz-adv-x="1388" d="M102 1575h127q221 -459 430 -770q14 -21 35 -21t35 21q209 311 430 770h127q-258 -551 -461 -840q-33 -47 -71 -63h356v-113h-356v-78h356v-112h-356v-369h-119v369h-356v112h356v78h-356v113h356q-39 17 -72 63q-203 289 -461 840z" />
<glyph unicode="&#xa9;" horiz-adv-x="1826" d="M123 788q0 161 62.5 307.5t168 252t252 167.5t307.5 62t307.5 -62t252.5 -167.5t168.5 -252t62.5 -307.5t-62.5 -307.5t-168.5 -252t-252.5 -168t-307.5 -62.5q-215 0 -397 105.5t-287.5 287.5t-105.5 397zM240 788q0 -137 53.5 -262t143.5 -215t214.5 -143t261.5 -53 t261.5 53t215 143t144 215t53.5 262q0 182 -90.5 337t-245.5 245t-338 90q-137 0 -261.5 -53t-214.5 -143t-143.5 -214.5t-53.5 -261.5zM549 788q0 90 20.5 170t62 146.5t114 105.5t167.5 39h23q135 0 264 -123l-78 -77q-95 88 -186 88h-23q-67 0 -116.5 -30t-76.5 -81.5 t-39.5 -110.5t-12.5 -127q0 -53 7.5 -101.5t25.5 -95t45 -79.5t70 -53.5t97 -20.5h23q45 0 89 17t99 71l76 -82q-127 -118 -264 -118h-23q-95 0 -167.5 38t-114 104.5t-62 146.5t-20.5 173z" />
<glyph unicode="&#xad;" horiz-adv-x="897" d="M123 557v113h651v-113h-651z" />
<glyph unicode="&#xae;" horiz-adv-x="800" d="M102 1296q0 124 87 211.5t212 87.5q120 0 208.5 -88t88.5 -211q0 -121 -86 -209t-211 -88q-119 0 -209 88t-90 209zM147 1296q0 -103 75 -177.5t179 -74.5t178 74.5t74 177.5q0 104 -74 179t-178 75t-179 -75t-75 -179zM297 1128v347h127q45 0 73.5 -29t28.5 -72 q0 -60 -37 -80q33 -23 33 -73v-93h-45v93q0 25 -16.5 40t-40.5 15h-76v-148h-47zM344 1321h80q55 3 55 53q0 25 -15 39t-40 14h-80v-106z" />
<glyph unicode="&#xb4;" horiz-adv-x="684" d="M123 1270l274 305h164l-311 -305h-127z" />
<glyph unicode="&#x2000;" horiz-adv-x="857" />
<glyph unicode="&#x2001;" horiz-adv-x="1714" />
<glyph unicode="&#x2002;" horiz-adv-x="857" />
<glyph unicode="&#x2003;" horiz-adv-x="1714" />
<glyph unicode="&#x2004;" horiz-adv-x="571" />
<glyph unicode="&#x2005;" horiz-adv-x="428" />
<glyph unicode="&#x2006;" horiz-adv-x="285" />
<glyph unicode="&#x2007;" horiz-adv-x="285" />
<glyph unicode="&#x2008;" horiz-adv-x="214" />
<glyph unicode="&#x2009;" horiz-adv-x="342" />
<glyph unicode="&#x200a;" horiz-adv-x="95" />
<glyph unicode="&#x2010;" horiz-adv-x="897" d="M123 557v113h651v-113h-651z" />
<glyph unicode="&#x2011;" horiz-adv-x="897" d="M123 557v113h651v-113h-651z" />
<glyph unicode="&#x2012;" horiz-adv-x="897" d="M123 557v113h651v-113h-651z" />
<glyph unicode="&#x2013;" horiz-adv-x="1028" d="M123 559v111h782v-111h-782z" />
<glyph unicode="&#x2014;" horiz-adv-x="1564" d="M123 559v111h1319v-111h-1319z" />
<glyph unicode="&#x2018;" horiz-adv-x="495" d="M123 1118l141 457h109l-111 -457h-139z" />
<glyph unicode="&#x2019;" horiz-adv-x="495" d="M123 1118l110 457h140l-140 -457h-110z" />
<glyph unicode="&#x201c;" horiz-adv-x="743" d="M123 1118l110 457h140l-140 -457h-110zM369 1118l110 457h142l-142 -457h-110z" />
<glyph unicode="&#x201d;" horiz-adv-x="743" d="M123 1575h141l111 -457h-111zM371 1575h139l111 -457h-111z" />
<glyph unicode="&#x2022;" horiz-adv-x="499" d="M123 614q0 52 37.5 89.5t89.5 37.5t89.5 -37.5t37.5 -89.5t-37.5 -89.5t-89.5 -37.5t-89.5 37.5t-37.5 89.5z" />
<glyph unicode="&#x2026;" horiz-adv-x="911" d="M123 76q0 32 22 55t54 23t54.5 -23t22.5 -55t-22.5 -54t-54.5 -22t-54 22t-22 54zM379 76q0 32 22 55t54 23t54.5 -23t22.5 -55t-22.5 -54t-54.5 -22t-54 22t-22 54zM635 76q0 32 22 55t54 23t54.5 -23t22.5 -55t-22.5 -54t-54.5 -22t-54 22t-22 54z" />
<glyph unicode="&#x202f;" horiz-adv-x="342" />
<glyph unicode="&#x205f;" horiz-adv-x="428" />
<glyph unicode="&#x20ac;" horiz-adv-x="1433" d="M123 623v112h133v78h-133v111h139q11 110 38.5 205t77.5 178.5t117.5 142.5t163 93t209.5 34h29q219 0 414 -160l-88 -78q-154 125 -326 125h-29q-112 0 -200.5 -41.5t-146 -117t-91 -170.5t-45.5 -211h563v-111h-571v-78h571v-112h-563q19 -104 57 -195t96 -168.5 t143 -122.5t187 -45h29q174 0 326 127l88 -80q-194 -159 -414 -159h-29q-140 0 -250 50t-181.5 140t-114 203t-58.5 250h-141z" />
<glyph unicode="&#x2122;" horiz-adv-x="1091" d="M102 1520v55h363v-55h-154v-443h-55v443h-154zM539 1077v457q0 38 31.5 40.5t50.5 -34.5l133 -278l133 278q19 37 50.5 34.5t31.5 -40.5v-457h-56v396q-133 -277 -135 -281q-8 -14 -25 -14t-24 14l-135 281v-396h-55z" />
<glyph unicode="&#xe000;" horiz-adv-x="1105" d="M0 0v1106h1106v-1106h-1106z" />
</font>
</defs>
</svg>
