<?xml version="1.0" encoding="utf-8"?>
<!-- Generator: Adobe Illustrator 18.1.1, SVG Export Plug-In . SVG Version: 6.00 Build 0)  -->
<svg version="1.1" id="Layer_1" xmlns="http://www.w3.org/2000/svg" xmlns:xlink="http://www.w3.org/1999/xlink" x="0px" y="0px"
	 viewBox="318 196 524 512.7" enable-background="new 318 196 524 512.7" xml:space="preserve">
<g id="mXkCyG_1_" display="none">
</g>
<g>
	<path fill="#FFFFFF" stroke="#FFFFFF" stroke-miterlimit="10" d="M804.1,382.1h-48.8c-2.4,0-4.3,2-4.3,4.3v48.8
		c0,2.4,2,4.3,4.3,4.3h48.8c2.4,0,4.3-2,4.3-4.3v-48.8C808.4,384.1,806.5,382.1,804.1,382.1z M762.1,433.6c0-12,4.4-22.2,10.6-26.6
		c-2.5-2.1-4-5.1-4-8.6c0-6.2,5.1-11.2,11.2-11.2c6.2,0,11.2,5.1,11.2,11.2c0,3.7-1.8,6.8-4.5,8.8c6,4.5,10.2,15.1,10.2,26.2
		L762.1,433.6L762.1,433.6z"/>
	<path fill="#FFFFFF" d="M779.5,418.2c-3-8.5-14.7,0,0,10.9C794.3,418.2,782.5,409.7,779.5,418.2z"/>
	<path fill="#FFFFFF" stroke="#FFFFFF" stroke-miterlimit="10" d="M599.3,198.7h-48.8c-2.4,0-4.3,2-4.3,4.3v48.8
		c0,2.4,2,4.3,4.3,4.3h48.8c2.4,0,4.3-2,4.3-4.3V203C603.6,200.7,601.6,198.7,599.3,198.7z M574.6,245.2c-42.2-26.7-8.6-47.4,0-26.7
		C583.3,197.8,616.8,218.5,574.6,245.2z"/>
	<polygon fill="#FFFFFF" points="576.6,222.3 573.1,222.3 573.1,226.6 568,226.6 568,230 573.1,230 573.1,235.1 576.6,235.1 
		576.6,230 580.9,230 580.9,226.6 576.6,226.6 	"/>
	<path fill="#FFFFFF" stroke="#FFFFFF" stroke-miterlimit="10" d="M599.3,587.9h-48.8c-2.4,0-4.3,2-4.3,4.3v48.8
		c0,2.4,2,4.3,4.3,4.3h48.8c2.4,0,4.3-2,4.3-4.3v-48.8C603.6,589.8,601.6,587.9,599.3,587.9z M575.1,635.4c0,0-13.7-16.9-13.7-24.4
		s6.2-13.7,13.7-13.7s13.7,6.2,13.7,13.7S575.1,635.4,575.1,635.4z"/>
	<path fill="#FFFFFF" stroke="#FFFFFF" stroke-miterlimit="10" d="M400.4,382.1h-48.8c-2.4,0-4.3,2-4.3,4.3v48.8
		c0,2.4,2,4.3,4.3,4.3h48.8c2.4,0,4.3-2,4.3-4.3v-48.8C404.7,384.1,402.7,382.1,400.4,382.1z M375.6,432.5
		c-12.2,0-21.9-9.9-21.9-21.9c0-12.2,9.9-21.9,21.9-21.9c12.2,0,21.9,9.9,21.9,21.9S387.7,432.5,375.6,432.5z"/>
	<circle fill="#FFFFFF" cx="368.2" cy="403.7" r="3.9"/>
	<circle fill="#FFFFFF" cx="382.7" cy="403.7" r="3.9"/>
	<path fill="#FFFFFF" d="M375.6,425.6c6.6,0,12-5.3,12-11.3h-24C363.6,420.3,369,425.6,375.6,425.6z"/>
</g>
<g>
	<path fill="#FFFFFF" d="M509.3,275.1h6.5c3.3,0,5.3,2.1,5.3,5.1s-2.1,5.1-5.3,5.1h-4.4v7.6h-2.1V275.1z M515.8,283.1
		c1.7,0,3.1-1,3.1-2.9s-1.4-2.9-3.1-2.9h-4.4v5.9L515.8,283.1L515.8,283.1z"/>
	<path fill="#FFFFFF" d="M525.4,280.4v7.9c0,1.3,1,2.7,2.7,2.7c1.7,0,2.5-1.1,2.5-1.1v-9.4h2.1v10.1c0,0-1.5,2.4-4.5,2.4
		c-3.2,0-4.8-2.5-4.8-4.7v-7.9H525.4z"/>
	<path fill="#FFFFFF" d="M540.7,292.8c-2.3,0-3.3-1.5-3.3-3.5v-6.9h-2.1v-2.1h2.1v-3.1h2.1v3.1h2.9v2.1h-2.9v6.9
		c0,0.9,0.4,1.5,1.3,1.5h1.6v2.1L540.7,292.8L540.7,292.8z"/>
	<path fill="#FFFFFF" d="M561.7,293c0,3.1-2,5.1-5.1,5.1h-0.3c-1.4,0-2.7-0.4-4.2-1.1l0.9-1.8c1.6,0.9,2.7,0.9,3.3,0.9h0.3
		c1.8,0,3-1.4,3-3.2v-1.6c-0.7,1.1-1.7,1.6-2.8,1.6c-3.9,0-5-3.1-5-6.3v-6.3h2.1v6.3c0,2.1,0.5,4.3,2.8,4.3c2.2,0,2.8-2.7,2.8-4.3
		v-6.3h2.1L561.7,293L561.7,293z"/>
	<path fill="#FFFFFF" d="M564.2,286.7c0-3.3,1.5-6.3,5.2-6.3c3.7,0,5.2,3.1,5.2,6.3c0,3.3-1.5,6.3-5.2,6.3
		C565.8,293,564.2,289.8,564.2,286.7z M572.5,286.7c0-2.1-0.9-4.3-3.1-4.3s-3.1,2.2-3.1,4.3c0,2.1,0.9,4.3,3.1,4.3
		C571.8,290.9,572.5,288.7,572.5,286.7z"/>
	<path fill="#FFFFFF" d="M579.3,280.4v7.9c0,1.3,1,2.7,2.7,2.7c1.7,0,2.5-1.1,2.5-1.1v-9.4h2.1v10.1c0,0-1.5,2.4-4.5,2.4
		c-3.2,0-4.8-2.5-4.8-4.7v-7.9H579.3z"/>
	<path fill="#FFFFFF" d="M595.8,283c-0.4-0.4-1-0.7-1.8-0.7c-1.7,0-2.5,1.1-2.5,1.1v9.4h-2.1v-10.1c0,0,1.5-2.4,4.5-2.4
		c1.1,0,2,0.3,2.7,0.8L595.8,283z"/>
	<path fill="#FFFFFF" d="M614.5,281.9v-1.5h2.1V293c-0.1,3.1-2,5.1-5.1,5.1h-0.3c-1.4,0-2.7-0.4-4.2-1.1l0.9-1.8
		c1.6,0.9,2.7,0.9,3.3,0.9h0.3c1.8,0,3-1.4,3-3.2v-1.6c-0.5,0.8-1.6,1.6-3.1,1.6c-3.7,0-5.2-3.1-5.2-6.3s1.5-6.3,5.2-6.3
		C612.8,280.2,614,281.1,614.5,281.9z M614.5,286.7c0-2.1-0.9-4.3-3.1-4.3c-2.3,0-3.1,2.2-3.1,4.3c0,2.1,0.9,4.3,3.1,4.3
		C613.6,290.9,614.5,288.7,614.5,286.7z"/>
	<path fill="#FFFFFF" d="M620.7,276.5c0.7,0,1.3,0.6,1.3,1.3c0,0.7-0.6,1.3-1.3,1.3c-0.7,0-1.3-0.6-1.3-1.3
		C619.4,277.1,619.9,276.5,620.7,276.5z M619.6,292.8h2.1v-12.4h-2.1V292.8z"/>
	<path fill="#FFFFFF" d="M629.9,277.1c-0.8,0-1.3,0.5-1.3,1.5v1.9h2.9v2h-2.9v10.5h-2.1v-10.5h-2.1v-2h2.1v-1.9c0-2,1.1-3.5,3.3-3.5
		h1.6v2.1H629.9L629.9,277.1z"/>
	<path fill="#FFFFFF" d="M639.7,292.8c-2.3,0-3.3-1.5-3.3-3.5v-6.9h-2.1v-2.1h2.1v-3.1h2.1v3.1h2.9v2.1h-2.9v6.9
		c0,0.9,0.4,1.5,1.3,1.5h1.6v2.1L639.7,292.8L639.7,292.8z"/>
	<path fill="#FFFFFF" d="M528,317.5c0-3.3,1.5-6.3,5.2-6.3c3.7,0,5.2,3.1,5.2,6.3s-1.5,6.3-5.2,6.3C529.5,323.9,528,320.7,528,317.5
		z M536.3,317.5c0-2.1-0.9-4.3-3.1-4.3c-2.2,0-3.1,2.2-3.1,4.3s0.9,4.3,3.1,4.3C535.5,321.8,536.3,319.6,536.3,317.5z"/>
	<path fill="#FFFFFF" d="M543.1,311.3v7.9c0,1.3,1,2.7,2.7,2.7s2.5-1.1,2.5-1.1v-9.4h2.1v10.1c0,0-1.5,2.4-4.5,2.4
		c-3.2,0-4.8-2.5-4.8-4.7v-7.9H543.1z"/>
	<path fill="#FFFFFF" d="M558.3,323.7c-2.3,0-3.3-1.5-3.3-3.5v-6.9h-2.1v-2.1h2.1v-3.1h2.1v3.1h2.9v2.1H557v6.9
		c0,0.9,0.4,1.5,1.3,1.5h1.6v2.1H558.3L558.3,323.7z"/>
	<path fill="#FFFFFF" d="M574.7,323.7c-2.3,0-3.3-1.5-3.3-3.5v-6.9h-2.1v-2.1h2.1v-3.1h2.1v3.1h2.9v2.1h-2.9v6.9
		c0,0.9,0.4,1.5,1.3,1.5h1.6v2.1H574.7L574.7,323.7z"/>
	<path fill="#FFFFFF" d="M578.9,323.7v-17.8h2.1v6.9c0.3-0.6,1.3-1.6,2.9-1.6c3.6,0,5,3.1,5,6.3v6.3h-2.1v-6.3
		c0-2.1-0.8-4.3-2.9-4.3c-2.1,0-2.9,2.2-2.9,4.3v6.3H578.9z"/>
	<path fill="#FFFFFF" d="M591.1,317.5c0-3.3,1.3-6.3,5-6.3c3.9,0,4.9,3.6,4.9,5.5c0,1.5-0.7,2-2.1,2h-5.7c0.2,1.6,1,3.2,3.3,3.2
		c1,0,2.1-0.3,3.1-0.9l1,1.6c-1.5,1.1-3,1.4-4.2,1.4C592.5,323.9,591.1,320.7,591.1,317.5z M593.4,316.6h5.7
		c-0.2-1.8-0.9-3.4-2.8-3.4C594.3,313.1,593.5,314.9,593.4,316.6z"/>
	<path fill="#FFFFFF" d="M610,313.8c-0.4-0.4-1-0.7-1.8-0.7c-1.7,0-2.5,1.1-2.5,1.1v9.4h-2.1v-10.1c0,0,1.5-2.4,4.5-2.4
		c1.1,0,2,0.3,2.7,0.8L610,313.8z"/>
	<path fill="#FFFFFF" d="M612.5,317.5c0-3.3,1.3-6.3,5-6.3c3.9,0,5,3.6,5,5.5c0,1.5-0.7,2-2.1,2h-5.7c0.2,1.6,1,3.2,3.3,3.2
		c1,0,2.1-0.3,3.1-0.9l1,1.6c-1.5,1.1-3,1.4-4.2,1.4C613.8,323.9,612.5,320.7,612.5,317.5z M614.6,316.6h5.7
		c-0.2-1.8-0.9-3.4-2.8-3.4S614.8,314.9,614.6,316.6z"/>
</g>
<g>
	<path fill="#FFFFFF" d="M724.3,471h0.3c1.4,0,2.5-0.5,3.4-1.5l1.6,1.5c-1.4,1.5-3.1,2.2-5.1,2.2h-0.3c-5.1,0-7.3-4.4-7.3-9.2
		c0-4.7,2.2-9.1,7.3-9.1h0.3c2,0,3.7,0.7,5.1,2.2l-1.6,1.5c-0.9-1-2.1-1.5-3.4-1.5h-0.3c-3.6,0-5.1,3.4-5.1,7
		C719.2,467.6,720.7,471,724.3,471z"/>
	<path fill="#FFFFFF" d="M732.5,472.9v-17.8h2.1v6.9c0.3-0.6,1.3-1.6,2.9-1.6c3.6,0,5,3.1,5,6.3v6.3h-2.1v-6.3
		c0-2.1-0.8-4.3-2.9-4.3s-2.9,2.2-2.9,4.3v6.3H732.5z"/>
	<path fill="#FFFFFF" d="M744.8,466.7c0-3.3,1.5-6.3,5.2-6.3c3.7,0,5.2,3.1,5.2,6.3c0,3.3-1.5,6.3-5.2,6.3
		C746.3,473.1,744.8,469.9,744.8,466.7z M753.1,466.7c0-2.1-0.9-4.3-3.1-4.3c-2.2,0-3.1,2.2-3.1,4.3c0,2.1,0.9,4.3,3.1,4.3
		C752.3,471,753.1,468.8,753.1,466.7z"/>
	<path fill="#FFFFFF" d="M757.5,466.7c0-3.3,1.5-6.3,5.2-6.3c3.7,0,5.2,3.1,5.2,6.3c0,3.3-1.5,6.3-5.2,6.3
		C759.1,473.1,757.5,469.9,757.5,466.7z M765.8,466.7c0-2.1-0.9-4.3-3.1-4.3c-2.2,0-3.1,2.2-3.1,4.3c0,2.1,0.9,4.3,3.1,4.3
		C765.1,471,765.8,468.8,765.8,466.7z"/>
	<path fill="#FFFFFF" d="M770.1,471.7l0.8-2c1,0.5,2.4,1.2,3.6,1.2s2.5-0.5,2.5-1.6c0-1-1.5-1.5-2.7-1.8c-2-0.5-3.9-1.6-3.9-3.9
		c0-2.4,2.1-3.4,4.3-3.4c1.5,0,3.1,0.5,3.8,0.9l-0.7,1.9c-0.5-0.3-1.9-0.8-3.1-0.8c-1.5,0-2.1,0.6-2.1,1.4c0,1,1.2,1.5,2.1,1.8
		c1.9,0.4,4.5,1.3,4.5,3.9c0,2.7-2.3,3.7-4.5,3.7C772.6,473,771.1,472.2,770.1,471.7z"/>
	<path fill="#FFFFFF" d="M781.3,466.7c0-3.3,1.3-6.3,5-6.3c3.9,0,5,3.6,5,5.5c0,1.5-0.7,2-2.1,2h-5.7c0.2,1.6,1,3.2,3.3,3.2
		c1,0,2.1-0.3,3.1-0.9l1,1.6c-1.5,1.1-3,1.4-4.2,1.4C782.5,473.1,781.3,469.9,781.3,466.7z M783.5,465.8h5.7
		c-0.2-1.8-0.9-3.4-2.8-3.4C784.3,462.4,783.6,464,783.5,465.8z"/>
	<path fill="#FFFFFF" d="M809.9,463.6c0,0,1.4,5.1,1.9,6.9c0.3-1,0.9-3.3,1.3-4.7c0.4-1.6,1-4.2,1.3-5.3h2.1c0,0-0.8,3.4-1.4,5.9
		c-0.7,2.7-1.4,4.8-1.6,5.5c-0.2,0.4-0.7,1.1-1.7,1.1c-1,0-1.5-0.7-1.8-1.2c-0.2-0.4-1.4-5.1-1.4-5.3c-0.1,0.3-1.2,5-1.4,5.3
		c-0.2,0.5-0.7,1.2-1.8,1.2c-1,0-1.5-0.7-1.7-1.1c-0.3-0.6-0.9-2.8-1.6-5.5c-0.6-2.4-1.4-5.9-1.4-5.9h2.1c0.3,1.1,0.9,3.6,1.3,5.3
		c0.4,1.5,1,3.8,1.3,4.7c0.5-1.8,1.9-6.9,1.9-6.9c0.3-0.9,1-1,1.3-1C808.9,462.5,809.6,462.6,809.9,463.6z"/>
	<path fill="#FFFFFF" d="M819.3,472.9v-17.8h2.1v6.9c0.3-0.6,1.3-1.6,2.9-1.6c3.6,0,5,3.1,5,6.3v6.3h-2.1v-6.3
		c0-2.1-0.8-4.3-2.9-4.3c-2.1,0-2.9,2.2-2.9,4.3v6.3H819.3z"/>
	<path fill="#FFFFFF" d="M831.6,466.7c0-3.3,1.5-6.3,5.2-6.3c3.7,0,5.2,3.1,5.2,6.3c0,3.3-1.5,6.3-5.2,6.3
		C833.1,473.1,831.6,469.9,831.6,466.7z M840,466.7c0-2.1-0.9-4.3-3.1-4.3c-2.2,0-3.1,2.2-3.1,4.3c0,2.1,0.9,4.3,3.1,4.3
		C839.1,471,840,468.8,840,466.7z"/>
	<path fill="#FFFFFF" d="M733.1,493.8c-0.4-0.4-1-0.7-1.8-0.7c-1.7,0-2.5,1.1-2.5,1.1v9.4h-2.1v-10.1c0,0,1.5-2.4,4.5-2.4
		c1.1,0,2,0.3,2.7,0.8L733.1,493.8z"/>
	<path fill="#FFFFFF" d="M735.5,497.5c0-3.3,1.3-6.3,5-6.3c3.9,0,5,3.6,5,5.5c0,1.5-0.7,2-2.1,2h-5.7c0.2,1.6,1,3.2,3.3,3.2
		c1,0,2.1-0.3,3.1-0.9l1,1.6c-1.5,1.1-3,1.4-4.2,1.4C736.9,503.9,735.5,500.8,735.5,497.5z M737.7,496.7h5.7
		c-0.2-1.8-0.9-3.4-2.8-3.4S737.8,494.9,737.7,496.7z"/>
	<path fill="#FFFFFF" d="M752.6,503.9c-3.7,0-5.2-3.1-5.2-6.3s1.5-6.3,5.2-6.3h0.3c1.3,0,2.7,0.6,3.9,1.9l-1.5,1.5
		c-1.2-1.1-2-1.3-2.5-1.3h-0.3c-2.2,0-3.1,2.2-3.1,4.3s0.9,4.3,3.1,4.3h0.3c0.5,0,1.3-0.2,2.5-1.3l1.5,1.5c-1.3,1.3-2.7,1.9-3.9,1.9
		L752.6,503.9L752.6,503.9z"/>
	<path fill="#FFFFFF" d="M760.7,487.3c0.7,0,1.3,0.6,1.3,1.3s-0.6,1.3-1.3,1.3c-0.7,0-1.3-0.6-1.3-1.3S760,487.3,760.7,487.3z
		 M759.7,503.8h2.1v-12.4h-2.1V503.8z"/>
	<path fill="#FFFFFF" d="M764.5,497.5c0-3.3,1.3-6.3,5-6.3c3.9,0,4.9,3.6,4.9,5.5c0,1.5-0.7,2-2.1,2h-5.7c0.2,1.6,1,3.2,3.3,3.2
		c1,0,2.1-0.3,3.1-0.9l1,1.6c-1.5,1.1-3,1.4-4.2,1.4C765.8,503.9,764.5,500.8,764.5,497.5z M766.7,496.7h5.7
		c-0.2-1.8-0.9-3.4-2.8-3.4S766.9,494.9,766.7,496.7z"/>
	<path fill="#FFFFFF" d="M783.5,496.6c0.7-2.3,1.3-4.5,1.5-5.3h2.1c-0.3,1.2-0.9,3.6-1.6,5.9c-0.5,1.5-1.5,4.5-1.9,5.4
		c-0.4,1-1.6,1.1-1.9,1.1c-0.3,0-1.5-0.1-1.9-1.1c-0.4-0.9-1.4-3.9-1.9-5.4c-0.7-2.3-1.4-4.7-1.6-5.9h2.1c0.2,0.9,0.8,2.9,1.5,5.3
		c1,3.3,1.5,4.8,1.7,5.2C781.9,501.4,782.5,499.8,783.5,496.6z"/>
	<path fill="#FFFFFF" d="M789,497.5c0-3.3,1.3-6.3,5-6.3c3.9,0,5,3.6,5,5.5c0,1.5-0.7,2-2.1,2h-5.7c0.2,1.6,1,3.2,3.3,3.2
		c1,0,2.1-0.3,3.1-0.9l1,1.6c-1.5,1.1-3,1.4-4.2,1.4C790.3,503.9,789,500.8,789,497.5z M791.1,496.7h5.7c-0.2-1.8-0.9-3.4-2.8-3.4
		C792.1,493.2,791.3,494.9,791.1,496.7z"/>
	<path fill="#FFFFFF" d="M801.4,502.6l0.8-2c1,0.5,2.4,1.2,3.6,1.2c1.2,0,2.5-0.5,2.5-1.6c0-1-1.5-1.5-2.7-1.8
		c-2-0.5-3.9-1.6-3.9-3.9c0-2.4,2.1-3.4,4.3-3.4c1.5,0,3.1,0.5,3.8,0.9l-0.7,1.9c-0.5-0.3-1.9-0.8-3.1-0.8c-1.5,0-2.1,0.6-2.1,1.4
		c0,1,1.2,1.5,2.1,1.8c1.9,0.4,4.5,1.3,4.5,3.9c0,2.6-2.3,3.7-4.5,3.7C803.9,503.9,802.4,503.1,801.4,502.6z"/>
	<path fill="#FFFFFF" d="M821.4,487.3c0.7,0,1.3,0.6,1.3,1.3s-0.6,1.3-1.3,1.3c-0.7,0-1.3-0.6-1.3-1.3S820.7,487.3,821.4,487.3z
		 M820.3,503.8h2.1v-12.4h-2.1V503.8z"/>
	<path fill="#FFFFFF" d="M830.6,503.8c-2.3,0-3.3-1.5-3.3-3.5v-6.9h-2.1v-2.1h2.1v-3.1h2.1v3.1h2.9v2.1h-2.9v6.9
		c0,0.9,0.4,1.5,1.3,1.5h1.6v2.1H830.6z"/>
</g>
<g>
	<path fill="#FFFFFF" d="M541.6,675.8h0.3c1.4,0,2.5-0.5,3.4-1.5l1.6,1.5c-1.4,1.5-3.1,2.2-5.1,2.2h-0.3c-5.1,0-7.3-4.4-7.3-9.2
		c0-4.8,2.2-9.1,7.3-9.1h0.3c2,0,3.7,0.7,5.1,2.2l-1.6,1.5c-0.9-1-2.1-1.5-3.4-1.5h-0.3c-3.6,0-5.1,3.4-5.1,7
		C536.5,672.4,538,675.8,541.6,675.8z"/>
	<path fill="#FFFFFF" d="M548.9,671.5c0-3.3,1.5-6.3,5.2-6.3c3.7,0,5.2,3.1,5.2,6.3c0,3.3-1.5,6.3-5.2,6.3
		C550.4,677.9,548.9,674.7,548.9,671.5z M557.2,671.5c0-2.1-0.9-4.3-3.1-4.3c-2.2,0-3.1,2.2-3.1,4.3c0,2.1,0.9,4.3,3.1,4.3
		C556.3,675.8,557.2,673.6,557.2,671.5z"/>
	<path fill="#FFFFFF" d="M569.1,677.7v-7.9c0-1.3-1-2.7-2.7-2.7s-2.5,1.1-2.5,1.1v9.4h-2.1v-10.1c0,0,1.5-2.4,4.5-2.4
		c3.2,0,4.8,2.5,4.8,4.7v7.9H569.1z"/>
	<path fill="#FFFFFF" d="M581.3,677.7v-7.9c0-1.3-1-2.7-2.7-2.7s-2.5,1.1-2.5,1.1v9.4H574v-10.1c0,0,1.5-2.4,4.5-2.4
		c3.2,0,4.8,2.5,4.8,4.7v7.9H581.3z"/>
	<path fill="#FFFFFF" d="M585.9,671.5c0-3.3,1.3-6.3,5-6.3c3.9,0,4.9,3.6,4.9,5.5c0,1.5-0.7,2-2.1,2h-5.7c0.2,1.6,1,3.2,3.3,3.2
		c1,0,2.1-0.3,3.1-0.9l1,1.6c-1.5,1.1-3,1.4-4.2,1.4C587.2,677.9,585.9,674.7,585.9,671.5z M588.1,670.6h5.7
		c-0.2-1.8-0.9-3.4-2.8-3.4C589.1,667.1,588.2,668.9,588.1,670.6z"/>
	<path fill="#FFFFFF" d="M603.1,677.9c-3.7,0-5.2-3.1-5.2-6.3s1.5-6.3,5.2-6.3h0.3c1.3,0,2.7,0.6,3.9,1.9l-1.5,1.5
		c-1.2-1.1-2-1.3-2.5-1.3h-0.3c-2.2,0-3.1,2.2-3.1,4.3c0,2.1,0.9,4.3,3.1,4.3h0.3c0.5,0,1.3-0.2,2.5-1.3l1.5,1.5
		c-1.3,1.3-2.7,1.9-3.9,1.9H603.1z"/>
	<path fill="#FFFFFF" d="M614.6,677.7c-2.3,0-3.3-1.5-3.3-3.5v-6.9h-2.1v-2.1h2.1v-3.1h2.1v3.1h2.9v2.1h-2.8v6.9
		c0,0.9,0.4,1.5,1.3,1.5h1.6v2.1H614.6L614.6,677.7z"/>
	<path fill="#FFFFFF" d="M533.4,699.2c0,0,1.4,5.1,1.9,6.9c0.3-1,0.9-3.3,1.3-4.7c0.4-1.6,1-4.2,1.3-5.3h2.1c0,0-0.8,3.4-1.4,5.9
		c-0.7,2.6-1.4,4.8-1.6,5.5c-0.2,0.4-0.7,1.1-1.7,1.1s-1.5-0.7-1.8-1.2c-0.2-0.4-1.4-5.1-1.4-5.3c-0.1,0.3-1.2,5-1.4,5.3
		c-0.2,0.5-0.7,1.2-1.8,1.2c-1,0-1.5-0.7-1.7-1.1c-0.3-0.6-0.9-2.8-1.6-5.5c-0.6-2.4-1.4-5.9-1.4-5.9h2.1c0.3,1.1,0.9,3.6,1.3,5.3
		c0.4,1.5,1,3.8,1.3,4.7c0.5-1.8,1.9-6.9,1.9-6.9c0.3-0.9,1-1,1.3-1S533.1,698.3,533.4,699.2z"/>
	<path fill="#FFFFFF" d="M544.1,692.2c0.7,0,1.3,0.6,1.3,1.3s-0.6,1.3-1.3,1.3s-1.3-0.6-1.3-1.3S543.4,692.2,544.1,692.2z
		 M543.1,708.5h2.1v-12.4h-2.1V708.5z"/>
	<path fill="#FFFFFF" d="M553.3,708.5c-2.3,0-3.3-1.5-3.3-3.5v-6.9h-2.1V696h2.1v-3.1h2.1v3.1h2.9v2.1h-2.9v6.9
		c0,0.9,0.4,1.5,1.3,1.5h1.6v2.1L553.3,708.5L553.3,708.5z"/>
	<path fill="#FFFFFF" d="M557.5,708.5v-17.8h2.1v6.9c0.3-0.6,1.3-1.6,2.9-1.6c3.6,0,5,3.1,5,6.3v6.3h-2.1v-6.3
		c0-2.1-0.8-4.3-2.9-4.3c-2.1,0-2.9,2.2-2.9,4.3v6.3H557.5z"/>
	<path fill="#FFFFFF" d="M582.2,708.5c-2.3,0-3.3-1.5-3.3-3.5v-6.9h-2.1V696h2.1v-3.1h2.1v3.1h2.9v2.1h-2.9v6.9
		c0,0.9,0.4,1.5,1.3,1.5h1.6v2.1L582.2,708.5L582.2,708.5z"/>
	<path fill="#FFFFFF" d="M586.4,708.5v-17.8h2.1v6.9c0.3-0.6,1.3-1.6,2.9-1.6c3.6,0,5,3.1,5,6.3v6.3h-2.1v-6.3
		c0-2.1-0.8-4.3-2.9-4.3c-2.1,0-2.9,2.2-2.9,4.3v6.3H586.4z"/>
	<path fill="#FFFFFF" d="M598.8,702.4c0-3.3,1.3-6.3,5-6.3c3.9,0,5,3.6,5,5.5c0,1.5-0.7,2-2.1,2H601c0.2,1.6,1,3.2,3.3,3.2
		c1,0,2.1-0.3,3.1-0.9l1,1.6c-1.5,1.1-3,1.4-4.2,1.4C600.1,708.7,598.8,705.5,598.8,702.4z M600.9,701.4h5.7
		c-0.2-1.8-0.9-3.4-2.8-3.4S601.1,699.7,600.9,701.4z"/>
	<path fill="#FFFFFF" d="M624.1,708.5v-7.9c0-1.3-0.7-2.7-2.3-2.7c-1.3,0-2,0.9-2.2,1.4c0.2,0.5,0.2,0.8,0.2,1.4v7.9h-2.1v-7.9
		c0-1.3-0.7-2.7-2.3-2.7c-1.5,0-2.1,1.1-2.1,1.1v9.4h-2.1v-10.1c0,0,1-2.4,4.1-2.4c1.4,0,2.4,0.5,3.2,1.3c0.6-0.6,1.7-1.3,3.3-1.3
		c3.2,0,4.4,2.5,4.4,4.7v7.9L624.1,708.5L624.1,708.5z"/>
</g>
<g>
	<path fill="#FFFFFF" d="M335.8,472.9v-4.7c0-1.9-1.3-2.9-2.8-2.9h-4.4v7.6h-2.1v-17.8h6.5c3.3,0,5.3,2.1,5.3,5.1
		c0,1.9-0.9,3.3-2,4.1c0.9,0.8,1.7,2.1,1.7,3.9v4.7L335.8,472.9L335.8,472.9L335.8,472.9z M328.6,463.1h4.4c1.7,0,3.1-1,3.1-2.9
		s-1.4-2.9-3.1-2.9h-4.4V463.1z"/>
	<path fill="#FFFFFF" d="M349.9,466.5v6.4h-2.1v-1.5c-0.7,1.1-1.7,1.6-2.8,1.6c-3.3,0-4.5-2.1-4.5-4.2c0-1.9,1.4-4.4,4.7-4.4
		c1.5,0,2.6,0.5,2.6,0.5c-0.2-1.6-0.6-2.7-2.4-2.7c-0.9,0-2.1,0.3-3,1l-1.2-1.6c1.4-1.1,2.8-1.5,4.3-1.5
		C349.9,460.3,349.9,463.9,349.9,466.5z M347.9,467c-0.4-0.2-1.3-0.5-2.6-0.5c-2,0-2.6,1.5-2.6,2.4c0,1,0.5,2.1,2.4,2.1
		C346.5,471,347.8,469.8,347.9,467z"/>
	<path fill="#FFFFFF" d="M357.2,472.9c-2.3,0-3.3-1.5-3.3-3.5v-6.9h-2.1v-2.1h2.1v-3.1h2.1v3.1h2.9v2.1h-2.9v6.9
		c0,0.9,0.4,1.5,1.3,1.5h1.6v2.1H357.2z"/>
	<path fill="#FFFFFF" d="M360.9,466.7c0-3.3,1.3-6.3,5-6.3c3.9,0,4.9,3.6,4.9,5.5c0,1.5-0.7,2-2.1,2h-5.7c0.2,1.6,1,3.2,3.3,3.2
		c1,0,2.1-0.3,3.1-0.9l1,1.6c-1.5,1.1-3,1.4-4.2,1.4C362.2,473.1,360.9,469.9,360.9,466.7z M363.1,465.8h5.7
		c-0.2-1.8-0.9-3.4-2.8-3.4S363.2,464,363.1,465.8z"/>
	<path fill="#FFFFFF" d="M390.1,473.1c0,3.1-2,5.1-5.1,5.1h-0.3c-1.4,0-2.7-0.4-4.2-1.1l0.9-1.8c1.6,0.9,2.7,0.9,3.3,0.9h0.3
		c1.8,0,3-1.4,3-3.2v-1.6c-0.7,1.1-1.7,1.6-2.8,1.6c-3.9,0-5-3.1-5-6.3v-6.3h2.1v6.3c0,2.1,0.5,4.3,2.8,4.3c2.2,0,2.8-2.7,2.8-4.3
		v-6.3h2.1L390.1,473.1L390.1,473.1L390.1,473.1z"/>
	<path fill="#FFFFFF" d="M392.7,466.7c0-3.3,1.5-6.3,5.2-6.3c3.7,0,5.2,3.1,5.2,6.3c0,3.3-1.5,6.3-5.2,6.3
		C394.3,473.1,392.7,469.9,392.7,466.7z M401,466.7c0-2.1-0.9-4.3-3.1-4.3s-3.1,2.2-3.1,4.3c0,2.1,0.9,4.3,3.1,4.3
		C400.2,471,401,468.8,401,466.7z"/>
	<path fill="#FFFFFF" d="M407.7,460.5v7.9c0,1.3,1,2.7,2.7,2.7s2.5-1.1,2.5-1.1v-9.4h2.1v10.1c0,0-1.5,2.4-4.5,2.4
		c-3.2,0-4.8-2.5-4.8-4.7v-7.9H407.7z"/>
	<path fill="#FFFFFF" d="M424.2,463c-0.4-0.4-1-0.7-1.8-0.7c-1.7,0-2.5,1.1-2.5,1.1v9.4h-2.1v-10.1c0,0,1.5-2.4,4.5-2.4
		c1.1,0,2,0.3,2.7,0.8L424.2,463z"/>
	<path fill="#FFFFFF" d="M320,497.5c0-3.3,1.3-6.3,5-6.3c3.9,0,4.9,3.6,4.9,5.5c0,1.5-0.7,2-2.1,2h-5.7c0.2,1.6,1,3.2,3.3,3.2
		c1,0,2.1-0.3,3.1-0.9l1,1.6c-1.5,1.1-3,1.4-4.2,1.4C321.3,503.9,320,500.8,320,497.5z M322.3,496.7h5.7c-0.2-1.8-0.9-3.4-2.8-3.4
		C323.1,493.2,322.3,494.9,322.3,496.7z"/>
	<path fill="#FFFFFF" d="M340.8,503.8c-0.9-2.2-2.1-4.1-3.2-5.4c-1,1.3-2.2,3.2-3.2,5.4h-2.1c0.4-1.4,2.5-5.2,3.6-6.5
		c-0.8-0.9-2.1-3.1-3.3-5.9h2.2c1,2.2,1.8,3.5,2.8,4.9c1-1.4,1.8-2.7,2.8-4.9h2.2c-1.2,2.8-2.5,5-3.3,5.9c1,1.3,3.2,5.1,3.6,6.5
		H340.8z"/>
	<path fill="#FFFFFF" d="M355.8,497.5c0,3.3-1.5,6.3-5.2,6.3c-1.5,0-2.7-0.9-3.1-1.6v6.9h-2.1v-17.8h2.1v1.5
		c0.5-0.8,1.6-1.6,3.1-1.6C354.2,491.2,355.8,494.3,355.8,497.5z M353.6,497.5c0-2.1-0.9-4.3-3.1-4.3s-3.1,2.2-3.1,4.3
		c0,2.1,0.9,4.3,3.1,4.3C352.9,501.9,353.6,499.7,353.6,497.5z"/>
	<path fill="#FFFFFF" d="M358.1,497.5c0-3.3,1.3-6.3,5-6.3c3.9,0,4.9,3.6,4.9,5.5c0,1.5-0.7,2-2.1,2h-5.7c0.2,1.6,1,3.2,3.3,3.2
		c1,0,2.1-0.3,3.1-0.9l1,1.6c-1.5,1.1-3,1.4-4.2,1.4C359.4,503.9,358.1,500.8,358.1,497.5z M360.2,496.7h5.7
		c-0.2-1.8-0.9-3.4-2.8-3.4S360.4,494.9,360.2,496.7z"/>
	<path fill="#FFFFFF" d="M376.9,493.8c-0.4-0.4-1-0.7-1.8-0.7c-1.7,0-2.5,1.1-2.5,1.1v9.4h-2.1v-10.1c0,0,1.5-2.4,4.5-2.4
		c1.1,0,2,0.3,2.7,0.8L376.9,493.8z"/>
	<path fill="#FFFFFF" d="M381.9,487.3c0.7,0,1.3,0.6,1.3,1.3s-0.6,1.3-1.3,1.3s-1.3-0.6-1.3-1.3S381.2,487.3,381.9,487.3z
		 M380.9,503.8h2.1v-12.4h-2.1V503.8z"/>
	<path fill="#FFFFFF" d="M385.8,497.5c0-3.3,1.3-6.3,5-6.3c3.9,0,4.9,3.6,4.9,5.5c0,1.5-0.7,2-2.1,2H388c0.2,1.6,1,3.2,3.3,3.2
		c1,0,2.1-0.3,3.1-0.9l1,1.6c-1.5,1.1-3,1.4-4.2,1.4C387.1,503.9,385.8,500.8,385.8,497.5z M387.9,496.7h5.7
		c-0.2-1.8-0.9-3.4-2.8-3.4S388.1,494.9,387.9,496.7z"/>
	<path fill="#FFFFFF" d="M405.6,503.8v-7.9c0-1.3-1-2.7-2.7-2.7c-1.7,0-2.5,1.1-2.5,1.1v9.4h-2.1v-10.1c0,0,1.5-2.4,4.5-2.4
		c3.2,0,4.8,2.5,4.8,4.7v7.9H405.6z"/>
	<path fill="#FFFFFF" d="M415.4,503.9c-3.7,0-5.2-3.1-5.2-6.3s1.5-6.3,5.2-6.3h0.3c1.3,0,2.7,0.6,3.9,1.9l-1.5,1.5
		c-1.2-1.1-2-1.3-2.5-1.3h-0.3c-2.2,0-3.1,2.2-3.1,4.3s0.9,4.3,3.1,4.3h0.3c0.5,0,1.3-0.2,2.5-1.3l1.5,1.5c-1.3,1.3-2.7,1.9-3.9,1.9
		L415.4,503.9L415.4,503.9z"/>
	<path fill="#FFFFFF" d="M421.6,497.5c0-3.3,1.3-6.3,5-6.3c3.9,0,4.9,3.6,4.9,5.5c0,1.5-0.7,2-2.1,2h-5.7c0.2,1.6,1,3.2,3.3,3.2
		c1,0,2.1-0.3,3.1-0.9l1,1.6c-1.5,1.1-3,1.4-4.2,1.4C422.9,503.9,421.6,500.8,421.6,497.5z M423.7,496.7h5.7
		c-0.2-1.8-0.9-3.4-2.8-3.4C424.7,493.2,423.9,494.9,423.7,496.7z"/>
</g>
<g>
	<g>
		<g>
			<path fill="none" stroke="#FFFFFF" stroke-width="2" stroke-miterlimit="10" d="M496.7,244.7c-55.5,21.9-98.5,66.2-120.4,122"/>
			<g>
				<path fill="#FFFFFF" d="M480,241.1c-0.1,0.6,0.3,1.1,0.9,1.2l15.5,2.7l-9.1,12.9c-0.3,0.4-0.3,1.1,0.3,1.5
					c0.4,0.3,1.1,0.2,1.5-0.3l9.9-14.2c0.2-0.3,0.3-0.7,0.1-0.9c-0.2-0.3-0.4-0.6-0.8-0.6l-17.1-3c-0.2,0-0.4,0-0.6,0.1
					C480.2,240.4,480.1,240.7,480,241.1z"/>
			</g>
		</g>
	</g>
	<g>
		<g>
			<path fill="none" stroke="#FFFFFF" stroke-width="2" stroke-miterlimit="10" d="M777.8,364.4c-22.4-53.8-66.1-96.9-119.4-118.8"
				/>
			<g>
				<path fill="#FFFFFF" d="M781.3,347.6c-0.6-0.1-1.1,0.3-1.2,0.9l-2.5,15.5l-13-8.8c-0.4-0.3-1.1-0.2-1.5,0.3
					c-0.3,0.4-0.2,1.1,0.3,1.5l14.4,9.8c0.3,0.2,0.7,0.3,0.9,0.1s0.5-0.4,0.6-0.8l2.7-17.1c0-0.2,0-0.4-0.1-0.6
					C781.9,347.9,781.6,347.7,781.3,347.6z"/>
			</g>
		</g>
	</g>
	<g>
		<g>
			<path fill="none" stroke="#FFFFFF" stroke-width="2" stroke-miterlimit="10" d="M376.4,528.5c22.4,55.5,66.8,99.2,122.6,120.6"/>
			<g>
				<path fill="#FFFFFF" d="M372.8,545.2c0.6,0.1,1.1-0.3,1.2-0.9l2.7-15.5l12.9,9c0.4,0.3,1.1,0.2,1.5-0.3c0.3-0.4,0.2-1.1-0.3-1.5
					l-14.2-9.9c-0.3-0.2-0.7-0.3-0.9-0.1c-0.3,0.2-0.5,0.4-0.6,0.8l-2.9,17.1c0,0.2,0,0.4,0.1,0.6
					C372.2,544.9,372.5,545.2,372.8,545.2z"/>
			</g>
		</g>
	</g>
	<g>
		<g>
			<path fill="none" stroke="#FFFFFF" stroke-width="2" stroke-miterlimit="10" d="M660.7,646.6c53.8-22.6,97.4-66.3,118.8-120.4"/>
			<g>
				<path fill="#FFFFFF" d="M677.5,649.9c0.1-0.6-0.3-1.1-0.9-1.2l-15.5-2.4l8.7-13c0.3-0.5,0.2-1.1-0.3-1.5s-1.1-0.2-1.5,0.3
					l-9.7,14.4c-0.2,0.3-0.3,0.7-0.1,1c0.2,0.3,0.4,0.5,0.8,0.6l17.1,2.7c0.2,0,0.4,0,0.6-0.1C677.2,650.6,677.5,650.3,677.5,649.9z
					"/>
			</g>
		</g>
	</g>
</g>
<g>
	<path fill="#B05CA3" d="M631.5,437.2c5.5-6.5,9.9-15.6,12.4-22.7c5,13.7,0.7,50.1,0.7,50.1S643.2,447.2,631.5,437.2z"/>
	<g>
		
			<linearGradient id="SVGID_1_" gradientUnits="userSpaceOnUse" x1="-1293.1965" y1="984.8395" x2="-1211.4966" y2="984.8395" gradientTransform="matrix(-0.8571 0 0 0.8571 -463.9113 -367.591)">
			<stop  offset="0" style="stop-color:#519DD2"/>
			<stop  offset="0.6314" style="stop-color:#519DD2"/>
			<stop  offset="1" style="stop-color:#027BB8"/>
		</linearGradient>
		<path fill="url(#SVGID_1_)" d="M644.5,464.6c0,0-2.6,23-38.7,35.8c-11.7,4.4-21.1,6.2-31.4,15.5v-40.9c0,0,4.2-8.5,26.3-16.7
			c12.9-4.8,23.1-12.1,30.7-21.2C643.2,447.2,644.5,464.6,644.5,464.6L644.5,464.6z"/>
	</g>
	
		<linearGradient id="SVGID_2_" gradientUnits="userSpaceOnUse" x1="-1292.3965" y1="919.83" x2="-1211.4965" y2="919.83" gradientTransform="matrix(-0.8571 0 0 0.8571 -463.9113 -367.5918)">
		<stop  offset="0" style="stop-color:#E16A61"/>
		<stop  offset="0.6314" style="stop-color:#E16A61"/>
		<stop  offset="1" style="stop-color:#E1464E"/>
	</linearGradient>
	<path fill="url(#SVGID_2_)" d="M613,430.3c-22.5-0.9-32.6,12.2-38.5,17.6c0-22.6,0-22.5,0-41.8c0,0,53.4-32.6,69.3,8.4l-0.1,0.5
		c-3,8.1-6.9,15.6-12.3,22.2C627.1,433.4,621.1,430.7,613,430.3z"/>
	<path fill="#C2C849" d="M517.6,437.2c-5.5-6.5-9.9-15.6-12.4-22.7c-5,13.7-0.7,50.1-0.7,50.1S505.9,447.2,517.6,437.2z"/>
	
		<linearGradient id="SVGID_3_" gradientUnits="userSpaceOnUse" x1="-2019.4656" y1="919.83" x2="-1938.5657" y2="919.83" gradientTransform="matrix(0.8571 0 0 0.8571 2236.2278 -367.5918)">
		<stop  offset="0" style="stop-color:#E5AE23"/>
		<stop  offset="0.3144" style="stop-color:#FAC35F"/>
		<stop  offset="1" style="stop-color:#FCDD5E"/>
	</linearGradient>
	<path fill="url(#SVGID_3_)" d="M536.1,430.3c22.5-0.9,32.6,12.2,38.5,17.6c0-22.6,0-22.5,0-41.8c0,0-53.4-32.6-69.3,8.4l0.1,0.5
		c3,8.1,6.9,15.6,12.3,22.2C522,433.4,528,430.7,536.1,430.3z"/>
	<g>
		
			<linearGradient id="SVGID_4_" gradientUnits="userSpaceOnUse" x1="-2020.2656" y1="984.8395" x2="-1938.5657" y2="984.8395" gradientTransform="matrix(0.8571 0 0 0.8571 2236.2278 -367.591)">
			<stop  offset="0" style="stop-color:#40B449"/>
			<stop  offset="0.3144" style="stop-color:#6DBF70"/>
			<stop  offset="1" style="stop-color:#6DBF70"/>
		</linearGradient>
		<path fill="url(#SVGID_4_)" d="M504.6,464.6c0,0,2.6,23,38.7,35.8c11.7,4.4,21.1,6.1,31.4,15.5v-40.9c0,0-4.2-8.5-26.3-16.7
			c-12.9-4.8-23.1-12.1-30.7-21.2C505.9,447.2,504.6,464.6,504.6,464.6L504.6,464.6z"/>
	</g>
</g>
<g>
	<circle fill="#FFFFFF" cx="576" cy="446.9" r="100.3"/>
</g>
<g>
	<path fill="#00AFAC" d="M503.9,460.3l-2.4,2.8v10.4h-12.4v-51.3h12.4v27.2l9.9-11.4h14.9l-13.5,14.8l13.9,20.8h-14.2L503.9,460.3z"
		/>
	<path fill="#00AFAC" d="M613.2,470.6c-1.7,1.9-5.1,3.6-8.8,3.6c-10.3,0-15.9-8.3-15.9-18.5c0-10.3,5.6-18.5,15.9-18.5
		c3.6,0,7.1,1.7,8.8,3.6v-18.6h12.4v51.3h-12.4V470.6z M613.2,451c-0.9-1.9-3.1-3.3-5.4-3.3c-4.3,0-6.8,3.5-6.8,8.1
		c0,4.6,2.5,8,6.8,8c2.4,0,4.5-1.3,5.4-3.3V451z"/>
	<path fill="#00AFAC" d="M648.5,474.3c-10.7,0-18.2-7.6-18.2-18.5c0-11,7.4-18.5,18.2-18.5c10.8,0,18.2,7.6,18.2,18.5
		C666.6,466.7,659.3,474.3,648.5,474.3z M648.5,447.4c-3.8,0-5.9,3.5-5.9,8.4c0,4.9,2.1,8.3,5.9,8.3c3.9,0,6-3.4,6-8.3
		C654.5,450.8,652.3,447.4,648.5,447.4z"/>
	<path fill="#00AFAC" d="M571.4,437.2c-4.1,0-7.6,1.7-9.6,3.9v11c0.6-2.4,2.7-3.9,5.1-3.9c3.2,0,4.7,2.1,4.7,5.1v20.3H584v-23.3
		C584,442.3,579.3,437.2,571.4,437.2z"/>
</g>
<path fill="#3F2746" d="M536.6,435c-3.8,0-7-2.6-7-6.6c0-4.1,3.2-6.7,7-6.7c3.8,0,7,2.6,7,6.7C543.6,432.4,540.4,435,536.6,435z
	 M542.8,473.5h-12.4V438h12.4V473.5z"/>
<path fill="#3F2746" d="M555.7,435c-3.8,0-7-2.6-7-6.6c0-4.1,3.2-6.7,7-6.7c3.8,0,7,2.6,7,6.7C562.7,432.4,559.5,435,555.7,435z"/>
<polygon fill="#3F2746" points="561.9,438 549.5,438 549.5,473.5 561.9,473.5 561.9,452 561.9,441 "/>
</svg>
