<?xml version="1.0" encoding="utf-8"?>
<!-- Generator: Adobe Illustrator 18.0.0, SVG Export Plug-In . SVG Version: 6.00 Build 0)  -->
<!DOCTYPE svg PUBLIC "-//W3C//DTD SVG 1.1//EN" "http://www.w3.org/Graphics/SVG/1.1/DTD/svg11.dtd">
<svg version="1.1" id="Layer_1" xmlns="http://www.w3.org/2000/svg" xmlns:xlink="http://www.w3.org/1999/xlink" x="0px" y="0px"
	 viewBox="-214 248 1708 240" enable-background="new -214 248 1708 240" xml:space="preserve">
<g id="mXkCyG_1_" display="none">
</g>
<g enable-background="new    ">
	<path fill="#FFFFFF" d="M408.5,428.5h0.5c1.8,0,3.4-0.7,4.6-2.1l2.2,2c-1.9,2-4.2,2.9-6.8,2.9h-0.5c-6.8,0-9.8-5.9-9.8-12.2
		c0-6.4,3-12.2,9.8-12.2h0.5c2.6,0,4.9,0.9,6.8,2.9l-2.2,2c-1.2-1.4-2.8-2.1-4.6-2.1h-0.5c-4.8,0-6.8,4.6-6.8,9.4
		C401.7,423.9,403.7,428.5,408.5,428.5z"/>
	<path fill="#FFFFFF" d="M419.5,431v-23.8h2.8v9.1c0.5-0.8,1.7-2.2,3.9-2.2c4.8,0,6.7,4.2,6.7,8.5v8.4h-2.8v-8.4
		c0-2.8-1-5.8-3.9-5.8s-3.9,3-3.9,5.8v8.4H419.5z"/>
	<path fill="#FFFFFF" d="M436,422.7c0-4.3,2-8.5,7-8.5s7,4.2,7,8.5s-2,8.5-7,8.5S436,427,436,422.7z M447.1,422.7
		c0-2.8-1.1-5.8-4.2-5.8c-3,0-4.2,3-4.2,5.8s1.2,5.8,4.2,5.8C446,428.5,447.1,425.5,447.1,422.7z"/>
	<path fill="#FFFFFF" d="M453,422.7c0-4.3,2-8.5,7-8.5s7,4.2,7,8.5s-2,8.5-7,8.5C455.1,431.2,453,427,453,422.7z M464.2,422.7
		c0-2.8-1.1-5.8-4.2-5.8c-3,0-4.2,3-4.2,5.8s1.2,5.8,4.2,5.8C463.1,428.5,464.2,425.5,464.2,422.7z"/>
	<path fill="#FFFFFF" d="M469.9,429.4l1.1-2.6c1.4,0.7,3.3,1.6,4.8,1.6c1.6,0,3.3-0.7,3.3-2.2c0-1.4-2-2.1-3.6-2.4
		c-2.6-0.7-5.2-2.1-5.2-5.1c0-3.2,2.9-4.6,5.7-4.6c2,0,4.1,0.7,5.1,1.2l-0.9,2.5c-0.7-0.3-2.5-1-4.2-1c-1.9,0-2.9,0.8-2.9,1.9
		c0,1.4,1.6,2.1,2.9,2.4c2.5,0.6,5.9,1.8,5.9,5.1c0,3.5-3.1,4.9-6.1,4.9C473.2,431.1,471.3,430.1,469.9,429.4z"/>
	<path fill="#FFFFFF" d="M484.8,422.7c0-4.3,1.7-8.5,6.7-8.5c5.2,0,6.6,4.8,6.6,7.3c0,2-0.9,2.7-2.8,2.7h-7.6
		c0.2,2.2,1.4,4.3,4.5,4.3c1.4,0,2.8-0.4,4.2-1.3l1.4,2.2c-2.1,1.5-4.1,1.8-5.6,1.8C486.6,431.2,484.8,427,484.8,422.7z
		 M487.8,421.5h7.6c-0.2-2.4-1.2-4.6-3.8-4.6C489,416.9,487.9,419.1,487.8,421.5z"/>
	<path fill="#FFFFFF" d="M523.2,418.4c0,0,1.9,6.9,2.5,9.3c0.4-1.3,1.2-4.4,1.7-6.4c0.6-2.2,1.4-5.6,1.7-7.1h2.9
		c0,0-1.1,4.7-1.9,7.9c-0.9,3.5-1.8,6.5-2.2,7.3c-0.3,0.6-0.9,1.5-2.3,1.5c-1.4,0-2.1-0.9-2.4-1.6c-0.2-0.5-1.8-6.9-1.9-7.2
		c-0.1,0.3-1.6,6.6-1.9,7.2c-0.3,0.7-1,1.6-2.4,1.6s-2-0.9-2.3-1.5c-0.4-0.8-1.3-3.8-2.2-7.3c-0.8-3.2-1.9-7.9-1.9-7.9h2.9
		c0.3,1.5,1.1,4.9,1.7,7.1c0.5,2,1.4,5,1.7,6.4c0.7-2.4,2.5-9.3,2.5-9.3c0.3-1.3,1.4-1.4,1.7-1.4S522.8,417.2,523.2,418.4z"/>
	<path fill="#FFFFFF" d="M535.8,431v-23.8h2.8v9.1c0.5-0.8,1.7-2.2,3.9-2.2c4.8,0,6.7,4.2,6.7,8.5v8.4h-2.8v-8.4
		c0-2.8-1-5.8-3.9-5.8s-3.9,3-3.9,5.8v8.4H535.8z"/>
	<path fill="#FFFFFF" d="M552.3,422.7c0-4.3,2-8.5,7-8.5s7,4.2,7,8.5s-2,8.5-7,8.5S552.3,427,552.3,422.7z M563.4,422.7
		c0-2.8-1.1-5.8-4.2-5.8c-3,0-4.2,3-4.2,5.8s1.2,5.8,4.2,5.8C562.3,428.5,563.4,425.5,563.4,422.7z"/>
</g>
<g enable-background="new    ">
	<path fill="#FFFFFF" d="M418.2,460.7c-0.6-0.5-1.4-0.9-2.4-0.9c-2.3,0-3.3,1.5-3.3,1.5V474h-2.8v-13.6c0,0,2-3.3,6.1-3.3
		c1.5,0,2.7,0.4,3.7,1L418.2,460.7z"/>
	<path fill="#FFFFFF" d="M421.5,465.7c0-4.3,1.7-8.5,6.7-8.5c5.2,0,6.6,4.8,6.6,7.3c0,2-0.9,2.7-2.8,2.7h-7.6
		c0.2,2.2,1.4,4.3,4.5,4.3c1.4,0,2.8-0.4,4.2-1.3l1.4,2.2c-2.1,1.5-4.1,1.8-5.6,1.8C423.3,474.2,421.5,470,421.5,465.7z
		 M424.4,464.5h7.6c-0.2-2.4-1.2-4.6-3.8-4.6C425.7,459.9,424.6,462.1,424.4,464.5z"/>
	<path fill="#FFFFFF" d="M444.4,474.2c-4.9,0-7-4.2-7-8.5s2-8.5,7-8.5h0.4c1.7,0,3.5,0.8,5.2,2.5l-2,2c-1.6-1.6-2.6-1.7-3.3-1.7
		h-0.4c-3,0-4.2,3-4.2,5.8s1.2,5.8,4.2,5.8h0.4c0.7,0,1.7-0.2,3.3-1.7l2,2c-1.7,1.7-3.5,2.5-5.2,2.5h-0.4V474.2z"/>
	<path fill="#FFFFFF" d="M455.3,452c1,0,1.7,0.8,1.7,1.7c0,1-0.8,1.7-1.7,1.7s-1.7-0.8-1.7-1.7C453.5,452.8,454.3,452,455.3,452z
		 M453.9,474h2.8v-16.7h-2.8V474z"/>
	<path fill="#FFFFFF" d="M460.4,465.7c0-4.3,1.7-8.5,6.7-8.5c5.2,0,6.6,4.8,6.6,7.3c0,2-0.9,2.7-2.8,2.7h-7.6
		c0.2,2.2,1.4,4.3,4.5,4.3c1.4,0,2.8-0.4,4.2-1.3l1.4,2.2c-2.1,1.5-4.1,1.8-5.6,1.8C462.1,474.2,460.4,470,460.4,465.7z
		 M463.3,464.5h7.6c-0.2-2.4-1.2-4.6-3.8-4.6C464.6,459.9,463.5,462.1,463.3,464.5z"/>
	<path fill="#FFFFFF" d="M485.7,464.4c1-3.1,1.7-6,2-7.1h2.9c-0.3,1.6-1.2,4.9-2.2,7.9c-0.7,2.1-2,6-2.5,7.3
		c-0.6,1.4-2.2,1.5-2.5,1.5s-1.9-0.1-2.5-1.5c-0.5-1.3-1.9-5.1-2.5-7.3c-0.9-3.1-1.8-6.3-2.2-7.9h2.9c0.2,1.1,1,3.9,2,7.1
		c1.3,4.3,2.1,6.4,2.3,7C483.6,470.8,484.4,468.7,485.7,464.4z"/>
	<path fill="#FFFFFF" d="M493.1,465.7c0-4.3,1.7-8.5,6.7-8.5c5.2,0,6.6,4.8,6.6,7.3c0,2-0.9,2.7-2.8,2.7H496
		c0.2,2.2,1.4,4.3,4.5,4.3c1.4,0,2.8-0.4,4.2-1.3l1.4,2.2c-2.1,1.5-4.1,1.8-5.6,1.8C494.8,474.2,493.1,470,493.1,465.7z M496,464.5
		h7.6c-0.2-2.4-1.2-4.6-3.8-4.6C497.3,459.9,496.2,462.1,496,464.5z"/>
	<path fill="#FFFFFF" d="M509.8,472.4l1.1-2.6c1.4,0.7,3.3,1.6,4.8,1.6c1.6,0,3.3-0.7,3.3-2.2c0-1.4-2-2.1-3.6-2.4
		c-2.6-0.7-5.2-2.1-5.2-5.1c0-3.2,2.9-4.6,5.7-4.6c2,0,4.1,0.7,5.1,1.2l-0.9,2.5c-0.7-0.3-2.5-1-4.2-1c-1.9,0-2.9,0.8-2.9,1.9
		c0,1.4,1.6,2.1,2.9,2.4c2.5,0.6,5.9,1.8,5.9,5.1c0,3.5-3.1,4.9-6.1,4.9C513.1,474.1,511.1,473.1,509.8,472.4z"/>
	<path fill="#FFFFFF" d="M536.5,452c1,0,1.7,0.8,1.7,1.7c0,1-0.8,1.7-1.7,1.7s-1.7-0.8-1.7-1.7S535.6,452,536.5,452z M535.1,474h2.8
		v-16.7h-2.8V474z"/>
	<path fill="#FFFFFF" d="M548.9,474c-3.1,0-4.5-2.1-4.5-4.7V460h-2.8v-2.7h2.8v-4.1h2.8v4.1h3.9v2.7h-3.9v9.3c0,1.2,0.6,1.9,1.7,1.9
		h2.2v2.8L548.9,474L548.9,474z"/>
</g>
<g enable-background="new    ">
	<path fill="#FFFFFF" d="M60.7,407.2h8.8c4.3,0,7.1,2.9,7.1,6.8s-2.8,6.8-7.1,6.8h-5.9V431h-2.9C60.7,431,60.7,407.2,60.7,407.2z
		 M69.5,417.9c2.3,0,4.2-1.4,4.2-3.9c0-2.6-1.9-3.9-4.2-3.9h-5.9v7.9h5.9V417.9z"/>
	<path fill="#FFFFFF" d="M82.3,414.3v10.5c0,1.7,1.3,3.6,3.7,3.6c2.3,0,3.3-1.5,3.3-1.5v-12.7h2.8v13.6c0,0-2,3.3-6.1,3.3
		c-4.2,0-6.4-3.3-6.4-6.4v-10.5h2.7V414.3z"/>
	<path fill="#FFFFFF" d="M102.8,431c-3.1,0-4.5-2.1-4.5-4.7V417h-2.8v-2.7h2.8v-4.1h2.8v4.1h3.9v2.7h-3.9v9.3c0,1.2,0.6,1.9,1.7,1.9
		h2.2v2.8L102.8,431L102.8,431z"/>
	<path fill="#FFFFFF" d="M130.9,431.2c0,4.2-2.6,6.9-6.8,6.9h-0.4c-1.8,0-3.7-0.6-5.6-1.5l1.2-2.4c2.2,1.1,3.6,1.2,4.4,1.2h0.4
		c2.4,0,4-1.9,4-4.2V429c-0.9,1.5-2.3,2.1-3.8,2.1c-5.3,0-6.6-4.2-6.6-8.5v-8.3h2.8v8.3c0,2.8,0.7,5.8,3.8,5.8c3,0,3.8-3.5,3.8-5.8
		v-8.3h2.8V431.2z"/>
	<path fill="#FFFFFF" d="M134.3,422.7c0-4.3,2-8.5,7-8.5s7,4.2,7,8.5s-2,8.5-7,8.5C136.4,431.2,134.3,427,134.3,422.7z M145.5,422.7
		c0-2.8-1.1-5.8-4.2-5.8c-3,0-4.2,3-4.2,5.8s1.2,5.8,4.2,5.8C144.4,428.5,145.5,425.5,145.5,422.7z"/>
	<path fill="#FFFFFF" d="M154.5,414.3v10.5c0,1.7,1.3,3.6,3.7,3.6c2.3,0,3.3-1.5,3.3-1.5v-12.7h2.8v13.6c0,0-2,3.3-6.1,3.3
		c-4.2,0-6.4-3.3-6.4-6.4v-10.5h2.7V414.3z"/>
	<path fill="#FFFFFF" d="M176.5,417.7c-0.6-0.5-1.4-0.9-2.4-0.9c-2.3,0-3.3,1.5-3.3,1.5V431H168v-13.6c0,0,2-3.3,6.1-3.3
		c1.5,0,2.7,0.4,3.7,1L176.5,417.7z"/>
	<path fill="#FFFFFF" d="M201.7,416.3v-2h2.8v16.9c-0.1,4.2-2.6,6.9-6.8,6.9h-0.4c-1.8,0-3.7-0.6-5.6-1.5l1.2-2.4
		c2.2,1.1,3.6,1.2,4.4,1.2h0.4c2.4,0,4-1.9,4-4.2V429c-0.7,1-2.2,2.2-4.2,2.2c-5,0-7-4.2-7-8.5s2-8.5,7-8.5
		C199.5,414.1,201,415.2,201.7,416.3z M201.7,422.7c0-2.8-1.2-5.8-4.2-5.8c-3.1,0-4.2,3-4.2,5.8s1.1,5.8,4.2,5.8
		C200.5,428.5,201.7,425.5,201.7,422.7z"/>
	<path fill="#FFFFFF" d="M209.9,409c1,0,1.7,0.8,1.7,1.7c0,1-0.8,1.7-1.7,1.7s-1.7-0.8-1.7-1.7S209,409,209.9,409z M208.5,431h2.8
		v-16.7h-2.8V431z"/>
	<path fill="#FFFFFF" d="M222.3,409.9c-1.1,0-1.7,0.7-1.7,2v2.5h3.9v2.7h-3.9v14h-2.8v-14H215v-2.7h2.8v-2.5c0-2.7,1.5-4.7,4.5-4.7
		h2.2v2.7H222.3z"/>
	<path fill="#FFFFFF" d="M235.4,431c-3.1,0-4.5-2.1-4.5-4.7V417h-2.8v-2.7h2.8v-4.1h2.8v4.1h3.9v2.7h-3.9v9.3c0,1.2,0.6,1.9,1.7,1.9
		h2.2v2.8L235.4,431L235.4,431z"/>
</g>
<g enable-background="new    ">
	<path fill="#FFFFFF" d="M85.1,465.7c0-4.3,2-8.5,7-8.5s7,4.2,7,8.5s-2,8.5-7,8.5C87.2,474.2,85.1,470,85.1,465.7z M96.3,465.7
		c0-2.8-1.1-5.8-4.2-5.8c-3,0-4.2,3-4.2,5.8s1.2,5.8,4.2,5.8C95.2,471.5,96.3,468.5,96.3,465.7z"/>
	<path fill="#FFFFFF" d="M105.3,457.3v10.5c0,1.7,1.3,3.6,3.7,3.6c2.3,0,3.3-1.5,3.3-1.5v-12.7h2.8v13.6c0,0-2,3.3-6.1,3.3
		c-4.2,0-6.4-3.3-6.4-6.4v-10.5h2.7V457.3z"/>
	<path fill="#FFFFFF" d="M125.7,474c-3.1,0-4.5-2.1-4.5-4.7V460h-2.8v-2.7h2.8v-4.1h2.8v4.1h3.9v2.7H124v9.3c0,1.2,0.6,1.9,1.7,1.9
		h2.2v2.8L125.7,474L125.7,474z"/>
	<path fill="#FFFFFF" d="M147.6,474c-3.1,0-4.5-2.1-4.5-4.7V460h-2.8v-2.7h2.8v-4.1h2.8v4.1h3.9v2.7h-3.9v9.3c0,1.2,0.6,1.9,1.7,1.9
		h2.2v2.8L147.6,474L147.6,474z"/>
	<path fill="#FFFFFF" d="M153.2,474v-23.8h2.8v9.1c0.5-0.8,1.7-2.2,3.9-2.2c4.8,0,6.7,4.2,6.7,8.5v8.4h-2.8v-8.4
		c0-2.8-1-5.8-3.9-5.8s-3.9,3-3.9,5.8v8.4H153.2z"/>
	<path fill="#FFFFFF" d="M169.7,465.7c0-4.3,1.7-8.5,6.7-8.5c5.2,0,6.6,4.8,6.6,7.3c0,2-0.9,2.7-2.8,2.7h-7.6
		c0.2,2.2,1.4,4.3,4.5,4.3c1.4,0,2.8-0.4,4.2-1.3l1.4,2.2c-2.1,1.5-4.1,1.8-5.6,1.8C171.5,474.2,169.7,470,169.7,465.7z
		 M172.6,464.5h7.6c-0.2-2.4-1.2-4.6-3.8-4.6C173.9,459.9,172.8,462.1,172.6,464.5z"/>
	<path fill="#FFFFFF" d="M195,460.7c-0.6-0.5-1.4-0.9-2.4-0.9c-2.3,0-3.3,1.5-3.3,1.5V474h-2.8v-13.6c0,0,2-3.3,6.1-3.3
		c1.5,0,2.7,0.4,3.7,1L195,460.7z"/>
	<path fill="#FFFFFF" d="M198.3,465.7c0-4.3,1.7-8.5,6.7-8.5c5.2,0,6.6,4.8,6.6,7.3c0,2-0.9,2.7-2.8,2.7h-7.6
		c0.2,2.2,1.4,4.3,4.5,4.3c1.4,0,2.8-0.4,4.2-1.3l1.4,2.2c-2.1,1.5-4.1,1.8-5.6,1.8C200,474.2,198.3,470,198.3,465.7z M201.2,464.5
		h7.6c-0.2-2.4-1.2-4.6-3.8-4.6S201.4,462.1,201.2,464.5z"/>
</g>
<g enable-background="new    ">
	<path fill="#FFFFFF" d="M766.7,430.5h0.5c1.8,0,3.4-0.7,4.6-2.1l2.2,2c-1.9,2-4.2,2.9-6.8,2.9h-0.5c-6.8,0-9.8-5.9-9.8-12.2
		c0-6.4,3-12.2,9.8-12.2h0.5c2.6,0,4.9,0.9,6.8,2.9l-2.2,2c-1.2-1.4-2.8-2.1-4.6-2.1h-0.5c-4.8,0-6.8,4.6-6.8,9.4
		C759.9,425.9,762,430.5,766.7,430.5z"/>
	<path fill="#FFFFFF" d="M776.5,424.7c0-4.3,2-8.5,7-8.5s7,4.2,7,8.5s-2,8.5-7,8.5S776.5,429,776.5,424.7z M787.6,424.7
		c0-2.8-1.1-5.8-4.2-5.8c-3,0-4.2,3-4.2,5.8s1.2,5.8,4.2,5.8C786.5,430.5,787.6,427.5,787.6,424.7z"/>
	<path fill="#FFFFFF" d="M803.6,433v-10.5c0-1.7-1.3-3.6-3.7-3.6c-2.3,0-3.3,1.5-3.3,1.5V433h-2.8v-13.6c0,0,2-3.3,6.1-3.3
		c4.2,0,6.4,3.3,6.4,6.4V433H803.6z"/>
	<path fill="#FFFFFF" d="M819.9,433v-10.5c0-1.7-1.3-3.6-3.7-3.6c-2.3,0-3.3,1.5-3.3,1.5V433h-2.8v-13.6c0,0,2-3.3,6.1-3.3
		c4.2,0,6.4,3.3,6.4,6.4V433H819.9z"/>
	<path fill="#FFFFFF" d="M826.1,424.7c0-4.3,1.7-8.5,6.7-8.5c5.2,0,6.6,4.8,6.6,7.3c0,2-0.9,2.7-2.8,2.7H829
		c0.2,2.2,1.4,4.3,4.5,4.3c1.4,0,2.8-0.4,4.2-1.3l1.4,2.2c-2.1,1.5-4.1,1.8-5.6,1.8C827.9,433.2,826.1,429,826.1,424.7z M829,423.5
		h7.6c-0.2-2.4-1.2-4.6-3.8-4.6C830.3,418.9,829.2,421.1,829,423.5z"/>
	<path fill="#FFFFFF" d="M849,433.2c-4.9,0-7-4.2-7-8.5s2-8.5,7-8.5h0.4c1.7,0,3.5,0.8,5.2,2.5l-2,2c-1.6-1.6-2.6-1.7-3.3-1.7H849
		c-3,0-4.2,3-4.2,5.8s1.2,5.8,4.2,5.8h0.4c0.7,0,1.7-0.2,3.3-1.7l2,2c-1.7,1.7-3.5,2.5-5.2,2.5H849V433.2z"/>
	<path fill="#FFFFFF" d="M864.6,433c-3.1,0-4.5-2.1-4.5-4.7V419h-2.8v-2.7h2.8v-4.1h2.8v4.1h3.9v2.7h-3.9v9.3c0,1.2,0.6,1.9,1.7,1.9
		h2.2v2.8L864.6,433L864.6,433z"/>
	<path fill="#FFFFFF" d="M755.7,462.4c0,0,1.9,6.9,2.5,9.3c0.4-1.3,1.2-4.4,1.7-6.4c0.6-2.2,1.4-5.6,1.7-7.1h2.9
		c0,0-1.1,4.7-1.9,7.9c-0.9,3.5-1.8,6.5-2.2,7.3c-0.3,0.6-0.9,1.5-2.3,1.5c-1.4,0-2.1-0.9-2.4-1.6c-0.2-0.5-1.8-6.9-1.9-7.2
		c-0.1,0.3-1.6,6.6-1.9,7.2c-0.3,0.7-1,1.6-2.4,1.6s-2-0.9-2.3-1.5c-0.4-0.8-1.3-3.8-2.2-7.3c-0.8-3.2-1.9-7.9-1.9-7.9h2.9
		c0.3,1.5,1.1,4.9,1.7,7.1c0.5,2,1.4,5,1.7,6.4c0.7-2.4,2.5-9.3,2.5-9.3c0.3-1.3,1.4-1.4,1.7-1.4C754.3,461,755.4,461.2,755.7,462.4
		z"/>
	<path fill="#FFFFFF" d="M770.1,453c1,0,1.7,0.8,1.7,1.7c0,1-0.8,1.7-1.7,1.7c-1,0-1.7-0.8-1.7-1.7C768.3,453.8,769.1,453,770.1,453
		z M768.7,475h2.8v-16.7h-2.8V475z"/>
	<path fill="#FFFFFF" d="M782.5,475c-3.1,0-4.5-2.1-4.5-4.7V461h-2.8v-2.7h2.8v-4.1h2.8v4.1h3.9v2.7h-3.9v9.3c0,1.2,0.6,1.9,1.7,1.9
		h2.2v2.8L782.5,475L782.5,475z"/>
	<path fill="#FFFFFF" d="M788.1,475v-23.8h2.8v9.1c0.5-0.8,1.7-2.2,3.9-2.2c4.8,0,6.7,4.2,6.7,8.5v8.4h-2.8v-8.4
		c0-2.8-1-5.8-3.9-5.8s-3.9,3-3.9,5.8v8.4H788.1z"/>
	<path fill="#FFFFFF" d="M821.2,475c-3.1,0-4.5-2.1-4.5-4.7V461h-2.8v-2.7h2.8v-4.1h2.8v4.1h3.9v2.7h-3.9v9.3c0,1.2,0.6,1.9,1.7,1.9
		h2.2v2.8L821.2,475L821.2,475z"/>
	<path fill="#FFFFFF" d="M826.8,475v-23.8h2.8v9.1c0.5-0.8,1.7-2.2,3.9-2.2c4.8,0,6.7,4.2,6.7,8.5v8.4h-2.8v-8.4
		c0-2.8-1-5.8-3.9-5.8s-3.9,3-3.9,5.8v8.4H826.8z"/>
	<path fill="#FFFFFF" d="M843.3,466.7c0-4.3,1.7-8.5,6.7-8.5c5.2,0,6.6,4.8,6.6,7.3c0,2-0.9,2.7-2.8,2.7h-7.6
		c0.2,2.2,1.4,4.3,4.5,4.3c1.4,0,2.8-0.4,4.2-1.3l1.4,2.2c-2.1,1.5-4.1,1.8-5.6,1.8C845,475.2,843.3,471,843.3,466.7z M846.2,465.5
		h7.6c-0.2-2.4-1.2-4.6-3.8-4.6S846.4,463.1,846.2,465.5z"/>
	<path fill="#FFFFFF" d="M877.2,475v-10.5c0-1.8-0.9-3.6-3.1-3.6c-1.8,0-2.6,1.1-2.9,1.8c0.2,0.7,0.2,1.1,0.2,1.8V475h-2.8v-10.5
		c0-1.8-0.9-3.6-3.1-3.6c-2,0-2.8,1.5-2.8,1.5V475H860v-13.6c0,0,1.4-3.3,5.5-3.3c1.8,0,3.3,0.7,4.2,1.7c0.8-0.8,2.3-1.7,4.4-1.7
		c4.2,0,5.9,3.3,5.9,6.4V475H877.2z"/>
</g>
<g enable-background="new    ">
	<path fill="#FFFFFF" d="M1092.5,431v-6.3c0-2.5-1.7-3.9-3.8-3.9h-5.9V431h-2.9v-23.8h8.8c4.3,0,7.1,2.9,7.1,6.8
		c0,2.5-1.2,4.4-2.7,5.5c1.3,1.1,2.3,2.8,2.3,5.2v6.3H1092.5z M1082.8,417.9h5.9c2.3,0,4.2-1.4,4.2-3.9c0-2.6-1.9-3.9-4.2-3.9h-5.9
		V417.9z"/>
	<path fill="#FFFFFF" d="M1111.5,422.3v8.7h-2.8v-2c-0.9,1.5-2.3,2.1-3.8,2.1c-4.4,0-6-2.7-6-5.6c0-2.5,1.9-5.8,6.3-5.8
		c2,0,3.4,0.7,3.4,0.7c-0.2-2.2-0.8-3.5-3.2-3.5c-1.1,0-2.8,0.4-4.1,1.4l-1.6-2.2c1.9-1.5,3.8-2,5.7-2
		C1111.4,414.1,1111.5,418.9,1111.5,422.3z M1108.7,423c-0.6-0.3-1.8-0.7-3.5-0.7c-2.6,0-3.5,1.9-3.5,3.2c0,1.4,0.7,2.9,3.2,2.9
		C1106.9,428.5,1108.6,426.9,1108.7,423z"/>
	<path fill="#FFFFFF" d="M1121.2,431c-3.1,0-4.5-2.1-4.5-4.7V417h-2.8v-2.7h2.8v-4.1h2.8v4.1h3.9v2.7h-3.9v9.3
		c0,1.2,0.6,1.9,1.7,1.9h2.2v2.8L1121.2,431L1121.2,431z"/>
	<path fill="#FFFFFF" d="M1126.1,422.7c0-4.3,1.7-8.5,6.7-8.5c5.2,0,6.6,4.8,6.6,7.3c0,2-0.9,2.7-2.8,2.7h-7.6
		c0.2,2.2,1.4,4.3,4.5,4.3c1.4,0,2.8-0.4,4.2-1.3l1.4,2.2c-2.1,1.5-4.1,1.8-5.6,1.8C1127.8,431.2,1126.1,427,1126.1,422.7z
		 M1129,421.5h7.6c-0.2-2.4-1.2-4.6-3.8-4.6C1130.2,416.9,1129.2,419.1,1129,421.5z"/>
	<path fill="#FFFFFF" d="M1165.3,431.2c0,4.2-2.6,6.9-6.8,6.9h-0.4c-1.8,0-3.7-0.6-5.6-1.5l1.2-2.4c2.2,1.1,3.6,1.2,4.4,1.2h0.4
		c2.4,0,4-1.9,4-4.2V429c-0.9,1.5-2.3,2.1-3.8,2.1c-5.3,0-6.6-4.2-6.6-8.5v-8.3h2.8v8.3c0,2.8,0.7,5.8,3.8,5.8c3,0,3.8-3.5,3.8-5.8
		v-8.3h2.8L1165.3,431.2L1165.3,431.2z"/>
	<path fill="#FFFFFF" d="M1168.7,422.7c0-4.3,2-8.5,7-8.5s7,4.2,7,8.5s-2,8.5-7,8.5S1168.7,427,1168.7,422.7z M1179.9,422.7
		c0-2.8-1.1-5.8-4.2-5.8c-3,0-4.2,3-4.2,5.8s1.2,5.8,4.2,5.8C1178.7,428.5,1179.9,425.5,1179.9,422.7z"/>
	<path fill="#FFFFFF" d="M1188.8,414.3v10.5c0,1.7,1.3,3.6,3.7,3.6c2.3,0,3.3-1.5,3.3-1.5v-12.7h2.8v13.6c0,0-2,3.3-6.1,3.3
		c-4.2,0-6.4-3.3-6.4-6.4v-10.5h2.7V414.3z"/>
	<path fill="#FFFFFF" d="M1210.9,417.7c-0.6-0.5-1.4-0.9-2.4-0.9c-2.3,0-3.3,1.5-3.3,1.5V431h-2.8v-13.6c0,0,2-3.3,6.1-3.3
		c1.5,0,2.7,0.4,3.7,1L1210.9,417.7z"/>
</g>
<g enable-background="new    ">
	<path fill="#FFFFFF" d="M1071.4,465.7c0-4.3,1.7-8.5,6.7-8.5c5.2,0,6.6,4.8,6.6,7.3c0,2-0.9,2.7-2.8,2.7h-7.6
		c0.2,2.2,1.4,4.3,4.5,4.3c1.4,0,2.8-0.4,4.2-1.3l1.4,2.2c-2.1,1.5-4.1,1.8-5.6,1.8C1073.1,474.2,1071.4,470,1071.4,465.7z
		 M1074.3,464.5h7.6c-0.2-2.4-1.2-4.6-3.8-4.6C1075.6,459.9,1074.5,462.1,1074.3,464.5z"/>
	<path fill="#FFFFFF" d="M1099.1,474c-1.3-3-2.9-5.5-4.3-7.2c-1.4,1.7-3,4.2-4.3,7.2h-2.9c0.6-1.8,3.3-7,4.8-8.7
		c-1-1.3-2.8-4.2-4.4-7.9h2.9c1.4,2.9,2.4,4.7,3.8,6.5c1.4-1.8,2.4-3.6,3.8-6.5h2.9c-1.6,3.8-3.4,6.6-4.4,7.9
		c1.4,1.7,4.2,6.9,4.8,8.7H1099.1z"/>
	<path fill="#FFFFFF" d="M1119.2,465.7c0,4.3-2,8.5-7,8.5c-2,0-3.5-1.1-4.2-2.2v9.1h-2.8v-23.8h2.8v2c0.7-1,2.2-2.1,4.2-2.1
		C1117.2,457.1,1119.2,461.3,1119.2,465.7z M1116.5,465.7c0-2.8-1.1-5.8-4.2-5.8c-3,0-4.2,3-4.2,5.8s1.2,5.8,4.2,5.8
		S1116.5,468.5,1116.5,465.7z"/>
	<path fill="#FFFFFF" d="M1122.3,465.7c0-4.3,1.7-8.5,6.7-8.5c5.2,0,6.6,4.8,6.6,7.3c0,2-0.9,2.7-2.8,2.7h-7.6
		c0.2,2.2,1.4,4.3,4.5,4.3c1.4,0,2.8-0.4,4.2-1.3l1.4,2.2c-2.1,1.5-4.1,1.8-5.6,1.8C1124.1,474.2,1122.3,470,1122.3,465.7z
		 M1125.3,464.5h7.6c-0.2-2.4-1.2-4.6-3.8-4.6C1126.5,459.9,1125.4,462.1,1125.3,464.5z"/>
	<path fill="#FFFFFF" d="M1147.6,460.7c-0.6-0.5-1.4-0.9-2.4-0.9c-2.3,0-3.3,1.5-3.3,1.5V474h-2.8v-13.6c0,0,2-3.3,6.1-3.3
		c1.5,0,2.7,0.4,3.7,1L1147.6,460.7z"/>
	<path fill="#FFFFFF" d="M1154.3,452c1,0,1.7,0.8,1.7,1.7c0,1-0.8,1.7-1.7,1.7c-1,0-1.7-0.8-1.7-1.7
		C1152.6,452.8,1153.3,452,1154.3,452z M1152.9,474h2.8v-16.7h-2.8V474z"/>
	<path fill="#FFFFFF" d="M1159.4,465.7c0-4.3,1.7-8.5,6.7-8.5c5.2,0,6.6,4.8,6.6,7.3c0,2-0.9,2.7-2.8,2.7h-7.6
		c0.2,2.2,1.4,4.3,4.5,4.3c1.4,0,2.8-0.4,4.2-1.3l1.4,2.2c-2.1,1.5-4.1,1.8-5.6,1.8C1161.2,474.2,1159.4,470,1159.4,465.7z
		 M1162.4,464.5h7.6c-0.2-2.4-1.2-4.6-3.8-4.6C1163.6,459.9,1162.5,462.1,1162.4,464.5z"/>
	<path fill="#FFFFFF" d="M1186,474v-10.5c0-1.7-1.3-3.6-3.7-3.6c-2.3,0-3.3,1.5-3.3,1.5V474h-2.8v-13.6c0,0,2-3.3,6.1-3.3
		c4.2,0,6.4,3.3,6.4,6.4V474H1186z"/>
	<path fill="#FFFFFF" d="M1199.1,474.2c-4.9,0-7-4.2-7-8.5s2-8.5,7-8.5h0.4c1.7,0,3.5,0.8,5.2,2.5l-2,2c-1.6-1.6-2.6-1.7-3.3-1.7
		h-0.4c-3,0-4.2,3-4.2,5.8s1.2,5.8,4.2,5.8h0.4c0.7,0,1.7-0.2,3.3-1.7l2,2c-1.7,1.7-3.5,2.5-5.2,2.5h-0.4V474.2z"/>
	<path fill="#FFFFFF" d="M1207.4,465.7c0-4.3,1.7-8.5,6.7-8.5c5.2,0,6.6,4.8,6.6,7.3c0,2-0.9,2.7-2.8,2.7h-7.6
		c0.2,2.2,1.4,4.3,4.5,4.3c1.4,0,2.8-0.4,4.2-1.3l1.4,2.2c-2.1,1.5-4.1,1.8-5.6,1.8C1209.2,474.2,1207.4,470,1207.4,465.7z
		 M1210.3,464.5h7.6c-0.2-2.4-1.2-4.6-3.8-4.6C1211.6,459.9,1210.5,462.1,1210.3,464.5z"/>
</g>
<g enable-background="new    ">
	<path fill="#FFFFFF" d="M145.9,318.1h-8.7v-5.8h8.7v-8.6h5.7v8.6h8.7v5.8h-8.7v8.6h-5.7V318.1z"/>
</g>
<g>
	<g>
		<path fill="#FFFFFF" d="M523.5,264h-84.1c-4.1,0-7.5,3.3-7.5,7.5v84.1c0,4.1,3.3,7.5,7.5,7.5h84.1c4.1,0,7.5-3.3,7.5-7.5v-84.1
			C531,267.3,527.7,264,523.5,264z M451.7,353c0-21,7.6-38.6,18.4-46.2c-4.3-3.6-7-8.9-7-14.9c0-10.7,8.7-19.4,19.4-19.4
			c10.7,0,19.4,8.7,19.4,19.4c0,6.4-3.1,12-7.8,15.6c10.4,7.9,17.6,25.6,17.6,45.6h-60V353z"/>
		<path fill="#FFFFFF" d="M481.9,325.8c-5.2-14.6-25.5,0,0,18.8C507.4,325.8,487.1,311.2,481.9,325.8z"/>
	</g>
	<path fill="#FFFFFF" d="M198,271.5c0-4.1-3.3-7.5-7.5-7.5h-84.1c-4.1,0-7.5,3.3-7.5,7.5v84.1c0,4.1,3.3,7.5,7.5,7.5h84.1
		c4.1,0,7.5-3.3,7.5-7.5V271.5z M148.7,343.8c-72.8-46.1-14.9-81.9,0-46.1C163.6,261.9,221.5,297.8,148.7,343.8z"/>
	<g>
		<path fill="#FFFFFF" d="M861,271.5c0-4.1-3.3-7.5-7.5-7.5h-84.1c-4.1,0-7.5,3.3-7.5,7.5v84.1c0,4.1,3.3,7.5,7.5,7.5h84.1
			c4.1,0,7.5-3.3,7.5-7.5V271.5z M812.4,345.7c0,0-23.7-29.2-23.7-42.3s10.6-23.7,23.7-23.7c13.1,0,23.7,10.6,23.7,23.7
			S812.4,345.7,812.4,345.7z"/>
	</g>
	<path fill="#FFFFFF" d="M1196,271.5c0-4.1-3.3-7.5-7.5-7.5h-84.1c-4.1,0-7.5,3.3-7.5,7.5v84.1c0,4.1,3.3,7.5,7.5,7.5h84.1
		c4.1,0,7.5-3.3,7.5-7.5V271.5z M1146.8,350.4c-21,0-38-17-38-38s17-38,38-38s38,17,38,38C1184.7,333.4,1167.7,350.4,1146.8,350.4z"
		/>
	<circle fill="#FFFFFF" cx="1134" cy="300.7" r="6.7"/>
	<circle fill="#FFFFFF" cx="1159" cy="300.7" r="6.7"/>
	<path fill="#FFFFFF" d="M1146.8,338.6c11.5,0,20.7-9.6,20.7-19.6H1126C1126,329,1135.3,338.6,1146.8,338.6z"/>
</g>
<g>
	<g>
		<path fill="none" stroke="#FFFFFF" stroke-width="2" stroke-miterlimit="10" d="M404.4,299.4c-11-12-78.9-77-183.4,15.6"/>
		<g>
			<path fill="#FFFFFF" d="M402.5,282.8c-0.5,0.1-0.9,0.6-0.8,1.1l2.5,15.1l-14.7-4.2c-0.5-0.1-1.1,0.2-1.2,0.7s0.2,1.1,0.7,1.2
				l16.2,4.6c0.3,0.1,0.7,0,0.9-0.2s0.4-0.6,0.3-0.9l-2.7-16.7c0-0.2-0.1-0.4-0.2-0.5C403.1,282.9,402.8,282.7,402.5,282.8z"/>
		</g>
	</g>
</g>
<g>
	<g>
		<path fill="none" stroke="#FFFFFF" stroke-width="2" stroke-miterlimit="10" d="M737.4,299.4c-11-12-78.9-77-183.4,15.6"/>
		<g>
			<path fill="#FFFFFF" d="M735.5,282.8c-0.5,0.1-0.9,0.6-0.8,1.1l2.5,15.1l-14.7-4.2c-0.5-0.1-1.1,0.2-1.2,0.7s0.2,1.1,0.7,1.2
				l16.2,4.6c0.3,0.1,0.7,0,0.9-0.2s0.4-0.6,0.3-0.9l-2.7-16.7c0-0.2-0.1-0.4-0.2-0.5C736.1,282.9,735.8,282.7,735.5,282.8z"/>
		</g>
	</g>
</g>
<g>
	<g>
		<path fill="none" stroke="#FFFFFF" stroke-width="2" stroke-miterlimit="10" d="M1073.4,299.4c-11-12-78.9-77-183.4,15.6"/>
		<g>
			<path fill="#FFFFFF" d="M1071.5,282.8c-0.5,0.1-0.9,0.6-0.8,1.1l2.5,15.1l-14.7-4.2c-0.5-0.1-1.1,0.2-1.2,0.7s0.2,1.1,0.7,1.2
				l16.2,4.6c0.3,0.1,0.7,0,0.9-0.2s0.4-0.6,0.3-0.9l-2.7-16.7c0-0.2-0.1-0.4-0.2-0.5C1072.1,282.9,1071.8,282.7,1071.5,282.8z"/>
		</g>
	</g>
</g>
</svg>
