<?xml version="1.0" standalone="no"?>
<!DOCTYPE svg PUBLIC "-//W3C//DTD SVG 1.1//EN" "http://www.w3.org/Graphics/SVG/1.1/DTD/svg11.dtd" >
<svg xmlns="http://www.w3.org/2000/svg">
<metadata></metadata>
<defs>
<font id="geniusthin_italic" horiz-adv-x="1052" >
<font-face units-per-em="2048" ascent="1536" descent="-512" />
<missing-glyph horiz-adv-x="614" />
<glyph horiz-adv-x="2048" />
<glyph horiz-adv-x="2048" />
<glyph unicode="&#xd;" horiz-adv-x="2048" />
<glyph unicode=" "  horiz-adv-x="614" />
<glyph unicode="&#x09;" horiz-adv-x="614" />
<glyph unicode="&#xa0;" horiz-adv-x="614" />
<glyph unicode="!" horiz-adv-x="430" d="M178 41q3 17 16.5 29t30.5 12t27.5 -12t7.5 -29q-1 -17 -14.5 -29t-30.5 -12t-28 12t-9 29zM242 340l174 1235h41l-174 -1235h-41z" />
<glyph unicode="&#x22;" horiz-adv-x="448" d="M285 1184l41 411h61l-76 -411h-26zM469 1184l39 411h61l-73 -411h-27z" />
<glyph unicode="#" horiz-adv-x="1335" d="M195 514l10 37h246l143 469h-254l12 37h254l158 518h41l-158 -518h436l152 518h41l-152 -518h236l-12 -37h-234l-137 -469h235l-10 -37h-235l-150 -514h-41l150 514h-445l-155 -514h-41l155 514h-245zM492 551h444l135 469h-436z" />
<glyph unicode="$" horiz-adv-x="1273" d="M137 113l23 37q196 -131 454 -134l107 768l-4 2q-459 98 -412 435q23 164 169 265t362 109l14 103h41l-14 -103q109 -1 213 -26t165 -51l-20 -39q-194 76 -365 80l-102 -738q74 -18 137 -41.5t124 -61t101.5 -83t61.5 -109.5t12 -139q-5 -37 -17.5 -78t-51 -101t-95 -106 t-158.5 -81.5t-233 -38.5l-14 -105h-41l14 103q-292 7 -471 133zM350 1221q-10 -72 7.5 -132t53 -101t89.5 -73.5t109 -51.5t120 -32l100 728q-98 -3 -179.5 -29t-133.5 -62.5t-89 -82.5t-54.5 -86.5t-22.5 -77.5zM655 16q94 3 177.5 27t152.5 68.5t115 115.5t59 160 q9 68 -11.5 127t-59 99.5t-96 74t-112.5 53t-118 35.5z" />
<glyph unicode="%" horiz-adv-x="1648" d="M287 1171q11 82 36 152t66 128t104 91t142 33q80 0 133 -33.5t75 -90t28.5 -129.5t-7.5 -151q-12 -82 -36 -150.5t-63.5 -128t-102 -93t-142.5 -33.5q-79 0 -133 34.5t-76.5 91t-30 129.5t6.5 150zM328 1171q-14 -75 -10.5 -141.5t21.5 -117t65.5 -80t121.5 -29.5 q60 0 107.5 19.5t79 52t55 81.5t37 100t22.5 115q13 74 9.5 140.5t-21.5 117t-65 80t-121 29.5t-129 -28.5t-89 -82t-53 -115t-30 -141.5zM551 0l725 1575h43l-725 -1575h-43zM1004 406q12 83 37 152t65.5 127t103.5 91t142 33q64 0 111.5 -22t73.5 -60t40.5 -89t13 -110 t-9.5 -122q-12 -82 -35.5 -150.5t-63 -128.5t-101.5 -93.5t-142 -33.5q-79 0 -133 34.5t-77.5 91.5t-31 130t6.5 150zM1044 406q-13 -75 -9 -142t21.5 -117.5t65 -80t121.5 -29.5t129 28.5t89 82.5t53 115.5t30 142.5q14 74 10.5 140.5t-21.5 116.5t-65.5 79.5t-121.5 29.5 t-129 -28.5t-88.5 -82t-53 -114t-31.5 -141.5z" />
<glyph unicode="&#x26;" horiz-adv-x="1339" d="M172 352q5 37 20 74.5t34.5 69t51 66.5t59.5 61.5t71 61t74.5 58t79.5 57.5q-18 24 -32.5 46t-31 49.5t-29 54t-25 57t-20.5 62.5t-13 66t-4.5 70.5t5.5 74.5q6 42 20.5 80.5t35.5 70t47.5 58t57 46t63.5 33t67.5 20.5t68.5 7q59 0 112 -21.5t92.5 -60.5t57.5 -99.5 t8 -133.5q-6 -40 -23 -81t-37.5 -74.5t-56.5 -72.5t-65 -66.5t-78 -66.5t-79.5 -62t-84.5 -63q17 -24 39 -53q101 -132 364 -480q32 31 64 64.5t54.5 59.5t40 47.5t25.5 32.5l9 12l27 -22q-101 -128 -199 -222l175 -233h-50q-67 89 -155 205q-247 -225 -467 -225 q-56 0 -110.5 11t-108.5 38.5t-91.5 68.5t-56 107t-6.5 147zM217 352q-15 -102 25 -179t121 -117t188 -40q199 0 440 217q-287 380 -364 480q-7 10 -22.5 30t-20.5 27q-54 -39 -88.5 -66t-80 -64.5t-74.5 -69t-57.5 -68t-45 -74.5t-21.5 -76zM457 1280q-14 -128 19 -229 t120 -226q51 37 81.5 59t76 58t73 62.5t61 62.5t53 67.5t35.5 69.5t21 76q4 24 2.5 48.5t-6 49t-14.5 48t-23.5 44t-33 37.5t-42 29.5t-51.5 19.5t-61 7q-63 0 -120.5 -26t-96.5 -68t-64 -91.5t-30 -97.5z" />
<glyph unicode="'" horiz-adv-x="307" d="M305 1184l41 411h62l-76 -411h-27z" />
<glyph unicode="(" horiz-adv-x="718" d="M223 571q92 657 551 1024l21 -32q-221 -176 -352 -427.5t-175 -564.5q-89 -643 248 -991l-31 -33q-178 163 -242 438.5t-20 585.5z" />
<glyph unicode=")" horiz-adv-x="718" d="M84 -420q437 350 526 991q89 642 -248 992l29 32q356 -367 264 -1024q-28 -201 -97 -388.5t-187 -356.5t-269 -279z" />
<glyph unicode="*" horiz-adv-x="933" d="M307 1323l25 55l293 -108l37 325h57l-51 -325l317 108l10 -55l-323 -92l159 -256l-49 -35l-145 270l-223 -270l-43 35l235 256z" />
<glyph unicode="+" horiz-adv-x="1212" d="M207 600l4 37h465l65 465h37l-65 -465h465l-4 -37h-465l-66 -465h-37l66 465h-465z" />
<glyph unicode="," horiz-adv-x="403" d="M92 -209l156 410h59l-184 -410h-31z" />
<glyph unicode="-" horiz-adv-x="864" d="M207 600l4 37h618l-4 -37h-618z" />
<glyph unicode="." horiz-adv-x="389" d="M158 41q3 17 16.5 29t30.5 12t27.5 -12t7.5 -29q-1 -17 -14.5 -29t-30.5 -12t-28 12t-9 29z" />
<glyph unicode="/" horiz-adv-x="940" d="M123 0l868 1575h47l-868 -1575h-47z" />
<glyph unicode="0" horiz-adv-x="1269" d="M233 788q13 97 29.5 177.5t42.5 165.5t59 151.5t81 126.5t106.5 100t136.5 63t170 23q72 0 131.5 -14t103 -39t77 -63t55 -82t34.5 -100t18 -113t3.5 -125.5t-7.5 -132t-16 -138.5q-13 -95 -29.5 -174.5t-43 -164.5t-59.5 -151.5t-81 -128t-106.5 -101.5t-136.5 -64 t-170 -24t-163.5 24t-118 64t-77.5 101.5t-45 128t-16.5 151.5t3.5 164.5t19 174.5zM279 788q-13 -92 -19.5 -167.5t-6 -157.5t13 -145t40 -122t70 -97t108.5 -60.5t152 -22.5t158 22.5t125.5 60.5t97 97t73.5 121.5t54 145t39 157.5t28 168t19 168t5 157t-13.5 145 t-40 121.5t-70 96.5t-108.5 60.5t-152 22.5t-158 -22.5t-125.5 -60.5t-97 -96.5t-73 -121.5t-53.5 -145t-38.5 -157t-27.5 -168z" />
<glyph unicode="1" horiz-adv-x="563" d="M279 1264l344 305q9 9 23 5t11 -20l-217 -1554h-41l211 1503l-305 -270z" />
<glyph unicode="2" horiz-adv-x="1148" d="M135 35q83 83 188 186t176 172.5t156.5 155t141.5 145.5t117.5 130.5t97.5 123.5t68.5 112t43.5 107.5t10 98.5t-20 96q-35 89 -120 140.5t-195 51.5q-126 0 -236 -66t-164 -175l-41 10q64 130 186.5 202t260.5 72q119 0 214.5 -57.5t133.5 -157.5q91 -216 -162 -524 q-73 -91 -236 -260.5t-263 -269t-289 -285.5h827l-4 -43h-881q-11 0 -16 6t-3 14t9 15z" />
<glyph unicode="3" horiz-adv-x="1085" d="M147 178l39 19q41 -86 127 -131.5t187 -45.5h30q168 5 294 111t149 268q12 87 -12.5 163t-75 128.5t-122.5 82.5t-153 30h-51l4 39h51q105 0 203.5 53t163.5 140.5t78 185.5q21 143 -71.5 237t-231.5 94h-41q-97 0 -183.5 -43.5t-146.5 -122.5l-35 21q154 188 371 188h41 q165 -5 265 -112t77 -262q-13 -93 -70 -178.5t-133 -141.5t-156 -80q136 -34 215 -152.5t58 -269.5q-17 -120 -93 -218t-182.5 -151t-218.5 -53h-30q-122 8 -215 58t-132 143z" />
<glyph unicode="4" horiz-adv-x="1292" d="M209 532l876 1002q19 22 36 32t28 8.5t18.5 -8.5t10.5 -17.5t2 -20.5l-142 -1016h224l-7 -37h-223l-65 -475h-41l65 475h-766q-27 0 -31 18.5t15 38.5zM244 520q-3 -8 6 -8h747l140 1001q1 5 -2 7.5t-7.5 1.5t-7.5 -6z" />
<glyph unicode="5" horiz-adv-x="1093" d="M145 168l41 14q37 -85 125 -125.5t191 -40.5q195 0 327.5 126.5t159.5 320.5q30 214 -69.5 324t-303.5 110q-89 0 -181.5 -18.5t-153.5 -44.5q-17 -5 -23 0t-6 20l98 698q1 9 9.5 16t17.5 7h741l-6 -39h-721l-92 -651q167 55 324 55q226 0 334.5 -127.5t76.5 -349.5 q-29 -211 -181 -347t-357 -136q-119 0 -219 47.5t-132 140.5z" />
<glyph unicode="6" horiz-adv-x="1175" d="M231 778q51 372 211 586q82 112 207 172.5t273 58.5q122 0 237 -39l-20 -34q-104 37 -221 37q-131 0 -248.5 -52t-196.5 -161q-79 -107 -128.5 -252t-78.5 -357q16 23 50.5 53.5t92 68t144 62.5t182.5 25q133 0 227.5 -66.5t134 -175t21.5 -237.5q-30 -211 -166.5 -349 t-339.5 -138q-76 0 -137 16t-104.5 42t-75 67.5t-50.5 85t-29 103.5t-12.5 112.5t1.5 122.5t10 123.5t16 125.5zM260 672q-11 -77 -15 -144t0 -135t18.5 -123t43 -103t70 -81t102 -51.5t137.5 -18.5q96 0 177.5 36.5t137.5 99.5t92.5 143t49.5 172q26 194 -69.5 318 t-272.5 124q-162 0 -281.5 -69t-189.5 -168z" />
<glyph unicode="7" horiz-adv-x="1134" d="M328 0l868 1538h-858l6 37h887q11 0 15.5 -8.5t0.5 -20.5l-874 -1546h-45z" />
<glyph unicode="8" horiz-adv-x="1171" d="M178 399q21 154 131 269.5t260 156.5q-122 50 -186 153.5t-43 246.5q21 156 152 263t317 107t287 -107t80 -263q-21 -143 -115.5 -246.5t-229.5 -153.5q137 -41 215.5 -157t57.5 -269q-17 -121 -94 -217.5t-189.5 -149t-238.5 -52.5t-224 52.5t-147.5 149t-32.5 217.5z M223 399q-24 -163 77.5 -273t287.5 -110q185 0 316 110t155 273q12 87 -12 163.5t-74.5 129t-122 83t-152.5 30.5q-109 0 -211.5 -51t-175 -145.5t-88.5 -209.5zM385 1225q-14 -100 20 -187.5t113 -141.5t184 -54q159 0 282.5 114t145.5 269q20 146 -72 240t-255 94 t-280.5 -94t-137.5 -240z" />
<glyph unicode="9" horiz-adv-x="1175" d="M236 20l20 35q107 -37 221 -37q131 0 248.5 52t196.5 161q79 107 128 251.5t78 357.5q-16 -23 -50.5 -53.5t-92 -68t-144 -62.5t-182.5 -25q-100 0 -179.5 39t-127.5 104.5t-67.5 152.5t-5.5 183q29 211 164.5 349t338.5 138q76 0 137 -16t104.5 -42t75.5 -67.5t51 -85 t29 -103.5t12.5 -113t-1.5 -122t-10.5 -123.5t-16.5 -125.5q-51 -372 -211 -586q-82 -112 -206.5 -172.5t-272.5 -58.5q-125 0 -237 38zM324 1110q-28 -194 67.5 -318t272.5 -124q85 0 161 20.5t134 56t101.5 75t76.5 85.5q11 77 14.5 144t-1 135t-18.5 123t-42.5 103.5 t-70 81t-102 51t-137.5 18.5q-96 0 -177.5 -36.5t-137.5 -99.5t-92 -143t-49 -172z" />
<glyph unicode=":" horiz-adv-x="327" d="M127 41q3 17 16.5 29t30.5 12t27.5 -12t7.5 -29q-1 -17 -14.5 -29t-30.5 -12t-28 12t-9 29zM270 1061q3 17 16.5 29t30.5 12t27.5 -12t7.5 -29q-1 -17 -15.5 -29t-31.5 -12t-27 11.5t-8 29.5z" />
<glyph unicode=";" horiz-adv-x="403" d="M92 -209l156 410h59l-184 -410h-31zM346 1061q3 17 16.5 29t30.5 12t27.5 -12t7.5 -29q-1 -17 -15.5 -29t-31.5 -12t-27 11.5t-8 29.5z" />
<glyph unicode="&#x3c;" horiz-adv-x="1163" d="M199 551q4 15 16 20l959 531l-7 -45l-923 -506l782 -506l-6 -45l-811 528q-10 5 -10 23z" />
<glyph unicode="=" horiz-adv-x="1048" d="M180 416l6 37h803l-6 -37h-803zM229 764l4 37h803l-4 -37h-803z" />
<glyph unicode="&#x3e;" horiz-adv-x="1163" d="M143 0l7 45l921 506l-780 506l6 45l811 -531q11 -7 8 -20q0 -16 -14 -23z" />
<glyph unicode="?" horiz-adv-x="1120" d="M326 1444q82 79 195 115t233 36q224 0 331 -103.5t82 -279.5q-11 -77 -45.5 -140t-81.5 -105.5t-102 -79t-109 -68.5t-100 -64.5t-78 -76.5t-39 -96l-34 -258h-41l34 258q8 59 40.5 107t78.5 82.5t100.5 66.5t109 66.5t101 74.5t81 100t44.5 133q24 169 -78 255.5 t-300 86.5q-240 0 -392 -135zM475 41q3 17 16.5 29t30.5 12t27.5 -12t7.5 -29q-1 -17 -14.5 -29t-30.5 -12t-28 12t-9 29z" />
<glyph unicode="@" horiz-adv-x="1753" d="M264 788q110 807 836 807q108 0 197.5 -18.5t153 -50t112 -78t79 -96t49.5 -111t26.5 -117t8 -120t-4 -113t-11.5 -103.5q-39 -280 -172 -397q-84 -74 -170 -54q-68 16 -95 83q-16 41 -9 92l6 49q-4 -9 -11.5 -24.5t-37.5 -55t-66 -69.5t-98.5 -55t-134.5 -25 q-74 0 -131 25t-90 68.5t-53 101.5t-20.5 124t7.5 137q12 90 42.5 169.5t80 145t125.5 104t168 38.5q74 0 131 -25.5t90 -69t53 -102t20.5 -124.5t-6.5 -136l-39 -276q-11 -80 39 -121q51 -40 121 -8q98 46 158 209q31 85 47 196q109 771 -571 771q-129 0 -238 -29 t-184.5 -74.5t-136.5 -113.5t-98 -133.5t-64.5 -147.5t-40.5 -142.5t-23 -130.5q-109 -772 570 -772q118 0 218 12.5t159.5 30t102 34.5t59.5 29l16 13l16 -35q-6 -5 -18 -13t-60.5 -28.5t-108.5 -36.5t-164.5 -29t-226.5 -13q-138 0 -245 30.5t-174 79t-112 119.5 t-65 140.5t-25.5 154.5t-1 148.5t14.5 135.5zM676 788q-7 -63 -8.5 -123t15 -114t45 -94.5t80 -64t120.5 -23.5t126.5 24t97.5 63.5t70.5 95t48 113.5t27.5 123q7 63 8 123t-15 114t-44.5 94.5t-80.5 64.5t-122 24q-69 0 -126.5 -24t-97.5 -64t-70 -95t-47.5 -113.5 t-26.5 -123.5z" />
<glyph unicode="A" horiz-adv-x="1396" d="M102 0q106 288 273 676q96 223 188 424t137 292.5t48 94.5q48 88 161 88h21q114 0 137 -88l7 -37q8 -36 22.5 -108t32 -165t39.5 -227.5t42 -273.5q53 -370 84 -676h-43q-28 260 -69 553h-815q-149 -351 -222 -553h-43zM383 590h795q-65 503 -152 883q-8 30 -34.5 47.5 t-67.5 17.5h-21q-41 0 -73 -18t-46 -47q-175 -338 -401 -883z" />
<glyph unicode="B" horiz-adv-x="1234" d="M123 0l221 1575h584q188 0 281 -102.5t67 -288.5q-21 -147 -106.5 -241.5t-225.5 -131.5q96 -19 157 -76t82.5 -138t6.5 -181q-27 -194 -162.5 -305t-320.5 -111h-584zM168 37h543q15 0 34 1.5t59.5 9.5t78 22t82 43t79.5 67.5t63 99.5t38 136q5 52 5 95t-12 78t-25.5 62 t-36.5 48t-44 36t-47.5 25.5t-48.5 17t-46.5 10t-40.5 4.5t-32 1h-543zM279 829h542q14 0 32 1.5t56.5 9t73.5 20t77.5 39.5t75 63t59 93.5t36.5 128.5q4 49 4.5 89.5t-11 73.5t-24.5 58.5t-34 45t-41 33.5t-45 24t-45.5 15.5t-43.5 9t-38.5 4.5t-30.5 1h-543z" />
<glyph unicode="C" horiz-adv-x="1284" d="M233 788q22 162 79.5 304t148 256t224 180.5t292.5 66.5h31q223 0 358 -129l-35 -28q-131 121 -330 121h-30q-119 0 -223.5 -42.5t-181.5 -115t-137 -171.5t-96.5 -210t-53.5 -232q-17 -99 -13 -194.5t20.5 -181t56 -158.5t95 -125.5t137 -82.5t181.5 -30h30 q201 0 363 121l27 -28q-172 -129 -396 -129h-30q-107 0 -195 30.5t-147.5 85.5t-103 130.5t-61.5 165.5t-22.5 190.5t12.5 205.5z" />
<glyph unicode="D" horiz-adv-x="1282" d="M123 0l221 1575h434q92 0 168 -23t131 -63.5t96 -98t65 -125.5t35 -147t10 -161t-13 -169q-18 -124 -54 -236t-96 -214t-138.5 -176t-188 -118t-236.5 -44h-434zM168 37h393q122 0 225 44t175.5 116.5t128 172t87.5 202.5t48 216q11 79 12.5 154t-8 150.5t-30 140.5 t-57.5 122t-87.5 97t-122.5 63t-160 23h-393z" />
<glyph unicode="E" horiz-adv-x="1128" d="M147 182l170 1213q12 83 68.5 131.5t138.5 48.5h703l-6 -37h-703q-64 0 -107.5 -39t-52.5 -104l-79 -568h800l-4 -36h-801q-86 -607 -86 -609q-9 -66 23 -105.5t96 -39.5h703l-4 -37h-703q-82 0 -125 49.5t-31 132.5z" />
<glyph unicode="F" horiz-adv-x="1128" d="M123 0l194 1395q12 83 68.5 131.5t138.5 48.5h703l-6 -37h-703q-64 0 -107.5 -39t-52.5 -104l-79 -568h800l-4 -36h-801l-110 -791h-41z" />
<glyph unicode="G" horiz-adv-x="1368" d="M233 788q22 162 79.5 304t148 256t224 180.5t292.5 66.5h31q223 0 358 -129l-35 -28q-131 121 -330 121h-30q-119 0 -223.5 -42.5t-181.5 -115t-137 -171.5t-96.5 -210t-53.5 -232q-17 -99 -13 -194.5t20.5 -181t56 -158.5t95 -125.5t137 -82.5t181.5 -30h30 q102 0 202 34t172.5 101t84.5 150l66 467h-379l6 37h420l-72 -504q-10 -77 -60.5 -139.5t-123 -101.5t-156 -59.5t-166.5 -20.5h-30q-107 0 -195 30.5t-147.5 85.5t-103 130.5t-61.5 165.5t-22.5 190.5t12.5 205.5z" />
<glyph unicode="H" horiz-adv-x="1275" d="M123 0l221 1575h41l-106 -748h946l106 748h43l-221 -1575h-43l111 791h-947l-110 -791h-41z" />
<glyph unicode="I" horiz-adv-x="450" d="M205 0l221 1575h41l-221 -1575h-41z" />
<glyph unicode="J" horiz-adv-x="952" d="M111 66l30 30q91 -80 248 -80q184 0 307 111.5t148 292.5l164 1155h43l-164 -1155q-29 -203 -168 -321.5t-336 -118.5q-173 0 -272 86z" />
<glyph unicode="K" horiz-adv-x="1173" d="M123 0l221 1575h41l-102 -723h127q268 220 457 384.5t360 338.5h53q-330 -335 -831 -744q269 -278 622 -831h-53q-317 502 -612 811h-130l-112 -811h-41z" />
<glyph unicode="L" horiz-adv-x="1044" d="M147 182l197 1393h41q-68 -474 -129.5 -912t-67.5 -481q-9 -66 23 -105.5t96 -39.5h660l-4 -37h-660q-82 0 -125 49.5t-31 132.5z" />
<glyph unicode="M" horiz-adv-x="1572" d="M123 0l211 1511q4 28 20.5 44.5t36 18.5t37.5 -10.5t25 -37.5l389 -1120q153 244 285.5 455t203 322t122.5 194t71 113t22 36q20 34 50 45t50.5 -6t14.5 -54l-211 -1511h-41l211 1511q3 18 -12 19q-14 0 -25 -19q-19 -32 -369.5 -591t-359.5 -572q-8 -12 -22 -12t-19 12 l-401 1163q-4 13 -12 17t-15.5 -1t-9.5 -16l-211 -1511h-41z" />
<glyph unicode="N" horiz-adv-x="1329" d="M123 0l211 1511q5 34 29.5 52.5t53.5 10t44 -43.5l663 -1467q11 -23 29 -22.5t21 22.5l212 1512h41l-213 -1512q-5 -34 -29.5 -52t-53 -9.5t-44.5 43.5q-8 19 -327.5 726t-335.5 740q-11 23 -28.5 22.5t-20.5 -22.5l-211 -1511h-41z" />
<glyph unicode="O" horiz-adv-x="1507" d="M233 788q22 162 79.5 304t148 256t224 180.5t292.5 66.5q92 0 170 -22.5t135 -64t101.5 -99t70 -127.5t40.5 -150.5t13 -166.5t-12 -177q-18 -129 -57.5 -245.5t-104 -220t-148 -179t-195.5 -119.5t-240 -44q-107 0 -195 30.5t-147.5 85.5t-103 130.5t-61.5 165.5 t-22.5 190.5t12.5 205.5zM279 788q-17 -99 -13 -194.5t20.5 -181t56 -158.5t95 -125.5t137 -82.5t181.5 -30q119 0 223.5 42.5t182 115.5t137.5 172t96.5 210t54.5 232q16 99 12 194.5t-20.5 181t-56.5 158t-95.5 125.5t-137 82.5t-181.5 29.5q-119 0 -223.5 -42.5 t-181.5 -115t-137 -171.5t-96.5 -210t-53.5 -232z" />
<glyph unicode="P" horiz-adv-x="1234" d="M123 0l221 1575h578q193 0 294 -124.5t76 -307.5t-162 -307.5t-331 -124.5h-537l-98 -711h-41zM268 748h537q109 0 204.5 49t159.5 139.5t80 206.5q24 175 -71.5 285t-262.5 110h-536z" />
<glyph unicode="Q" horiz-adv-x="1503" d="M233 788q22 162 79.5 304t148 256t224 180.5t292.5 66.5q92 0 170 -22.5t135 -64t101.5 -99t70 -127.5t40.5 -150.5t13 -166.5t-12 -177q-28 -195 -112.5 -365.5t-211.5 -285.5q15 -55 43.5 -101t58.5 -72t58 -44t46 -24l18 -7q-21 -30 -21 -32q-46 16 -86 44t-65 55.5 t-45 60.5t-28.5 52t-14.5 37q-164 -126 -385 -126q-107 0 -195 30.5t-147.5 85.5t-103 130.5t-61.5 165.5t-22.5 190.5t12.5 205.5zM279 788q-17 -99 -13 -194.5t20.5 -181t56 -158.5t95 -125.5t137 -82.5t181.5 -30q119 0 223.5 42.5t182 115.5t137.5 172t96.5 210 t54.5 232q16 99 12 194.5t-20.5 181t-56.5 158t-95.5 125.5t-137 82.5t-181.5 29.5q-119 0 -223.5 -42.5t-181.5 -115t-137 -171.5t-96.5 -210t-53.5 -232z" />
<glyph unicode="R" horiz-adv-x="1214" d="M123 0l221 1575h557q196 0 298 -115.5t75 -296.5q-23 -161 -124.5 -262t-225.5 -131q47 -14 89.5 -46.5t76.5 -80.5t48.5 -117.5t2.5 -148.5l-51 -377h-43l51 377q25 172 -66.5 273.5t-247.5 101.5h-516l-104 -752h-41zM274 788h517q169 0 292.5 101t147.5 274 q24 171 -72 273t-264 102h-516z" />
<glyph unicode="S" horiz-adv-x="1273" d="M137 113l23 37q203 -134 467 -134q98 0 186.5 22.5t162 67t122 117t61.5 164.5q11 73 -13.5 135.5t-68.5 104t-109.5 75t-124.5 52t-126 32.5q-459 98 -412 435q25 170 179.5 272t379.5 102q113 0 224 -25.5t167 -51.5l-20 -39q-204 80 -377 80q-105 0 -192.5 -24 t-142 -61t-93.5 -84t-57 -88.5t-23 -80.5q-10 -72 7.5 -132t53 -101t89.5 -73.5t109 -51.5t120 -32q78 -17 145.5 -39.5t134.5 -60t112 -84t69 -114t14 -146.5q-4 -26 -11 -53t-26 -69t-45 -79t-71.5 -76t-103 -66.5t-142 -45.5t-184.5 -18q-138 2 -264.5 35t-219.5 98z" />
<glyph unicode="T" horiz-adv-x="1298" d="M317 1538l7 37h1093l-6 -37h-526l-215 -1538h-41l215 1538h-527z" />
<glyph unicode="U" horiz-adv-x="1300" d="M211 635l133 940h41l-133 -940q-11 -96 -12 -186t23 -169t66 -137.5t117.5 -92.5t176.5 -34h59q101 0 185.5 34.5t143.5 92t103.5 138.5t70.5 167.5t40 186.5l133 940h41l-133 -940q-12 -87 -33.5 -164.5t-54.5 -152.5t-80.5 -135t-107.5 -106.5t-140 -71.5t-174 -25h-60 q-94 0 -167 25t-120 71.5t-77.5 106.5t-42 135t-11 152.5t12.5 164.5z" />
<glyph unicode="V" horiz-adv-x="1433" d="M344 1575h43q88 -880 225 -1473q6 -30 33 -47.5t68 -17.5h16q41 0 73.5 17.5t47.5 47.5q302 596 639 1473h43q-81 -225 -272.5 -681t-372.5 -806q-48 -88 -162 -88h-16q-55 0 -92 22t-46 66q-82 350 -145.5 807.5t-81.5 679.5z" />
<glyph unicode="W" horiz-adv-x="1957" d="M344 1575h43q6 -262 49 -721q48 -550 86 -754q8 -30 24 -43.5t46 -13.5q60 0 86 57q165 395 297 754q25 64 66.5 176t50.5 137q17 56 57 56q17 0 30.5 -13t14.5 -43q14 -170 27 -313q36 -407 84 -754q13 -57 69 -57q60 0 86 57q106 229 299 754q169 455 254 721h43 q-82 -264 -258 -731q-77 -208 -146.5 -385t-109 -271.5t-41.5 -99.5q-40 -88 -131 -88q-40 0 -68.5 23.5t-35.5 64.5q-6 27 -18 107.5t-31.5 257t-38.5 391.5q-5 58 -23 323q-4 13 -12 13q-4 0 -7 -3t-4 -7l-2 -3q-95 -269 -116 -323q-138 -375 -297 -756 q-20 -41 -54.5 -64.5t-74.5 -23.5q-46 0 -74 24.5t-33 63.5q-37 200 -88 756q-42 469 -49 731z" />
<glyph unicode="X" horiz-adv-x="1351" d="M102 0q79 136 256 383q233 321 330 416q17 17 35 26q-2 0 -5.5 1.5t-10 8.5t-11.5 17q-79 126 -188 377q-99 219 -135 346h45q43 -132 127 -326q46 -105 90.5 -193t66 -125t31.5 -52l3 -3q3 -4 6 -7.5t9 -7.5t11.5 -7.5t14.5 -5.5t18 -2q36 0 69 33q114 127 291 370 q131 184 221 326h45q-116 -184 -233 -346q-183 -252 -295 -377q-27 -27 -37 -27q9 -3 29 -26q82 -108 194 -368.5t170 -430.5h-47q-51 155 -143 360q-138 321 -203 410l-2 2q-2 3 -4.5 6t-7 6.5t-10 7t-12 6.5t-15 5t-17.5 2q-42 0 -77 -35q-93 -92 -320 -410 q-139 -192 -241 -360h-48z" />
<glyph unicode="Y" horiz-adv-x="1327" d="M324 1575h47q84 -247 159.5 -435.5t171.5 -359.5q25 -37 66 -37q26 0 46.5 13.5t27.5 23.5q144 172 274 361t283 434h47q-311 -513 -574 -819q-46 -54 -90 -54l-98 -702h-41l98 702q-46 0 -77 54q-184 326 -340 819z" />
<glyph unicode="Z" horiz-adv-x="1284" d="M154 98q5 6 188.5 226.5t398.5 479.5t399 481l185 222q9 11 5.5 21t-19.5 10h-932l6 37h932q33 0 46.5 -15.5t8 -37.5t-23.5 -45q-6 -8 -586 -704t-586 -705q-9 -10 -5.5 -20.5t19.5 -10.5h975l-4 -37h-975q-33 0 -46.5 15.5t-8.5 37.5t23 45z" />
<glyph unicode="[" horiz-adv-x="602" d="M76 -473l289 2048h315l-6 -37h-275l-276 -1974h274l-6 -37h-315z" />
<glyph unicode="\" horiz-adv-x="796" d="M344 1575h47l283 -1575h-47z" />
<glyph unicode="]" horiz-adv-x="602" d="M76 -473l6 37h274l277 1974h-275l7 37h315l-289 -2048h-315z" />
<glyph unicode="^" horiz-adv-x="974" d="M262 997l432 588q8 9 16 9t13 -9l268 -588h-39l-250 547l-401 -547h-39z" />
<glyph unicode="_" horiz-adv-x="1478" d="M55 -473l6 37h1233l-6 -37h-1233z" />
<glyph unicode="`" horiz-adv-x="526" d="M346 1595h60l186 -245h-31z" />
<glyph unicode="a" horiz-adv-x="1011" d="M147 328q9 62 41.5 123.5t85.5 115.5t136 87.5t182 33.5q98 0 184.5 -21t123.5 -42l38 -21q18 108 14.5 196.5t-29.5 150.5t-90 96t-167 34q-160 0 -328 -96q-4 7 -9 17t-7 12q175 100 348 100q59 0 107 -11.5t81.5 -30t58 -49t39 -59.5t21.5 -72.5t9.5 -77t-0.5 -82.5 t-6.5 -80t-10.5 -79l-80 -573h-37l43 313q-58 -160 -170.5 -242.5t-253.5 -82.5q-92 0 -160.5 28t-106.5 75.5t-52.5 108t-4.5 128.5zM186 328q-8 -57 3 -109.5t42.5 -98t94 -73t149.5 -27.5q79 0 148.5 28.5t132 89.5t108 170.5t66.5 258.5q-142 88 -344 88 q-94 0 -170.5 -32t-122.5 -83t-73 -105t-34 -107z" />
<glyph unicode="b" d="M123 0l221 1575h37l-113 -789q66 173 179 250.5t245 77.5q88 0 154.5 -31t105 -84t61.5 -125t23 -153.5t-10 -169.5q-15 -112 -51.5 -209.5t-95 -178.5t-147 -128t-197.5 -47q-62 0 -115.5 17t-100 53t-77 101.5t-39.5 155.5l-43 -315h-37zM236 551q-9 -62 -9 -122 t8 -121t31 -112t57.5 -91t90 -62.5t125.5 -22.5q83 0 153 31t118.5 81.5t85 120.5t57.5 143.5t32 154.5q9 79 11 154.5t-17 143.5t-52 119.5t-94.5 82t-144.5 30.5q-84 0 -155 -32.5t-120 -85t-86.5 -123.5t-58.5 -142t-32 -147z" />
<glyph unicode="c" horiz-adv-x="948" d="M178 551q16 112 54 209.5t99.5 178.5t154 128t206.5 47h31q170 0 264 -104l-31 -27q-89 98 -237 98h-31q-85 0 -157.5 -31t-124 -81.5t-90.5 -120.5t-62 -143.5t-35 -153.5q-11 -64 -9 -128t11 -123t35 -110.5t62 -89t93 -59t128 -21.5h30q149 0 267 99l22 -27 q-125 -104 -293 -104h-30q-92 0 -162 31t-111 84.5t-66 125.5t-26 153.5t8 168.5z" />
<glyph unicode="d" d="M178 551q16 113 53 210.5t96 178.5t147.5 127.5t197.5 46.5q62 0 115 -17t99 -53.5t76 -102t39 -155.5l113 789h37l-221 -1575h-37l43 315q-66 -173 -178 -250t-244 -77q-73 0 -132 22t-97.5 60.5t-66 91.5t-37.5 115.5t-12.5 132t9.5 141.5zM219 551q-9 -67 -9.5 -129 t7.5 -123t30.5 -110.5t57.5 -88t89 -59.5t124 -21q84 0 155 32.5t120 85.5t86.5 124t58 142t31.5 147q8 73 10 146.5t-17 143t-52 122.5t-95.5 85.5t-146.5 32.5q-83 0 -153 -30.5t-118.5 -81t-86 -120.5t-58.5 -143t-33 -155z" />
<glyph unicode="e" d="M178 551q16 112 54 209.5t99.5 178.5t154 128t206.5 47q77 0 138 -21t99 -57t65.5 -83.5t37 -100t13 -107.5t-6.5 -106q-9 -63 -42.5 -91t-94.5 -28h-686q-6 -86 1 -158t31.5 -136.5t67 -109t111 -70.5t158.5 -26q183 0 309 72l14 -29q-117 -75 -327 -75q-89 0 -159.5 22 t-116 60.5t-77 91.5t-43.5 115.5t-15 132t9 141.5zM221 555h686q81 0 92 82q9 46 6.5 96.5t-10 99.5t-32 94t-58.5 79t-90 54.5t-127 20.5q-85 0 -157 -30.5t-123 -80.5t-90 -119.5t-62 -142.5t-35 -153z" />
<glyph unicode="f" horiz-adv-x="757" d="M252 1069l4 33h215l29 205q18 119 94.5 193.5t196.5 74.5h86l-7 -33h-86q-101 0 -166.5 -62.5t-80.5 -172.5l-29 -205h301l-4 -33h-301l-150 -1069h-37l150 1069h-215z" />
<glyph unicode="g" d="M129 -426l21 31q125 -64 290 -64h21q178 0 288.5 115t135.5 293l51 366q-66 -173 -178 -250t-244 -77q-88 0 -154.5 31t-105.5 84t-62 125t-23.5 153.5t9.5 169.5q13 89 38 169t67 153t96.5 126t129.5 84t163 31q62 0 115 -17t99 -53.5t76 -102t39 -155.5l46 316h36 l-161 -1153q-28 -201 -151 -321t-314 -120h-21q-190 0 -307 66zM219 551q-9 -67 -9.5 -129t7.5 -123t30.5 -110.5t57.5 -88t89 -59.5t124 -21q84 0 155 32.5t120 85.5t86.5 124t58 142t31.5 147q8 73 10 146.5t-17 143t-52 122.5t-95.5 85.5t-146.5 32.5q-83 0 -153 -30.5 t-118.5 -81t-86 -120.5t-58.5 -143t-33 -155z" />
<glyph unicode="h" d="M123 0l221 1575h37l-113 -789q66 173 179 250.5t245 77.5q88 0 154.5 -31t105 -84t61.5 -125t23 -153.5t-10 -169.5l-76 -551h-41l76 551q9 79 11 154.5t-17 143.5t-52 119.5t-94.5 82t-144.5 30.5q-84 0 -155 -32.5t-120 -85t-86.5 -123.5t-58.5 -142t-32 -147l-76 -551 h-37z" />
<glyph unicode="i" horiz-adv-x="315" d="M139 0l154 1102h37l-154 -1102h-37zM342 1325q-27 0 -28 26t21 39q8 5 17 5q13 0 23 -10.5t8 -24.5q-1 -13 -14 -24t-27 -11z" />
<glyph unicode="j" horiz-adv-x="479" d="M-106 -473l6 37q162 6 265 108t128 283l162 1147h39l-162 -1147q-25 -185 -140 -302t-298 -126zM506 1325q-27 0 -28 26t21 39q8 5 17 5q13 0 23 -10.5t8 -24.5q-1 -13 -14 -24t-27 -11z" />
<glyph unicode="k" horiz-adv-x="907" d="M123 0l221 1575h37l-135 -963h47q105 71 301.5 235.5t286.5 254.5h55q-134 -126 -313.5 -278.5t-294.5 -229.5q104 -103 245.5 -271.5t251.5 -322.5h-51q-60 90 -237.5 300t-249.5 275h-47l-80 -575h-37z" />
<glyph unicode="l" horiz-adv-x="364" d="M164 0l221 1575h37l-221 -1575h-37z" />
<glyph unicode="m" horiz-adv-x="1609" d="M123 0l127 913q4 8 12.5 21.5t40.5 48.5t70 61.5t103.5 48t139.5 21.5q123 0 197 -54.5t100 -146.5q7 13 19.5 31.5t45 50.5t71 56.5t100.5 43.5t131 19q64 0 116 -15.5t87 -43t60 -65t35 -81.5t14 -92.5t-5 -97.5l-100 -719h-37l100 719q5 52 3 103.5t-22 98t-51.5 82.5 t-84 57t-119.5 21q-80 0 -146.5 -26.5t-107 -67t-63 -73.5t-33.5 -62q8 -59 -2 -133l-101 -719h-37l101 719q5 52 3 103.5t-22.5 98t-52 82.5t-84 57t-119.5 21q-65 0 -122.5 -18.5t-93 -45t-62 -53t-38.5 -44.5l-11 -19l-125 -901h-37z" />
<glyph unicode="n" horiz-adv-x="1028" d="M123 0l127 913q6 8 17 21.5t50 48.5t82.5 61.5t113.5 48t144 21.5q95 0 169 -35.5t115 -92.5t58 -126.5t7 -140.5l-101 -719h-37l101 719q9 65 -7 129t-54.5 116t-105 84.5t-149.5 32.5q-65 0 -126.5 -18.5t-103.5 -45t-74.5 -53t-48.5 -44.5l-15 -19l-125 -901h-37z" />
<glyph unicode="o" horiz-adv-x="1114" d="M178 551q16 111 57.5 209.5t106.5 179t161 127.5t210 47q92 0 164 -31t115.5 -84.5t71 -125.5t30.5 -153.5t-7 -168.5q-12 -88 -40 -169t-74 -153t-105.5 -125.5t-140 -84.5t-172.5 -31t-164 31t-116 84.5t-72 125.5t-31 153.5t6 168.5zM219 551q-8 -78 -6 -153.5 t26.5 -144t63.5 -120.5t105 -82.5t151 -30.5q105 0 194 46.5t147.5 124t95.5 169t51 191.5q11 64 8 128t-14 123t-39 110t-67 88.5t-97 59t-129 21.5q-85 0 -159.5 -30.5t-129 -82t-97 -120.5t-68 -143.5t-36.5 -153.5z" />
<glyph unicode="p" d="M55 -473l221 1575h37l-45 -316q66 173 179 250.5t245 77.5q88 0 154.5 -31t105 -84.5t61.5 -125.5t23 -153.5t-10 -168.5q-13 -90 -38 -170t-66.5 -153t-95.5 -125.5t-128.5 -83.5t-162.5 -31q-62 0 -115.5 17t-100 53t-77 101.5t-39.5 155.5l-111 -788h-37zM236 551 q-9 -62 -9 -122t8 -121t31 -112t57.5 -91t90 -62.5t125.5 -22.5q83 0 153 31t118.5 81.5t85 120.5t57.5 143.5t32 154.5q9 79 11 154.5t-17 143.5t-52 119.5t-94.5 82t-144.5 30.5q-84 0 -155 -32.5t-120 -85t-86.5 -123.5t-58.5 -142t-32 -147z" />
<glyph unicode="q" d="M178 551q13 89 38 169t67 153t96.5 126t129.5 84t163 31q62 0 115 -17t99 -53.5t76 -102t39 -155.5l46 316h36l-221 -1575h-37l111 788q-66 -173 -178 -250t-244 -77q-88 0 -154.5 31t-105.5 84t-62 125t-23.5 153.5t9.5 169.5zM219 551q-9 -67 -9.5 -129t7.5 -123 t30.5 -110.5t57.5 -88t89 -59.5t124 -21q84 0 155 32.5t120 85.5t86.5 124t58 142t31.5 147q8 73 10 146.5t-17 143t-52 122.5t-95.5 85.5t-146.5 32.5q-83 0 -153 -30.5t-118.5 -81t-86 -120.5t-58.5 -143t-33 -155z" />
<glyph unicode="r" horiz-adv-x="831" d="M123 0l127 913q6 8 17 21.5t50 48.5t82.5 61.5t113.5 48t144 21.5q120 0 199 -51l-20 -33q-76 51 -183 51q-65 0 -126.5 -18.5t-103.5 -45t-74.5 -53t-48.5 -44.5l-15 -19l-125 -901h-37z" />
<glyph unicode="s" horiz-adv-x="966" d="M133 80l19 33q155 -93 317 -93q138 0 245.5 64.5t125.5 187.5q7 51 -8 93t-43 70t-73 51t-87.5 36.5t-96.5 26.5q-320 71 -286 303q10 66 47.5 118t93 82.5t118.5 46t130 15.5q79 0 159 -17.5t115 -33.5l-16 -35q-132 53 -262 53q-145 0 -237.5 -65.5t-106.5 -163.5 q-7 -50 5 -91.5t35.5 -69t61.5 -50t73 -35.5t79 -24q42 -10 72.5 -18.5t71.5 -23.5t69 -30.5t57 -39.5t45.5 -52t23.5 -65.5t1 -80.5q-10 -75 -51.5 -132t-101.5 -89t-126.5 -47.5t-136.5 -15.5q-63 1 -109.5 7.5t-90 23t-63 26t-69.5 35.5z" />
<glyph unicode="t" horiz-adv-x="757" d="M252 1067l4 35h215l45 315h37l-45 -315h301l-4 -35h-301l-113 -797q-15 -112 32.5 -172.5t149.5 -60.5h86l-4 -37h-86q-127 0 -179 74.5t-36 195.5l113 797h-215z" />
<glyph unicode="u" horiz-adv-x="1028" d="M176 383l100 719h37l-100 -719q-9 -65 7 -129.5t54 -116.5t104.5 -84.5t149.5 -32.5q65 0 126.5 18.5t103 45t74 53.5t48.5 45l15 19l127 901h37l-129 -914q-6 -8 -17 -21.5t-50 -48t-82.5 -61t-113 -48t-143.5 -21.5q-95 0 -169 35.5t-115 92.5t-57.5 126.5t-6.5 140.5z " />
<glyph unicode="v" horiz-adv-x="1128" d="M276 1102h41q12 -126 70 -481q54 -320 111 -541q12 -47 71 -47q57 0 82 47q145 282 262 541q88 190 205 481h41q-67 -181 -209 -494q-53 -116 -104 -222.5t-80 -164.5t-53.5 -106t-26.5 -52q-34 -63 -121 -63q-89 0 -106 63q-63 259 -111 545q-54 320 -72 494z" />
<glyph unicode="w" horiz-adv-x="1642" d="M276 1102h41q12 -159 48 -477q42 -333 81 -547q4 -24 20.5 -34.5t35.5 -10.5q46 0 69 45q2 5 23.5 52t47.5 106t71 165.5t92 223.5q19 45 50 125t40 102q17 45 51 45q35 0 39 -45q22 -201 25 -227q40 -315 82 -547q10 -45 57 -45q45 0 68 45q2 5 23 52t47 105.5t71 165.5 t92 224q43 105 79 200t67 179.5t36 97.5h41q-69 -199 -184 -488q-38 -94 -77 -185.5t-66.5 -154t-50 -111.5t-33.5 -73l-11 -24q-30 -66 -106 -66q-79 0 -92 63q-2 9 -14 80.5t-32 208t-34 262.5q-5 33 -27 238q0 6 -4.5 6t-7.5 -6q-10 -24 -44 -115.5t-48 -122.5 q-50 -123 -108.5 -260t-93 -213t-34.5 -78q-30 -63 -108 -63q-77 0 -90 66l-2 13q-3 13 -7.5 38t-10.5 59t-13 81.5t-14.5 100t-16 120t-16.5 136.5q-37 295 -52 488z" />
<glyph unicode="x" horiz-adv-x="1101" d="M123 0q52 89 184 264q27 37 54 72.5t49.5 63.5t42 52t36 43t27.5 31.5t20.5 23t10.5 11.5l20 17q-4 6 -12 16q-68 109 -141 268q-81 172 -101 240h43q35 -88 93 -219q22 -46 43.5 -88.5t37 -71.5t29 -52.5t20.5 -35.5t11 -17l2.5 -3t4.5 -5t6 -4.5t8 -4.5t10 -3.5 t12 -1.5q29 0 51 22q10 10 34 37.5t74.5 90.5t106.5 137q62 86 154 219h43q-57 -93 -166 -240q-160 -212 -236 -284q9 -5 17 -17q76 -122 157 -297q72 -160 111 -264h-45q-89 212 -103 244q-91 195 -155 291q-22 22 -47 22q-34 0 -56 -22q-108 -121 -237 -291 q-113 -156 -168 -244h-45z" />
<glyph unicode="y" horiz-adv-x="1040" d="M117 -426l20 31q125 -64 291 -64h21q178 0 288 115t135 293l43 309q-2 -6 -5.5 -15.5t-18 -37.5t-33 -53.5t-52 -56.5t-72 -53.5t-95.5 -38t-121 -15.5q-96 0 -164 32t-103.5 83t-51 127t-14.5 151.5t14 169.5l77 551h37q-40 -294 -77 -551q-8 -60 -11.5 -110.5 t-1 -106.5t13 -100t32.5 -85t55 -68.5t83.5 -44t114.5 -16.5q89 0 160 31.5t116.5 81t78.5 122t50 142t29 154.5l78 551h37l-162 -1153q-28 -202 -151 -321.5t-314 -119.5h-20q-190 0 -307 66z" />
<glyph unicode="z" horiz-adv-x="1034" d="M133 20q-8 17 -3 34.5t17 31.5l865 952q10 15 6 21q-2 6 -17 6h-704l4 37h705q38 0 49 -25q14 -25 -17 -61l-864 -957q-9 -9 -4 -18q4 -4 14 -4h723l-4 -37h-723q-34 0 -47 20z" />
<glyph unicode="{" horiz-adv-x="749" d="M219 551l6 41q48 10 90.5 42.5t72.5 75.5t56.5 102.5t43 113t31 117.5t21.5 105.5t13 86.5q18 122 89 223.5t177 136.5l4 -41q-96 -33 -155 -123.5t-74 -195.5q-9 -65 -20 -123t-36.5 -149.5t-56.5 -162t-82.5 -135.5t-113.5 -94q53 -29 86.5 -94t45 -135.5t11.5 -161 t-5.5 -150t-14.5 -122.5q-15 -106 18.5 -196.5t120.5 -123.5l-17 -41q-95 35 -137 137t-26 224q8 54 13 104t9 125.5t-3.5 138.5t-24 123.5t-53 100.5t-89.5 51z" />
<glyph unicode="|" horiz-adv-x="348" d="M86 -473l289 2048h41l-289 -2048h-41z" />
<glyph unicode="}" horiz-adv-x="749" d="M84 -412q96 33 155 123.5t74 196.5q7 51 16.5 99.5t26 120.5t41 135t56 125.5t76 110.5t96.5 72q-45 24 -76 72t-45 110.5t-20.5 126t-3 135t8 121t11.5 99.5q15 105 -18.5 195.5t-121.5 123.5l17 41q97 -35 139.5 -137t24.5 -223q-81 -594 147 -643l-6 -41 q-240 -48 -328 -643q-16 -122 -87 -224t-179 -137z" />
<glyph unicode="~" horiz-adv-x="884" d="M205 594q3 5 9 12t25.5 26.5t40 34t51 26.5t60.5 12q40 0 72.5 -14t45.5 -25.5t36 -36.5q19 -21 34 -33.5t39.5 -23.5t51.5 -11q33 0 68 22.5t54 44.5l19 23l39 -20q-3 -5 -9 -12t-25.5 -26.5t-40 -34t-51 -26.5t-60.5 -12q-38 0 -69 12.5t-46 25t-39 38.5 q-63 68 -125 68q-33 0 -68 -23t-54 -45l-19 -23z" />
<glyph unicode="&#xa2;" horiz-adv-x="944" d="M178 551q12 85 36 162t64.5 148t93 124t125.5 87t158 40l13 92h37l-13 -90h23q169 0 268 -108l-35 -23q-89 98 -237 98h-23l-149 -1061h22q148 0 266 99l27 -25q-127 -106 -297 -106h-22l-15 -90h-37l15 92q-85 8 -149 43t-100.5 88t-58.5 122t-22 146.5t10 161.5z M219 551q-8 -75 -9 -147.5t17.5 -139t50.5 -118.5t89.5 -85.5t134.5 -40.5l149 1059q-98 -11 -176.5 -60.5t-129 -125t-81.5 -160.5t-45 -182z" />
<glyph unicode="&#xa3;" horiz-adv-x="1157" d="M123 0l4 41q66 0 103.5 47.5t43.5 95.5l78 557h-127l6 39h127l62 441q23 155 153.5 262t294.5 112h35q103 0 185.5 -47.5t132.5 -140.5l-39 -21q-39 79 -113 122.5t-172 43.5h-35q-139 0 -257.5 -94t-139.5 -237l-62 -441h443l-6 -39h-443l-78 -557q-6 -47 -26 -83 t-37 -48l-16 -12h798l-4 -41h-911z" />
<glyph unicode="&#xa5;" horiz-adv-x="1327" d="M322 461l6 37h385l22 168h-385l6 36h379q-26 1 -45 19.5t-26 34.5q-184 326 -340 819h47q84 -247 159.5 -435.5t171.5 -359.5q25 -37 66 -37q26 0 46.5 13.5t27.5 23.5q144 172 274 361t283 434h47q-311 -513 -574 -819q-44 -52 -84 -54h379l-6 -36h-385l-22 -168h385 l-6 -37h-385l-64 -461h-41l64 461h-385z" />
<glyph unicode="&#xa9;" horiz-adv-x="1861" d="M231 786q31 219 165.5 405.5t336 295t420.5 108.5q164 0 305 -64t233.5 -172.5t135.5 -258.5t20 -314q-22 -164 -107 -313.5t-208.5 -257.5t-282.5 -171.5t-323 -63.5t-304.5 63.5t-233.5 171.5t-136 257.5t-21 313.5zM272 786q-21 -155 20.5 -297t129.5 -244.5 t221.5 -163.5t288.5 -61t305.5 61t267.5 163.5t197.5 244.5t101.5 297q22 155 -19 297t-129 244.5t-221 163.5t-288 61t-306 -61t-268 -163.5t-198 -244.5t-103 -297zM688 786q10 71 31 135.5t56 123.5t81 102t110 68.5t138 25.5h22q132 0 213 -90l-26 -25q-74 78 -193 78 h-22q-83 0 -150 -36t-110 -97.5t-69 -132.5t-38 -152q-6 -62 -6.5 -121.5t16.5 -113t44.5 -94t78 -64.5t117.5 -24h23q122 0 213 80l20 -29q-106 -88 -240 -88h-22q-75 0 -131.5 25t-89.5 68t-53 100.5t-20.5 123.5t7.5 137z" />
<glyph unicode="&#xad;" horiz-adv-x="864" d="M207 600l4 37h618l-4 -37h-618z" />
<glyph unicode="&#xae;" horiz-adv-x="790" d="M309 1303q-15 -111 52.5 -190t179.5 -79q110 0 200 79.5t105 189.5t-52.5 189t-177.5 79q-112 0 -202 -78.5t-105 -189.5zM344 1096q-55 60 -61.5 141t26.5 152.5t90 119.5q99 86 222 86q116 0 190.5 -86t58.5 -206q-15 -120 -114 -209q-96 -84 -217 -84q-125 0 -195 86z M457 1137l45 329h121q43 0 65.5 -24t16.5 -64q-8 -57 -56 -80q37 -26 29 -77l-10 -84h-25l10 84q4 31 -12 49t-43 18h-94l-21 -151h-26zM508 1313h94q31 0 53.5 16.5t26.5 48.5q4 30 -13.5 49t-47.5 19h-95z" />
<glyph unicode="&#xb4;" horiz-adv-x="526" d="M311 1350l256 245h60l-285 -245h-31z" />
<glyph unicode="&#x2000;" horiz-adv-x="849" />
<glyph unicode="&#x2001;" horiz-adv-x="1698" />
<glyph unicode="&#x2002;" horiz-adv-x="849" />
<glyph unicode="&#x2003;" horiz-adv-x="1698" />
<glyph unicode="&#x2004;" horiz-adv-x="566" />
<glyph unicode="&#x2005;" horiz-adv-x="424" />
<glyph unicode="&#x2006;" horiz-adv-x="283" />
<glyph unicode="&#x2007;" horiz-adv-x="283" />
<glyph unicode="&#x2008;" horiz-adv-x="212" />
<glyph unicode="&#x2009;" horiz-adv-x="339" />
<glyph unicode="&#x200a;" horiz-adv-x="94" />
<glyph unicode="&#x2010;" horiz-adv-x="864" d="M207 600l4 37h618l-4 -37h-618z" />
<glyph unicode="&#x2011;" horiz-adv-x="864" d="M207 600l4 37h618l-4 -37h-618z" />
<glyph unicode="&#x2012;" horiz-adv-x="864" d="M207 600l4 37h618l-4 -37h-618z" />
<glyph unicode="&#x2013;" horiz-adv-x="1001" d="M205 596l6 37h756l-6 -37h-756z" />
<glyph unicode="&#x2014;" horiz-adv-x="1581" d="M207 598l4 37h1335l-4 -37h-1335z" />
<glyph unicode="&#x2018;" horiz-adv-x="403" d="M289 1186l184 409h31l-156 -409h-59z" />
<glyph unicode="&#x2019;" horiz-adv-x="403" d="M289 1186l155 409h60l-185 -409h-30z" />
<glyph unicode="&#x201c;" horiz-adv-x="604" d="M289 1186l155 409h60l-185 -409h-30zM487 1186l156 409h62l-185 -409h-33z" />
<glyph unicode="&#x201d;" horiz-adv-x="604" d="M346 1595h62l41 -409h-33zM547 1595h59l41 -409h-31z" />
<glyph unicode="&#x2022;" horiz-adv-x="434" d="M209 614q5 38 36.5 66.5t69.5 28.5t62.5 -28.5t19.5 -66.5q-6 -38 -38 -66t-70 -28t-62 28t-18 66z" />
<glyph unicode="&#x2026;" horiz-adv-x="778" d="M127 41q3 17 16.5 29t30.5 12t27.5 -12t7.5 -29q-1 -17 -14.5 -29t-30.5 -12t-28 12t-9 29zM352 41q3 17 16.5 29t30.5 12t27.5 -12t7.5 -29q-1 -17 -14.5 -29t-30.5 -12t-28 12t-9 29zM578 41q3 17 16.5 29t30.5 12t27 -12t7 -29q-1 -17 -14.5 -29t-30.5 -12t-27.5 12 t-8.5 29z" />
<glyph unicode="&#x202f;" horiz-adv-x="339" />
<glyph unicode="&#x205f;" horiz-adv-x="424" />
<glyph unicode="&#x20ac;" horiz-adv-x="1406" d="M215 666l6 45h125q7 87 23 159h-125l6 45h127q26 112 69.5 211.5t108 186t143.5 149t182 98t218 35.5h30q224 0 359 -129l-35 -28q-131 121 -330 121h-30q-90 0 -171 -23.5t-147.5 -67t-122.5 -102.5t-99.5 -131.5t-76 -152t-53.5 -167.5h631l-6 -45h-633 q-16 -72 -23 -159h633l-6 -45h-631q-5 -107 9 -201.5t51 -177.5t94 -142.5t143 -94t193 -34.5h30q201 0 363 121l26 -28q-172 -129 -395 -129h-31q-144 0 -251.5 54.5t-168.5 150t-88 217t-20 264.5h-127z" />
<glyph unicode="&#x2122;" horiz-adv-x="1093" d="M338 1540l6 35h348l-6 -35h-156l-63 -450h-37l64 450h-156zM705 1090l65 460q2 18 15 25.5t27 1t19 -24.5l105 -305l190 305q11 18 27 24.5t26.5 -1t8.5 -25.5l-66 -460h-37l62 430q-201 -316 -203 -320q-6 -9 -16 -9t-13 9l-112 320l-62 -430h-36z" />
<glyph unicode="&#xe000;" horiz-adv-x="1105" d="M0 0v1106h1106v-1106h-1106z" />
</font>
</defs>
</svg>
