<?xml version="1.0" standalone="no"?>
<!DOCTYPE svg PUBLIC "-//W3C//DTD SVG 1.1//EN" "http://www.w3.org/Graphics/SVG/1.1/DTD/svg11.dtd" >
<svg xmlns="http://www.w3.org/2000/svg">
<metadata></metadata>
<defs>
<font id="geniusmedium_italic" horiz-adv-x="1146" >
<font-face units-per-em="2048" ascent="1536" descent="-512" />
<missing-glyph horiz-adv-x="614" />
<glyph horiz-adv-x="2048" />
<glyph horiz-adv-x="2048" />
<glyph unicode="&#xd;" horiz-adv-x="2048" />
<glyph unicode=" "  horiz-adv-x="614" />
<glyph unicode="&#x09;" horiz-adv-x="614" />
<glyph unicode="&#xa0;" horiz-adv-x="614" />
<glyph unicode="!" horiz-adv-x="585" d="M190 119q6 49 46 84t90 35q49 0 78.5 -34.5t23.5 -84.5q-8 -50 -47 -84.5t-88 -34.5q-50 0 -80 35t-23 84zM248 356l172 1219h188l-172 -1219h-188z" />
<glyph unicode="&#x22;" horiz-adv-x="704" d="M293 1090l51 485h176l-84 -485h-143zM575 1090l52 485h176l-84 -485h-144z" />
<glyph unicode="#" horiz-adv-x="1505" d="M186 457l56 182h262l88 281h-262l55 182h262l150 473h198l-149 -473h231l150 473h198l-149 -473h260l-55 -182h-260l-88 -281h260l-56 -182h-260l-141 -457h-199l142 457h-232l-141 -457h-199l142 457h-263zM702 639h232l88 281h-231z" />
<glyph unicode="$" horiz-adv-x="1333" d="M141 141l90 183q179 -122 361 -150l78 551q-409 113 -361 455q25 166 155.5 275t328.5 134l18 133h186l-18 -131q165 -18 360 -98l-84 -178q-161 68 -303 86l-73 -520q68 -22 125.5 -49t112 -67.5t90.5 -88t54 -111.5t9 -137q-4 -26 -10.5 -53.5t-24 -70t-41 -80.5 t-64.5 -79.5t-91.5 -73t-124.5 -55.5t-162 -32l-19 -134h-186l20 136q-214 21 -426 155zM500 1180q-23 -173 198 -252l66 469q-66 -12 -117.5 -38t-81 -58t-45.5 -62.5t-20 -58.5zM780 176q121 18 203 82.5t96 169.5q22 160 -229 250z" />
<glyph unicode="%" horiz-adv-x="1624" d="M289 1192q9 66 22.5 118t38 103.5t57.5 85.5t84 55t115 21t109 -21t68 -55t33 -85.5t8 -103.5t-11 -118q-11 -82 -30 -143.5t-54 -117.5t-93 -86t-138 -30q-64 0 -109 21t-68.5 54.5t-33 84.5t-8.5 101.5t10 115.5zM436 1192q-7 -61 -8 -112t21.5 -85t68.5 -34 q35 0 62 19t43.5 53.5t26 72t16.5 86.5q8 63 9 115.5t-21 87.5t-68 35q-35 0 -62 -19.5t-43.5 -55.5t-26.5 -74t-18 -89zM457 0l749 1575h191l-750 -1575h-190zM1028 377q9 66 22.5 118t38.5 103.5t58 85.5t84 55t115 21q80 0 129.5 -31.5t67 -84.5t20.5 -122.5t-11 -144.5 q-9 -64 -21.5 -115t-36.5 -102t-57 -84.5t-83.5 -54.5t-114.5 -21q-80 0 -130 31t-68.5 83.5t-22 120.5t9.5 142zM1176 377q-7 -61 -8 -112.5t21 -85.5t68 -34q35 0 62 19t43.5 54t26 72.5t16.5 86.5q8 63 9 115.5t-21 87t-68 34.5q-35 0 -61.5 -19t-43.5 -55t-26.5 -74 t-17.5 -89z" />
<glyph unicode="&#x26;" horiz-adv-x="1452" d="M176 385q9 61 36 117t73.5 107.5t91.5 91.5t112 92q-141 198 -108 426q16 108 82 191t154 124t180 41q137 0 230.5 -98t70.5 -258q-10 -67 -41 -130t-81 -119.5t-102.5 -103t-123.5 -98.5l258 -350q35 36 73.5 84t60.5 78l21 30l135 -112q-87 -113 -178 -217 q34 -48 112 -151.5t97 -129.5h-239l-119 150q-204 -170 -400 -170q-59 0 -117 12t-114.5 42.5t-97 75t-59.5 116t-7 159.5zM367 385q-13 -100 53 -159.5t178 -59.5q118 0 266 117l-274 366q-103 -76 -159 -138t-64 -126zM575 1219q-10 -88 9.5 -160.5t66.5 -149.5 q238 167 258 310q8 65 -29 119.5t-110 54.5q-75 0 -130 -54.5t-65 -119.5z" />
<glyph unicode="'" horiz-adv-x="421" d="M293 1090l51 485h176l-84 -485h-143z" />
<glyph unicode="(" horiz-adv-x="778" d="M207 604q86 601 573 991l99 -139q-412 -322 -486 -852q-74 -528 248 -850l-139 -141q-378 388 -295 991z" />
<glyph unicode=")" horiz-adv-x="778" d="M68 -246q411 321 485 850q74 530 -248 852l139 139q381 -390 295 -991q-39 -281 -179 -534.5t-394 -456.5z" />
<glyph unicode="*" horiz-adv-x="1040" d="M293 1210l84 199l227 -94l33 260h209l-41 -260l252 94l30 -199l-245 -69l121 -193l-183 -121l-116 207l-175 -207l-145 121l174 193z" />
<glyph unicode="+" horiz-adv-x="1228" d="M195 518l26 182h402l55 402h182l-55 -402h399l-26 -182h-400l-55 -399h-182l55 399h-401z" />
<glyph unicode="," horiz-adv-x="563" d="M88 -242l188 492h199l-221 -492h-166z" />
<glyph unicode="-" horiz-adv-x="929" d="M195 518l26 182h684l-26 -182h-684z" />
<glyph unicode="." horiz-adv-x="483" d="M139 119q6 49 45.5 84t89.5 35q49 0 79 -34.5t24 -84.5q-8 -50 -47 -84.5t-88 -34.5q-50 0 -80 35t-23 84z" />
<glyph unicode="/" horiz-adv-x="1089" d="M123 0l858 1575h207l-856 -1575h-209z" />
<glyph unicode="0" horiz-adv-x="1292" d="M231 786q13 94 29 172t42.5 164t60 152.5t82.5 128.5t108.5 102.5t140 65t176.5 24.5t169.5 -24.5t121.5 -65t79 -102.5t45.5 -128.5t16.5 -152.5t-4.5 -164t-19.5 -172t-28.5 -171.5t-41.5 -163t-59 -152t-81.5 -128t-108 -102.5t-140 -65t-176.5 -24q-95 0 -169 24 t-122.5 65t-80 103t-46 128t-17 151.5t3.5 163t19 171.5zM422 786q-10 -73 -15.5 -133t-5.5 -126.5t7.5 -117.5t26.5 -99t49 -79t77 -50t109 -19t114 19t90.5 50t71 79t54 99t40 117.5t29.5 126.5t21 133q11 74 16.5 134t6 127.5t-7 119t-26 100t-48 80.5t-76.5 51t-109 19 t-114 -19t-91 -51t-71.5 -80.5t-54.5 -100t-40.5 -119t-30 -127.5t-22.5 -134z" />
<glyph unicode="1" horiz-adv-x="704" d="M272 1223l363 321q31 31 76 31q37 0 60 -25t17 -73l-206 -1477h-185l174 1251l-182 -159z" />
<glyph unicode="2" horiz-adv-x="1204" d="M174 160q421 388 731 749q71 94 107 191.5t12 173.5q-24 64 -82 97.5t-133 33.5q-93 0 -179.5 -60.5t-135.5 -162.5l-177 30q85 182 225.5 281.5t293.5 99.5q121 0 225.5 -58t148.5 -173q84 -253 -168 -563q-167 -214 -575 -606h641l-27 -193h-858q-57 0 -77.5 28.5 t-10 65t38.5 66.5z" />
<glyph unicode="3" horiz-adv-x="1179" d="M160 266l182 86q38 -87 103 -133.5t135 -46.5h36q113 0 203 75t105 185q18 123 -60 205t-200 82h-117l24 184h117q112 0 207.5 85.5t110.5 193.5q12 95 -51.5 161t-157.5 66h-37q-67 0 -136.5 -44t-127.5 -126l-158 86q199 272 448 272h37q119 -3 210.5 -59t135.5 -150.5 t29 -205.5q-17 -110 -80 -207t-153 -160q83 -64 125.5 -166t25.5 -217q-18 -128 -99.5 -233t-195 -162t-231.5 -57h-39q-123 8 -225 78t-166 208z" />
<glyph unicode="4" horiz-adv-x="1329" d="M197 485q-10 57 28 105l787 923q56 62 123 62q47 0 76 -33t20 -90l-119 -844h199l-27 -186h-199l-57 -422h-188l57 422h-604q-86 0 -96 63zM475 608h449l88 621z" />
<glyph unicode="5" horiz-adv-x="1177" d="M158 262l190 64q37 -82 103 -122t133 -40q138 0 232.5 90t115.5 227q21 152 -50.5 231t-217.5 79q-69 0 -140.5 -14.5t-113.5 -33.5q-60 -28 -100.5 -3t-33.5 89l93 646q5 37 40.5 68.5t73.5 31.5h725l-26 -189h-633l-62 -425q113 20 203 20q236 0 350 -133.5t82 -366.5 q-31 -217 -190 -359t-375 -142q-57 0 -114.5 16t-112.5 48.5t-101 88.5t-71 129z" />
<glyph unicode="6" horiz-adv-x="1210" d="M227 754q55 380 205 579q184 242 492 242q118 0 295 -64l-84 -170q-142 50 -238 50q-92 0 -175 -36t-138 -114q-45 -61 -83.5 -155t-60.5 -195q153 86 320 86q104 0 186.5 -40.5t132 -109t69.5 -158.5t5 -190q-30 -218 -172.5 -358.5t-351.5 -140.5q-96 0 -169.5 25 t-120.5 65.5t-77 103t-43 126t-14 146.5t4.5 152.5t17.5 155.5zM401 639q-11 -78 -12 -142t11.5 -128t41 -107.5t82.5 -70.5t131 -27q126 0 208 90t100 225q20 137 -45 226.5t-185 89.5q-99 0 -189.5 -46.5t-142.5 -109.5z" />
<glyph unicode="7" horiz-adv-x="1177" d="M262 0l766 1354h-717l27 188h848q36 0 58 -12.5t29 -32.5t5 -42t-12 -44l-801 -1411h-203z" />
<glyph unicode="8" horiz-adv-x="1212" d="M182 436q18 125 86 224.5t172 160.5q-141 134 -112 350q12 82 54 158t106.5 135.5t153.5 95t187 35.5q129 0 223.5 -61t135 -157.5t24.5 -205.5q-14 -106 -70.5 -195.5t-140.5 -154.5q86 -62 126 -161t22 -224q-28 -195 -186 -324.5t-361 -129.5q-134 0 -236.5 58.5 t-152 162.5t-31.5 233zM373 436q-14 -112 55.5 -191t200.5 -79t223 79.5t106 190.5q18 122 -57 203.5t-194 81.5q-118 0 -217 -81.5t-117 -203.5zM516 1171q-15 -107 47 -187.5t168 -80.5q107 0 192.5 80.5t100.5 187.5q14 99 -48.5 170.5t-172.5 71.5q-108 0 -190.5 -71.5 t-96.5 -170.5z" />
<glyph unicode="9" horiz-adv-x="1189" d="M186 43l86 170q139 -49 238 -49q92 0 174.5 35.5t138.5 113.5q95 128 144 351q-153 -86 -320 -86q-104 0 -186.5 40.5t-132 108.5t-70 158t-6.5 190q32 218 174.5 359t351.5 141q96 0 169.5 -25t120.5 -65.5t77 -103t42.5 -126t13.5 -146t-5 -152.5t-18 -156 q-51 -378 -203 -580q-187 -241 -492 -241q-120 0 -297 63zM442 1075q-19 -137 46.5 -226t185.5 -89q99 0 189.5 46t140.5 109q11 78 13 142.5t-10.5 128t-41 107.5t-82.5 71t-131 27q-126 0 -208 -90.5t-102 -225.5z" />
<glyph unicode=":" horiz-adv-x="483" d="M139 119q6 49 45.5 84t89.5 35q49 0 79 -34.5t24 -84.5q-8 -50 -47 -84.5t-88 -34.5q-50 0 -80 35t-23 84zM260 983q6 49 45.5 84t89.5 35q49 0 79 -34.5t24 -84.5q-8 -50 -47.5 -84.5t-88.5 -34.5q-50 0 -79.5 35t-22.5 84z" />
<glyph unicode=";" horiz-adv-x="536" d="M47 -246l186 492h199l-219 -492h-166zM313 983q6 49 46 84t90 35q49 0 78.5 -34.5t23.5 -84.5q-8 -50 -47 -84.5t-88 -34.5q-50 0 -80 35t-23 84z" />
<glyph unicode="&#x3c;" horiz-adv-x="1189" d="M199 551q8 54 61 88l948 522l-30 -219l-713 -391l602 -391l-31 -219l-800 522q-43 34 -37 88z" />
<glyph unicode="=" horiz-adv-x="1089" d="M172 362l27 181h843l-26 -181h-844zM217 684l27 182h843l-26 -182h-844z" />
<glyph unicode="&#x3e;" horiz-adv-x="1189" d="M133 -59l31 219l713 391l-603 391l31 219l801 -522q45 -34 37 -88q-6 -54 -62 -88z" />
<glyph unicode="?" horiz-adv-x="1196" d="M315 1374q118 115 247.5 168t246.5 53q232 0 344.5 -110t85.5 -297q-9 -62 -34 -117t-53 -91.5t-75 -75t-78 -58t-84 -51.5q-92 -60 -119 -88q-34 -35 -40 -72l-39 -279h-189l39 279q6 39 18 72.5t35 63t40 48.5t53.5 44.5t52.5 36t59 36.5q43 27 62 39t54 39.5t52 49 t34 54.5t22 70q15 110 -56.5 166.5t-210.5 56.5q-177 0 -336 -143zM471 119q6 49 45.5 84t89.5 35q49 0 79 -34.5t24 -84.5q-8 -50 -47.5 -84.5t-88.5 -34.5q-50 0 -79.5 35t-22.5 84z" />
<glyph unicode="@" horiz-adv-x="1859" d="M250 696q10 68 28 139.5t53.5 161.5t82.5 171t119 160.5t158.5 136.5t205.5 92.5t256 35.5t246.5 -35.5t179.5 -92.5t120 -136.5t74 -160.5t34 -171t7.5 -162t-12.5 -139q-14 -100 -45 -182.5t-70 -136t-85 -90.5t-90.5 -52.5t-86.5 -15.5q-78 0 -124 22t-78 66 q-101 -94 -265 -94q-82 0 -145.5 26.5t-100 72.5t-59 107.5t-23.5 131.5t7 145q11 76 34 145.5t61.5 132.5t89.5 109t121.5 73.5t152.5 27.5t145 -27t99.5 -74t59 -109t23 -132.5t-7.5 -145.5l-33 -239q-3 -24 15.5 -37.5t48.5 -13.5q45 0 95 71.5t71 218.5q7 52 9 109 t-6 128t-26 136t-55.5 128t-90 109t-134 74.5t-183.5 28.5t-191 -28.5t-154.5 -74.5t-120.5 -109t-91 -128t-63.5 -136t-42 -128t-21.5 -109q-7 -51 -9 -107.5t6 -127.5t26 -135.5t55.5 -127t90 -108.5t134 -74t183.5 -28q95 0 180.5 15t140 37t95 43.5t58.5 36.5l17 15 l80 -151q-7 -7 -22 -19.5t-68.5 -43.5t-116.5 -55t-168.5 -43.5t-222.5 -19.5q-137 0 -246.5 35t-179.5 92t-120 136t-74 159.5t-34 170.5t-8 161t11 139zM827 696q-10 -54 -5.5 -107.5t19 -96t52 -69t92.5 -26.5q45 0 82.5 17.5t63.5 46t46 68t32 80.5t18 87 q10 55 5.5 109.5t-19 97.5t-52 69.5t-92.5 26.5t-99.5 -26t-72.5 -71t-45 -96t-25 -110z" />
<glyph unicode="A" horiz-adv-x="1499" d="M102 0q60 171 270 670.5t367 777.5q34 62 93.5 94.5t128.5 32.5h20q69 0 118 -32.5t66 -94.5q73 -263 146 -775.5t86 -672.5h-209q-22 201 -58 500h-622q-99 -240 -197 -500h-209zM586 686h518q-66 437 -119 668q-6 32 -35 32h-12q-30 0 -47 -32q-161 -324 -305 -668z " />
<glyph unicode="B" horiz-adv-x="1288" d="M123 0l221 1575h600q206 0 309 -114t74 -318q-13 -97 -66 -184t-126 -144q149 -115 112 -364q-29 -209 -175.5 -330t-348.5 -121h-600zM338 188h410q18 0 41 2.5t69 17.5t82.5 40.5t69.5 78.5t43 124q8 41 3.5 74.5t-11 59t-22.5 45t-31 33.5t-36 23.5t-37.5 15t-37 8.5 t-33 4t-25.5 1h-409zM438 903h410q17 0 38 2t63.5 15.5t76 37t64.5 71.5t40 114q9 65 -4.5 113t-37.5 72t-60.5 38t-60.5 17t-49 3h-410z" />
<glyph unicode="C" horiz-adv-x="1372" d="M233 788q17 128 57 245t106 220t151.5 179t200 119.5t245.5 43.5h31q267 0 422 -194l-162 -131q-107 137 -287 137h-30q-92 0 -172.5 -34t-140.5 -92.5t-107 -138t-75.5 -168.5t-41.5 -186q-13 -80 -10.5 -157t14.5 -145.5t42.5 -127t72.5 -100.5t104.5 -66t139.5 -24h30 q181 0 324 137l125 -131q-209 -194 -475 -194h-31q-110 0 -199.5 30.5t-151 85.5t-106.5 130.5t-64 165.5t-24 190.5t12 205.5z" />
<glyph unicode="D" horiz-adv-x="1351" d="M123 0l221 1575h487q93 0 171 -23t134.5 -63.5t99 -98t67.5 -125.5t37 -147t11.5 -161t-12.5 -169q-18 -124 -54.5 -236t-98.5 -214t-142.5 -176.5t-192 -118t-241.5 -43.5h-487zM338 188h297q92 0 171 35.5t134.5 93.5t98.5 137t68 161.5t38 172.5q10 74 10 143 t-10 137.5t-36 125t-65 100t-100.5 68t-138.5 24.5h-297z" />
<glyph unicode="E" horiz-adv-x="1200" d="M156 240l153 1095q15 109 91 174.5t188 65.5h710l-26 -189h-711q-55 0 -61 -51l-62 -434h723l-26 -188h-723l-66 -473q-6 -52 45 -52h711l-25 -188h-710q-112 0 -169 66t-42 174z" />
<glyph unicode="F" horiz-adv-x="1200" d="M123 0l186 1335q15 109 91 174.5t188 65.5h710l-26 -189h-711q-55 0 -61 -51l-62 -434h723l-26 -188h-723l-99 -713h-190z" />
<glyph unicode="G" horiz-adv-x="1417" d="M233 788q17 128 57 245t106 220t151.5 179t200 119.5t245.5 43.5h31q267 0 422 -194l-162 -131q-107 137 -287 137h-30q-91 0 -171.5 -34t-140.5 -92.5t-107 -138t-76 -168.5t-42 -186q-11 -97 -9.5 -187t27.5 -169t69 -137.5t114 -92.5t162 -34h30q122 0 219.5 56 t108.5 126l47 342h-342l27 189h534l-74 -531q-24 -162 -182.5 -266t-363.5 -104h-31q-110 0 -199.5 30.5t-151 85.5t-106.5 130.5t-64 165.5t-24 190.5t12 205.5z" />
<glyph unicode="H" horiz-adv-x="1327" d="M123 0l221 1575h191l-97 -674h701l96 674h190l-221 -1575h-190l98 713h-700l-99 -713h-190z" />
<glyph unicode="I" horiz-adv-x="518" d="M164 0l221 1575h190l-221 -1575h-190z" />
<glyph unicode="J" horiz-adv-x="1064" d="M119 121l135 151q120 -104 235 -104q131 0 219 79.5t107 207.5l158 1120h190l-157 -1120q-30 -217 -180.5 -346t-362.5 -129q-170 0 -344 141z" />
<glyph unicode="K" horiz-adv-x="1331" d="M123 0l221 1575h188l-92 -653h52q156 129 248.5 207.5t227.5 201.5t253 244h243q-410 -413 -815 -748q255 -279 594 -827h-233q-272 431 -543 731h-53l-103 -731h-188z" />
<glyph unicode="L" horiz-adv-x="1116" d="M156 240l188 1335h191l-189 -1335q-6 -52 39 -52h674l-25 -188h-674q-107 0 -163 66t-41 174z" />
<glyph unicode="M" horiz-adv-x="1593" d="M123 0l201 1440q9 62 44 98.5t83 36.5q70 0 108 -90l322 -883l567 883q63 90 137 90q48 0 71.5 -36.5t14.5 -98.5l-201 -1440h-190l164 1178l-518 -830q-30 -47 -88 -47q-53 0 -76 47l-285 830l-164 -1178h-190z" />
<glyph unicode="N" horiz-adv-x="1378" d="M123 0l201 1440q9 62 44 98.5t83 36.5q37 0 62.5 -22t49.5 -66l555 -1102l168 1190h191l-203 -1440q-9 -62 -43 -98.5t-82 -36.5q-68 0 -113 88l-557 1102l-166 -1190h-190z" />
<glyph unicode="O" horiz-adv-x="1540" d="M233 788q17 128 57 245t106 220t151.5 179t200 119.5t245.5 43.5q94 0 174 -22.5t138.5 -64t104.5 -99t72.5 -127.5t42.5 -150.5t14.5 -166.5t-11.5 -177q-18 -128 -58.5 -245t-106.5 -220.5t-151.5 -179t-200 -119.5t-245.5 -44q-110 0 -199.5 30.5t-151 85.5 t-106.5 130.5t-64 165.5t-24 190.5t12 205.5zM430 788q-11 -97 -9.5 -187t27.5 -169t69 -137.5t114 -92.5t162 -34t171.5 34t140.5 92.5t107 137.5t76 168.5t43 187.5q13 79 10 156t-15.5 145.5t-43 127t-72.5 100.5t-104.5 66t-138.5 24q-91 0 -171.5 -34t-140.5 -92.5 t-107 -138t-76 -168.5t-42 -186z" />
<glyph unicode="P" horiz-adv-x="1273" d="M123 0l221 1575h580q211 0 322 -126.5t83 -322.5q-28 -197 -174.5 -322.5t-357.5 -125.5h-389l-95 -678h-190zM434 866h389q118 0 206 69.5t106 190.5q17 123 -51 191.5t-187 68.5h-389z" />
<glyph unicode="Q" horiz-adv-x="1552" d="M233 788q17 128 57 245t106 220t151.5 179t200 119.5t245.5 43.5q95 0 175 -22.5t138.5 -64t104.5 -99t72.5 -127.5t42.5 -150.5t14 -166.5t-12 -177q-25 -176 -97 -335.5t-182 -272.5q20 -38 73.5 -81.5t139.5 -69.5l-110 -156q-7 1 -19 3.5t-47 15.5t-67 31.5t-71 54 t-67 79.5q-141 -77 -315 -77q-110 0 -199.5 30.5t-151 85.5t-106.5 130.5t-64 165.5t-24 190.5t12 205.5zM430 788q-11 -97 -9.5 -187t27.5 -169t69 -137.5t114 -92.5t162 -34t171.5 34t140.5 92.5t107 137.5t76 168.5t43 187.5q13 79 10 156t-15.5 145.5t-43 127 t-72.5 100.5t-104.5 66t-138.5 24q-91 0 -171.5 -34t-140.5 -92.5t-107 -138t-76 -168.5t-42 -186z" />
<glyph unicode="R" horiz-adv-x="1273" d="M123 0l221 1575h580q211 0 322 -126.5t83 -322.5q-18 -120 -79 -213.5t-148 -150.5q135 -131 104 -344l-57 -418h-193l58 418q18 120 -45 190t-172 70h-389l-95 -678h-190zM434 866h389q118 0 206 69.5t106 190.5q17 123 -51 191.5t-187 68.5h-389z" />
<glyph unicode="S" horiz-adv-x="1333" d="M141 141l90 183q236 -156 451 -156q155 0 267 67t130 193q7 49 -12.5 92t-54 72.5t-85.5 54t-97.5 39t-98.5 25.5q-99 21 -176.5 56t-140.5 89.5t-91 137t-14 186.5q28 189 190.5 302t399.5 113q110 0 235 -33.5t205 -68.5l-84 -178q-67 30 -175 61t-208 31 q-77 0 -141 -16t-104 -40.5t-68.5 -56t-41.5 -60t-17 -54.5q-7 -49 7.5 -91t42.5 -71t69.5 -52.5t83 -37.5t88.5 -23q64 -15 121 -35.5t116.5 -49.5t105.5 -67.5t81 -85.5t49.5 -108.5t5.5 -130.5q-4 -28 -11.5 -58t-27.5 -76t-47.5 -86.5t-76 -83.5t-109 -73.5 t-149.5 -50.5t-194 -20q-259 3 -514 161z" />
<glyph unicode="T" horiz-adv-x="1345" d="M297 1386l27 189h1140l-26 -189h-475l-195 -1386h-190l194 1386h-475z" />
<glyph unicode="U" horiz-adv-x="1349" d="M213 651l131 924h191l-132 -924q-9 -76 -10 -146.5t16 -131.5t47.5 -107t84.5 -72t127 -26h59q90 0 162 39.5t119 109t75.5 152.5t42.5 182l131 924h191l-131 -924q-15 -108 -43 -201t-77.5 -181.5t-116 -151t-164.5 -100t-216 -37.5h-59q-99 0 -176.5 25.5t-126.5 73 t-81 109t-44.5 139t-12 156.5t12.5 168z" />
<glyph unicode="V" horiz-adv-x="1540" d="M344 1575h209q81 -825 201 -1354q6 -33 34 -33h13q30 0 47 33q252 503 582 1354h208q-46 -132 -269.5 -658.5t-369.5 -789.5q-35 -62 -92.5 -94.5t-126.5 -32.5h-20q-69 0 -119.5 33t-67.5 94q-79 279 -149 782.5t-80 665.5z" />
<glyph unicode="W" horiz-adv-x="1990" d="M344 1575h209q2 -222 30 -559t50 -527.5t35 -287.5q59 149 187 483t179 463q24 57 61 82.5t76 25.5t68.5 -25.5t36.5 -82.5q39 -354 100 -946q42 100 117 288t199 526t188 560h209q-136 -507 -541 -1442q-29 -61 -79.5 -97t-118.5 -36q-65 0 -111.5 36t-52.5 97 q-76 667 -76 688q-28 -66 -268 -688q-24 -61 -80 -97t-121 -36q-69 0 -111 36.5t-51 96.5q-145 895 -135 1442z" />
<glyph unicode="X" horiz-adv-x="1486" d="M102 0q162 270 293 454t293 371q-200 332 -323 750h213q54 -176 134.5 -358t157.5 -299q112 118 245 300.5t237 356.5h213q-245 -421 -537 -750q110 -189 190 -373.5t166 -451.5h-210q-70 230 -170 442.5t-160 282.5q-81 -71 -240 -283t-291 -442h-211z" />
<glyph unicode="Y" horiz-adv-x="1458" d="M324 1575h208q78 -235 145.5 -407.5t151.5 -331.5q5 -9 15 -9q14 0 18 9q88 109 183.5 245.5t154 227.5t168.5 266h209q-352 -572 -592 -860q-31 -37 -70 -60l-90 -655h-192l90 655q-31 24 -49 60q-167 297 -350 860z" />
<glyph unicode="Z" horiz-adv-x="1333" d="M176 209l985 1177h-807l27 189h917q58 0 86.5 -33.5t23.5 -82t-38 -93.5l-985 -1178h850l-25 -188h-960q-58 0 -87 33.5t-24.5 82t37.5 93.5z" />
<glyph unicode="[" horiz-adv-x="690" d="M55 -473l289 2048h424l-27 -184h-237l-236 -1680h238l-27 -184h-424z" />
<glyph unicode="\" horiz-adv-x="948" d="M344 1575h205l276 -1575h-202z" />
<glyph unicode="]" horiz-adv-x="690" d="M76 -473l26 184h238l235 1680h-237l27 184h423l-288 -2048h-424z" />
<glyph unicode="^" horiz-adv-x="1142" d="M250 909l457 619q38 47 86 47q49 0 69 -47l285 -619h-209l-184 391l-295 -391h-209z" />
<glyph unicode="_" horiz-adv-x="1458" d="M55 -473l27 184h1212l-26 -184h-1213z" />
<glyph unicode="`" horiz-adv-x="792" d="M344 1575h236l262 -346h-197z" />
<glyph unicode="a" horiz-adv-x="1056" d="M152 358q10 66 44.5 131.5t91 123.5t144.5 94t193 36q59 0 114.5 -10.5t80.5 -21.5l26 -11q2 58 -3.5 97.5t-24 72.5t-55.5 48.5t-95 15.5q-63 0 -140 -23t-143 -69l-88 143q183 129 395 129q64 0 115 -12t87 -30t62 -49t41.5 -60t23.5 -73t10.5 -76.5t-0.5 -83 t-6.5 -80.5t-10.5 -79l-80 -571h-184l16 129q-100 -141 -268 -141q-85 0 -150.5 20t-105 55.5t-64.5 82.5t-28.5 100.5t2.5 111.5zM338 360q-5 -36 1 -68t24.5 -61t59 -46t99.5 -17q106 0 187.5 88t113.5 270q-93 43 -223 43q-62 0 -112 -20.5t-80.5 -53.5t-47.5 -67.5 t-22 -67.5z" />
<glyph unicode="b" d="M123 0l221 1575h184l-86 -604q47 58 126.5 100.5t170.5 42.5q95 0 169.5 -31t118.5 -84.5t71 -125.5t29.5 -153.5t-7.5 -168.5q-12 -88 -39 -168.5t-73 -153.5t-106 -126t-142.5 -84t-177.5 -31q-91 0 -159 41.5t-99 99.5l-17 -129h-184zM383 551q-12 -69 -3.5 -137.5 t31 -123t73 -88.5t122.5 -34q73 0 133 33.5t99.5 89.5t63.5 122t34 138q13 69 5.5 137.5t-29.5 123t-73 88.5t-124 34q-72 0 -131.5 -33.5t-99.5 -89.5t-65 -122t-36 -138z" />
<glyph unicode="c" horiz-adv-x="1040" d="M178 551q16 111 57 209.5t106 179t162.5 127.5t215.5 47h29q179 0 323 -166l-147 -129q-101 115 -201 115h-29q-72 0 -131.5 -33.5t-99.5 -89.5t-65 -122t-36 -138q-12 -69 -3.5 -137.5t31.5 -123t73.5 -88.5t122.5 -34h28q100 0 234 115l110 -129q-189 -166 -368 -166 h-29q-95 0 -169 31t-118 84.5t-72 125.5t-30.5 153.5t6.5 168.5z" />
<glyph unicode="d" d="M178 551q16 112 56.5 210t105.5 178.5t162.5 127.5t216.5 47q91 0 158.5 -42.5t97.5 -100.5l86 604h184l-221 -1575h-184l16 129q-45 -57 -124.5 -99t-170.5 -42q-95 0 -169.5 31t-118.5 84.5t-71.5 125.5t-30 153.5t6.5 168.5zM362 551q-6 -56 -6 -110.5t15.5 -104 t41 -87t70 -59.5t103.5 -22q72 0 131.5 33.5t99 89.5t64 122t34.5 138q6 56 6.5 110.5t-15 104t-41 87t-69.5 59.5t-102 22q-73 0 -133 -33.5t-99.5 -90t-64 -121.5t-35.5 -138z" />
<glyph unicode="e" horiz-adv-x="1083" d="M178 551q13 89 38.5 169t69 153t100.5 125.5t138 84t176 31.5q72 0 131 -18t97.5 -48.5t69 -71t45 -85.5t24 -91.5t7.5 -90t-5 -80.5q-13 -95 -63.5 -136.5t-145.5 -41.5h-502q-3 -57 9 -106t40.5 -89.5t82 -64t126.5 -23.5q141 0 289 86l74 -145q-188 -121 -387 -121 q-92 0 -164.5 22t-119 60.5t-79.5 91.5t-45 115.5t-15 132t9 141.5zM383 631h500q3 62 -5.5 114t-31 95.5t-66 68.5t-104.5 25t-111.5 -25t-86 -68.5t-59 -96t-36.5 -113.5z" />
<glyph unicode="f" horiz-adv-x="831" d="M231 924l25 178h184l23 164q20 138 108.5 223.5t231.5 85.5h147l-26 -180h-148q-54 0 -87 -33.5t-42 -95.5l-22 -164h258l-25 -178h-258l-129 -924h-184l129 924h-185z" />
<glyph unicode="g" d="M123 -375l104 162q146 -82 277 -82h28q119 0 204 80.5t100 198.5l20 147q-45 -58 -124.5 -100.5t-170.5 -42.5q-95 0 -169.5 31t-118.5 84.5t-71.5 125.5t-30 153.5t6.5 168.5q16 112 56.5 210t105.5 178.5t162.5 127.5t216.5 47q91 0 158.5 -42t97.5 -99l18 129h185 l-158 -1118q-33 -207 -170.5 -332t-341.5 -125h-29q-165 0 -356 98zM362 551q-6 -56 -6 -110.5t15.5 -104t41 -87t70 -59.5t103.5 -22q72 0 131.5 33.5t99 89.5t64 122t34.5 138q6 56 6.5 110.5t-15 104t-41 87t-69.5 59.5t-102 22q-73 0 -133 -33.5t-99.5 -90t-64 -121.5 t-35.5 -138z" />
<glyph unicode="h" horiz-adv-x="1110" d="M123 0l221 1575h184l-86 -604q42 55 113 99t166 44q92 0 162.5 -31t112.5 -84t68 -124.5t27.5 -153t-8.5 -168.5l-75 -553h-183l76 553q13 69 6.5 137t-26.5 122.5t-68 88t-117 33.5q-56 0 -104 -22t-82 -58.5t-60.5 -87t-42.5 -103t-24 -110.5l-76 -553h-184z" />
<glyph unicode="i" horiz-adv-x="475" d="M145 0l154 1102h184l-153 -1102h-185zM309 1339q8 47 46 81t85 34t76.5 -34t22.5 -81q-6 -47 -44 -80.5t-85 -33.5t-77 33.5t-24 80.5z" />
<glyph unicode="j" horiz-adv-x="583" d="M-106 -473l26 186q294 9 330 260l158 1129h184l-158 -1129q-14 -95 -54.5 -172t-96 -127t-123.5 -84t-134.5 -48.5t-131.5 -14.5zM418 1339q8 47 46 81t85 34t76 -34t22 -81q-6 -47 -44 -80.5t-85 -33.5t-76.5 33.5t-23.5 80.5z" />
<glyph unicode="k" horiz-adv-x="1101" d="M123 0l221 1575h184l-127 -895q92 61 254 199.5t244 222.5h256q-121 -118 -295.5 -270t-294.5 -246q185 -194 469 -586h-248q-57 84 -198.5 256.5t-210.5 239.5l-70 -496h-184z" />
<glyph unicode="l" horiz-adv-x="552" d="M164 0l221 1575h184l-221 -1575h-184z" />
<glyph unicode="m" horiz-adv-x="1568" d="M123 0l125 899q5 9 15 23.5t45.5 51.5t77.5 65.5t112 51.5t147 23q169 0 262 -110q131 110 307 110q81 0 144.5 -24t100.5 -65t61 -95.5t26 -114t-4 -121.5l-96 -694h-184l96 694q9 62 -3.5 114.5t-54.5 89t-110 36.5q-78 0 -131 -37t-82 -84q7 -52 -4 -119l-96 -694 h-185l96 694q9 62 -3.5 114.5t-54 89t-109.5 36.5q-38 0 -72 -10t-56 -24.5t-38.5 -29t-23.5 -24.5l-7 -10l-117 -836h-184z" />
<glyph unicode="n" horiz-adv-x="1077" d="M123 0l125 899q7 9 19.5 23.5t56 51.5t90.5 65.5t120.5 51.5t149.5 23q101 0 179 -37t121 -97.5t60.5 -134t6.5 -151.5l-97 -694h-184l96 694q13 92 -42.5 166t-164.5 74q-43 0 -82.5 -10t-66 -24.5t-47 -29t-29.5 -24.5l-10 -10l-117 -836h-184z" />
<glyph unicode="o" horiz-adv-x="1126" d="M178 551q16 111 57 209.5t106 179t162.5 127.5t215.5 47q95 0 169.5 -31t118.5 -84.5t71 -125.5t29.5 -153.5t-7.5 -168.5q-15 -111 -55.5 -209.5t-105 -179t-162 -127.5t-216.5 -47q-95 0 -169 31t-118 84.5t-72 125.5t-30.5 153.5t6.5 168.5zM362 551 q-12 -69 -3.5 -137.5t31.5 -123t73.5 -88.5t122.5 -34q73 0 133 33.5t99 89.5t63 121.5t34 138.5q13 69 5.5 137.5t-29.5 123t-73 88.5t-124 34q-72 0 -131.5 -33.5t-99.5 -89.5t-65 -122t-36 -138z" />
<glyph unicode="p" d="M55 -473l221 1575h185l-19 -129q46 57 126 99t171 42q95 0 169.5 -31t118.5 -84.5t71 -125.5t29.5 -153.5t-7.5 -168.5q-12 -88 -39 -168.5t-73 -153.5t-106 -126t-142.5 -84t-177.5 -31q-91 0 -158.5 42.5t-99.5 100.5l-84 -604h-185zM383 551q-12 -69 -3.5 -137.5 t31 -123t73 -88.5t122.5 -34q73 0 133 33.5t99.5 89.5t63.5 122t34 138q13 69 5.5 137.5t-29.5 123t-73 88.5t-124 34q-72 0 -131.5 -33.5t-99.5 -89.5t-65 -122t-36 -138z" />
<glyph unicode="q" d="M178 551q16 112 56.5 210t105.5 178.5t162.5 127.5t216.5 47q91 0 158.5 -42t97.5 -99l18 129h185l-222 -1575h-184l84 604q-45 -58 -124.5 -100.5t-170.5 -42.5q-95 0 -169.5 31t-118.5 84.5t-71.5 125.5t-30 153.5t6.5 168.5zM362 551q-6 -56 -6 -110.5t15.5 -104 t41 -87t70 -59.5t103.5 -22q72 0 131.5 33.5t99 89.5t64 122t34.5 138q6 56 6.5 110.5t-15 104t-41 87t-69.5 59.5t-102 22q-73 0 -133 -33.5t-99.5 -90t-64 -121.5t-35.5 -138z" />
<glyph unicode="r" horiz-adv-x="892" d="M123 0l125 899q7 9 19.5 23.5t56 51.5t90.5 65.5t120.5 51.5t149.5 23q142 0 231 -67l-106 -170q-57 57 -150 57q-43 0 -82.5 -10t-66 -24.5t-47 -29t-29.5 -24.5l-10 -10l-117 -836h-184z" />
<glyph unicode="s" horiz-adv-x="1036" d="M137 102l94 172q186 -106 304 -106q88 0 157.5 36.5t79.5 106.5q14 110 -215 162q-53 14 -98 33t-86.5 48t-69 65t-40.5 85.5t-5 106.5q10 75 51.5 135t101 95.5t128.5 54t141 18.5q89 0 179.5 -26t144.5 -56l-82 -166q-146 68 -267 68q-92 0 -147.5 -35t-63.5 -88 q-4 -33 9.5 -60.5t41.5 -46.5t55.5 -31t61.5 -22q57 -15 100.5 -30t96.5 -43.5t86 -62.5t51.5 -87t9.5 -117q-10 -67 -40.5 -122t-74.5 -91.5t-99.5 -62t-113.5 -36.5t-118 -11q-79 2 -157.5 23t-119.5 40.5t-96 50.5z" />
<glyph unicode="t" horiz-adv-x="831" d="M231 922l25 180h184l39 272h185l-39 -272h258l-25 -180h-258l-86 -613q-9 -62 14.5 -94.5t77.5 -32.5h148l-25 -182h-147q-148 0 -210 86t-42 223l86 613h-185z" />
<glyph unicode="u" horiz-adv-x="1077" d="M178 408l98 694h185l-99 -694q-11 -92 44.5 -166t164.5 -74q43 0 82.5 10t66.5 24.5t47.5 29t30.5 24.5l9 10l117 836h184l-127 -899q-7 -9 -19.5 -23.5t-55.5 -51.5t-90 -65.5t-120 -51.5t-149 -23q-101 0 -179 37t-121.5 97.5t-61 134t-7.5 151.5z" />
<glyph unicode="v" horiz-adv-x="1200" d="M276 1102h193q12 -147 66 -467q53 -307 88 -461q62 108 219 461q143 322 196 467h193q-50 -147 -217 -524q-46 -102 -123 -258t-113 -222q-18 -33 -45.5 -54.5t-56.5 -30t-45.5 -11t-30.5 -2.5t-30 2.5t-43 11t-49.5 30t-31.5 54.5q-25 92 -100 480q-58 354 -70 524z" />
<glyph unicode="w" horiz-adv-x="1646" d="M276 1102h193q13 -158 47 -467q20 -160 55 -420l254 614q12 29 31 50t38.5 29.5t33.5 12t24 3.5t23 -3.5t30 -12t30 -29.5t16 -50q59 -454 82 -614q108 257 174 420q43 108 178 467h192q-112 -307 -198 -520q-153 -384 -213 -484q-61 -98 -162 -98q-64 0 -98 31.5 t-45 74.5q-6 22 -29 219.5t-29 254.5q-1 -3 -30 -77t-60.5 -155t-61.5 -155.5t-36 -86.5q-23 -44 -65.5 -75t-106.5 -31q-100 0 -137 98q-24 83 -78 484q-11 95 -24 225t-20 213z" />
<glyph unicode="x" horiz-adv-x="1196" d="M123 0q41 93 177 293t218 285q-48 78 -107.5 216.5t-107.5 307.5h195q98 -281 192 -432q81 87 152 184t164 248h194q-95 -169 -193.5 -308t-168.5 -216q58 -85 139 -285.5t96 -292.5h-192q-84 281 -217 475q-197 -211 -349 -475h-192z" />
<glyph unicode="y" horiz-adv-x="1118" d="M94 -375l105 162q146 -82 276 -82h29q119 0 203.5 80.5t99.5 198.5l20 145q-100 -141 -268 -141q-85 0 -150 21.5t-106.5 61t-68.5 91t-36.5 116.5t-9 131t10.5 142l77 551h185l-78 -551q-8 -59 -8.5 -110.5t10 -103t33 -88t65 -59t101.5 -22.5q58 0 106.5 26t81 65.5 t57.5 92t38 101.5t20 98l78 551h184l-158 -1118q-28 -206 -167.5 -331.5t-344.5 -125.5h-28q-166 0 -357 98z" />
<glyph unicode="z" horiz-adv-x="1069" d="M174 193l653 727h-555l25 182h682q54 0 82 -31t23.5 -76t-37.5 -86l-654 -727h578l-25 -182h-704q-54 0 -82 31t-23.5 76t37.5 86z" />
<glyph unicode="{" horiz-adv-x="808" d="M193 504l22 160q49 10 90.5 43.5t70.5 83.5t50.5 100.5t36 112t22 100t13.5 80.5q18 129 117 244t259 167l11 -178q-89 -30 -141 -95t-62 -138q-9 -64 -22.5 -129t-40 -157t-69.5 -175.5t-97 -138.5q39 -55 58.5 -138.5t19.5 -176t-5 -157t-14 -128.5q-6 -47 4 -90.5 t44 -83.5t89 -60l-59 -178q-145 52 -212.5 167.5t-49.5 244.5q66 475 -135 520z" />
<glyph unicode="|" horiz-adv-x="497" d="M86 -473l289 2048h190l-289 -2048h-190z" />
<glyph unicode="}" horiz-adv-x="808" d="M86 -250q89 30 141 95.5t62 138.5q9 64 23 129t40 157t69.5 175.5t98.5 138.5q-40 55 -60 138.5t-20 176t5 157t14 128.5q10 73 -23 138t-114 95l59 178q145 -52 212.5 -167t49.5 -244q-5 -35 -8.5 -67t-6 -83.5t-0.5 -94.5t10.5 -91.5t25 -84t45.5 -63t69 -36.5 l-22 -160q-49 -10 -90.5 -43.5t-70.5 -83t-50.5 -100t-36 -111.5t-22 -100.5t-13.5 -81.5q-18 -129 -117.5 -244.5t-259.5 -167.5z" />
<glyph unicode="~" horiz-adv-x="1056" d="M201 563q5 8 14 21.5t39.5 48t63.5 60.5t85 47.5t105 21.5q16 0 31 -2t27.5 -6t23 -8.5t19.5 -10.5t15.5 -11t13 -12t9.5 -10t7 -8l5 -6q13 -19 36 -35t48 -16q34 0 68 25.5t51 51.5l17 25l145 -88q-5 -8 -13.5 -21.5t-38 -47.5t-62.5 -60t-85 -47.5t-106 -21.5 q-94 0 -150 70q-1 2 -2 3q-42 52 -86 52q-34 0 -67.5 -26t-50.5 -52l-17 -25z" />
<glyph unicode="&#xa2;" horiz-adv-x="1081" d="M199 551q14 100 48.5 189.5t88.5 166.5t134 129.5t177 69.5l15 100h186l-12 -98q139 -25 256 -160l-148 -129q-75 84 -135 103l-104 -744q70 24 163 105l111 -129q-152 -135 -301 -160l-14 -98h-187l15 100q-93 16 -159 69t-97.5 128t-42.5 168t6 190zM383 551 q-17 -127 15 -229t120 -138l103 734q-98 -36 -158.5 -138t-79.5 -229z" />
<glyph unicode="&#xa3;" horiz-adv-x="1210" d="M123 0l24 188q58 0 88.5 27.5t34.5 58.5l56 385h-111l25 185h110l47 332q23 164 162 279t311 120h29q227 0 371 -268l-176 -78q-39 76 -96.5 119t-125.5 43h-28q-91 0 -169 -61.5t-91 -153.5l-47 -332h383l-25 -185h-383l-55 -385q-3 -23 -10 -44.5t-13 -31.5l-6 -10h659 l-24 -188h-940z" />
<glyph unicode="&#xa5;" horiz-adv-x="1458" d="M324 1575h208q78 -235 145.5 -407.5t151.5 -331.5q5 -9 15 -9q14 0 18 9q88 109 183.5 245.5t154 227.5t168.5 266h209q-352 -572 -592 -860q-31 -37 -70 -60h330l-24 -184h-330l-12 -82h329l-24 -184h-330l-29 -205h-192l29 205h-328l24 184h328l12 82h-327l24 184h328 q-31 24 -49 60q-167 297 -350 860z" />
<glyph unicode="&#xa9;" horiz-adv-x="1859" d="M233 791q22 163 107 312.5t208.5 257.5t282 172t322.5 64t304 -64t233 -172t136 -257t21 -313q-31 -218 -165.5 -404t-336 -294.5t-419.5 -108.5q-164 0 -304 64t-233 172.5t-136 257.5t-20 313zM426 791q-18 -125 14.5 -239t103 -196.5t178 -131t232.5 -48.5t246 48.5 t215 131t159 196.5t83 239q23 167 -40 309t-193.5 224.5t-297.5 82.5t-320 -82.5t-255 -224.5t-125 -309zM643 793q10 74 33 142t62 129.5t90 107t121 72t151 26.5h22q77 0 145.5 -36t143.5 -110l-149 -135q-87 103 -166 103h-23q-55 0 -99 -26t-72 -70t-45.5 -94.5 t-25.5 -108.5q-10 -56 -5 -110.5t19.5 -97.5t51.5 -69.5t92 -26.5h23q80 0 194 103l111 -133q-96 -74 -175 -111t-155 -37h-22q-81 0 -144 26.5t-100 72t-60 107t-24.5 131.5t6.5 145z" />
<glyph unicode="&#xad;" horiz-adv-x="929" d="M195 518l26 182h684l-26 -182h-684z" />
<glyph unicode="&#xae;" horiz-adv-x="835" d="M281 1280q19 131 124.5 223t235.5 92q131 0 210 -92.5t60 -222.5q-19 -131 -123.5 -223t-234.5 -92q-131 0 -211 92.5t-61 222.5zM336 1278q-15 -109 49.5 -184.5t173.5 -75.5t195.5 75.5t101.5 184.5t-49.5 184.5t-173.5 75.5t-195.5 -75.5t-101.5 -184.5zM457 1104 l51 354h131q47 0 72.5 -30t19.5 -76q-8 -53 -43 -76q27 -24 19 -76l-15 -96h-55l14 96q3 24 -10.5 37.5t-36.5 13.5h-69l-21 -147h-57zM543 1305h73q52 3 58 47q4 24 -7.5 37.5t-35.5 13.5h-74z" />
<glyph unicode="&#xb4;" horiz-adv-x="788" d="M295 1229l360 346h232l-402 -346h-190z" />
<glyph unicode="&#x2000;" horiz-adv-x="861" />
<glyph unicode="&#x2001;" horiz-adv-x="1722" />
<glyph unicode="&#x2002;" horiz-adv-x="861" />
<glyph unicode="&#x2003;" horiz-adv-x="1722" />
<glyph unicode="&#x2004;" horiz-adv-x="574" />
<glyph unicode="&#x2005;" horiz-adv-x="430" />
<glyph unicode="&#x2006;" horiz-adv-x="287" />
<glyph unicode="&#x2007;" horiz-adv-x="287" />
<glyph unicode="&#x2008;" horiz-adv-x="215" />
<glyph unicode="&#x2009;" horiz-adv-x="344" />
<glyph unicode="&#x200a;" horiz-adv-x="95" />
<glyph unicode="&#x2010;" horiz-adv-x="929" d="M195 518l26 182h684l-26 -182h-684z" />
<glyph unicode="&#x2011;" horiz-adv-x="929" d="M195 518l26 182h684l-26 -182h-684z" />
<glyph unicode="&#x2012;" horiz-adv-x="929" d="M195 518l26 182h684l-26 -182h-684z" />
<glyph unicode="&#x2013;" horiz-adv-x="1048" d="M195 520l26 180h803l-27 -180h-802z" />
<glyph unicode="&#x2014;" horiz-adv-x="1550" d="M195 520l26 180h1305l-27 -180h-1304z" />
<glyph unicode="&#x2018;" horiz-adv-x="550" d="M274 1092l220 483h155l-188 -483h-187z" />
<glyph unicode="&#x2019;" horiz-adv-x="550" d="M274 1092l189 483h186l-219 -483h-156z" />
<glyph unicode="&#x201c;" horiz-adv-x="843" d="M274 1092l189 483h186l-219 -483h-156zM567 1092l189 483h186l-219 -483h-156z" />
<glyph unicode="&#x201d;" horiz-adv-x="843" d="M344 1575h186l50 -483h-156zM637 1575h186l49 -483h-155z" />
<glyph unicode="&#x2022;" horiz-adv-x="729" d="M207 606q13 100 94.5 171t181.5 71t160.5 -71t46.5 -171q-13 -100 -93.5 -170.5t-180.5 -70.5t-161 70.5t-48 170.5z" />
<glyph unicode="&#x2026;" horiz-adv-x="1175" d="M139 119q6 49 45.5 84t89.5 35q49 0 79 -34.5t24 -84.5q-8 -50 -47 -84.5t-88 -34.5q-50 0 -80 35t-23 84zM492 119q6 49 45.5 84t89.5 35q49 0 78.5 -34.5t23.5 -84.5q-8 -50 -47 -84.5t-88 -34.5q-50 0 -79.5 35t-22.5 84zM831 119q6 49 46 84t90 35q49 0 78.5 -34.5 t23.5 -84.5q-8 -50 -47 -84.5t-88 -34.5q-50 0 -80 35t-23 84z" />
<glyph unicode="&#x202f;" horiz-adv-x="344" />
<glyph unicode="&#x205f;" horiz-adv-x="430" />
<glyph unicode="&#x20ac;" horiz-adv-x="1372" d="M76 547l24 180h123q5 51 19 123h-123l24 180h146q43 122 107 222t150.5 178t201 121.5t245.5 43.5h31q267 0 422 -194l-162 -131q-107 137 -287 137h-30q-166 0 -287 -103t-188 -274h495l-24 -180h-523q-12 -62 -18 -123h522l-24 -180h-496q9 -83 35 -150.5t70 -119.5 t111.5 -80.5t152.5 -28.5h30q181 0 324 137l125 -131q-209 -194 -475 -194h-31q-131 0 -233.5 43.5t-167 121.5t-100.5 179t-44 223h-145z" />
<glyph unicode="&#x2122;" horiz-adv-x="1101" d="M311 1499l13 76h376l-12 -76h-151l-60 -434h-74l60 434h-152zM686 1065l64 459q4 30 24 43.5t42.5 4t33.5 -37.5l88 -250l158 250q19 28 43.5 37.5t40.5 -4t12 -43.5l-64 -459h-73l49 356q-146 -229 -148 -233q-16 -19 -34 -19q-22 0 -31 19l-82 233l-49 -356h-74z" />
<glyph unicode="&#xe000;" horiz-adv-x="1105" d="M0 0v1106h1106v-1106h-1106z" />
</font>
</defs>
</svg>
